G04 #@! TF.GenerationSoftware,KiCad,Pcbnew,5.1.2-f72e74a~84~ubuntu16.04.1*
G04 #@! TF.CreationDate,2019-06-16T18:40:27+01:00*
G04 #@! TF.ProjectId,TCXOsource,5443584f-736f-4757-9263-652e6b696361,rev?*
G04 #@! TF.SameCoordinates,Original*
G04 #@! TF.FileFunction,Soldermask,Top*
G04 #@! TF.FilePolarity,Negative*
%FSLAX46Y46*%
G04 Gerber Fmt 4.6, Leading zero omitted, Abs format (unit mm)*
G04 Created by KiCad (PCBNEW 5.1.2-f72e74a~84~ubuntu16.04.1) date 2019-06-16 18:40:27*
%MOMM*%
%LPD*%
G04 APERTURE LIST*
%ADD10C,0.100000*%
%ADD11C,1.275000*%
%ADD12R,1.300000X1.900000*%
%ADD13R,1.050000X1.460000*%
%ADD14C,1.900000*%
%ADD15O,3.400000X1.900000*%
%ADD16C,0.990000*%
%ADD17C,2.100000*%
%ADD18O,2.100000X2.400000*%
%ADD19C,3.200000*%
%ADD20R,1.200000X1.300000*%
%ADD21C,2.400000*%
%ADD22R,1.900000X0.800000*%
%ADD23R,1.300000X2.150000*%
%ADD24R,1.460000X1.050000*%
%ADD25C,3.600000*%
%ADD26O,2.300000X2.500000*%
%ADD27R,2.300000X2.500000*%
%ADD28R,1.100000X0.910000*%
%ADD29R,1.900000X0.850000*%
%ADD30R,1.400000X1.400000*%
G04 APERTURE END LIST*
D10*
G36*
X178937493Y-92544535D02*
G01*
X178968435Y-92549125D01*
X178998778Y-92556725D01*
X179028230Y-92567263D01*
X179056508Y-92580638D01*
X179083338Y-92596719D01*
X179108463Y-92615353D01*
X179131640Y-92636360D01*
X179152647Y-92659537D01*
X179171281Y-92684662D01*
X179187362Y-92711492D01*
X179200737Y-92739770D01*
X179211275Y-92769222D01*
X179218875Y-92799565D01*
X179223465Y-92830507D01*
X179225000Y-92861750D01*
X179225000Y-93574250D01*
X179223465Y-93605493D01*
X179218875Y-93636435D01*
X179211275Y-93666778D01*
X179200737Y-93696230D01*
X179187362Y-93724508D01*
X179171281Y-93751338D01*
X179152647Y-93776463D01*
X179131640Y-93799640D01*
X179108463Y-93820647D01*
X179083338Y-93839281D01*
X179056508Y-93855362D01*
X179028230Y-93868737D01*
X178998778Y-93879275D01*
X178968435Y-93886875D01*
X178937493Y-93891465D01*
X178906250Y-93893000D01*
X178268750Y-93893000D01*
X178237507Y-93891465D01*
X178206565Y-93886875D01*
X178176222Y-93879275D01*
X178146770Y-93868737D01*
X178118492Y-93855362D01*
X178091662Y-93839281D01*
X178066537Y-93820647D01*
X178043360Y-93799640D01*
X178022353Y-93776463D01*
X178003719Y-93751338D01*
X177987638Y-93724508D01*
X177974263Y-93696230D01*
X177963725Y-93666778D01*
X177956125Y-93636435D01*
X177951535Y-93605493D01*
X177950000Y-93574250D01*
X177950000Y-92861750D01*
X177951535Y-92830507D01*
X177956125Y-92799565D01*
X177963725Y-92769222D01*
X177974263Y-92739770D01*
X177987638Y-92711492D01*
X178003719Y-92684662D01*
X178022353Y-92659537D01*
X178043360Y-92636360D01*
X178066537Y-92615353D01*
X178091662Y-92596719D01*
X178118492Y-92580638D01*
X178146770Y-92567263D01*
X178176222Y-92556725D01*
X178206565Y-92549125D01*
X178237507Y-92544535D01*
X178268750Y-92543000D01*
X178906250Y-92543000D01*
X178937493Y-92544535D01*
X178937493Y-92544535D01*
G37*
D11*
X178587500Y-93218000D03*
D10*
G36*
X177362493Y-92544535D02*
G01*
X177393435Y-92549125D01*
X177423778Y-92556725D01*
X177453230Y-92567263D01*
X177481508Y-92580638D01*
X177508338Y-92596719D01*
X177533463Y-92615353D01*
X177556640Y-92636360D01*
X177577647Y-92659537D01*
X177596281Y-92684662D01*
X177612362Y-92711492D01*
X177625737Y-92739770D01*
X177636275Y-92769222D01*
X177643875Y-92799565D01*
X177648465Y-92830507D01*
X177650000Y-92861750D01*
X177650000Y-93574250D01*
X177648465Y-93605493D01*
X177643875Y-93636435D01*
X177636275Y-93666778D01*
X177625737Y-93696230D01*
X177612362Y-93724508D01*
X177596281Y-93751338D01*
X177577647Y-93776463D01*
X177556640Y-93799640D01*
X177533463Y-93820647D01*
X177508338Y-93839281D01*
X177481508Y-93855362D01*
X177453230Y-93868737D01*
X177423778Y-93879275D01*
X177393435Y-93886875D01*
X177362493Y-93891465D01*
X177331250Y-93893000D01*
X176693750Y-93893000D01*
X176662507Y-93891465D01*
X176631565Y-93886875D01*
X176601222Y-93879275D01*
X176571770Y-93868737D01*
X176543492Y-93855362D01*
X176516662Y-93839281D01*
X176491537Y-93820647D01*
X176468360Y-93799640D01*
X176447353Y-93776463D01*
X176428719Y-93751338D01*
X176412638Y-93724508D01*
X176399263Y-93696230D01*
X176388725Y-93666778D01*
X176381125Y-93636435D01*
X176376535Y-93605493D01*
X176375000Y-93574250D01*
X176375000Y-92861750D01*
X176376535Y-92830507D01*
X176381125Y-92799565D01*
X176388725Y-92769222D01*
X176399263Y-92739770D01*
X176412638Y-92711492D01*
X176428719Y-92684662D01*
X176447353Y-92659537D01*
X176468360Y-92636360D01*
X176491537Y-92615353D01*
X176516662Y-92596719D01*
X176543492Y-92580638D01*
X176571770Y-92567263D01*
X176601222Y-92556725D01*
X176631565Y-92549125D01*
X176662507Y-92544535D01*
X176693750Y-92543000D01*
X177331250Y-92543000D01*
X177362493Y-92544535D01*
X177362493Y-92544535D01*
G37*
D11*
X177012500Y-93218000D03*
D10*
G36*
X206369493Y-105498535D02*
G01*
X206400435Y-105503125D01*
X206430778Y-105510725D01*
X206460230Y-105521263D01*
X206488508Y-105534638D01*
X206515338Y-105550719D01*
X206540463Y-105569353D01*
X206563640Y-105590360D01*
X206584647Y-105613537D01*
X206603281Y-105638662D01*
X206619362Y-105665492D01*
X206632737Y-105693770D01*
X206643275Y-105723222D01*
X206650875Y-105753565D01*
X206655465Y-105784507D01*
X206657000Y-105815750D01*
X206657000Y-106528250D01*
X206655465Y-106559493D01*
X206650875Y-106590435D01*
X206643275Y-106620778D01*
X206632737Y-106650230D01*
X206619362Y-106678508D01*
X206603281Y-106705338D01*
X206584647Y-106730463D01*
X206563640Y-106753640D01*
X206540463Y-106774647D01*
X206515338Y-106793281D01*
X206488508Y-106809362D01*
X206460230Y-106822737D01*
X206430778Y-106833275D01*
X206400435Y-106840875D01*
X206369493Y-106845465D01*
X206338250Y-106847000D01*
X205700750Y-106847000D01*
X205669507Y-106845465D01*
X205638565Y-106840875D01*
X205608222Y-106833275D01*
X205578770Y-106822737D01*
X205550492Y-106809362D01*
X205523662Y-106793281D01*
X205498537Y-106774647D01*
X205475360Y-106753640D01*
X205454353Y-106730463D01*
X205435719Y-106705338D01*
X205419638Y-106678508D01*
X205406263Y-106650230D01*
X205395725Y-106620778D01*
X205388125Y-106590435D01*
X205383535Y-106559493D01*
X205382000Y-106528250D01*
X205382000Y-105815750D01*
X205383535Y-105784507D01*
X205388125Y-105753565D01*
X205395725Y-105723222D01*
X205406263Y-105693770D01*
X205419638Y-105665492D01*
X205435719Y-105638662D01*
X205454353Y-105613537D01*
X205475360Y-105590360D01*
X205498537Y-105569353D01*
X205523662Y-105550719D01*
X205550492Y-105534638D01*
X205578770Y-105521263D01*
X205608222Y-105510725D01*
X205638565Y-105503125D01*
X205669507Y-105498535D01*
X205700750Y-105497000D01*
X206338250Y-105497000D01*
X206369493Y-105498535D01*
X206369493Y-105498535D01*
G37*
D11*
X206019500Y-106172000D03*
D10*
G36*
X204794493Y-105498535D02*
G01*
X204825435Y-105503125D01*
X204855778Y-105510725D01*
X204885230Y-105521263D01*
X204913508Y-105534638D01*
X204940338Y-105550719D01*
X204965463Y-105569353D01*
X204988640Y-105590360D01*
X205009647Y-105613537D01*
X205028281Y-105638662D01*
X205044362Y-105665492D01*
X205057737Y-105693770D01*
X205068275Y-105723222D01*
X205075875Y-105753565D01*
X205080465Y-105784507D01*
X205082000Y-105815750D01*
X205082000Y-106528250D01*
X205080465Y-106559493D01*
X205075875Y-106590435D01*
X205068275Y-106620778D01*
X205057737Y-106650230D01*
X205044362Y-106678508D01*
X205028281Y-106705338D01*
X205009647Y-106730463D01*
X204988640Y-106753640D01*
X204965463Y-106774647D01*
X204940338Y-106793281D01*
X204913508Y-106809362D01*
X204885230Y-106822737D01*
X204855778Y-106833275D01*
X204825435Y-106840875D01*
X204794493Y-106845465D01*
X204763250Y-106847000D01*
X204125750Y-106847000D01*
X204094507Y-106845465D01*
X204063565Y-106840875D01*
X204033222Y-106833275D01*
X204003770Y-106822737D01*
X203975492Y-106809362D01*
X203948662Y-106793281D01*
X203923537Y-106774647D01*
X203900360Y-106753640D01*
X203879353Y-106730463D01*
X203860719Y-106705338D01*
X203844638Y-106678508D01*
X203831263Y-106650230D01*
X203820725Y-106620778D01*
X203813125Y-106590435D01*
X203808535Y-106559493D01*
X203807000Y-106528250D01*
X203807000Y-105815750D01*
X203808535Y-105784507D01*
X203813125Y-105753565D01*
X203820725Y-105723222D01*
X203831263Y-105693770D01*
X203844638Y-105665492D01*
X203860719Y-105638662D01*
X203879353Y-105613537D01*
X203900360Y-105590360D01*
X203923537Y-105569353D01*
X203948662Y-105550719D01*
X203975492Y-105534638D01*
X204003770Y-105521263D01*
X204033222Y-105510725D01*
X204063565Y-105503125D01*
X204094507Y-105498535D01*
X204125750Y-105497000D01*
X204763250Y-105497000D01*
X204794493Y-105498535D01*
X204794493Y-105498535D01*
G37*
D11*
X204444500Y-106172000D03*
D12*
X171030000Y-93472000D03*
X169330000Y-93472000D03*
X171030000Y-96572000D03*
X169330000Y-96572000D03*
D10*
G36*
X161931493Y-96671535D02*
G01*
X161962435Y-96676125D01*
X161992778Y-96683725D01*
X162022230Y-96694263D01*
X162050508Y-96707638D01*
X162077338Y-96723719D01*
X162102463Y-96742353D01*
X162125640Y-96763360D01*
X162146647Y-96786537D01*
X162165281Y-96811662D01*
X162181362Y-96838492D01*
X162194737Y-96866770D01*
X162205275Y-96896222D01*
X162212875Y-96926565D01*
X162217465Y-96957507D01*
X162219000Y-96988750D01*
X162219000Y-97626250D01*
X162217465Y-97657493D01*
X162212875Y-97688435D01*
X162205275Y-97718778D01*
X162194737Y-97748230D01*
X162181362Y-97776508D01*
X162165281Y-97803338D01*
X162146647Y-97828463D01*
X162125640Y-97851640D01*
X162102463Y-97872647D01*
X162077338Y-97891281D01*
X162050508Y-97907362D01*
X162022230Y-97920737D01*
X161992778Y-97931275D01*
X161962435Y-97938875D01*
X161931493Y-97943465D01*
X161900250Y-97945000D01*
X161187750Y-97945000D01*
X161156507Y-97943465D01*
X161125565Y-97938875D01*
X161095222Y-97931275D01*
X161065770Y-97920737D01*
X161037492Y-97907362D01*
X161010662Y-97891281D01*
X160985537Y-97872647D01*
X160962360Y-97851640D01*
X160941353Y-97828463D01*
X160922719Y-97803338D01*
X160906638Y-97776508D01*
X160893263Y-97748230D01*
X160882725Y-97718778D01*
X160875125Y-97688435D01*
X160870535Y-97657493D01*
X160869000Y-97626250D01*
X160869000Y-96988750D01*
X160870535Y-96957507D01*
X160875125Y-96926565D01*
X160882725Y-96896222D01*
X160893263Y-96866770D01*
X160906638Y-96838492D01*
X160922719Y-96811662D01*
X160941353Y-96786537D01*
X160962360Y-96763360D01*
X160985537Y-96742353D01*
X161010662Y-96723719D01*
X161037492Y-96707638D01*
X161065770Y-96694263D01*
X161095222Y-96683725D01*
X161125565Y-96676125D01*
X161156507Y-96671535D01*
X161187750Y-96670000D01*
X161900250Y-96670000D01*
X161931493Y-96671535D01*
X161931493Y-96671535D01*
G37*
D11*
X161544000Y-97307500D03*
D10*
G36*
X161931493Y-95096535D02*
G01*
X161962435Y-95101125D01*
X161992778Y-95108725D01*
X162022230Y-95119263D01*
X162050508Y-95132638D01*
X162077338Y-95148719D01*
X162102463Y-95167353D01*
X162125640Y-95188360D01*
X162146647Y-95211537D01*
X162165281Y-95236662D01*
X162181362Y-95263492D01*
X162194737Y-95291770D01*
X162205275Y-95321222D01*
X162212875Y-95351565D01*
X162217465Y-95382507D01*
X162219000Y-95413750D01*
X162219000Y-96051250D01*
X162217465Y-96082493D01*
X162212875Y-96113435D01*
X162205275Y-96143778D01*
X162194737Y-96173230D01*
X162181362Y-96201508D01*
X162165281Y-96228338D01*
X162146647Y-96253463D01*
X162125640Y-96276640D01*
X162102463Y-96297647D01*
X162077338Y-96316281D01*
X162050508Y-96332362D01*
X162022230Y-96345737D01*
X161992778Y-96356275D01*
X161962435Y-96363875D01*
X161931493Y-96368465D01*
X161900250Y-96370000D01*
X161187750Y-96370000D01*
X161156507Y-96368465D01*
X161125565Y-96363875D01*
X161095222Y-96356275D01*
X161065770Y-96345737D01*
X161037492Y-96332362D01*
X161010662Y-96316281D01*
X160985537Y-96297647D01*
X160962360Y-96276640D01*
X160941353Y-96253463D01*
X160922719Y-96228338D01*
X160906638Y-96201508D01*
X160893263Y-96173230D01*
X160882725Y-96143778D01*
X160875125Y-96113435D01*
X160870535Y-96082493D01*
X160869000Y-96051250D01*
X160869000Y-95413750D01*
X160870535Y-95382507D01*
X160875125Y-95351565D01*
X160882725Y-95321222D01*
X160893263Y-95291770D01*
X160906638Y-95263492D01*
X160922719Y-95236662D01*
X160941353Y-95211537D01*
X160962360Y-95188360D01*
X160985537Y-95167353D01*
X161010662Y-95148719D01*
X161037492Y-95132638D01*
X161065770Y-95119263D01*
X161095222Y-95108725D01*
X161125565Y-95101125D01*
X161156507Y-95096535D01*
X161187750Y-95095000D01*
X161900250Y-95095000D01*
X161931493Y-95096535D01*
X161931493Y-95096535D01*
G37*
D11*
X161544000Y-95732500D03*
D12*
X169330000Y-104700000D03*
X171030000Y-104700000D03*
X169330000Y-101600000D03*
X171030000Y-101600000D03*
D10*
G36*
X162122493Y-99910535D02*
G01*
X162153435Y-99915125D01*
X162183778Y-99922725D01*
X162213230Y-99933263D01*
X162241508Y-99946638D01*
X162268338Y-99962719D01*
X162293463Y-99981353D01*
X162316640Y-100002360D01*
X162337647Y-100025537D01*
X162356281Y-100050662D01*
X162372362Y-100077492D01*
X162385737Y-100105770D01*
X162396275Y-100135222D01*
X162403875Y-100165565D01*
X162408465Y-100196507D01*
X162410000Y-100227750D01*
X162410000Y-100940250D01*
X162408465Y-100971493D01*
X162403875Y-101002435D01*
X162396275Y-101032778D01*
X162385737Y-101062230D01*
X162372362Y-101090508D01*
X162356281Y-101117338D01*
X162337647Y-101142463D01*
X162316640Y-101165640D01*
X162293463Y-101186647D01*
X162268338Y-101205281D01*
X162241508Y-101221362D01*
X162213230Y-101234737D01*
X162183778Y-101245275D01*
X162153435Y-101252875D01*
X162122493Y-101257465D01*
X162091250Y-101259000D01*
X161453750Y-101259000D01*
X161422507Y-101257465D01*
X161391565Y-101252875D01*
X161361222Y-101245275D01*
X161331770Y-101234737D01*
X161303492Y-101221362D01*
X161276662Y-101205281D01*
X161251537Y-101186647D01*
X161228360Y-101165640D01*
X161207353Y-101142463D01*
X161188719Y-101117338D01*
X161172638Y-101090508D01*
X161159263Y-101062230D01*
X161148725Y-101032778D01*
X161141125Y-101002435D01*
X161136535Y-100971493D01*
X161135000Y-100940250D01*
X161135000Y-100227750D01*
X161136535Y-100196507D01*
X161141125Y-100165565D01*
X161148725Y-100135222D01*
X161159263Y-100105770D01*
X161172638Y-100077492D01*
X161188719Y-100050662D01*
X161207353Y-100025537D01*
X161228360Y-100002360D01*
X161251537Y-99981353D01*
X161276662Y-99962719D01*
X161303492Y-99946638D01*
X161331770Y-99933263D01*
X161361222Y-99922725D01*
X161391565Y-99915125D01*
X161422507Y-99910535D01*
X161453750Y-99909000D01*
X162091250Y-99909000D01*
X162122493Y-99910535D01*
X162122493Y-99910535D01*
G37*
D11*
X161772500Y-100584000D03*
D10*
G36*
X163697493Y-99910535D02*
G01*
X163728435Y-99915125D01*
X163758778Y-99922725D01*
X163788230Y-99933263D01*
X163816508Y-99946638D01*
X163843338Y-99962719D01*
X163868463Y-99981353D01*
X163891640Y-100002360D01*
X163912647Y-100025537D01*
X163931281Y-100050662D01*
X163947362Y-100077492D01*
X163960737Y-100105770D01*
X163971275Y-100135222D01*
X163978875Y-100165565D01*
X163983465Y-100196507D01*
X163985000Y-100227750D01*
X163985000Y-100940250D01*
X163983465Y-100971493D01*
X163978875Y-101002435D01*
X163971275Y-101032778D01*
X163960737Y-101062230D01*
X163947362Y-101090508D01*
X163931281Y-101117338D01*
X163912647Y-101142463D01*
X163891640Y-101165640D01*
X163868463Y-101186647D01*
X163843338Y-101205281D01*
X163816508Y-101221362D01*
X163788230Y-101234737D01*
X163758778Y-101245275D01*
X163728435Y-101252875D01*
X163697493Y-101257465D01*
X163666250Y-101259000D01*
X163028750Y-101259000D01*
X162997507Y-101257465D01*
X162966565Y-101252875D01*
X162936222Y-101245275D01*
X162906770Y-101234737D01*
X162878492Y-101221362D01*
X162851662Y-101205281D01*
X162826537Y-101186647D01*
X162803360Y-101165640D01*
X162782353Y-101142463D01*
X162763719Y-101117338D01*
X162747638Y-101090508D01*
X162734263Y-101062230D01*
X162723725Y-101032778D01*
X162716125Y-101002435D01*
X162711535Y-100971493D01*
X162710000Y-100940250D01*
X162710000Y-100227750D01*
X162711535Y-100196507D01*
X162716125Y-100165565D01*
X162723725Y-100135222D01*
X162734263Y-100105770D01*
X162747638Y-100077492D01*
X162763719Y-100050662D01*
X162782353Y-100025537D01*
X162803360Y-100002360D01*
X162826537Y-99981353D01*
X162851662Y-99962719D01*
X162878492Y-99946638D01*
X162906770Y-99933263D01*
X162936222Y-99922725D01*
X162966565Y-99915125D01*
X162997507Y-99910535D01*
X163028750Y-99909000D01*
X163666250Y-99909000D01*
X163697493Y-99910535D01*
X163697493Y-99910535D01*
G37*
D11*
X163347500Y-100584000D03*
D10*
G36*
X166719993Y-99910535D02*
G01*
X166750935Y-99915125D01*
X166781278Y-99922725D01*
X166810730Y-99933263D01*
X166839008Y-99946638D01*
X166865838Y-99962719D01*
X166890963Y-99981353D01*
X166914140Y-100002360D01*
X166935147Y-100025537D01*
X166953781Y-100050662D01*
X166969862Y-100077492D01*
X166983237Y-100105770D01*
X166993775Y-100135222D01*
X167001375Y-100165565D01*
X167005965Y-100196507D01*
X167007500Y-100227750D01*
X167007500Y-100940250D01*
X167005965Y-100971493D01*
X167001375Y-101002435D01*
X166993775Y-101032778D01*
X166983237Y-101062230D01*
X166969862Y-101090508D01*
X166953781Y-101117338D01*
X166935147Y-101142463D01*
X166914140Y-101165640D01*
X166890963Y-101186647D01*
X166865838Y-101205281D01*
X166839008Y-101221362D01*
X166810730Y-101234737D01*
X166781278Y-101245275D01*
X166750935Y-101252875D01*
X166719993Y-101257465D01*
X166688750Y-101259000D01*
X166051250Y-101259000D01*
X166020007Y-101257465D01*
X165989065Y-101252875D01*
X165958722Y-101245275D01*
X165929270Y-101234737D01*
X165900992Y-101221362D01*
X165874162Y-101205281D01*
X165849037Y-101186647D01*
X165825860Y-101165640D01*
X165804853Y-101142463D01*
X165786219Y-101117338D01*
X165770138Y-101090508D01*
X165756763Y-101062230D01*
X165746225Y-101032778D01*
X165738625Y-101002435D01*
X165734035Y-100971493D01*
X165732500Y-100940250D01*
X165732500Y-100227750D01*
X165734035Y-100196507D01*
X165738625Y-100165565D01*
X165746225Y-100135222D01*
X165756763Y-100105770D01*
X165770138Y-100077492D01*
X165786219Y-100050662D01*
X165804853Y-100025537D01*
X165825860Y-100002360D01*
X165849037Y-99981353D01*
X165874162Y-99962719D01*
X165900992Y-99946638D01*
X165929270Y-99933263D01*
X165958722Y-99922725D01*
X165989065Y-99915125D01*
X166020007Y-99910535D01*
X166051250Y-99909000D01*
X166688750Y-99909000D01*
X166719993Y-99910535D01*
X166719993Y-99910535D01*
G37*
D11*
X166370000Y-100584000D03*
D10*
G36*
X165144993Y-99910535D02*
G01*
X165175935Y-99915125D01*
X165206278Y-99922725D01*
X165235730Y-99933263D01*
X165264008Y-99946638D01*
X165290838Y-99962719D01*
X165315963Y-99981353D01*
X165339140Y-100002360D01*
X165360147Y-100025537D01*
X165378781Y-100050662D01*
X165394862Y-100077492D01*
X165408237Y-100105770D01*
X165418775Y-100135222D01*
X165426375Y-100165565D01*
X165430965Y-100196507D01*
X165432500Y-100227750D01*
X165432500Y-100940250D01*
X165430965Y-100971493D01*
X165426375Y-101002435D01*
X165418775Y-101032778D01*
X165408237Y-101062230D01*
X165394862Y-101090508D01*
X165378781Y-101117338D01*
X165360147Y-101142463D01*
X165339140Y-101165640D01*
X165315963Y-101186647D01*
X165290838Y-101205281D01*
X165264008Y-101221362D01*
X165235730Y-101234737D01*
X165206278Y-101245275D01*
X165175935Y-101252875D01*
X165144993Y-101257465D01*
X165113750Y-101259000D01*
X164476250Y-101259000D01*
X164445007Y-101257465D01*
X164414065Y-101252875D01*
X164383722Y-101245275D01*
X164354270Y-101234737D01*
X164325992Y-101221362D01*
X164299162Y-101205281D01*
X164274037Y-101186647D01*
X164250860Y-101165640D01*
X164229853Y-101142463D01*
X164211219Y-101117338D01*
X164195138Y-101090508D01*
X164181763Y-101062230D01*
X164171225Y-101032778D01*
X164163625Y-101002435D01*
X164159035Y-100971493D01*
X164157500Y-100940250D01*
X164157500Y-100227750D01*
X164159035Y-100196507D01*
X164163625Y-100165565D01*
X164171225Y-100135222D01*
X164181763Y-100105770D01*
X164195138Y-100077492D01*
X164211219Y-100050662D01*
X164229853Y-100025537D01*
X164250860Y-100002360D01*
X164274037Y-99981353D01*
X164299162Y-99962719D01*
X164325992Y-99946638D01*
X164354270Y-99933263D01*
X164383722Y-99922725D01*
X164414065Y-99915125D01*
X164445007Y-99910535D01*
X164476250Y-99909000D01*
X165113750Y-99909000D01*
X165144993Y-99910535D01*
X165144993Y-99910535D01*
G37*
D11*
X164795000Y-100584000D03*
D13*
X162880000Y-98128000D03*
X163830000Y-98128000D03*
X164780000Y-98128000D03*
X164780000Y-95928000D03*
X162880000Y-95928000D03*
X163830000Y-95928000D03*
D14*
X155448000Y-101310000D03*
X155448000Y-96810000D03*
X157548000Y-100060000D03*
X157548000Y-98060000D03*
X157548000Y-102560000D03*
X157548000Y-95560000D03*
D15*
X155448000Y-104760000D03*
X155448000Y-93360000D03*
D10*
G36*
X172091493Y-114985035D02*
G01*
X172122435Y-114989625D01*
X172152778Y-114997225D01*
X172182230Y-115007763D01*
X172210508Y-115021138D01*
X172237338Y-115037219D01*
X172262463Y-115055853D01*
X172285640Y-115076860D01*
X172306647Y-115100037D01*
X172325281Y-115125162D01*
X172341362Y-115151992D01*
X172354737Y-115180270D01*
X172365275Y-115209722D01*
X172372875Y-115240065D01*
X172377465Y-115271007D01*
X172379000Y-115302250D01*
X172379000Y-115939750D01*
X172377465Y-115970993D01*
X172372875Y-116001935D01*
X172365275Y-116032278D01*
X172354737Y-116061730D01*
X172341362Y-116090008D01*
X172325281Y-116116838D01*
X172306647Y-116141963D01*
X172285640Y-116165140D01*
X172262463Y-116186147D01*
X172237338Y-116204781D01*
X172210508Y-116220862D01*
X172182230Y-116234237D01*
X172152778Y-116244775D01*
X172122435Y-116252375D01*
X172091493Y-116256965D01*
X172060250Y-116258500D01*
X171347750Y-116258500D01*
X171316507Y-116256965D01*
X171285565Y-116252375D01*
X171255222Y-116244775D01*
X171225770Y-116234237D01*
X171197492Y-116220862D01*
X171170662Y-116204781D01*
X171145537Y-116186147D01*
X171122360Y-116165140D01*
X171101353Y-116141963D01*
X171082719Y-116116838D01*
X171066638Y-116090008D01*
X171053263Y-116061730D01*
X171042725Y-116032278D01*
X171035125Y-116001935D01*
X171030535Y-115970993D01*
X171029000Y-115939750D01*
X171029000Y-115302250D01*
X171030535Y-115271007D01*
X171035125Y-115240065D01*
X171042725Y-115209722D01*
X171053263Y-115180270D01*
X171066638Y-115151992D01*
X171082719Y-115125162D01*
X171101353Y-115100037D01*
X171122360Y-115076860D01*
X171145537Y-115055853D01*
X171170662Y-115037219D01*
X171197492Y-115021138D01*
X171225770Y-115007763D01*
X171255222Y-114997225D01*
X171285565Y-114989625D01*
X171316507Y-114985035D01*
X171347750Y-114983500D01*
X172060250Y-114983500D01*
X172091493Y-114985035D01*
X172091493Y-114985035D01*
G37*
D11*
X171704000Y-115621000D03*
D10*
G36*
X172091493Y-113410035D02*
G01*
X172122435Y-113414625D01*
X172152778Y-113422225D01*
X172182230Y-113432763D01*
X172210508Y-113446138D01*
X172237338Y-113462219D01*
X172262463Y-113480853D01*
X172285640Y-113501860D01*
X172306647Y-113525037D01*
X172325281Y-113550162D01*
X172341362Y-113576992D01*
X172354737Y-113605270D01*
X172365275Y-113634722D01*
X172372875Y-113665065D01*
X172377465Y-113696007D01*
X172379000Y-113727250D01*
X172379000Y-114364750D01*
X172377465Y-114395993D01*
X172372875Y-114426935D01*
X172365275Y-114457278D01*
X172354737Y-114486730D01*
X172341362Y-114515008D01*
X172325281Y-114541838D01*
X172306647Y-114566963D01*
X172285640Y-114590140D01*
X172262463Y-114611147D01*
X172237338Y-114629781D01*
X172210508Y-114645862D01*
X172182230Y-114659237D01*
X172152778Y-114669775D01*
X172122435Y-114677375D01*
X172091493Y-114681965D01*
X172060250Y-114683500D01*
X171347750Y-114683500D01*
X171316507Y-114681965D01*
X171285565Y-114677375D01*
X171255222Y-114669775D01*
X171225770Y-114659237D01*
X171197492Y-114645862D01*
X171170662Y-114629781D01*
X171145537Y-114611147D01*
X171122360Y-114590140D01*
X171101353Y-114566963D01*
X171082719Y-114541838D01*
X171066638Y-114515008D01*
X171053263Y-114486730D01*
X171042725Y-114457278D01*
X171035125Y-114426935D01*
X171030535Y-114395993D01*
X171029000Y-114364750D01*
X171029000Y-113727250D01*
X171030535Y-113696007D01*
X171035125Y-113665065D01*
X171042725Y-113634722D01*
X171053263Y-113605270D01*
X171066638Y-113576992D01*
X171082719Y-113550162D01*
X171101353Y-113525037D01*
X171122360Y-113501860D01*
X171145537Y-113480853D01*
X171170662Y-113462219D01*
X171197492Y-113446138D01*
X171225770Y-113432763D01*
X171255222Y-113422225D01*
X171285565Y-113414625D01*
X171316507Y-113410035D01*
X171347750Y-113408500D01*
X172060250Y-113408500D01*
X172091493Y-113410035D01*
X172091493Y-113410035D01*
G37*
D11*
X171704000Y-114046000D03*
D10*
G36*
X167682759Y-113275192D02*
G01*
X167706785Y-113278756D01*
X167730345Y-113284657D01*
X167753214Y-113292840D01*
X167775171Y-113303224D01*
X167796004Y-113315711D01*
X167815512Y-113330180D01*
X167833509Y-113346491D01*
X167849820Y-113364488D01*
X167864289Y-113383996D01*
X167876776Y-113404829D01*
X167887160Y-113426786D01*
X167895343Y-113449655D01*
X167901244Y-113473215D01*
X167904808Y-113497241D01*
X167906000Y-113521500D01*
X167906000Y-114016500D01*
X167904808Y-114040759D01*
X167901244Y-114064785D01*
X167895343Y-114088345D01*
X167887160Y-114111214D01*
X167876776Y-114133171D01*
X167864289Y-114154004D01*
X167849820Y-114173512D01*
X167833509Y-114191509D01*
X167815512Y-114207820D01*
X167796004Y-114222289D01*
X167775171Y-114234776D01*
X167753214Y-114245160D01*
X167730345Y-114253343D01*
X167706785Y-114259244D01*
X167682759Y-114262808D01*
X167658500Y-114264000D01*
X167113500Y-114264000D01*
X167089241Y-114262808D01*
X167065215Y-114259244D01*
X167041655Y-114253343D01*
X167018786Y-114245160D01*
X166996829Y-114234776D01*
X166975996Y-114222289D01*
X166956488Y-114207820D01*
X166938491Y-114191509D01*
X166922180Y-114173512D01*
X166907711Y-114154004D01*
X166895224Y-114133171D01*
X166884840Y-114111214D01*
X166876657Y-114088345D01*
X166870756Y-114064785D01*
X166867192Y-114040759D01*
X166866000Y-114016500D01*
X166866000Y-113521500D01*
X166867192Y-113497241D01*
X166870756Y-113473215D01*
X166876657Y-113449655D01*
X166884840Y-113426786D01*
X166895224Y-113404829D01*
X166907711Y-113383996D01*
X166922180Y-113364488D01*
X166938491Y-113346491D01*
X166956488Y-113330180D01*
X166975996Y-113315711D01*
X166996829Y-113303224D01*
X167018786Y-113292840D01*
X167041655Y-113284657D01*
X167065215Y-113278756D01*
X167089241Y-113275192D01*
X167113500Y-113274000D01*
X167658500Y-113274000D01*
X167682759Y-113275192D01*
X167682759Y-113275192D01*
G37*
D16*
X167386000Y-113769000D03*
D10*
G36*
X167682759Y-112305192D02*
G01*
X167706785Y-112308756D01*
X167730345Y-112314657D01*
X167753214Y-112322840D01*
X167775171Y-112333224D01*
X167796004Y-112345711D01*
X167815512Y-112360180D01*
X167833509Y-112376491D01*
X167849820Y-112394488D01*
X167864289Y-112413996D01*
X167876776Y-112434829D01*
X167887160Y-112456786D01*
X167895343Y-112479655D01*
X167901244Y-112503215D01*
X167904808Y-112527241D01*
X167906000Y-112551500D01*
X167906000Y-113046500D01*
X167904808Y-113070759D01*
X167901244Y-113094785D01*
X167895343Y-113118345D01*
X167887160Y-113141214D01*
X167876776Y-113163171D01*
X167864289Y-113184004D01*
X167849820Y-113203512D01*
X167833509Y-113221509D01*
X167815512Y-113237820D01*
X167796004Y-113252289D01*
X167775171Y-113264776D01*
X167753214Y-113275160D01*
X167730345Y-113283343D01*
X167706785Y-113289244D01*
X167682759Y-113292808D01*
X167658500Y-113294000D01*
X167113500Y-113294000D01*
X167089241Y-113292808D01*
X167065215Y-113289244D01*
X167041655Y-113283343D01*
X167018786Y-113275160D01*
X166996829Y-113264776D01*
X166975996Y-113252289D01*
X166956488Y-113237820D01*
X166938491Y-113221509D01*
X166922180Y-113203512D01*
X166907711Y-113184004D01*
X166895224Y-113163171D01*
X166884840Y-113141214D01*
X166876657Y-113118345D01*
X166870756Y-113094785D01*
X166867192Y-113070759D01*
X166866000Y-113046500D01*
X166866000Y-112551500D01*
X166867192Y-112527241D01*
X166870756Y-112503215D01*
X166876657Y-112479655D01*
X166884840Y-112456786D01*
X166895224Y-112434829D01*
X166907711Y-112413996D01*
X166922180Y-112394488D01*
X166938491Y-112376491D01*
X166956488Y-112360180D01*
X166975996Y-112345711D01*
X166996829Y-112333224D01*
X167018786Y-112322840D01*
X167041655Y-112314657D01*
X167065215Y-112308756D01*
X167089241Y-112305192D01*
X167113500Y-112304000D01*
X167658500Y-112304000D01*
X167682759Y-112305192D01*
X167682759Y-112305192D01*
G37*
D16*
X167386000Y-112799000D03*
D10*
G36*
X173323993Y-107784535D02*
G01*
X173354935Y-107789125D01*
X173385278Y-107796725D01*
X173414730Y-107807263D01*
X173443008Y-107820638D01*
X173469838Y-107836719D01*
X173494963Y-107855353D01*
X173518140Y-107876360D01*
X173539147Y-107899537D01*
X173557781Y-107924662D01*
X173573862Y-107951492D01*
X173587237Y-107979770D01*
X173597775Y-108009222D01*
X173605375Y-108039565D01*
X173609965Y-108070507D01*
X173611500Y-108101750D01*
X173611500Y-108814250D01*
X173609965Y-108845493D01*
X173605375Y-108876435D01*
X173597775Y-108906778D01*
X173587237Y-108936230D01*
X173573862Y-108964508D01*
X173557781Y-108991338D01*
X173539147Y-109016463D01*
X173518140Y-109039640D01*
X173494963Y-109060647D01*
X173469838Y-109079281D01*
X173443008Y-109095362D01*
X173414730Y-109108737D01*
X173385278Y-109119275D01*
X173354935Y-109126875D01*
X173323993Y-109131465D01*
X173292750Y-109133000D01*
X172655250Y-109133000D01*
X172624007Y-109131465D01*
X172593065Y-109126875D01*
X172562722Y-109119275D01*
X172533270Y-109108737D01*
X172504992Y-109095362D01*
X172478162Y-109079281D01*
X172453037Y-109060647D01*
X172429860Y-109039640D01*
X172408853Y-109016463D01*
X172390219Y-108991338D01*
X172374138Y-108964508D01*
X172360763Y-108936230D01*
X172350225Y-108906778D01*
X172342625Y-108876435D01*
X172338035Y-108845493D01*
X172336500Y-108814250D01*
X172336500Y-108101750D01*
X172338035Y-108070507D01*
X172342625Y-108039565D01*
X172350225Y-108009222D01*
X172360763Y-107979770D01*
X172374138Y-107951492D01*
X172390219Y-107924662D01*
X172408853Y-107899537D01*
X172429860Y-107876360D01*
X172453037Y-107855353D01*
X172478162Y-107836719D01*
X172504992Y-107820638D01*
X172533270Y-107807263D01*
X172562722Y-107796725D01*
X172593065Y-107789125D01*
X172624007Y-107784535D01*
X172655250Y-107783000D01*
X173292750Y-107783000D01*
X173323993Y-107784535D01*
X173323993Y-107784535D01*
G37*
D11*
X172974000Y-108458000D03*
D10*
G36*
X171748993Y-107784535D02*
G01*
X171779935Y-107789125D01*
X171810278Y-107796725D01*
X171839730Y-107807263D01*
X171868008Y-107820638D01*
X171894838Y-107836719D01*
X171919963Y-107855353D01*
X171943140Y-107876360D01*
X171964147Y-107899537D01*
X171982781Y-107924662D01*
X171998862Y-107951492D01*
X172012237Y-107979770D01*
X172022775Y-108009222D01*
X172030375Y-108039565D01*
X172034965Y-108070507D01*
X172036500Y-108101750D01*
X172036500Y-108814250D01*
X172034965Y-108845493D01*
X172030375Y-108876435D01*
X172022775Y-108906778D01*
X172012237Y-108936230D01*
X171998862Y-108964508D01*
X171982781Y-108991338D01*
X171964147Y-109016463D01*
X171943140Y-109039640D01*
X171919963Y-109060647D01*
X171894838Y-109079281D01*
X171868008Y-109095362D01*
X171839730Y-109108737D01*
X171810278Y-109119275D01*
X171779935Y-109126875D01*
X171748993Y-109131465D01*
X171717750Y-109133000D01*
X171080250Y-109133000D01*
X171049007Y-109131465D01*
X171018065Y-109126875D01*
X170987722Y-109119275D01*
X170958270Y-109108737D01*
X170929992Y-109095362D01*
X170903162Y-109079281D01*
X170878037Y-109060647D01*
X170854860Y-109039640D01*
X170833853Y-109016463D01*
X170815219Y-108991338D01*
X170799138Y-108964508D01*
X170785763Y-108936230D01*
X170775225Y-108906778D01*
X170767625Y-108876435D01*
X170763035Y-108845493D01*
X170761500Y-108814250D01*
X170761500Y-108101750D01*
X170763035Y-108070507D01*
X170767625Y-108039565D01*
X170775225Y-108009222D01*
X170785763Y-107979770D01*
X170799138Y-107951492D01*
X170815219Y-107924662D01*
X170833853Y-107899537D01*
X170854860Y-107876360D01*
X170878037Y-107855353D01*
X170903162Y-107836719D01*
X170929992Y-107820638D01*
X170958270Y-107807263D01*
X170987722Y-107796725D01*
X171018065Y-107789125D01*
X171049007Y-107784535D01*
X171080250Y-107783000D01*
X171717750Y-107783000D01*
X171748993Y-107784535D01*
X171748993Y-107784535D01*
G37*
D11*
X171399000Y-108458000D03*
D10*
G36*
X176346493Y-110324535D02*
G01*
X176377435Y-110329125D01*
X176407778Y-110336725D01*
X176437230Y-110347263D01*
X176465508Y-110360638D01*
X176492338Y-110376719D01*
X176517463Y-110395353D01*
X176540640Y-110416360D01*
X176561647Y-110439537D01*
X176580281Y-110464662D01*
X176596362Y-110491492D01*
X176609737Y-110519770D01*
X176620275Y-110549222D01*
X176627875Y-110579565D01*
X176632465Y-110610507D01*
X176634000Y-110641750D01*
X176634000Y-111354250D01*
X176632465Y-111385493D01*
X176627875Y-111416435D01*
X176620275Y-111446778D01*
X176609737Y-111476230D01*
X176596362Y-111504508D01*
X176580281Y-111531338D01*
X176561647Y-111556463D01*
X176540640Y-111579640D01*
X176517463Y-111600647D01*
X176492338Y-111619281D01*
X176465508Y-111635362D01*
X176437230Y-111648737D01*
X176407778Y-111659275D01*
X176377435Y-111666875D01*
X176346493Y-111671465D01*
X176315250Y-111673000D01*
X175677750Y-111673000D01*
X175646507Y-111671465D01*
X175615565Y-111666875D01*
X175585222Y-111659275D01*
X175555770Y-111648737D01*
X175527492Y-111635362D01*
X175500662Y-111619281D01*
X175475537Y-111600647D01*
X175452360Y-111579640D01*
X175431353Y-111556463D01*
X175412719Y-111531338D01*
X175396638Y-111504508D01*
X175383263Y-111476230D01*
X175372725Y-111446778D01*
X175365125Y-111416435D01*
X175360535Y-111385493D01*
X175359000Y-111354250D01*
X175359000Y-110641750D01*
X175360535Y-110610507D01*
X175365125Y-110579565D01*
X175372725Y-110549222D01*
X175383263Y-110519770D01*
X175396638Y-110491492D01*
X175412719Y-110464662D01*
X175431353Y-110439537D01*
X175452360Y-110416360D01*
X175475537Y-110395353D01*
X175500662Y-110376719D01*
X175527492Y-110360638D01*
X175555770Y-110347263D01*
X175585222Y-110336725D01*
X175615565Y-110329125D01*
X175646507Y-110324535D01*
X175677750Y-110323000D01*
X176315250Y-110323000D01*
X176346493Y-110324535D01*
X176346493Y-110324535D01*
G37*
D11*
X175996500Y-110998000D03*
D10*
G36*
X177921493Y-110324535D02*
G01*
X177952435Y-110329125D01*
X177982778Y-110336725D01*
X178012230Y-110347263D01*
X178040508Y-110360638D01*
X178067338Y-110376719D01*
X178092463Y-110395353D01*
X178115640Y-110416360D01*
X178136647Y-110439537D01*
X178155281Y-110464662D01*
X178171362Y-110491492D01*
X178184737Y-110519770D01*
X178195275Y-110549222D01*
X178202875Y-110579565D01*
X178207465Y-110610507D01*
X178209000Y-110641750D01*
X178209000Y-111354250D01*
X178207465Y-111385493D01*
X178202875Y-111416435D01*
X178195275Y-111446778D01*
X178184737Y-111476230D01*
X178171362Y-111504508D01*
X178155281Y-111531338D01*
X178136647Y-111556463D01*
X178115640Y-111579640D01*
X178092463Y-111600647D01*
X178067338Y-111619281D01*
X178040508Y-111635362D01*
X178012230Y-111648737D01*
X177982778Y-111659275D01*
X177952435Y-111666875D01*
X177921493Y-111671465D01*
X177890250Y-111673000D01*
X177252750Y-111673000D01*
X177221507Y-111671465D01*
X177190565Y-111666875D01*
X177160222Y-111659275D01*
X177130770Y-111648737D01*
X177102492Y-111635362D01*
X177075662Y-111619281D01*
X177050537Y-111600647D01*
X177027360Y-111579640D01*
X177006353Y-111556463D01*
X176987719Y-111531338D01*
X176971638Y-111504508D01*
X176958263Y-111476230D01*
X176947725Y-111446778D01*
X176940125Y-111416435D01*
X176935535Y-111385493D01*
X176934000Y-111354250D01*
X176934000Y-110641750D01*
X176935535Y-110610507D01*
X176940125Y-110579565D01*
X176947725Y-110549222D01*
X176958263Y-110519770D01*
X176971638Y-110491492D01*
X176987719Y-110464662D01*
X177006353Y-110439537D01*
X177027360Y-110416360D01*
X177050537Y-110395353D01*
X177075662Y-110376719D01*
X177102492Y-110360638D01*
X177130770Y-110347263D01*
X177160222Y-110336725D01*
X177190565Y-110329125D01*
X177221507Y-110324535D01*
X177252750Y-110323000D01*
X177890250Y-110323000D01*
X177921493Y-110324535D01*
X177921493Y-110324535D01*
G37*
D11*
X177571500Y-110998000D03*
D10*
G36*
X177794759Y-109463192D02*
G01*
X177818785Y-109466756D01*
X177842345Y-109472657D01*
X177865214Y-109480840D01*
X177887171Y-109491224D01*
X177908004Y-109503711D01*
X177927512Y-109518180D01*
X177945509Y-109534491D01*
X177961820Y-109552488D01*
X177976289Y-109571996D01*
X177988776Y-109592829D01*
X177999160Y-109614786D01*
X178007343Y-109637655D01*
X178013244Y-109661215D01*
X178016808Y-109685241D01*
X178018000Y-109709500D01*
X178018000Y-110254500D01*
X178016808Y-110278759D01*
X178013244Y-110302785D01*
X178007343Y-110326345D01*
X177999160Y-110349214D01*
X177988776Y-110371171D01*
X177976289Y-110392004D01*
X177961820Y-110411512D01*
X177945509Y-110429509D01*
X177927512Y-110445820D01*
X177908004Y-110460289D01*
X177887171Y-110472776D01*
X177865214Y-110483160D01*
X177842345Y-110491343D01*
X177818785Y-110497244D01*
X177794759Y-110500808D01*
X177770500Y-110502000D01*
X177275500Y-110502000D01*
X177251241Y-110500808D01*
X177227215Y-110497244D01*
X177203655Y-110491343D01*
X177180786Y-110483160D01*
X177158829Y-110472776D01*
X177137996Y-110460289D01*
X177118488Y-110445820D01*
X177100491Y-110429509D01*
X177084180Y-110411512D01*
X177069711Y-110392004D01*
X177057224Y-110371171D01*
X177046840Y-110349214D01*
X177038657Y-110326345D01*
X177032756Y-110302785D01*
X177029192Y-110278759D01*
X177028000Y-110254500D01*
X177028000Y-109709500D01*
X177029192Y-109685241D01*
X177032756Y-109661215D01*
X177038657Y-109637655D01*
X177046840Y-109614786D01*
X177057224Y-109592829D01*
X177069711Y-109571996D01*
X177084180Y-109552488D01*
X177100491Y-109534491D01*
X177118488Y-109518180D01*
X177137996Y-109503711D01*
X177158829Y-109491224D01*
X177180786Y-109480840D01*
X177203655Y-109472657D01*
X177227215Y-109466756D01*
X177251241Y-109463192D01*
X177275500Y-109462000D01*
X177770500Y-109462000D01*
X177794759Y-109463192D01*
X177794759Y-109463192D01*
G37*
D16*
X177523000Y-109982000D03*
D10*
G36*
X176824759Y-109463192D02*
G01*
X176848785Y-109466756D01*
X176872345Y-109472657D01*
X176895214Y-109480840D01*
X176917171Y-109491224D01*
X176938004Y-109503711D01*
X176957512Y-109518180D01*
X176975509Y-109534491D01*
X176991820Y-109552488D01*
X177006289Y-109571996D01*
X177018776Y-109592829D01*
X177029160Y-109614786D01*
X177037343Y-109637655D01*
X177043244Y-109661215D01*
X177046808Y-109685241D01*
X177048000Y-109709500D01*
X177048000Y-110254500D01*
X177046808Y-110278759D01*
X177043244Y-110302785D01*
X177037343Y-110326345D01*
X177029160Y-110349214D01*
X177018776Y-110371171D01*
X177006289Y-110392004D01*
X176991820Y-110411512D01*
X176975509Y-110429509D01*
X176957512Y-110445820D01*
X176938004Y-110460289D01*
X176917171Y-110472776D01*
X176895214Y-110483160D01*
X176872345Y-110491343D01*
X176848785Y-110497244D01*
X176824759Y-110500808D01*
X176800500Y-110502000D01*
X176305500Y-110502000D01*
X176281241Y-110500808D01*
X176257215Y-110497244D01*
X176233655Y-110491343D01*
X176210786Y-110483160D01*
X176188829Y-110472776D01*
X176167996Y-110460289D01*
X176148488Y-110445820D01*
X176130491Y-110429509D01*
X176114180Y-110411512D01*
X176099711Y-110392004D01*
X176087224Y-110371171D01*
X176076840Y-110349214D01*
X176068657Y-110326345D01*
X176062756Y-110302785D01*
X176059192Y-110278759D01*
X176058000Y-110254500D01*
X176058000Y-109709500D01*
X176059192Y-109685241D01*
X176062756Y-109661215D01*
X176068657Y-109637655D01*
X176076840Y-109614786D01*
X176087224Y-109592829D01*
X176099711Y-109571996D01*
X176114180Y-109552488D01*
X176130491Y-109534491D01*
X176148488Y-109518180D01*
X176167996Y-109503711D01*
X176188829Y-109491224D01*
X176210786Y-109480840D01*
X176233655Y-109472657D01*
X176257215Y-109466756D01*
X176281241Y-109463192D01*
X176305500Y-109462000D01*
X176800500Y-109462000D01*
X176824759Y-109463192D01*
X176824759Y-109463192D01*
G37*
D16*
X176553000Y-109982000D03*
D10*
G36*
X179953493Y-86956535D02*
G01*
X179984435Y-86961125D01*
X180014778Y-86968725D01*
X180044230Y-86979263D01*
X180072508Y-86992638D01*
X180099338Y-87008719D01*
X180124463Y-87027353D01*
X180147640Y-87048360D01*
X180168647Y-87071537D01*
X180187281Y-87096662D01*
X180203362Y-87123492D01*
X180216737Y-87151770D01*
X180227275Y-87181222D01*
X180234875Y-87211565D01*
X180239465Y-87242507D01*
X180241000Y-87273750D01*
X180241000Y-87986250D01*
X180239465Y-88017493D01*
X180234875Y-88048435D01*
X180227275Y-88078778D01*
X180216737Y-88108230D01*
X180203362Y-88136508D01*
X180187281Y-88163338D01*
X180168647Y-88188463D01*
X180147640Y-88211640D01*
X180124463Y-88232647D01*
X180099338Y-88251281D01*
X180072508Y-88267362D01*
X180044230Y-88280737D01*
X180014778Y-88291275D01*
X179984435Y-88298875D01*
X179953493Y-88303465D01*
X179922250Y-88305000D01*
X179284750Y-88305000D01*
X179253507Y-88303465D01*
X179222565Y-88298875D01*
X179192222Y-88291275D01*
X179162770Y-88280737D01*
X179134492Y-88267362D01*
X179107662Y-88251281D01*
X179082537Y-88232647D01*
X179059360Y-88211640D01*
X179038353Y-88188463D01*
X179019719Y-88163338D01*
X179003638Y-88136508D01*
X178990263Y-88108230D01*
X178979725Y-88078778D01*
X178972125Y-88048435D01*
X178967535Y-88017493D01*
X178966000Y-87986250D01*
X178966000Y-87273750D01*
X178967535Y-87242507D01*
X178972125Y-87211565D01*
X178979725Y-87181222D01*
X178990263Y-87151770D01*
X179003638Y-87123492D01*
X179019719Y-87096662D01*
X179038353Y-87071537D01*
X179059360Y-87048360D01*
X179082537Y-87027353D01*
X179107662Y-87008719D01*
X179134492Y-86992638D01*
X179162770Y-86979263D01*
X179192222Y-86968725D01*
X179222565Y-86961125D01*
X179253507Y-86956535D01*
X179284750Y-86955000D01*
X179922250Y-86955000D01*
X179953493Y-86956535D01*
X179953493Y-86956535D01*
G37*
D11*
X179603500Y-87630000D03*
D10*
G36*
X178378493Y-86956535D02*
G01*
X178409435Y-86961125D01*
X178439778Y-86968725D01*
X178469230Y-86979263D01*
X178497508Y-86992638D01*
X178524338Y-87008719D01*
X178549463Y-87027353D01*
X178572640Y-87048360D01*
X178593647Y-87071537D01*
X178612281Y-87096662D01*
X178628362Y-87123492D01*
X178641737Y-87151770D01*
X178652275Y-87181222D01*
X178659875Y-87211565D01*
X178664465Y-87242507D01*
X178666000Y-87273750D01*
X178666000Y-87986250D01*
X178664465Y-88017493D01*
X178659875Y-88048435D01*
X178652275Y-88078778D01*
X178641737Y-88108230D01*
X178628362Y-88136508D01*
X178612281Y-88163338D01*
X178593647Y-88188463D01*
X178572640Y-88211640D01*
X178549463Y-88232647D01*
X178524338Y-88251281D01*
X178497508Y-88267362D01*
X178469230Y-88280737D01*
X178439778Y-88291275D01*
X178409435Y-88298875D01*
X178378493Y-88303465D01*
X178347250Y-88305000D01*
X177709750Y-88305000D01*
X177678507Y-88303465D01*
X177647565Y-88298875D01*
X177617222Y-88291275D01*
X177587770Y-88280737D01*
X177559492Y-88267362D01*
X177532662Y-88251281D01*
X177507537Y-88232647D01*
X177484360Y-88211640D01*
X177463353Y-88188463D01*
X177444719Y-88163338D01*
X177428638Y-88136508D01*
X177415263Y-88108230D01*
X177404725Y-88078778D01*
X177397125Y-88048435D01*
X177392535Y-88017493D01*
X177391000Y-87986250D01*
X177391000Y-87273750D01*
X177392535Y-87242507D01*
X177397125Y-87211565D01*
X177404725Y-87181222D01*
X177415263Y-87151770D01*
X177428638Y-87123492D01*
X177444719Y-87096662D01*
X177463353Y-87071537D01*
X177484360Y-87048360D01*
X177507537Y-87027353D01*
X177532662Y-87008719D01*
X177559492Y-86992638D01*
X177587770Y-86979263D01*
X177617222Y-86968725D01*
X177647565Y-86961125D01*
X177678507Y-86956535D01*
X177709750Y-86955000D01*
X178347250Y-86955000D01*
X178378493Y-86956535D01*
X178378493Y-86956535D01*
G37*
D11*
X178028500Y-87630000D03*
D10*
G36*
X157829993Y-81876535D02*
G01*
X157860935Y-81881125D01*
X157891278Y-81888725D01*
X157920730Y-81899263D01*
X157949008Y-81912638D01*
X157975838Y-81928719D01*
X158000963Y-81947353D01*
X158024140Y-81968360D01*
X158045147Y-81991537D01*
X158063781Y-82016662D01*
X158079862Y-82043492D01*
X158093237Y-82071770D01*
X158103775Y-82101222D01*
X158111375Y-82131565D01*
X158115965Y-82162507D01*
X158117500Y-82193750D01*
X158117500Y-82906250D01*
X158115965Y-82937493D01*
X158111375Y-82968435D01*
X158103775Y-82998778D01*
X158093237Y-83028230D01*
X158079862Y-83056508D01*
X158063781Y-83083338D01*
X158045147Y-83108463D01*
X158024140Y-83131640D01*
X158000963Y-83152647D01*
X157975838Y-83171281D01*
X157949008Y-83187362D01*
X157920730Y-83200737D01*
X157891278Y-83211275D01*
X157860935Y-83218875D01*
X157829993Y-83223465D01*
X157798750Y-83225000D01*
X157161250Y-83225000D01*
X157130007Y-83223465D01*
X157099065Y-83218875D01*
X157068722Y-83211275D01*
X157039270Y-83200737D01*
X157010992Y-83187362D01*
X156984162Y-83171281D01*
X156959037Y-83152647D01*
X156935860Y-83131640D01*
X156914853Y-83108463D01*
X156896219Y-83083338D01*
X156880138Y-83056508D01*
X156866763Y-83028230D01*
X156856225Y-82998778D01*
X156848625Y-82968435D01*
X156844035Y-82937493D01*
X156842500Y-82906250D01*
X156842500Y-82193750D01*
X156844035Y-82162507D01*
X156848625Y-82131565D01*
X156856225Y-82101222D01*
X156866763Y-82071770D01*
X156880138Y-82043492D01*
X156896219Y-82016662D01*
X156914853Y-81991537D01*
X156935860Y-81968360D01*
X156959037Y-81947353D01*
X156984162Y-81928719D01*
X157010992Y-81912638D01*
X157039270Y-81899263D01*
X157068722Y-81888725D01*
X157099065Y-81881125D01*
X157130007Y-81876535D01*
X157161250Y-81875000D01*
X157798750Y-81875000D01*
X157829993Y-81876535D01*
X157829993Y-81876535D01*
G37*
D11*
X157480000Y-82550000D03*
D10*
G36*
X156254993Y-81876535D02*
G01*
X156285935Y-81881125D01*
X156316278Y-81888725D01*
X156345730Y-81899263D01*
X156374008Y-81912638D01*
X156400838Y-81928719D01*
X156425963Y-81947353D01*
X156449140Y-81968360D01*
X156470147Y-81991537D01*
X156488781Y-82016662D01*
X156504862Y-82043492D01*
X156518237Y-82071770D01*
X156528775Y-82101222D01*
X156536375Y-82131565D01*
X156540965Y-82162507D01*
X156542500Y-82193750D01*
X156542500Y-82906250D01*
X156540965Y-82937493D01*
X156536375Y-82968435D01*
X156528775Y-82998778D01*
X156518237Y-83028230D01*
X156504862Y-83056508D01*
X156488781Y-83083338D01*
X156470147Y-83108463D01*
X156449140Y-83131640D01*
X156425963Y-83152647D01*
X156400838Y-83171281D01*
X156374008Y-83187362D01*
X156345730Y-83200737D01*
X156316278Y-83211275D01*
X156285935Y-83218875D01*
X156254993Y-83223465D01*
X156223750Y-83225000D01*
X155586250Y-83225000D01*
X155555007Y-83223465D01*
X155524065Y-83218875D01*
X155493722Y-83211275D01*
X155464270Y-83200737D01*
X155435992Y-83187362D01*
X155409162Y-83171281D01*
X155384037Y-83152647D01*
X155360860Y-83131640D01*
X155339853Y-83108463D01*
X155321219Y-83083338D01*
X155305138Y-83056508D01*
X155291763Y-83028230D01*
X155281225Y-82998778D01*
X155273625Y-82968435D01*
X155269035Y-82937493D01*
X155267500Y-82906250D01*
X155267500Y-82193750D01*
X155269035Y-82162507D01*
X155273625Y-82131565D01*
X155281225Y-82101222D01*
X155291763Y-82071770D01*
X155305138Y-82043492D01*
X155321219Y-82016662D01*
X155339853Y-81991537D01*
X155360860Y-81968360D01*
X155384037Y-81947353D01*
X155409162Y-81928719D01*
X155435992Y-81912638D01*
X155464270Y-81899263D01*
X155493722Y-81888725D01*
X155524065Y-81881125D01*
X155555007Y-81876535D01*
X155586250Y-81875000D01*
X156223750Y-81875000D01*
X156254993Y-81876535D01*
X156254993Y-81876535D01*
G37*
D11*
X155905000Y-82550000D03*
D10*
G36*
X160344493Y-89242535D02*
G01*
X160375435Y-89247125D01*
X160405778Y-89254725D01*
X160435230Y-89265263D01*
X160463508Y-89278638D01*
X160490338Y-89294719D01*
X160515463Y-89313353D01*
X160538640Y-89334360D01*
X160559647Y-89357537D01*
X160578281Y-89382662D01*
X160594362Y-89409492D01*
X160607737Y-89437770D01*
X160618275Y-89467222D01*
X160625875Y-89497565D01*
X160630465Y-89528507D01*
X160632000Y-89559750D01*
X160632000Y-90272250D01*
X160630465Y-90303493D01*
X160625875Y-90334435D01*
X160618275Y-90364778D01*
X160607737Y-90394230D01*
X160594362Y-90422508D01*
X160578281Y-90449338D01*
X160559647Y-90474463D01*
X160538640Y-90497640D01*
X160515463Y-90518647D01*
X160490338Y-90537281D01*
X160463508Y-90553362D01*
X160435230Y-90566737D01*
X160405778Y-90577275D01*
X160375435Y-90584875D01*
X160344493Y-90589465D01*
X160313250Y-90591000D01*
X159675750Y-90591000D01*
X159644507Y-90589465D01*
X159613565Y-90584875D01*
X159583222Y-90577275D01*
X159553770Y-90566737D01*
X159525492Y-90553362D01*
X159498662Y-90537281D01*
X159473537Y-90518647D01*
X159450360Y-90497640D01*
X159429353Y-90474463D01*
X159410719Y-90449338D01*
X159394638Y-90422508D01*
X159381263Y-90394230D01*
X159370725Y-90364778D01*
X159363125Y-90334435D01*
X159358535Y-90303493D01*
X159357000Y-90272250D01*
X159357000Y-89559750D01*
X159358535Y-89528507D01*
X159363125Y-89497565D01*
X159370725Y-89467222D01*
X159381263Y-89437770D01*
X159394638Y-89409492D01*
X159410719Y-89382662D01*
X159429353Y-89357537D01*
X159450360Y-89334360D01*
X159473537Y-89313353D01*
X159498662Y-89294719D01*
X159525492Y-89278638D01*
X159553770Y-89265263D01*
X159583222Y-89254725D01*
X159613565Y-89247125D01*
X159644507Y-89242535D01*
X159675750Y-89241000D01*
X160313250Y-89241000D01*
X160344493Y-89242535D01*
X160344493Y-89242535D01*
G37*
D11*
X159994500Y-89916000D03*
D10*
G36*
X161919493Y-89242535D02*
G01*
X161950435Y-89247125D01*
X161980778Y-89254725D01*
X162010230Y-89265263D01*
X162038508Y-89278638D01*
X162065338Y-89294719D01*
X162090463Y-89313353D01*
X162113640Y-89334360D01*
X162134647Y-89357537D01*
X162153281Y-89382662D01*
X162169362Y-89409492D01*
X162182737Y-89437770D01*
X162193275Y-89467222D01*
X162200875Y-89497565D01*
X162205465Y-89528507D01*
X162207000Y-89559750D01*
X162207000Y-90272250D01*
X162205465Y-90303493D01*
X162200875Y-90334435D01*
X162193275Y-90364778D01*
X162182737Y-90394230D01*
X162169362Y-90422508D01*
X162153281Y-90449338D01*
X162134647Y-90474463D01*
X162113640Y-90497640D01*
X162090463Y-90518647D01*
X162065338Y-90537281D01*
X162038508Y-90553362D01*
X162010230Y-90566737D01*
X161980778Y-90577275D01*
X161950435Y-90584875D01*
X161919493Y-90589465D01*
X161888250Y-90591000D01*
X161250750Y-90591000D01*
X161219507Y-90589465D01*
X161188565Y-90584875D01*
X161158222Y-90577275D01*
X161128770Y-90566737D01*
X161100492Y-90553362D01*
X161073662Y-90537281D01*
X161048537Y-90518647D01*
X161025360Y-90497640D01*
X161004353Y-90474463D01*
X160985719Y-90449338D01*
X160969638Y-90422508D01*
X160956263Y-90394230D01*
X160945725Y-90364778D01*
X160938125Y-90334435D01*
X160933535Y-90303493D01*
X160932000Y-90272250D01*
X160932000Y-89559750D01*
X160933535Y-89528507D01*
X160938125Y-89497565D01*
X160945725Y-89467222D01*
X160956263Y-89437770D01*
X160969638Y-89409492D01*
X160985719Y-89382662D01*
X161004353Y-89357537D01*
X161025360Y-89334360D01*
X161048537Y-89313353D01*
X161073662Y-89294719D01*
X161100492Y-89278638D01*
X161128770Y-89265263D01*
X161158222Y-89254725D01*
X161188565Y-89247125D01*
X161219507Y-89242535D01*
X161250750Y-89241000D01*
X161888250Y-89241000D01*
X161919493Y-89242535D01*
X161919493Y-89242535D01*
G37*
D11*
X161569500Y-89916000D03*
D10*
G36*
X162884493Y-110578535D02*
G01*
X162915435Y-110583125D01*
X162945778Y-110590725D01*
X162975230Y-110601263D01*
X163003508Y-110614638D01*
X163030338Y-110630719D01*
X163055463Y-110649353D01*
X163078640Y-110670360D01*
X163099647Y-110693537D01*
X163118281Y-110718662D01*
X163134362Y-110745492D01*
X163147737Y-110773770D01*
X163158275Y-110803222D01*
X163165875Y-110833565D01*
X163170465Y-110864507D01*
X163172000Y-110895750D01*
X163172000Y-111608250D01*
X163170465Y-111639493D01*
X163165875Y-111670435D01*
X163158275Y-111700778D01*
X163147737Y-111730230D01*
X163134362Y-111758508D01*
X163118281Y-111785338D01*
X163099647Y-111810463D01*
X163078640Y-111833640D01*
X163055463Y-111854647D01*
X163030338Y-111873281D01*
X163003508Y-111889362D01*
X162975230Y-111902737D01*
X162945778Y-111913275D01*
X162915435Y-111920875D01*
X162884493Y-111925465D01*
X162853250Y-111927000D01*
X162215750Y-111927000D01*
X162184507Y-111925465D01*
X162153565Y-111920875D01*
X162123222Y-111913275D01*
X162093770Y-111902737D01*
X162065492Y-111889362D01*
X162038662Y-111873281D01*
X162013537Y-111854647D01*
X161990360Y-111833640D01*
X161969353Y-111810463D01*
X161950719Y-111785338D01*
X161934638Y-111758508D01*
X161921263Y-111730230D01*
X161910725Y-111700778D01*
X161903125Y-111670435D01*
X161898535Y-111639493D01*
X161897000Y-111608250D01*
X161897000Y-110895750D01*
X161898535Y-110864507D01*
X161903125Y-110833565D01*
X161910725Y-110803222D01*
X161921263Y-110773770D01*
X161934638Y-110745492D01*
X161950719Y-110718662D01*
X161969353Y-110693537D01*
X161990360Y-110670360D01*
X162013537Y-110649353D01*
X162038662Y-110630719D01*
X162065492Y-110614638D01*
X162093770Y-110601263D01*
X162123222Y-110590725D01*
X162153565Y-110583125D01*
X162184507Y-110578535D01*
X162215750Y-110577000D01*
X162853250Y-110577000D01*
X162884493Y-110578535D01*
X162884493Y-110578535D01*
G37*
D11*
X162534500Y-111252000D03*
D10*
G36*
X164459493Y-110578535D02*
G01*
X164490435Y-110583125D01*
X164520778Y-110590725D01*
X164550230Y-110601263D01*
X164578508Y-110614638D01*
X164605338Y-110630719D01*
X164630463Y-110649353D01*
X164653640Y-110670360D01*
X164674647Y-110693537D01*
X164693281Y-110718662D01*
X164709362Y-110745492D01*
X164722737Y-110773770D01*
X164733275Y-110803222D01*
X164740875Y-110833565D01*
X164745465Y-110864507D01*
X164747000Y-110895750D01*
X164747000Y-111608250D01*
X164745465Y-111639493D01*
X164740875Y-111670435D01*
X164733275Y-111700778D01*
X164722737Y-111730230D01*
X164709362Y-111758508D01*
X164693281Y-111785338D01*
X164674647Y-111810463D01*
X164653640Y-111833640D01*
X164630463Y-111854647D01*
X164605338Y-111873281D01*
X164578508Y-111889362D01*
X164550230Y-111902737D01*
X164520778Y-111913275D01*
X164490435Y-111920875D01*
X164459493Y-111925465D01*
X164428250Y-111927000D01*
X163790750Y-111927000D01*
X163759507Y-111925465D01*
X163728565Y-111920875D01*
X163698222Y-111913275D01*
X163668770Y-111902737D01*
X163640492Y-111889362D01*
X163613662Y-111873281D01*
X163588537Y-111854647D01*
X163565360Y-111833640D01*
X163544353Y-111810463D01*
X163525719Y-111785338D01*
X163509638Y-111758508D01*
X163496263Y-111730230D01*
X163485725Y-111700778D01*
X163478125Y-111670435D01*
X163473535Y-111639493D01*
X163472000Y-111608250D01*
X163472000Y-110895750D01*
X163473535Y-110864507D01*
X163478125Y-110833565D01*
X163485725Y-110803222D01*
X163496263Y-110773770D01*
X163509638Y-110745492D01*
X163525719Y-110718662D01*
X163544353Y-110693537D01*
X163565360Y-110670360D01*
X163588537Y-110649353D01*
X163613662Y-110630719D01*
X163640492Y-110614638D01*
X163668770Y-110601263D01*
X163698222Y-110590725D01*
X163728565Y-110583125D01*
X163759507Y-110578535D01*
X163790750Y-110577000D01*
X164428250Y-110577000D01*
X164459493Y-110578535D01*
X164459493Y-110578535D01*
G37*
D11*
X164109500Y-111252000D03*
D10*
G36*
X160407493Y-86765535D02*
G01*
X160438435Y-86770125D01*
X160468778Y-86777725D01*
X160498230Y-86788263D01*
X160526508Y-86801638D01*
X160553338Y-86817719D01*
X160578463Y-86836353D01*
X160601640Y-86857360D01*
X160622647Y-86880537D01*
X160641281Y-86905662D01*
X160657362Y-86932492D01*
X160670737Y-86960770D01*
X160681275Y-86990222D01*
X160688875Y-87020565D01*
X160693465Y-87051507D01*
X160695000Y-87082750D01*
X160695000Y-87720250D01*
X160693465Y-87751493D01*
X160688875Y-87782435D01*
X160681275Y-87812778D01*
X160670737Y-87842230D01*
X160657362Y-87870508D01*
X160641281Y-87897338D01*
X160622647Y-87922463D01*
X160601640Y-87945640D01*
X160578463Y-87966647D01*
X160553338Y-87985281D01*
X160526508Y-88001362D01*
X160498230Y-88014737D01*
X160468778Y-88025275D01*
X160438435Y-88032875D01*
X160407493Y-88037465D01*
X160376250Y-88039000D01*
X159663750Y-88039000D01*
X159632507Y-88037465D01*
X159601565Y-88032875D01*
X159571222Y-88025275D01*
X159541770Y-88014737D01*
X159513492Y-88001362D01*
X159486662Y-87985281D01*
X159461537Y-87966647D01*
X159438360Y-87945640D01*
X159417353Y-87922463D01*
X159398719Y-87897338D01*
X159382638Y-87870508D01*
X159369263Y-87842230D01*
X159358725Y-87812778D01*
X159351125Y-87782435D01*
X159346535Y-87751493D01*
X159345000Y-87720250D01*
X159345000Y-87082750D01*
X159346535Y-87051507D01*
X159351125Y-87020565D01*
X159358725Y-86990222D01*
X159369263Y-86960770D01*
X159382638Y-86932492D01*
X159398719Y-86905662D01*
X159417353Y-86880537D01*
X159438360Y-86857360D01*
X159461537Y-86836353D01*
X159486662Y-86817719D01*
X159513492Y-86801638D01*
X159541770Y-86788263D01*
X159571222Y-86777725D01*
X159601565Y-86770125D01*
X159632507Y-86765535D01*
X159663750Y-86764000D01*
X160376250Y-86764000D01*
X160407493Y-86765535D01*
X160407493Y-86765535D01*
G37*
D11*
X160020000Y-87401500D03*
D10*
G36*
X160407493Y-85190535D02*
G01*
X160438435Y-85195125D01*
X160468778Y-85202725D01*
X160498230Y-85213263D01*
X160526508Y-85226638D01*
X160553338Y-85242719D01*
X160578463Y-85261353D01*
X160601640Y-85282360D01*
X160622647Y-85305537D01*
X160641281Y-85330662D01*
X160657362Y-85357492D01*
X160670737Y-85385770D01*
X160681275Y-85415222D01*
X160688875Y-85445565D01*
X160693465Y-85476507D01*
X160695000Y-85507750D01*
X160695000Y-86145250D01*
X160693465Y-86176493D01*
X160688875Y-86207435D01*
X160681275Y-86237778D01*
X160670737Y-86267230D01*
X160657362Y-86295508D01*
X160641281Y-86322338D01*
X160622647Y-86347463D01*
X160601640Y-86370640D01*
X160578463Y-86391647D01*
X160553338Y-86410281D01*
X160526508Y-86426362D01*
X160498230Y-86439737D01*
X160468778Y-86450275D01*
X160438435Y-86457875D01*
X160407493Y-86462465D01*
X160376250Y-86464000D01*
X159663750Y-86464000D01*
X159632507Y-86462465D01*
X159601565Y-86457875D01*
X159571222Y-86450275D01*
X159541770Y-86439737D01*
X159513492Y-86426362D01*
X159486662Y-86410281D01*
X159461537Y-86391647D01*
X159438360Y-86370640D01*
X159417353Y-86347463D01*
X159398719Y-86322338D01*
X159382638Y-86295508D01*
X159369263Y-86267230D01*
X159358725Y-86237778D01*
X159351125Y-86207435D01*
X159346535Y-86176493D01*
X159345000Y-86145250D01*
X159345000Y-85507750D01*
X159346535Y-85476507D01*
X159351125Y-85445565D01*
X159358725Y-85415222D01*
X159369263Y-85385770D01*
X159382638Y-85357492D01*
X159398719Y-85330662D01*
X159417353Y-85305537D01*
X159438360Y-85282360D01*
X159461537Y-85261353D01*
X159486662Y-85242719D01*
X159513492Y-85226638D01*
X159541770Y-85213263D01*
X159571222Y-85202725D01*
X159601565Y-85195125D01*
X159632507Y-85190535D01*
X159663750Y-85189000D01*
X160376250Y-85189000D01*
X160407493Y-85190535D01*
X160407493Y-85190535D01*
G37*
D11*
X160020000Y-85826500D03*
D10*
G36*
X165221493Y-115658535D02*
G01*
X165252435Y-115663125D01*
X165282778Y-115670725D01*
X165312230Y-115681263D01*
X165340508Y-115694638D01*
X165367338Y-115710719D01*
X165392463Y-115729353D01*
X165415640Y-115750360D01*
X165436647Y-115773537D01*
X165455281Y-115798662D01*
X165471362Y-115825492D01*
X165484737Y-115853770D01*
X165495275Y-115883222D01*
X165502875Y-115913565D01*
X165507465Y-115944507D01*
X165509000Y-115975750D01*
X165509000Y-116688250D01*
X165507465Y-116719493D01*
X165502875Y-116750435D01*
X165495275Y-116780778D01*
X165484737Y-116810230D01*
X165471362Y-116838508D01*
X165455281Y-116865338D01*
X165436647Y-116890463D01*
X165415640Y-116913640D01*
X165392463Y-116934647D01*
X165367338Y-116953281D01*
X165340508Y-116969362D01*
X165312230Y-116982737D01*
X165282778Y-116993275D01*
X165252435Y-117000875D01*
X165221493Y-117005465D01*
X165190250Y-117007000D01*
X164552750Y-117007000D01*
X164521507Y-117005465D01*
X164490565Y-117000875D01*
X164460222Y-116993275D01*
X164430770Y-116982737D01*
X164402492Y-116969362D01*
X164375662Y-116953281D01*
X164350537Y-116934647D01*
X164327360Y-116913640D01*
X164306353Y-116890463D01*
X164287719Y-116865338D01*
X164271638Y-116838508D01*
X164258263Y-116810230D01*
X164247725Y-116780778D01*
X164240125Y-116750435D01*
X164235535Y-116719493D01*
X164234000Y-116688250D01*
X164234000Y-115975750D01*
X164235535Y-115944507D01*
X164240125Y-115913565D01*
X164247725Y-115883222D01*
X164258263Y-115853770D01*
X164271638Y-115825492D01*
X164287719Y-115798662D01*
X164306353Y-115773537D01*
X164327360Y-115750360D01*
X164350537Y-115729353D01*
X164375662Y-115710719D01*
X164402492Y-115694638D01*
X164430770Y-115681263D01*
X164460222Y-115670725D01*
X164490565Y-115663125D01*
X164521507Y-115658535D01*
X164552750Y-115657000D01*
X165190250Y-115657000D01*
X165221493Y-115658535D01*
X165221493Y-115658535D01*
G37*
D11*
X164871500Y-116332000D03*
D10*
G36*
X163646493Y-115658535D02*
G01*
X163677435Y-115663125D01*
X163707778Y-115670725D01*
X163737230Y-115681263D01*
X163765508Y-115694638D01*
X163792338Y-115710719D01*
X163817463Y-115729353D01*
X163840640Y-115750360D01*
X163861647Y-115773537D01*
X163880281Y-115798662D01*
X163896362Y-115825492D01*
X163909737Y-115853770D01*
X163920275Y-115883222D01*
X163927875Y-115913565D01*
X163932465Y-115944507D01*
X163934000Y-115975750D01*
X163934000Y-116688250D01*
X163932465Y-116719493D01*
X163927875Y-116750435D01*
X163920275Y-116780778D01*
X163909737Y-116810230D01*
X163896362Y-116838508D01*
X163880281Y-116865338D01*
X163861647Y-116890463D01*
X163840640Y-116913640D01*
X163817463Y-116934647D01*
X163792338Y-116953281D01*
X163765508Y-116969362D01*
X163737230Y-116982737D01*
X163707778Y-116993275D01*
X163677435Y-117000875D01*
X163646493Y-117005465D01*
X163615250Y-117007000D01*
X162977750Y-117007000D01*
X162946507Y-117005465D01*
X162915565Y-117000875D01*
X162885222Y-116993275D01*
X162855770Y-116982737D01*
X162827492Y-116969362D01*
X162800662Y-116953281D01*
X162775537Y-116934647D01*
X162752360Y-116913640D01*
X162731353Y-116890463D01*
X162712719Y-116865338D01*
X162696638Y-116838508D01*
X162683263Y-116810230D01*
X162672725Y-116780778D01*
X162665125Y-116750435D01*
X162660535Y-116719493D01*
X162659000Y-116688250D01*
X162659000Y-115975750D01*
X162660535Y-115944507D01*
X162665125Y-115913565D01*
X162672725Y-115883222D01*
X162683263Y-115853770D01*
X162696638Y-115825492D01*
X162712719Y-115798662D01*
X162731353Y-115773537D01*
X162752360Y-115750360D01*
X162775537Y-115729353D01*
X162800662Y-115710719D01*
X162827492Y-115694638D01*
X162855770Y-115681263D01*
X162885222Y-115670725D01*
X162915565Y-115663125D01*
X162946507Y-115658535D01*
X162977750Y-115657000D01*
X163615250Y-115657000D01*
X163646493Y-115658535D01*
X163646493Y-115658535D01*
G37*
D11*
X163296500Y-116332000D03*
D10*
G36*
X162935493Y-103212535D02*
G01*
X162966435Y-103217125D01*
X162996778Y-103224725D01*
X163026230Y-103235263D01*
X163054508Y-103248638D01*
X163081338Y-103264719D01*
X163106463Y-103283353D01*
X163129640Y-103304360D01*
X163150647Y-103327537D01*
X163169281Y-103352662D01*
X163185362Y-103379492D01*
X163198737Y-103407770D01*
X163209275Y-103437222D01*
X163216875Y-103467565D01*
X163221465Y-103498507D01*
X163223000Y-103529750D01*
X163223000Y-104242250D01*
X163221465Y-104273493D01*
X163216875Y-104304435D01*
X163209275Y-104334778D01*
X163198737Y-104364230D01*
X163185362Y-104392508D01*
X163169281Y-104419338D01*
X163150647Y-104444463D01*
X163129640Y-104467640D01*
X163106463Y-104488647D01*
X163081338Y-104507281D01*
X163054508Y-104523362D01*
X163026230Y-104536737D01*
X162996778Y-104547275D01*
X162966435Y-104554875D01*
X162935493Y-104559465D01*
X162904250Y-104561000D01*
X162266750Y-104561000D01*
X162235507Y-104559465D01*
X162204565Y-104554875D01*
X162174222Y-104547275D01*
X162144770Y-104536737D01*
X162116492Y-104523362D01*
X162089662Y-104507281D01*
X162064537Y-104488647D01*
X162041360Y-104467640D01*
X162020353Y-104444463D01*
X162001719Y-104419338D01*
X161985638Y-104392508D01*
X161972263Y-104364230D01*
X161961725Y-104334778D01*
X161954125Y-104304435D01*
X161949535Y-104273493D01*
X161948000Y-104242250D01*
X161948000Y-103529750D01*
X161949535Y-103498507D01*
X161954125Y-103467565D01*
X161961725Y-103437222D01*
X161972263Y-103407770D01*
X161985638Y-103379492D01*
X162001719Y-103352662D01*
X162020353Y-103327537D01*
X162041360Y-103304360D01*
X162064537Y-103283353D01*
X162089662Y-103264719D01*
X162116492Y-103248638D01*
X162144770Y-103235263D01*
X162174222Y-103224725D01*
X162204565Y-103217125D01*
X162235507Y-103212535D01*
X162266750Y-103211000D01*
X162904250Y-103211000D01*
X162935493Y-103212535D01*
X162935493Y-103212535D01*
G37*
D11*
X162585500Y-103886000D03*
D10*
G36*
X161360493Y-103212535D02*
G01*
X161391435Y-103217125D01*
X161421778Y-103224725D01*
X161451230Y-103235263D01*
X161479508Y-103248638D01*
X161506338Y-103264719D01*
X161531463Y-103283353D01*
X161554640Y-103304360D01*
X161575647Y-103327537D01*
X161594281Y-103352662D01*
X161610362Y-103379492D01*
X161623737Y-103407770D01*
X161634275Y-103437222D01*
X161641875Y-103467565D01*
X161646465Y-103498507D01*
X161648000Y-103529750D01*
X161648000Y-104242250D01*
X161646465Y-104273493D01*
X161641875Y-104304435D01*
X161634275Y-104334778D01*
X161623737Y-104364230D01*
X161610362Y-104392508D01*
X161594281Y-104419338D01*
X161575647Y-104444463D01*
X161554640Y-104467640D01*
X161531463Y-104488647D01*
X161506338Y-104507281D01*
X161479508Y-104523362D01*
X161451230Y-104536737D01*
X161421778Y-104547275D01*
X161391435Y-104554875D01*
X161360493Y-104559465D01*
X161329250Y-104561000D01*
X160691750Y-104561000D01*
X160660507Y-104559465D01*
X160629565Y-104554875D01*
X160599222Y-104547275D01*
X160569770Y-104536737D01*
X160541492Y-104523362D01*
X160514662Y-104507281D01*
X160489537Y-104488647D01*
X160466360Y-104467640D01*
X160445353Y-104444463D01*
X160426719Y-104419338D01*
X160410638Y-104392508D01*
X160397263Y-104364230D01*
X160386725Y-104334778D01*
X160379125Y-104304435D01*
X160374535Y-104273493D01*
X160373000Y-104242250D01*
X160373000Y-103529750D01*
X160374535Y-103498507D01*
X160379125Y-103467565D01*
X160386725Y-103437222D01*
X160397263Y-103407770D01*
X160410638Y-103379492D01*
X160426719Y-103352662D01*
X160445353Y-103327537D01*
X160466360Y-103304360D01*
X160489537Y-103283353D01*
X160514662Y-103264719D01*
X160541492Y-103248638D01*
X160569770Y-103235263D01*
X160599222Y-103224725D01*
X160629565Y-103217125D01*
X160660507Y-103212535D01*
X160691750Y-103211000D01*
X161329250Y-103211000D01*
X161360493Y-103212535D01*
X161360493Y-103212535D01*
G37*
D11*
X161010500Y-103886000D03*
D10*
G36*
X163722993Y-108038535D02*
G01*
X163753935Y-108043125D01*
X163784278Y-108050725D01*
X163813730Y-108061263D01*
X163842008Y-108074638D01*
X163868838Y-108090719D01*
X163893963Y-108109353D01*
X163917140Y-108130360D01*
X163938147Y-108153537D01*
X163956781Y-108178662D01*
X163972862Y-108205492D01*
X163986237Y-108233770D01*
X163996775Y-108263222D01*
X164004375Y-108293565D01*
X164008965Y-108324507D01*
X164010500Y-108355750D01*
X164010500Y-109068250D01*
X164008965Y-109099493D01*
X164004375Y-109130435D01*
X163996775Y-109160778D01*
X163986237Y-109190230D01*
X163972862Y-109218508D01*
X163956781Y-109245338D01*
X163938147Y-109270463D01*
X163917140Y-109293640D01*
X163893963Y-109314647D01*
X163868838Y-109333281D01*
X163842008Y-109349362D01*
X163813730Y-109362737D01*
X163784278Y-109373275D01*
X163753935Y-109380875D01*
X163722993Y-109385465D01*
X163691750Y-109387000D01*
X163054250Y-109387000D01*
X163023007Y-109385465D01*
X162992065Y-109380875D01*
X162961722Y-109373275D01*
X162932270Y-109362737D01*
X162903992Y-109349362D01*
X162877162Y-109333281D01*
X162852037Y-109314647D01*
X162828860Y-109293640D01*
X162807853Y-109270463D01*
X162789219Y-109245338D01*
X162773138Y-109218508D01*
X162759763Y-109190230D01*
X162749225Y-109160778D01*
X162741625Y-109130435D01*
X162737035Y-109099493D01*
X162735500Y-109068250D01*
X162735500Y-108355750D01*
X162737035Y-108324507D01*
X162741625Y-108293565D01*
X162749225Y-108263222D01*
X162759763Y-108233770D01*
X162773138Y-108205492D01*
X162789219Y-108178662D01*
X162807853Y-108153537D01*
X162828860Y-108130360D01*
X162852037Y-108109353D01*
X162877162Y-108090719D01*
X162903992Y-108074638D01*
X162932270Y-108061263D01*
X162961722Y-108050725D01*
X162992065Y-108043125D01*
X163023007Y-108038535D01*
X163054250Y-108037000D01*
X163691750Y-108037000D01*
X163722993Y-108038535D01*
X163722993Y-108038535D01*
G37*
D11*
X163373000Y-108712000D03*
D10*
G36*
X162147993Y-108038535D02*
G01*
X162178935Y-108043125D01*
X162209278Y-108050725D01*
X162238730Y-108061263D01*
X162267008Y-108074638D01*
X162293838Y-108090719D01*
X162318963Y-108109353D01*
X162342140Y-108130360D01*
X162363147Y-108153537D01*
X162381781Y-108178662D01*
X162397862Y-108205492D01*
X162411237Y-108233770D01*
X162421775Y-108263222D01*
X162429375Y-108293565D01*
X162433965Y-108324507D01*
X162435500Y-108355750D01*
X162435500Y-109068250D01*
X162433965Y-109099493D01*
X162429375Y-109130435D01*
X162421775Y-109160778D01*
X162411237Y-109190230D01*
X162397862Y-109218508D01*
X162381781Y-109245338D01*
X162363147Y-109270463D01*
X162342140Y-109293640D01*
X162318963Y-109314647D01*
X162293838Y-109333281D01*
X162267008Y-109349362D01*
X162238730Y-109362737D01*
X162209278Y-109373275D01*
X162178935Y-109380875D01*
X162147993Y-109385465D01*
X162116750Y-109387000D01*
X161479250Y-109387000D01*
X161448007Y-109385465D01*
X161417065Y-109380875D01*
X161386722Y-109373275D01*
X161357270Y-109362737D01*
X161328992Y-109349362D01*
X161302162Y-109333281D01*
X161277037Y-109314647D01*
X161253860Y-109293640D01*
X161232853Y-109270463D01*
X161214219Y-109245338D01*
X161198138Y-109218508D01*
X161184763Y-109190230D01*
X161174225Y-109160778D01*
X161166625Y-109130435D01*
X161162035Y-109099493D01*
X161160500Y-109068250D01*
X161160500Y-108355750D01*
X161162035Y-108324507D01*
X161166625Y-108293565D01*
X161174225Y-108263222D01*
X161184763Y-108233770D01*
X161198138Y-108205492D01*
X161214219Y-108178662D01*
X161232853Y-108153537D01*
X161253860Y-108130360D01*
X161277037Y-108109353D01*
X161302162Y-108090719D01*
X161328992Y-108074638D01*
X161357270Y-108061263D01*
X161386722Y-108050725D01*
X161417065Y-108043125D01*
X161448007Y-108038535D01*
X161479250Y-108037000D01*
X162116750Y-108037000D01*
X162147993Y-108038535D01*
X162147993Y-108038535D01*
G37*
D11*
X161798000Y-108712000D03*
D10*
G36*
X163839447Y-82113487D02*
G01*
X163869425Y-82117934D01*
X163898824Y-82125298D01*
X163927358Y-82135508D01*
X163954755Y-82148465D01*
X163980750Y-82164046D01*
X164005092Y-82182100D01*
X164027548Y-82202452D01*
X164047900Y-82224908D01*
X164065954Y-82249250D01*
X164081535Y-82275245D01*
X164094492Y-82302642D01*
X164104702Y-82331176D01*
X164112066Y-82360575D01*
X164116513Y-82390553D01*
X164118000Y-82420823D01*
X164118000Y-84203177D01*
X164116513Y-84233447D01*
X164112066Y-84263425D01*
X164104702Y-84292824D01*
X164094492Y-84321358D01*
X164081535Y-84348755D01*
X164065954Y-84374750D01*
X164047900Y-84399092D01*
X164027548Y-84421548D01*
X164005092Y-84441900D01*
X163980750Y-84459954D01*
X163954755Y-84475535D01*
X163927358Y-84488492D01*
X163898824Y-84498702D01*
X163869425Y-84506066D01*
X163839447Y-84510513D01*
X163809177Y-84512000D01*
X162326823Y-84512000D01*
X162296553Y-84510513D01*
X162266575Y-84506066D01*
X162237176Y-84498702D01*
X162208642Y-84488492D01*
X162181245Y-84475535D01*
X162155250Y-84459954D01*
X162130908Y-84441900D01*
X162108452Y-84421548D01*
X162088100Y-84399092D01*
X162070046Y-84374750D01*
X162054465Y-84348755D01*
X162041508Y-84321358D01*
X162031298Y-84292824D01*
X162023934Y-84263425D01*
X162019487Y-84233447D01*
X162018000Y-84203177D01*
X162018000Y-82420823D01*
X162019487Y-82390553D01*
X162023934Y-82360575D01*
X162031298Y-82331176D01*
X162041508Y-82302642D01*
X162054465Y-82275245D01*
X162070046Y-82249250D01*
X162088100Y-82224908D01*
X162108452Y-82202452D01*
X162130908Y-82182100D01*
X162155250Y-82164046D01*
X162181245Y-82148465D01*
X162208642Y-82135508D01*
X162237176Y-82125298D01*
X162266575Y-82117934D01*
X162296553Y-82113487D01*
X162326823Y-82112000D01*
X163809177Y-82112000D01*
X163839447Y-82113487D01*
X163839447Y-82113487D01*
G37*
D17*
X163068000Y-83312000D03*
D18*
X160568000Y-83312000D03*
D19*
X218821000Y-99060000D03*
X221521000Y-101760000D03*
X221521000Y-96360000D03*
X216121000Y-96360000D03*
X216121000Y-101760000D03*
D20*
X164780000Y-86376000D03*
X162880000Y-86376000D03*
X163830000Y-88376000D03*
D10*
G36*
X174885493Y-105256535D02*
G01*
X174916435Y-105261125D01*
X174946778Y-105268725D01*
X174976230Y-105279263D01*
X175004508Y-105292638D01*
X175031338Y-105308719D01*
X175056463Y-105327353D01*
X175079640Y-105348360D01*
X175100647Y-105371537D01*
X175119281Y-105396662D01*
X175135362Y-105423492D01*
X175148737Y-105451770D01*
X175159275Y-105481222D01*
X175166875Y-105511565D01*
X175171465Y-105542507D01*
X175173000Y-105573750D01*
X175173000Y-106211250D01*
X175171465Y-106242493D01*
X175166875Y-106273435D01*
X175159275Y-106303778D01*
X175148737Y-106333230D01*
X175135362Y-106361508D01*
X175119281Y-106388338D01*
X175100647Y-106413463D01*
X175079640Y-106436640D01*
X175056463Y-106457647D01*
X175031338Y-106476281D01*
X175004508Y-106492362D01*
X174976230Y-106505737D01*
X174946778Y-106516275D01*
X174916435Y-106523875D01*
X174885493Y-106528465D01*
X174854250Y-106530000D01*
X174141750Y-106530000D01*
X174110507Y-106528465D01*
X174079565Y-106523875D01*
X174049222Y-106516275D01*
X174019770Y-106505737D01*
X173991492Y-106492362D01*
X173964662Y-106476281D01*
X173939537Y-106457647D01*
X173916360Y-106436640D01*
X173895353Y-106413463D01*
X173876719Y-106388338D01*
X173860638Y-106361508D01*
X173847263Y-106333230D01*
X173836725Y-106303778D01*
X173829125Y-106273435D01*
X173824535Y-106242493D01*
X173823000Y-106211250D01*
X173823000Y-105573750D01*
X173824535Y-105542507D01*
X173829125Y-105511565D01*
X173836725Y-105481222D01*
X173847263Y-105451770D01*
X173860638Y-105423492D01*
X173876719Y-105396662D01*
X173895353Y-105371537D01*
X173916360Y-105348360D01*
X173939537Y-105327353D01*
X173964662Y-105308719D01*
X173991492Y-105292638D01*
X174019770Y-105279263D01*
X174049222Y-105268725D01*
X174079565Y-105261125D01*
X174110507Y-105256535D01*
X174141750Y-105255000D01*
X174854250Y-105255000D01*
X174885493Y-105256535D01*
X174885493Y-105256535D01*
G37*
D11*
X174498000Y-105892500D03*
D10*
G36*
X174885493Y-106831535D02*
G01*
X174916435Y-106836125D01*
X174946778Y-106843725D01*
X174976230Y-106854263D01*
X175004508Y-106867638D01*
X175031338Y-106883719D01*
X175056463Y-106902353D01*
X175079640Y-106923360D01*
X175100647Y-106946537D01*
X175119281Y-106971662D01*
X175135362Y-106998492D01*
X175148737Y-107026770D01*
X175159275Y-107056222D01*
X175166875Y-107086565D01*
X175171465Y-107117507D01*
X175173000Y-107148750D01*
X175173000Y-107786250D01*
X175171465Y-107817493D01*
X175166875Y-107848435D01*
X175159275Y-107878778D01*
X175148737Y-107908230D01*
X175135362Y-107936508D01*
X175119281Y-107963338D01*
X175100647Y-107988463D01*
X175079640Y-108011640D01*
X175056463Y-108032647D01*
X175031338Y-108051281D01*
X175004508Y-108067362D01*
X174976230Y-108080737D01*
X174946778Y-108091275D01*
X174916435Y-108098875D01*
X174885493Y-108103465D01*
X174854250Y-108105000D01*
X174141750Y-108105000D01*
X174110507Y-108103465D01*
X174079565Y-108098875D01*
X174049222Y-108091275D01*
X174019770Y-108080737D01*
X173991492Y-108067362D01*
X173964662Y-108051281D01*
X173939537Y-108032647D01*
X173916360Y-108011640D01*
X173895353Y-107988463D01*
X173876719Y-107963338D01*
X173860638Y-107936508D01*
X173847263Y-107908230D01*
X173836725Y-107878778D01*
X173829125Y-107848435D01*
X173824535Y-107817493D01*
X173823000Y-107786250D01*
X173823000Y-107148750D01*
X173824535Y-107117507D01*
X173829125Y-107086565D01*
X173836725Y-107056222D01*
X173847263Y-107026770D01*
X173860638Y-106998492D01*
X173876719Y-106971662D01*
X173895353Y-106946537D01*
X173916360Y-106923360D01*
X173939537Y-106902353D01*
X173964662Y-106883719D01*
X173991492Y-106867638D01*
X174019770Y-106854263D01*
X174049222Y-106843725D01*
X174079565Y-106836125D01*
X174110507Y-106831535D01*
X174141750Y-106830000D01*
X174854250Y-106830000D01*
X174885493Y-106831535D01*
X174885493Y-106831535D01*
G37*
D11*
X174498000Y-107467500D03*
D10*
G36*
X181235493Y-105256535D02*
G01*
X181266435Y-105261125D01*
X181296778Y-105268725D01*
X181326230Y-105279263D01*
X181354508Y-105292638D01*
X181381338Y-105308719D01*
X181406463Y-105327353D01*
X181429640Y-105348360D01*
X181450647Y-105371537D01*
X181469281Y-105396662D01*
X181485362Y-105423492D01*
X181498737Y-105451770D01*
X181509275Y-105481222D01*
X181516875Y-105511565D01*
X181521465Y-105542507D01*
X181523000Y-105573750D01*
X181523000Y-106211250D01*
X181521465Y-106242493D01*
X181516875Y-106273435D01*
X181509275Y-106303778D01*
X181498737Y-106333230D01*
X181485362Y-106361508D01*
X181469281Y-106388338D01*
X181450647Y-106413463D01*
X181429640Y-106436640D01*
X181406463Y-106457647D01*
X181381338Y-106476281D01*
X181354508Y-106492362D01*
X181326230Y-106505737D01*
X181296778Y-106516275D01*
X181266435Y-106523875D01*
X181235493Y-106528465D01*
X181204250Y-106530000D01*
X180491750Y-106530000D01*
X180460507Y-106528465D01*
X180429565Y-106523875D01*
X180399222Y-106516275D01*
X180369770Y-106505737D01*
X180341492Y-106492362D01*
X180314662Y-106476281D01*
X180289537Y-106457647D01*
X180266360Y-106436640D01*
X180245353Y-106413463D01*
X180226719Y-106388338D01*
X180210638Y-106361508D01*
X180197263Y-106333230D01*
X180186725Y-106303778D01*
X180179125Y-106273435D01*
X180174535Y-106242493D01*
X180173000Y-106211250D01*
X180173000Y-105573750D01*
X180174535Y-105542507D01*
X180179125Y-105511565D01*
X180186725Y-105481222D01*
X180197263Y-105451770D01*
X180210638Y-105423492D01*
X180226719Y-105396662D01*
X180245353Y-105371537D01*
X180266360Y-105348360D01*
X180289537Y-105327353D01*
X180314662Y-105308719D01*
X180341492Y-105292638D01*
X180369770Y-105279263D01*
X180399222Y-105268725D01*
X180429565Y-105261125D01*
X180460507Y-105256535D01*
X180491750Y-105255000D01*
X181204250Y-105255000D01*
X181235493Y-105256535D01*
X181235493Y-105256535D01*
G37*
D11*
X180848000Y-105892500D03*
D10*
G36*
X181235493Y-106831535D02*
G01*
X181266435Y-106836125D01*
X181296778Y-106843725D01*
X181326230Y-106854263D01*
X181354508Y-106867638D01*
X181381338Y-106883719D01*
X181406463Y-106902353D01*
X181429640Y-106923360D01*
X181450647Y-106946537D01*
X181469281Y-106971662D01*
X181485362Y-106998492D01*
X181498737Y-107026770D01*
X181509275Y-107056222D01*
X181516875Y-107086565D01*
X181521465Y-107117507D01*
X181523000Y-107148750D01*
X181523000Y-107786250D01*
X181521465Y-107817493D01*
X181516875Y-107848435D01*
X181509275Y-107878778D01*
X181498737Y-107908230D01*
X181485362Y-107936508D01*
X181469281Y-107963338D01*
X181450647Y-107988463D01*
X181429640Y-108011640D01*
X181406463Y-108032647D01*
X181381338Y-108051281D01*
X181354508Y-108067362D01*
X181326230Y-108080737D01*
X181296778Y-108091275D01*
X181266435Y-108098875D01*
X181235493Y-108103465D01*
X181204250Y-108105000D01*
X180491750Y-108105000D01*
X180460507Y-108103465D01*
X180429565Y-108098875D01*
X180399222Y-108091275D01*
X180369770Y-108080737D01*
X180341492Y-108067362D01*
X180314662Y-108051281D01*
X180289537Y-108032647D01*
X180266360Y-108011640D01*
X180245353Y-107988463D01*
X180226719Y-107963338D01*
X180210638Y-107936508D01*
X180197263Y-107908230D01*
X180186725Y-107878778D01*
X180179125Y-107848435D01*
X180174535Y-107817493D01*
X180173000Y-107786250D01*
X180173000Y-107148750D01*
X180174535Y-107117507D01*
X180179125Y-107086565D01*
X180186725Y-107056222D01*
X180197263Y-107026770D01*
X180210638Y-106998492D01*
X180226719Y-106971662D01*
X180245353Y-106946537D01*
X180266360Y-106923360D01*
X180289537Y-106902353D01*
X180314662Y-106883719D01*
X180341492Y-106867638D01*
X180369770Y-106854263D01*
X180399222Y-106843725D01*
X180429565Y-106836125D01*
X180460507Y-106831535D01*
X180491750Y-106830000D01*
X181204250Y-106830000D01*
X181235493Y-106831535D01*
X181235493Y-106831535D01*
G37*
D11*
X180848000Y-107467500D03*
D10*
G36*
X164205493Y-92798535D02*
G01*
X164236435Y-92803125D01*
X164266778Y-92810725D01*
X164296230Y-92821263D01*
X164324508Y-92834638D01*
X164351338Y-92850719D01*
X164376463Y-92869353D01*
X164399640Y-92890360D01*
X164420647Y-92913537D01*
X164439281Y-92938662D01*
X164455362Y-92965492D01*
X164468737Y-92993770D01*
X164479275Y-93023222D01*
X164486875Y-93053565D01*
X164491465Y-93084507D01*
X164493000Y-93115750D01*
X164493000Y-93828250D01*
X164491465Y-93859493D01*
X164486875Y-93890435D01*
X164479275Y-93920778D01*
X164468737Y-93950230D01*
X164455362Y-93978508D01*
X164439281Y-94005338D01*
X164420647Y-94030463D01*
X164399640Y-94053640D01*
X164376463Y-94074647D01*
X164351338Y-94093281D01*
X164324508Y-94109362D01*
X164296230Y-94122737D01*
X164266778Y-94133275D01*
X164236435Y-94140875D01*
X164205493Y-94145465D01*
X164174250Y-94147000D01*
X163536750Y-94147000D01*
X163505507Y-94145465D01*
X163474565Y-94140875D01*
X163444222Y-94133275D01*
X163414770Y-94122737D01*
X163386492Y-94109362D01*
X163359662Y-94093281D01*
X163334537Y-94074647D01*
X163311360Y-94053640D01*
X163290353Y-94030463D01*
X163271719Y-94005338D01*
X163255638Y-93978508D01*
X163242263Y-93950230D01*
X163231725Y-93920778D01*
X163224125Y-93890435D01*
X163219535Y-93859493D01*
X163218000Y-93828250D01*
X163218000Y-93115750D01*
X163219535Y-93084507D01*
X163224125Y-93053565D01*
X163231725Y-93023222D01*
X163242263Y-92993770D01*
X163255638Y-92965492D01*
X163271719Y-92938662D01*
X163290353Y-92913537D01*
X163311360Y-92890360D01*
X163334537Y-92869353D01*
X163359662Y-92850719D01*
X163386492Y-92834638D01*
X163414770Y-92821263D01*
X163444222Y-92810725D01*
X163474565Y-92803125D01*
X163505507Y-92798535D01*
X163536750Y-92797000D01*
X164174250Y-92797000D01*
X164205493Y-92798535D01*
X164205493Y-92798535D01*
G37*
D11*
X163855500Y-93472000D03*
D10*
G36*
X162630493Y-92798535D02*
G01*
X162661435Y-92803125D01*
X162691778Y-92810725D01*
X162721230Y-92821263D01*
X162749508Y-92834638D01*
X162776338Y-92850719D01*
X162801463Y-92869353D01*
X162824640Y-92890360D01*
X162845647Y-92913537D01*
X162864281Y-92938662D01*
X162880362Y-92965492D01*
X162893737Y-92993770D01*
X162904275Y-93023222D01*
X162911875Y-93053565D01*
X162916465Y-93084507D01*
X162918000Y-93115750D01*
X162918000Y-93828250D01*
X162916465Y-93859493D01*
X162911875Y-93890435D01*
X162904275Y-93920778D01*
X162893737Y-93950230D01*
X162880362Y-93978508D01*
X162864281Y-94005338D01*
X162845647Y-94030463D01*
X162824640Y-94053640D01*
X162801463Y-94074647D01*
X162776338Y-94093281D01*
X162749508Y-94109362D01*
X162721230Y-94122737D01*
X162691778Y-94133275D01*
X162661435Y-94140875D01*
X162630493Y-94145465D01*
X162599250Y-94147000D01*
X161961750Y-94147000D01*
X161930507Y-94145465D01*
X161899565Y-94140875D01*
X161869222Y-94133275D01*
X161839770Y-94122737D01*
X161811492Y-94109362D01*
X161784662Y-94093281D01*
X161759537Y-94074647D01*
X161736360Y-94053640D01*
X161715353Y-94030463D01*
X161696719Y-94005338D01*
X161680638Y-93978508D01*
X161667263Y-93950230D01*
X161656725Y-93920778D01*
X161649125Y-93890435D01*
X161644535Y-93859493D01*
X161643000Y-93828250D01*
X161643000Y-93115750D01*
X161644535Y-93084507D01*
X161649125Y-93053565D01*
X161656725Y-93023222D01*
X161667263Y-92993770D01*
X161680638Y-92965492D01*
X161696719Y-92938662D01*
X161715353Y-92913537D01*
X161736360Y-92890360D01*
X161759537Y-92869353D01*
X161784662Y-92850719D01*
X161811492Y-92834638D01*
X161839770Y-92821263D01*
X161869222Y-92810725D01*
X161899565Y-92803125D01*
X161930507Y-92798535D01*
X161961750Y-92797000D01*
X162599250Y-92797000D01*
X162630493Y-92798535D01*
X162630493Y-92798535D01*
G37*
D11*
X162280500Y-93472000D03*
D10*
G36*
X167202493Y-90766535D02*
G01*
X167233435Y-90771125D01*
X167263778Y-90778725D01*
X167293230Y-90789263D01*
X167321508Y-90802638D01*
X167348338Y-90818719D01*
X167373463Y-90837353D01*
X167396640Y-90858360D01*
X167417647Y-90881537D01*
X167436281Y-90906662D01*
X167452362Y-90933492D01*
X167465737Y-90961770D01*
X167476275Y-90991222D01*
X167483875Y-91021565D01*
X167488465Y-91052507D01*
X167490000Y-91083750D01*
X167490000Y-91796250D01*
X167488465Y-91827493D01*
X167483875Y-91858435D01*
X167476275Y-91888778D01*
X167465737Y-91918230D01*
X167452362Y-91946508D01*
X167436281Y-91973338D01*
X167417647Y-91998463D01*
X167396640Y-92021640D01*
X167373463Y-92042647D01*
X167348338Y-92061281D01*
X167321508Y-92077362D01*
X167293230Y-92090737D01*
X167263778Y-92101275D01*
X167233435Y-92108875D01*
X167202493Y-92113465D01*
X167171250Y-92115000D01*
X166533750Y-92115000D01*
X166502507Y-92113465D01*
X166471565Y-92108875D01*
X166441222Y-92101275D01*
X166411770Y-92090737D01*
X166383492Y-92077362D01*
X166356662Y-92061281D01*
X166331537Y-92042647D01*
X166308360Y-92021640D01*
X166287353Y-91998463D01*
X166268719Y-91973338D01*
X166252638Y-91946508D01*
X166239263Y-91918230D01*
X166228725Y-91888778D01*
X166221125Y-91858435D01*
X166216535Y-91827493D01*
X166215000Y-91796250D01*
X166215000Y-91083750D01*
X166216535Y-91052507D01*
X166221125Y-91021565D01*
X166228725Y-90991222D01*
X166239263Y-90961770D01*
X166252638Y-90933492D01*
X166268719Y-90906662D01*
X166287353Y-90881537D01*
X166308360Y-90858360D01*
X166331537Y-90837353D01*
X166356662Y-90818719D01*
X166383492Y-90802638D01*
X166411770Y-90789263D01*
X166441222Y-90778725D01*
X166471565Y-90771125D01*
X166502507Y-90766535D01*
X166533750Y-90765000D01*
X167171250Y-90765000D01*
X167202493Y-90766535D01*
X167202493Y-90766535D01*
G37*
D11*
X166852500Y-91440000D03*
D10*
G36*
X168777493Y-90766535D02*
G01*
X168808435Y-90771125D01*
X168838778Y-90778725D01*
X168868230Y-90789263D01*
X168896508Y-90802638D01*
X168923338Y-90818719D01*
X168948463Y-90837353D01*
X168971640Y-90858360D01*
X168992647Y-90881537D01*
X169011281Y-90906662D01*
X169027362Y-90933492D01*
X169040737Y-90961770D01*
X169051275Y-90991222D01*
X169058875Y-91021565D01*
X169063465Y-91052507D01*
X169065000Y-91083750D01*
X169065000Y-91796250D01*
X169063465Y-91827493D01*
X169058875Y-91858435D01*
X169051275Y-91888778D01*
X169040737Y-91918230D01*
X169027362Y-91946508D01*
X169011281Y-91973338D01*
X168992647Y-91998463D01*
X168971640Y-92021640D01*
X168948463Y-92042647D01*
X168923338Y-92061281D01*
X168896508Y-92077362D01*
X168868230Y-92090737D01*
X168838778Y-92101275D01*
X168808435Y-92108875D01*
X168777493Y-92113465D01*
X168746250Y-92115000D01*
X168108750Y-92115000D01*
X168077507Y-92113465D01*
X168046565Y-92108875D01*
X168016222Y-92101275D01*
X167986770Y-92090737D01*
X167958492Y-92077362D01*
X167931662Y-92061281D01*
X167906537Y-92042647D01*
X167883360Y-92021640D01*
X167862353Y-91998463D01*
X167843719Y-91973338D01*
X167827638Y-91946508D01*
X167814263Y-91918230D01*
X167803725Y-91888778D01*
X167796125Y-91858435D01*
X167791535Y-91827493D01*
X167790000Y-91796250D01*
X167790000Y-91083750D01*
X167791535Y-91052507D01*
X167796125Y-91021565D01*
X167803725Y-90991222D01*
X167814263Y-90961770D01*
X167827638Y-90933492D01*
X167843719Y-90906662D01*
X167862353Y-90881537D01*
X167883360Y-90858360D01*
X167906537Y-90837353D01*
X167931662Y-90818719D01*
X167958492Y-90802638D01*
X167986770Y-90789263D01*
X168016222Y-90778725D01*
X168046565Y-90771125D01*
X168077507Y-90766535D01*
X168108750Y-90765000D01*
X168746250Y-90765000D01*
X168777493Y-90766535D01*
X168777493Y-90766535D01*
G37*
D11*
X168427500Y-91440000D03*
D10*
G36*
X168015493Y-105498535D02*
G01*
X168046435Y-105503125D01*
X168076778Y-105510725D01*
X168106230Y-105521263D01*
X168134508Y-105534638D01*
X168161338Y-105550719D01*
X168186463Y-105569353D01*
X168209640Y-105590360D01*
X168230647Y-105613537D01*
X168249281Y-105638662D01*
X168265362Y-105665492D01*
X168278737Y-105693770D01*
X168289275Y-105723222D01*
X168296875Y-105753565D01*
X168301465Y-105784507D01*
X168303000Y-105815750D01*
X168303000Y-106528250D01*
X168301465Y-106559493D01*
X168296875Y-106590435D01*
X168289275Y-106620778D01*
X168278737Y-106650230D01*
X168265362Y-106678508D01*
X168249281Y-106705338D01*
X168230647Y-106730463D01*
X168209640Y-106753640D01*
X168186463Y-106774647D01*
X168161338Y-106793281D01*
X168134508Y-106809362D01*
X168106230Y-106822737D01*
X168076778Y-106833275D01*
X168046435Y-106840875D01*
X168015493Y-106845465D01*
X167984250Y-106847000D01*
X167346750Y-106847000D01*
X167315507Y-106845465D01*
X167284565Y-106840875D01*
X167254222Y-106833275D01*
X167224770Y-106822737D01*
X167196492Y-106809362D01*
X167169662Y-106793281D01*
X167144537Y-106774647D01*
X167121360Y-106753640D01*
X167100353Y-106730463D01*
X167081719Y-106705338D01*
X167065638Y-106678508D01*
X167052263Y-106650230D01*
X167041725Y-106620778D01*
X167034125Y-106590435D01*
X167029535Y-106559493D01*
X167028000Y-106528250D01*
X167028000Y-105815750D01*
X167029535Y-105784507D01*
X167034125Y-105753565D01*
X167041725Y-105723222D01*
X167052263Y-105693770D01*
X167065638Y-105665492D01*
X167081719Y-105638662D01*
X167100353Y-105613537D01*
X167121360Y-105590360D01*
X167144537Y-105569353D01*
X167169662Y-105550719D01*
X167196492Y-105534638D01*
X167224770Y-105521263D01*
X167254222Y-105510725D01*
X167284565Y-105503125D01*
X167315507Y-105498535D01*
X167346750Y-105497000D01*
X167984250Y-105497000D01*
X168015493Y-105498535D01*
X168015493Y-105498535D01*
G37*
D11*
X167665500Y-106172000D03*
D10*
G36*
X166440493Y-105498535D02*
G01*
X166471435Y-105503125D01*
X166501778Y-105510725D01*
X166531230Y-105521263D01*
X166559508Y-105534638D01*
X166586338Y-105550719D01*
X166611463Y-105569353D01*
X166634640Y-105590360D01*
X166655647Y-105613537D01*
X166674281Y-105638662D01*
X166690362Y-105665492D01*
X166703737Y-105693770D01*
X166714275Y-105723222D01*
X166721875Y-105753565D01*
X166726465Y-105784507D01*
X166728000Y-105815750D01*
X166728000Y-106528250D01*
X166726465Y-106559493D01*
X166721875Y-106590435D01*
X166714275Y-106620778D01*
X166703737Y-106650230D01*
X166690362Y-106678508D01*
X166674281Y-106705338D01*
X166655647Y-106730463D01*
X166634640Y-106753640D01*
X166611463Y-106774647D01*
X166586338Y-106793281D01*
X166559508Y-106809362D01*
X166531230Y-106822737D01*
X166501778Y-106833275D01*
X166471435Y-106840875D01*
X166440493Y-106845465D01*
X166409250Y-106847000D01*
X165771750Y-106847000D01*
X165740507Y-106845465D01*
X165709565Y-106840875D01*
X165679222Y-106833275D01*
X165649770Y-106822737D01*
X165621492Y-106809362D01*
X165594662Y-106793281D01*
X165569537Y-106774647D01*
X165546360Y-106753640D01*
X165525353Y-106730463D01*
X165506719Y-106705338D01*
X165490638Y-106678508D01*
X165477263Y-106650230D01*
X165466725Y-106620778D01*
X165459125Y-106590435D01*
X165454535Y-106559493D01*
X165453000Y-106528250D01*
X165453000Y-105815750D01*
X165454535Y-105784507D01*
X165459125Y-105753565D01*
X165466725Y-105723222D01*
X165477263Y-105693770D01*
X165490638Y-105665492D01*
X165506719Y-105638662D01*
X165525353Y-105613537D01*
X165546360Y-105590360D01*
X165569537Y-105569353D01*
X165594662Y-105550719D01*
X165621492Y-105534638D01*
X165649770Y-105521263D01*
X165679222Y-105510725D01*
X165709565Y-105503125D01*
X165740507Y-105498535D01*
X165771750Y-105497000D01*
X166409250Y-105497000D01*
X166440493Y-105498535D01*
X166440493Y-105498535D01*
G37*
D11*
X166090500Y-106172000D03*
D10*
G36*
X169767993Y-98132535D02*
G01*
X169798935Y-98137125D01*
X169829278Y-98144725D01*
X169858730Y-98155263D01*
X169887008Y-98168638D01*
X169913838Y-98184719D01*
X169938963Y-98203353D01*
X169962140Y-98224360D01*
X169983147Y-98247537D01*
X170001781Y-98272662D01*
X170017862Y-98299492D01*
X170031237Y-98327770D01*
X170041775Y-98357222D01*
X170049375Y-98387565D01*
X170053965Y-98418507D01*
X170055500Y-98449750D01*
X170055500Y-99162250D01*
X170053965Y-99193493D01*
X170049375Y-99224435D01*
X170041775Y-99254778D01*
X170031237Y-99284230D01*
X170017862Y-99312508D01*
X170001781Y-99339338D01*
X169983147Y-99364463D01*
X169962140Y-99387640D01*
X169938963Y-99408647D01*
X169913838Y-99427281D01*
X169887008Y-99443362D01*
X169858730Y-99456737D01*
X169829278Y-99467275D01*
X169798935Y-99474875D01*
X169767993Y-99479465D01*
X169736750Y-99481000D01*
X169099250Y-99481000D01*
X169068007Y-99479465D01*
X169037065Y-99474875D01*
X169006722Y-99467275D01*
X168977270Y-99456737D01*
X168948992Y-99443362D01*
X168922162Y-99427281D01*
X168897037Y-99408647D01*
X168873860Y-99387640D01*
X168852853Y-99364463D01*
X168834219Y-99339338D01*
X168818138Y-99312508D01*
X168804763Y-99284230D01*
X168794225Y-99254778D01*
X168786625Y-99224435D01*
X168782035Y-99193493D01*
X168780500Y-99162250D01*
X168780500Y-98449750D01*
X168782035Y-98418507D01*
X168786625Y-98387565D01*
X168794225Y-98357222D01*
X168804763Y-98327770D01*
X168818138Y-98299492D01*
X168834219Y-98272662D01*
X168852853Y-98247537D01*
X168873860Y-98224360D01*
X168897037Y-98203353D01*
X168922162Y-98184719D01*
X168948992Y-98168638D01*
X168977270Y-98155263D01*
X169006722Y-98144725D01*
X169037065Y-98137125D01*
X169068007Y-98132535D01*
X169099250Y-98131000D01*
X169736750Y-98131000D01*
X169767993Y-98132535D01*
X169767993Y-98132535D01*
G37*
D11*
X169418000Y-98806000D03*
D10*
G36*
X171342993Y-98132535D02*
G01*
X171373935Y-98137125D01*
X171404278Y-98144725D01*
X171433730Y-98155263D01*
X171462008Y-98168638D01*
X171488838Y-98184719D01*
X171513963Y-98203353D01*
X171537140Y-98224360D01*
X171558147Y-98247537D01*
X171576781Y-98272662D01*
X171592862Y-98299492D01*
X171606237Y-98327770D01*
X171616775Y-98357222D01*
X171624375Y-98387565D01*
X171628965Y-98418507D01*
X171630500Y-98449750D01*
X171630500Y-99162250D01*
X171628965Y-99193493D01*
X171624375Y-99224435D01*
X171616775Y-99254778D01*
X171606237Y-99284230D01*
X171592862Y-99312508D01*
X171576781Y-99339338D01*
X171558147Y-99364463D01*
X171537140Y-99387640D01*
X171513963Y-99408647D01*
X171488838Y-99427281D01*
X171462008Y-99443362D01*
X171433730Y-99456737D01*
X171404278Y-99467275D01*
X171373935Y-99474875D01*
X171342993Y-99479465D01*
X171311750Y-99481000D01*
X170674250Y-99481000D01*
X170643007Y-99479465D01*
X170612065Y-99474875D01*
X170581722Y-99467275D01*
X170552270Y-99456737D01*
X170523992Y-99443362D01*
X170497162Y-99427281D01*
X170472037Y-99408647D01*
X170448860Y-99387640D01*
X170427853Y-99364463D01*
X170409219Y-99339338D01*
X170393138Y-99312508D01*
X170379763Y-99284230D01*
X170369225Y-99254778D01*
X170361625Y-99224435D01*
X170357035Y-99193493D01*
X170355500Y-99162250D01*
X170355500Y-98449750D01*
X170357035Y-98418507D01*
X170361625Y-98387565D01*
X170369225Y-98357222D01*
X170379763Y-98327770D01*
X170393138Y-98299492D01*
X170409219Y-98272662D01*
X170427853Y-98247537D01*
X170448860Y-98224360D01*
X170472037Y-98203353D01*
X170497162Y-98184719D01*
X170523992Y-98168638D01*
X170552270Y-98155263D01*
X170581722Y-98144725D01*
X170612065Y-98137125D01*
X170643007Y-98132535D01*
X170674250Y-98131000D01*
X171311750Y-98131000D01*
X171342993Y-98132535D01*
X171342993Y-98132535D01*
G37*
D11*
X170993000Y-98806000D03*
D10*
G36*
X173044493Y-98132535D02*
G01*
X173075435Y-98137125D01*
X173105778Y-98144725D01*
X173135230Y-98155263D01*
X173163508Y-98168638D01*
X173190338Y-98184719D01*
X173215463Y-98203353D01*
X173238640Y-98224360D01*
X173259647Y-98247537D01*
X173278281Y-98272662D01*
X173294362Y-98299492D01*
X173307737Y-98327770D01*
X173318275Y-98357222D01*
X173325875Y-98387565D01*
X173330465Y-98418507D01*
X173332000Y-98449750D01*
X173332000Y-99162250D01*
X173330465Y-99193493D01*
X173325875Y-99224435D01*
X173318275Y-99254778D01*
X173307737Y-99284230D01*
X173294362Y-99312508D01*
X173278281Y-99339338D01*
X173259647Y-99364463D01*
X173238640Y-99387640D01*
X173215463Y-99408647D01*
X173190338Y-99427281D01*
X173163508Y-99443362D01*
X173135230Y-99456737D01*
X173105778Y-99467275D01*
X173075435Y-99474875D01*
X173044493Y-99479465D01*
X173013250Y-99481000D01*
X172375750Y-99481000D01*
X172344507Y-99479465D01*
X172313565Y-99474875D01*
X172283222Y-99467275D01*
X172253770Y-99456737D01*
X172225492Y-99443362D01*
X172198662Y-99427281D01*
X172173537Y-99408647D01*
X172150360Y-99387640D01*
X172129353Y-99364463D01*
X172110719Y-99339338D01*
X172094638Y-99312508D01*
X172081263Y-99284230D01*
X172070725Y-99254778D01*
X172063125Y-99224435D01*
X172058535Y-99193493D01*
X172057000Y-99162250D01*
X172057000Y-98449750D01*
X172058535Y-98418507D01*
X172063125Y-98387565D01*
X172070725Y-98357222D01*
X172081263Y-98327770D01*
X172094638Y-98299492D01*
X172110719Y-98272662D01*
X172129353Y-98247537D01*
X172150360Y-98224360D01*
X172173537Y-98203353D01*
X172198662Y-98184719D01*
X172225492Y-98168638D01*
X172253770Y-98155263D01*
X172283222Y-98144725D01*
X172313565Y-98137125D01*
X172344507Y-98132535D01*
X172375750Y-98131000D01*
X173013250Y-98131000D01*
X173044493Y-98132535D01*
X173044493Y-98132535D01*
G37*
D11*
X172694500Y-98806000D03*
D10*
G36*
X174619493Y-98132535D02*
G01*
X174650435Y-98137125D01*
X174680778Y-98144725D01*
X174710230Y-98155263D01*
X174738508Y-98168638D01*
X174765338Y-98184719D01*
X174790463Y-98203353D01*
X174813640Y-98224360D01*
X174834647Y-98247537D01*
X174853281Y-98272662D01*
X174869362Y-98299492D01*
X174882737Y-98327770D01*
X174893275Y-98357222D01*
X174900875Y-98387565D01*
X174905465Y-98418507D01*
X174907000Y-98449750D01*
X174907000Y-99162250D01*
X174905465Y-99193493D01*
X174900875Y-99224435D01*
X174893275Y-99254778D01*
X174882737Y-99284230D01*
X174869362Y-99312508D01*
X174853281Y-99339338D01*
X174834647Y-99364463D01*
X174813640Y-99387640D01*
X174790463Y-99408647D01*
X174765338Y-99427281D01*
X174738508Y-99443362D01*
X174710230Y-99456737D01*
X174680778Y-99467275D01*
X174650435Y-99474875D01*
X174619493Y-99479465D01*
X174588250Y-99481000D01*
X173950750Y-99481000D01*
X173919507Y-99479465D01*
X173888565Y-99474875D01*
X173858222Y-99467275D01*
X173828770Y-99456737D01*
X173800492Y-99443362D01*
X173773662Y-99427281D01*
X173748537Y-99408647D01*
X173725360Y-99387640D01*
X173704353Y-99364463D01*
X173685719Y-99339338D01*
X173669638Y-99312508D01*
X173656263Y-99284230D01*
X173645725Y-99254778D01*
X173638125Y-99224435D01*
X173633535Y-99193493D01*
X173632000Y-99162250D01*
X173632000Y-98449750D01*
X173633535Y-98418507D01*
X173638125Y-98387565D01*
X173645725Y-98357222D01*
X173656263Y-98327770D01*
X173669638Y-98299492D01*
X173685719Y-98272662D01*
X173704353Y-98247537D01*
X173725360Y-98224360D01*
X173748537Y-98203353D01*
X173773662Y-98184719D01*
X173800492Y-98168638D01*
X173828770Y-98155263D01*
X173858222Y-98144725D01*
X173888565Y-98137125D01*
X173919507Y-98132535D01*
X173950750Y-98131000D01*
X174588250Y-98131000D01*
X174619493Y-98132535D01*
X174619493Y-98132535D01*
G37*
D11*
X174269500Y-98806000D03*
D10*
G36*
X156280493Y-90004535D02*
G01*
X156311435Y-90009125D01*
X156341778Y-90016725D01*
X156371230Y-90027263D01*
X156399508Y-90040638D01*
X156426338Y-90056719D01*
X156451463Y-90075353D01*
X156474640Y-90096360D01*
X156495647Y-90119537D01*
X156514281Y-90144662D01*
X156530362Y-90171492D01*
X156543737Y-90199770D01*
X156554275Y-90229222D01*
X156561875Y-90259565D01*
X156566465Y-90290507D01*
X156568000Y-90321750D01*
X156568000Y-91034250D01*
X156566465Y-91065493D01*
X156561875Y-91096435D01*
X156554275Y-91126778D01*
X156543737Y-91156230D01*
X156530362Y-91184508D01*
X156514281Y-91211338D01*
X156495647Y-91236463D01*
X156474640Y-91259640D01*
X156451463Y-91280647D01*
X156426338Y-91299281D01*
X156399508Y-91315362D01*
X156371230Y-91328737D01*
X156341778Y-91339275D01*
X156311435Y-91346875D01*
X156280493Y-91351465D01*
X156249250Y-91353000D01*
X155611750Y-91353000D01*
X155580507Y-91351465D01*
X155549565Y-91346875D01*
X155519222Y-91339275D01*
X155489770Y-91328737D01*
X155461492Y-91315362D01*
X155434662Y-91299281D01*
X155409537Y-91280647D01*
X155386360Y-91259640D01*
X155365353Y-91236463D01*
X155346719Y-91211338D01*
X155330638Y-91184508D01*
X155317263Y-91156230D01*
X155306725Y-91126778D01*
X155299125Y-91096435D01*
X155294535Y-91065493D01*
X155293000Y-91034250D01*
X155293000Y-90321750D01*
X155294535Y-90290507D01*
X155299125Y-90259565D01*
X155306725Y-90229222D01*
X155317263Y-90199770D01*
X155330638Y-90171492D01*
X155346719Y-90144662D01*
X155365353Y-90119537D01*
X155386360Y-90096360D01*
X155409537Y-90075353D01*
X155434662Y-90056719D01*
X155461492Y-90040638D01*
X155489770Y-90027263D01*
X155519222Y-90016725D01*
X155549565Y-90009125D01*
X155580507Y-90004535D01*
X155611750Y-90003000D01*
X156249250Y-90003000D01*
X156280493Y-90004535D01*
X156280493Y-90004535D01*
G37*
D11*
X155930500Y-90678000D03*
D10*
G36*
X157855493Y-90004535D02*
G01*
X157886435Y-90009125D01*
X157916778Y-90016725D01*
X157946230Y-90027263D01*
X157974508Y-90040638D01*
X158001338Y-90056719D01*
X158026463Y-90075353D01*
X158049640Y-90096360D01*
X158070647Y-90119537D01*
X158089281Y-90144662D01*
X158105362Y-90171492D01*
X158118737Y-90199770D01*
X158129275Y-90229222D01*
X158136875Y-90259565D01*
X158141465Y-90290507D01*
X158143000Y-90321750D01*
X158143000Y-91034250D01*
X158141465Y-91065493D01*
X158136875Y-91096435D01*
X158129275Y-91126778D01*
X158118737Y-91156230D01*
X158105362Y-91184508D01*
X158089281Y-91211338D01*
X158070647Y-91236463D01*
X158049640Y-91259640D01*
X158026463Y-91280647D01*
X158001338Y-91299281D01*
X157974508Y-91315362D01*
X157946230Y-91328737D01*
X157916778Y-91339275D01*
X157886435Y-91346875D01*
X157855493Y-91351465D01*
X157824250Y-91353000D01*
X157186750Y-91353000D01*
X157155507Y-91351465D01*
X157124565Y-91346875D01*
X157094222Y-91339275D01*
X157064770Y-91328737D01*
X157036492Y-91315362D01*
X157009662Y-91299281D01*
X156984537Y-91280647D01*
X156961360Y-91259640D01*
X156940353Y-91236463D01*
X156921719Y-91211338D01*
X156905638Y-91184508D01*
X156892263Y-91156230D01*
X156881725Y-91126778D01*
X156874125Y-91096435D01*
X156869535Y-91065493D01*
X156868000Y-91034250D01*
X156868000Y-90321750D01*
X156869535Y-90290507D01*
X156874125Y-90259565D01*
X156881725Y-90229222D01*
X156892263Y-90199770D01*
X156905638Y-90171492D01*
X156921719Y-90144662D01*
X156940353Y-90119537D01*
X156961360Y-90096360D01*
X156984537Y-90075353D01*
X157009662Y-90056719D01*
X157036492Y-90040638D01*
X157064770Y-90027263D01*
X157094222Y-90016725D01*
X157124565Y-90009125D01*
X157155507Y-90004535D01*
X157186750Y-90003000D01*
X157824250Y-90003000D01*
X157855493Y-90004535D01*
X157855493Y-90004535D01*
G37*
D11*
X157505500Y-90678000D03*
D21*
X181284000Y-102362000D03*
X176784000Y-102362000D03*
X181284000Y-95862000D03*
X176784000Y-95862000D03*
D22*
X178876000Y-107808000D03*
X178876000Y-109108000D03*
X176216000Y-109108000D03*
X176216000Y-108458000D03*
X176216000Y-107808000D03*
D20*
X163134000Y-114776000D03*
X165034000Y-114776000D03*
X164084000Y-112776000D03*
X162560000Y-105410000D03*
X163510000Y-107410000D03*
X161610000Y-107410000D03*
D23*
X170193000Y-114226000D03*
X170193000Y-111326000D03*
X168643000Y-111326000D03*
X168643000Y-114226000D03*
D24*
X157564000Y-87056000D03*
X157564000Y-86106000D03*
X157564000Y-85156000D03*
X155364000Y-85156000D03*
X155364000Y-87056000D03*
D10*
G36*
X204794493Y-95846535D02*
G01*
X204825435Y-95851125D01*
X204855778Y-95858725D01*
X204885230Y-95869263D01*
X204913508Y-95882638D01*
X204940338Y-95898719D01*
X204965463Y-95917353D01*
X204988640Y-95938360D01*
X205009647Y-95961537D01*
X205028281Y-95986662D01*
X205044362Y-96013492D01*
X205057737Y-96041770D01*
X205068275Y-96071222D01*
X205075875Y-96101565D01*
X205080465Y-96132507D01*
X205082000Y-96163750D01*
X205082000Y-96876250D01*
X205080465Y-96907493D01*
X205075875Y-96938435D01*
X205068275Y-96968778D01*
X205057737Y-96998230D01*
X205044362Y-97026508D01*
X205028281Y-97053338D01*
X205009647Y-97078463D01*
X204988640Y-97101640D01*
X204965463Y-97122647D01*
X204940338Y-97141281D01*
X204913508Y-97157362D01*
X204885230Y-97170737D01*
X204855778Y-97181275D01*
X204825435Y-97188875D01*
X204794493Y-97193465D01*
X204763250Y-97195000D01*
X204125750Y-97195000D01*
X204094507Y-97193465D01*
X204063565Y-97188875D01*
X204033222Y-97181275D01*
X204003770Y-97170737D01*
X203975492Y-97157362D01*
X203948662Y-97141281D01*
X203923537Y-97122647D01*
X203900360Y-97101640D01*
X203879353Y-97078463D01*
X203860719Y-97053338D01*
X203844638Y-97026508D01*
X203831263Y-96998230D01*
X203820725Y-96968778D01*
X203813125Y-96938435D01*
X203808535Y-96907493D01*
X203807000Y-96876250D01*
X203807000Y-96163750D01*
X203808535Y-96132507D01*
X203813125Y-96101565D01*
X203820725Y-96071222D01*
X203831263Y-96041770D01*
X203844638Y-96013492D01*
X203860719Y-95986662D01*
X203879353Y-95961537D01*
X203900360Y-95938360D01*
X203923537Y-95917353D01*
X203948662Y-95898719D01*
X203975492Y-95882638D01*
X204003770Y-95869263D01*
X204033222Y-95858725D01*
X204063565Y-95851125D01*
X204094507Y-95846535D01*
X204125750Y-95845000D01*
X204763250Y-95845000D01*
X204794493Y-95846535D01*
X204794493Y-95846535D01*
G37*
D11*
X204444500Y-96520000D03*
D10*
G36*
X206369493Y-95846535D02*
G01*
X206400435Y-95851125D01*
X206430778Y-95858725D01*
X206460230Y-95869263D01*
X206488508Y-95882638D01*
X206515338Y-95898719D01*
X206540463Y-95917353D01*
X206563640Y-95938360D01*
X206584647Y-95961537D01*
X206603281Y-95986662D01*
X206619362Y-96013492D01*
X206632737Y-96041770D01*
X206643275Y-96071222D01*
X206650875Y-96101565D01*
X206655465Y-96132507D01*
X206657000Y-96163750D01*
X206657000Y-96876250D01*
X206655465Y-96907493D01*
X206650875Y-96938435D01*
X206643275Y-96968778D01*
X206632737Y-96998230D01*
X206619362Y-97026508D01*
X206603281Y-97053338D01*
X206584647Y-97078463D01*
X206563640Y-97101640D01*
X206540463Y-97122647D01*
X206515338Y-97141281D01*
X206488508Y-97157362D01*
X206460230Y-97170737D01*
X206430778Y-97181275D01*
X206400435Y-97188875D01*
X206369493Y-97193465D01*
X206338250Y-97195000D01*
X205700750Y-97195000D01*
X205669507Y-97193465D01*
X205638565Y-97188875D01*
X205608222Y-97181275D01*
X205578770Y-97170737D01*
X205550492Y-97157362D01*
X205523662Y-97141281D01*
X205498537Y-97122647D01*
X205475360Y-97101640D01*
X205454353Y-97078463D01*
X205435719Y-97053338D01*
X205419638Y-97026508D01*
X205406263Y-96998230D01*
X205395725Y-96968778D01*
X205388125Y-96938435D01*
X205383535Y-96907493D01*
X205382000Y-96876250D01*
X205382000Y-96163750D01*
X205383535Y-96132507D01*
X205388125Y-96101565D01*
X205395725Y-96071222D01*
X205406263Y-96041770D01*
X205419638Y-96013492D01*
X205435719Y-95986662D01*
X205454353Y-95961537D01*
X205475360Y-95938360D01*
X205498537Y-95917353D01*
X205523662Y-95898719D01*
X205550492Y-95882638D01*
X205578770Y-95869263D01*
X205608222Y-95858725D01*
X205638565Y-95851125D01*
X205669507Y-95846535D01*
X205700750Y-95845000D01*
X206338250Y-95845000D01*
X206369493Y-95846535D01*
X206369493Y-95846535D01*
G37*
D11*
X206019500Y-96520000D03*
D10*
G36*
X205988759Y-97017192D02*
G01*
X206012785Y-97020756D01*
X206036345Y-97026657D01*
X206059214Y-97034840D01*
X206081171Y-97045224D01*
X206102004Y-97057711D01*
X206121512Y-97072180D01*
X206139509Y-97088491D01*
X206155820Y-97106488D01*
X206170289Y-97125996D01*
X206182776Y-97146829D01*
X206193160Y-97168786D01*
X206201343Y-97191655D01*
X206207244Y-97215215D01*
X206210808Y-97239241D01*
X206212000Y-97263500D01*
X206212000Y-97808500D01*
X206210808Y-97832759D01*
X206207244Y-97856785D01*
X206201343Y-97880345D01*
X206193160Y-97903214D01*
X206182776Y-97925171D01*
X206170289Y-97946004D01*
X206155820Y-97965512D01*
X206139509Y-97983509D01*
X206121512Y-97999820D01*
X206102004Y-98014289D01*
X206081171Y-98026776D01*
X206059214Y-98037160D01*
X206036345Y-98045343D01*
X206012785Y-98051244D01*
X205988759Y-98054808D01*
X205964500Y-98056000D01*
X205469500Y-98056000D01*
X205445241Y-98054808D01*
X205421215Y-98051244D01*
X205397655Y-98045343D01*
X205374786Y-98037160D01*
X205352829Y-98026776D01*
X205331996Y-98014289D01*
X205312488Y-97999820D01*
X205294491Y-97983509D01*
X205278180Y-97965512D01*
X205263711Y-97946004D01*
X205251224Y-97925171D01*
X205240840Y-97903214D01*
X205232657Y-97880345D01*
X205226756Y-97856785D01*
X205223192Y-97832759D01*
X205222000Y-97808500D01*
X205222000Y-97263500D01*
X205223192Y-97239241D01*
X205226756Y-97215215D01*
X205232657Y-97191655D01*
X205240840Y-97168786D01*
X205251224Y-97146829D01*
X205263711Y-97125996D01*
X205278180Y-97106488D01*
X205294491Y-97088491D01*
X205312488Y-97072180D01*
X205331996Y-97057711D01*
X205352829Y-97045224D01*
X205374786Y-97034840D01*
X205397655Y-97026657D01*
X205421215Y-97020756D01*
X205445241Y-97017192D01*
X205469500Y-97016000D01*
X205964500Y-97016000D01*
X205988759Y-97017192D01*
X205988759Y-97017192D01*
G37*
D16*
X205717000Y-97536000D03*
D10*
G36*
X205018759Y-97017192D02*
G01*
X205042785Y-97020756D01*
X205066345Y-97026657D01*
X205089214Y-97034840D01*
X205111171Y-97045224D01*
X205132004Y-97057711D01*
X205151512Y-97072180D01*
X205169509Y-97088491D01*
X205185820Y-97106488D01*
X205200289Y-97125996D01*
X205212776Y-97146829D01*
X205223160Y-97168786D01*
X205231343Y-97191655D01*
X205237244Y-97215215D01*
X205240808Y-97239241D01*
X205242000Y-97263500D01*
X205242000Y-97808500D01*
X205240808Y-97832759D01*
X205237244Y-97856785D01*
X205231343Y-97880345D01*
X205223160Y-97903214D01*
X205212776Y-97925171D01*
X205200289Y-97946004D01*
X205185820Y-97965512D01*
X205169509Y-97983509D01*
X205151512Y-97999820D01*
X205132004Y-98014289D01*
X205111171Y-98026776D01*
X205089214Y-98037160D01*
X205066345Y-98045343D01*
X205042785Y-98051244D01*
X205018759Y-98054808D01*
X204994500Y-98056000D01*
X204499500Y-98056000D01*
X204475241Y-98054808D01*
X204451215Y-98051244D01*
X204427655Y-98045343D01*
X204404786Y-98037160D01*
X204382829Y-98026776D01*
X204361996Y-98014289D01*
X204342488Y-97999820D01*
X204324491Y-97983509D01*
X204308180Y-97965512D01*
X204293711Y-97946004D01*
X204281224Y-97925171D01*
X204270840Y-97903214D01*
X204262657Y-97880345D01*
X204256756Y-97856785D01*
X204253192Y-97832759D01*
X204252000Y-97808500D01*
X204252000Y-97263500D01*
X204253192Y-97239241D01*
X204256756Y-97215215D01*
X204262657Y-97191655D01*
X204270840Y-97168786D01*
X204281224Y-97146829D01*
X204293711Y-97125996D01*
X204308180Y-97106488D01*
X204324491Y-97088491D01*
X204342488Y-97072180D01*
X204361996Y-97057711D01*
X204382829Y-97045224D01*
X204404786Y-97034840D01*
X204427655Y-97026657D01*
X204451215Y-97020756D01*
X204475241Y-97017192D01*
X204499500Y-97016000D01*
X204994500Y-97016000D01*
X205018759Y-97017192D01*
X205018759Y-97017192D01*
G37*
D16*
X204747000Y-97536000D03*
D10*
G36*
X209590759Y-98033192D02*
G01*
X209614785Y-98036756D01*
X209638345Y-98042657D01*
X209661214Y-98050840D01*
X209683171Y-98061224D01*
X209704004Y-98073711D01*
X209723512Y-98088180D01*
X209741509Y-98104491D01*
X209757820Y-98122488D01*
X209772289Y-98141996D01*
X209784776Y-98162829D01*
X209795160Y-98184786D01*
X209803343Y-98207655D01*
X209809244Y-98231215D01*
X209812808Y-98255241D01*
X209814000Y-98279500D01*
X209814000Y-98824500D01*
X209812808Y-98848759D01*
X209809244Y-98872785D01*
X209803343Y-98896345D01*
X209795160Y-98919214D01*
X209784776Y-98941171D01*
X209772289Y-98962004D01*
X209757820Y-98981512D01*
X209741509Y-98999509D01*
X209723512Y-99015820D01*
X209704004Y-99030289D01*
X209683171Y-99042776D01*
X209661214Y-99053160D01*
X209638345Y-99061343D01*
X209614785Y-99067244D01*
X209590759Y-99070808D01*
X209566500Y-99072000D01*
X209071500Y-99072000D01*
X209047241Y-99070808D01*
X209023215Y-99067244D01*
X208999655Y-99061343D01*
X208976786Y-99053160D01*
X208954829Y-99042776D01*
X208933996Y-99030289D01*
X208914488Y-99015820D01*
X208896491Y-98999509D01*
X208880180Y-98981512D01*
X208865711Y-98962004D01*
X208853224Y-98941171D01*
X208842840Y-98919214D01*
X208834657Y-98896345D01*
X208828756Y-98872785D01*
X208825192Y-98848759D01*
X208824000Y-98824500D01*
X208824000Y-98279500D01*
X208825192Y-98255241D01*
X208828756Y-98231215D01*
X208834657Y-98207655D01*
X208842840Y-98184786D01*
X208853224Y-98162829D01*
X208865711Y-98141996D01*
X208880180Y-98122488D01*
X208896491Y-98104491D01*
X208914488Y-98088180D01*
X208933996Y-98073711D01*
X208954829Y-98061224D01*
X208976786Y-98050840D01*
X208999655Y-98042657D01*
X209023215Y-98036756D01*
X209047241Y-98033192D01*
X209071500Y-98032000D01*
X209566500Y-98032000D01*
X209590759Y-98033192D01*
X209590759Y-98033192D01*
G37*
D16*
X209319000Y-98552000D03*
D10*
G36*
X210560759Y-98033192D02*
G01*
X210584785Y-98036756D01*
X210608345Y-98042657D01*
X210631214Y-98050840D01*
X210653171Y-98061224D01*
X210674004Y-98073711D01*
X210693512Y-98088180D01*
X210711509Y-98104491D01*
X210727820Y-98122488D01*
X210742289Y-98141996D01*
X210754776Y-98162829D01*
X210765160Y-98184786D01*
X210773343Y-98207655D01*
X210779244Y-98231215D01*
X210782808Y-98255241D01*
X210784000Y-98279500D01*
X210784000Y-98824500D01*
X210782808Y-98848759D01*
X210779244Y-98872785D01*
X210773343Y-98896345D01*
X210765160Y-98919214D01*
X210754776Y-98941171D01*
X210742289Y-98962004D01*
X210727820Y-98981512D01*
X210711509Y-98999509D01*
X210693512Y-99015820D01*
X210674004Y-99030289D01*
X210653171Y-99042776D01*
X210631214Y-99053160D01*
X210608345Y-99061343D01*
X210584785Y-99067244D01*
X210560759Y-99070808D01*
X210536500Y-99072000D01*
X210041500Y-99072000D01*
X210017241Y-99070808D01*
X209993215Y-99067244D01*
X209969655Y-99061343D01*
X209946786Y-99053160D01*
X209924829Y-99042776D01*
X209903996Y-99030289D01*
X209884488Y-99015820D01*
X209866491Y-98999509D01*
X209850180Y-98981512D01*
X209835711Y-98962004D01*
X209823224Y-98941171D01*
X209812840Y-98919214D01*
X209804657Y-98896345D01*
X209798756Y-98872785D01*
X209795192Y-98848759D01*
X209794000Y-98824500D01*
X209794000Y-98279500D01*
X209795192Y-98255241D01*
X209798756Y-98231215D01*
X209804657Y-98207655D01*
X209812840Y-98184786D01*
X209823224Y-98162829D01*
X209835711Y-98141996D01*
X209850180Y-98122488D01*
X209866491Y-98104491D01*
X209884488Y-98088180D01*
X209903996Y-98073711D01*
X209924829Y-98061224D01*
X209946786Y-98050840D01*
X209969655Y-98042657D01*
X209993215Y-98036756D01*
X210017241Y-98033192D01*
X210041500Y-98032000D01*
X210536500Y-98032000D01*
X210560759Y-98033192D01*
X210560759Y-98033192D01*
G37*
D16*
X210289000Y-98552000D03*
D10*
G36*
X210560759Y-99049192D02*
G01*
X210584785Y-99052756D01*
X210608345Y-99058657D01*
X210631214Y-99066840D01*
X210653171Y-99077224D01*
X210674004Y-99089711D01*
X210693512Y-99104180D01*
X210711509Y-99120491D01*
X210727820Y-99138488D01*
X210742289Y-99157996D01*
X210754776Y-99178829D01*
X210765160Y-99200786D01*
X210773343Y-99223655D01*
X210779244Y-99247215D01*
X210782808Y-99271241D01*
X210784000Y-99295500D01*
X210784000Y-99840500D01*
X210782808Y-99864759D01*
X210779244Y-99888785D01*
X210773343Y-99912345D01*
X210765160Y-99935214D01*
X210754776Y-99957171D01*
X210742289Y-99978004D01*
X210727820Y-99997512D01*
X210711509Y-100015509D01*
X210693512Y-100031820D01*
X210674004Y-100046289D01*
X210653171Y-100058776D01*
X210631214Y-100069160D01*
X210608345Y-100077343D01*
X210584785Y-100083244D01*
X210560759Y-100086808D01*
X210536500Y-100088000D01*
X210041500Y-100088000D01*
X210017241Y-100086808D01*
X209993215Y-100083244D01*
X209969655Y-100077343D01*
X209946786Y-100069160D01*
X209924829Y-100058776D01*
X209903996Y-100046289D01*
X209884488Y-100031820D01*
X209866491Y-100015509D01*
X209850180Y-99997512D01*
X209835711Y-99978004D01*
X209823224Y-99957171D01*
X209812840Y-99935214D01*
X209804657Y-99912345D01*
X209798756Y-99888785D01*
X209795192Y-99864759D01*
X209794000Y-99840500D01*
X209794000Y-99295500D01*
X209795192Y-99271241D01*
X209798756Y-99247215D01*
X209804657Y-99223655D01*
X209812840Y-99200786D01*
X209823224Y-99178829D01*
X209835711Y-99157996D01*
X209850180Y-99138488D01*
X209866491Y-99120491D01*
X209884488Y-99104180D01*
X209903996Y-99089711D01*
X209924829Y-99077224D01*
X209946786Y-99066840D01*
X209969655Y-99058657D01*
X209993215Y-99052756D01*
X210017241Y-99049192D01*
X210041500Y-99048000D01*
X210536500Y-99048000D01*
X210560759Y-99049192D01*
X210560759Y-99049192D01*
G37*
D16*
X210289000Y-99568000D03*
D10*
G36*
X209590759Y-99049192D02*
G01*
X209614785Y-99052756D01*
X209638345Y-99058657D01*
X209661214Y-99066840D01*
X209683171Y-99077224D01*
X209704004Y-99089711D01*
X209723512Y-99104180D01*
X209741509Y-99120491D01*
X209757820Y-99138488D01*
X209772289Y-99157996D01*
X209784776Y-99178829D01*
X209795160Y-99200786D01*
X209803343Y-99223655D01*
X209809244Y-99247215D01*
X209812808Y-99271241D01*
X209814000Y-99295500D01*
X209814000Y-99840500D01*
X209812808Y-99864759D01*
X209809244Y-99888785D01*
X209803343Y-99912345D01*
X209795160Y-99935214D01*
X209784776Y-99957171D01*
X209772289Y-99978004D01*
X209757820Y-99997512D01*
X209741509Y-100015509D01*
X209723512Y-100031820D01*
X209704004Y-100046289D01*
X209683171Y-100058776D01*
X209661214Y-100069160D01*
X209638345Y-100077343D01*
X209614785Y-100083244D01*
X209590759Y-100086808D01*
X209566500Y-100088000D01*
X209071500Y-100088000D01*
X209047241Y-100086808D01*
X209023215Y-100083244D01*
X208999655Y-100077343D01*
X208976786Y-100069160D01*
X208954829Y-100058776D01*
X208933996Y-100046289D01*
X208914488Y-100031820D01*
X208896491Y-100015509D01*
X208880180Y-99997512D01*
X208865711Y-99978004D01*
X208853224Y-99957171D01*
X208842840Y-99935214D01*
X208834657Y-99912345D01*
X208828756Y-99888785D01*
X208825192Y-99864759D01*
X208824000Y-99840500D01*
X208824000Y-99295500D01*
X208825192Y-99271241D01*
X208828756Y-99247215D01*
X208834657Y-99223655D01*
X208842840Y-99200786D01*
X208853224Y-99178829D01*
X208865711Y-99157996D01*
X208880180Y-99138488D01*
X208896491Y-99120491D01*
X208914488Y-99104180D01*
X208933996Y-99089711D01*
X208954829Y-99077224D01*
X208976786Y-99066840D01*
X208999655Y-99058657D01*
X209023215Y-99052756D01*
X209047241Y-99049192D01*
X209071500Y-99048000D01*
X209566500Y-99048000D01*
X209590759Y-99049192D01*
X209590759Y-99049192D01*
G37*
D16*
X209319000Y-99568000D03*
D10*
G36*
X209590759Y-100319192D02*
G01*
X209614785Y-100322756D01*
X209638345Y-100328657D01*
X209661214Y-100336840D01*
X209683171Y-100347224D01*
X209704004Y-100359711D01*
X209723512Y-100374180D01*
X209741509Y-100390491D01*
X209757820Y-100408488D01*
X209772289Y-100427996D01*
X209784776Y-100448829D01*
X209795160Y-100470786D01*
X209803343Y-100493655D01*
X209809244Y-100517215D01*
X209812808Y-100541241D01*
X209814000Y-100565500D01*
X209814000Y-101110500D01*
X209812808Y-101134759D01*
X209809244Y-101158785D01*
X209803343Y-101182345D01*
X209795160Y-101205214D01*
X209784776Y-101227171D01*
X209772289Y-101248004D01*
X209757820Y-101267512D01*
X209741509Y-101285509D01*
X209723512Y-101301820D01*
X209704004Y-101316289D01*
X209683171Y-101328776D01*
X209661214Y-101339160D01*
X209638345Y-101347343D01*
X209614785Y-101353244D01*
X209590759Y-101356808D01*
X209566500Y-101358000D01*
X209071500Y-101358000D01*
X209047241Y-101356808D01*
X209023215Y-101353244D01*
X208999655Y-101347343D01*
X208976786Y-101339160D01*
X208954829Y-101328776D01*
X208933996Y-101316289D01*
X208914488Y-101301820D01*
X208896491Y-101285509D01*
X208880180Y-101267512D01*
X208865711Y-101248004D01*
X208853224Y-101227171D01*
X208842840Y-101205214D01*
X208834657Y-101182345D01*
X208828756Y-101158785D01*
X208825192Y-101134759D01*
X208824000Y-101110500D01*
X208824000Y-100565500D01*
X208825192Y-100541241D01*
X208828756Y-100517215D01*
X208834657Y-100493655D01*
X208842840Y-100470786D01*
X208853224Y-100448829D01*
X208865711Y-100427996D01*
X208880180Y-100408488D01*
X208896491Y-100390491D01*
X208914488Y-100374180D01*
X208933996Y-100359711D01*
X208954829Y-100347224D01*
X208976786Y-100336840D01*
X208999655Y-100328657D01*
X209023215Y-100322756D01*
X209047241Y-100319192D01*
X209071500Y-100318000D01*
X209566500Y-100318000D01*
X209590759Y-100319192D01*
X209590759Y-100319192D01*
G37*
D16*
X209319000Y-100838000D03*
D10*
G36*
X210560759Y-100319192D02*
G01*
X210584785Y-100322756D01*
X210608345Y-100328657D01*
X210631214Y-100336840D01*
X210653171Y-100347224D01*
X210674004Y-100359711D01*
X210693512Y-100374180D01*
X210711509Y-100390491D01*
X210727820Y-100408488D01*
X210742289Y-100427996D01*
X210754776Y-100448829D01*
X210765160Y-100470786D01*
X210773343Y-100493655D01*
X210779244Y-100517215D01*
X210782808Y-100541241D01*
X210784000Y-100565500D01*
X210784000Y-101110500D01*
X210782808Y-101134759D01*
X210779244Y-101158785D01*
X210773343Y-101182345D01*
X210765160Y-101205214D01*
X210754776Y-101227171D01*
X210742289Y-101248004D01*
X210727820Y-101267512D01*
X210711509Y-101285509D01*
X210693512Y-101301820D01*
X210674004Y-101316289D01*
X210653171Y-101328776D01*
X210631214Y-101339160D01*
X210608345Y-101347343D01*
X210584785Y-101353244D01*
X210560759Y-101356808D01*
X210536500Y-101358000D01*
X210041500Y-101358000D01*
X210017241Y-101356808D01*
X209993215Y-101353244D01*
X209969655Y-101347343D01*
X209946786Y-101339160D01*
X209924829Y-101328776D01*
X209903996Y-101316289D01*
X209884488Y-101301820D01*
X209866491Y-101285509D01*
X209850180Y-101267512D01*
X209835711Y-101248004D01*
X209823224Y-101227171D01*
X209812840Y-101205214D01*
X209804657Y-101182345D01*
X209798756Y-101158785D01*
X209795192Y-101134759D01*
X209794000Y-101110500D01*
X209794000Y-100565500D01*
X209795192Y-100541241D01*
X209798756Y-100517215D01*
X209804657Y-100493655D01*
X209812840Y-100470786D01*
X209823224Y-100448829D01*
X209835711Y-100427996D01*
X209850180Y-100408488D01*
X209866491Y-100390491D01*
X209884488Y-100374180D01*
X209903996Y-100359711D01*
X209924829Y-100347224D01*
X209946786Y-100336840D01*
X209969655Y-100328657D01*
X209993215Y-100322756D01*
X210017241Y-100319192D01*
X210041500Y-100318000D01*
X210536500Y-100318000D01*
X210560759Y-100319192D01*
X210560759Y-100319192D01*
G37*
D16*
X210289000Y-100838000D03*
D10*
G36*
X210560759Y-101335192D02*
G01*
X210584785Y-101338756D01*
X210608345Y-101344657D01*
X210631214Y-101352840D01*
X210653171Y-101363224D01*
X210674004Y-101375711D01*
X210693512Y-101390180D01*
X210711509Y-101406491D01*
X210727820Y-101424488D01*
X210742289Y-101443996D01*
X210754776Y-101464829D01*
X210765160Y-101486786D01*
X210773343Y-101509655D01*
X210779244Y-101533215D01*
X210782808Y-101557241D01*
X210784000Y-101581500D01*
X210784000Y-102126500D01*
X210782808Y-102150759D01*
X210779244Y-102174785D01*
X210773343Y-102198345D01*
X210765160Y-102221214D01*
X210754776Y-102243171D01*
X210742289Y-102264004D01*
X210727820Y-102283512D01*
X210711509Y-102301509D01*
X210693512Y-102317820D01*
X210674004Y-102332289D01*
X210653171Y-102344776D01*
X210631214Y-102355160D01*
X210608345Y-102363343D01*
X210584785Y-102369244D01*
X210560759Y-102372808D01*
X210536500Y-102374000D01*
X210041500Y-102374000D01*
X210017241Y-102372808D01*
X209993215Y-102369244D01*
X209969655Y-102363343D01*
X209946786Y-102355160D01*
X209924829Y-102344776D01*
X209903996Y-102332289D01*
X209884488Y-102317820D01*
X209866491Y-102301509D01*
X209850180Y-102283512D01*
X209835711Y-102264004D01*
X209823224Y-102243171D01*
X209812840Y-102221214D01*
X209804657Y-102198345D01*
X209798756Y-102174785D01*
X209795192Y-102150759D01*
X209794000Y-102126500D01*
X209794000Y-101581500D01*
X209795192Y-101557241D01*
X209798756Y-101533215D01*
X209804657Y-101509655D01*
X209812840Y-101486786D01*
X209823224Y-101464829D01*
X209835711Y-101443996D01*
X209850180Y-101424488D01*
X209866491Y-101406491D01*
X209884488Y-101390180D01*
X209903996Y-101375711D01*
X209924829Y-101363224D01*
X209946786Y-101352840D01*
X209969655Y-101344657D01*
X209993215Y-101338756D01*
X210017241Y-101335192D01*
X210041500Y-101334000D01*
X210536500Y-101334000D01*
X210560759Y-101335192D01*
X210560759Y-101335192D01*
G37*
D16*
X210289000Y-101854000D03*
D10*
G36*
X209590759Y-101335192D02*
G01*
X209614785Y-101338756D01*
X209638345Y-101344657D01*
X209661214Y-101352840D01*
X209683171Y-101363224D01*
X209704004Y-101375711D01*
X209723512Y-101390180D01*
X209741509Y-101406491D01*
X209757820Y-101424488D01*
X209772289Y-101443996D01*
X209784776Y-101464829D01*
X209795160Y-101486786D01*
X209803343Y-101509655D01*
X209809244Y-101533215D01*
X209812808Y-101557241D01*
X209814000Y-101581500D01*
X209814000Y-102126500D01*
X209812808Y-102150759D01*
X209809244Y-102174785D01*
X209803343Y-102198345D01*
X209795160Y-102221214D01*
X209784776Y-102243171D01*
X209772289Y-102264004D01*
X209757820Y-102283512D01*
X209741509Y-102301509D01*
X209723512Y-102317820D01*
X209704004Y-102332289D01*
X209683171Y-102344776D01*
X209661214Y-102355160D01*
X209638345Y-102363343D01*
X209614785Y-102369244D01*
X209590759Y-102372808D01*
X209566500Y-102374000D01*
X209071500Y-102374000D01*
X209047241Y-102372808D01*
X209023215Y-102369244D01*
X208999655Y-102363343D01*
X208976786Y-102355160D01*
X208954829Y-102344776D01*
X208933996Y-102332289D01*
X208914488Y-102317820D01*
X208896491Y-102301509D01*
X208880180Y-102283512D01*
X208865711Y-102264004D01*
X208853224Y-102243171D01*
X208842840Y-102221214D01*
X208834657Y-102198345D01*
X208828756Y-102174785D01*
X208825192Y-102150759D01*
X208824000Y-102126500D01*
X208824000Y-101581500D01*
X208825192Y-101557241D01*
X208828756Y-101533215D01*
X208834657Y-101509655D01*
X208842840Y-101486786D01*
X208853224Y-101464829D01*
X208865711Y-101443996D01*
X208880180Y-101424488D01*
X208896491Y-101406491D01*
X208914488Y-101390180D01*
X208933996Y-101375711D01*
X208954829Y-101363224D01*
X208976786Y-101352840D01*
X208999655Y-101344657D01*
X209023215Y-101338756D01*
X209047241Y-101335192D01*
X209071500Y-101334000D01*
X209566500Y-101334000D01*
X209590759Y-101335192D01*
X209590759Y-101335192D01*
G37*
D16*
X209319000Y-101854000D03*
D25*
X156464000Y-114554000D03*
X187960000Y-84074000D03*
X219964000Y-114554000D03*
D10*
G36*
X174885493Y-112876535D02*
G01*
X174916435Y-112881125D01*
X174946778Y-112888725D01*
X174976230Y-112899263D01*
X175004508Y-112912638D01*
X175031338Y-112928719D01*
X175056463Y-112947353D01*
X175079640Y-112968360D01*
X175100647Y-112991537D01*
X175119281Y-113016662D01*
X175135362Y-113043492D01*
X175148737Y-113071770D01*
X175159275Y-113101222D01*
X175166875Y-113131565D01*
X175171465Y-113162507D01*
X175173000Y-113193750D01*
X175173000Y-113831250D01*
X175171465Y-113862493D01*
X175166875Y-113893435D01*
X175159275Y-113923778D01*
X175148737Y-113953230D01*
X175135362Y-113981508D01*
X175119281Y-114008338D01*
X175100647Y-114033463D01*
X175079640Y-114056640D01*
X175056463Y-114077647D01*
X175031338Y-114096281D01*
X175004508Y-114112362D01*
X174976230Y-114125737D01*
X174946778Y-114136275D01*
X174916435Y-114143875D01*
X174885493Y-114148465D01*
X174854250Y-114150000D01*
X174141750Y-114150000D01*
X174110507Y-114148465D01*
X174079565Y-114143875D01*
X174049222Y-114136275D01*
X174019770Y-114125737D01*
X173991492Y-114112362D01*
X173964662Y-114096281D01*
X173939537Y-114077647D01*
X173916360Y-114056640D01*
X173895353Y-114033463D01*
X173876719Y-114008338D01*
X173860638Y-113981508D01*
X173847263Y-113953230D01*
X173836725Y-113923778D01*
X173829125Y-113893435D01*
X173824535Y-113862493D01*
X173823000Y-113831250D01*
X173823000Y-113193750D01*
X173824535Y-113162507D01*
X173829125Y-113131565D01*
X173836725Y-113101222D01*
X173847263Y-113071770D01*
X173860638Y-113043492D01*
X173876719Y-113016662D01*
X173895353Y-112991537D01*
X173916360Y-112968360D01*
X173939537Y-112947353D01*
X173964662Y-112928719D01*
X173991492Y-112912638D01*
X174019770Y-112899263D01*
X174049222Y-112888725D01*
X174079565Y-112881125D01*
X174110507Y-112876535D01*
X174141750Y-112875000D01*
X174854250Y-112875000D01*
X174885493Y-112876535D01*
X174885493Y-112876535D01*
G37*
D11*
X174498000Y-113512500D03*
D10*
G36*
X174885493Y-114451535D02*
G01*
X174916435Y-114456125D01*
X174946778Y-114463725D01*
X174976230Y-114474263D01*
X175004508Y-114487638D01*
X175031338Y-114503719D01*
X175056463Y-114522353D01*
X175079640Y-114543360D01*
X175100647Y-114566537D01*
X175119281Y-114591662D01*
X175135362Y-114618492D01*
X175148737Y-114646770D01*
X175159275Y-114676222D01*
X175166875Y-114706565D01*
X175171465Y-114737507D01*
X175173000Y-114768750D01*
X175173000Y-115406250D01*
X175171465Y-115437493D01*
X175166875Y-115468435D01*
X175159275Y-115498778D01*
X175148737Y-115528230D01*
X175135362Y-115556508D01*
X175119281Y-115583338D01*
X175100647Y-115608463D01*
X175079640Y-115631640D01*
X175056463Y-115652647D01*
X175031338Y-115671281D01*
X175004508Y-115687362D01*
X174976230Y-115700737D01*
X174946778Y-115711275D01*
X174916435Y-115718875D01*
X174885493Y-115723465D01*
X174854250Y-115725000D01*
X174141750Y-115725000D01*
X174110507Y-115723465D01*
X174079565Y-115718875D01*
X174049222Y-115711275D01*
X174019770Y-115700737D01*
X173991492Y-115687362D01*
X173964662Y-115671281D01*
X173939537Y-115652647D01*
X173916360Y-115631640D01*
X173895353Y-115608463D01*
X173876719Y-115583338D01*
X173860638Y-115556508D01*
X173847263Y-115528230D01*
X173836725Y-115498778D01*
X173829125Y-115468435D01*
X173824535Y-115437493D01*
X173823000Y-115406250D01*
X173823000Y-114768750D01*
X173824535Y-114737507D01*
X173829125Y-114706565D01*
X173836725Y-114676222D01*
X173847263Y-114646770D01*
X173860638Y-114618492D01*
X173876719Y-114591662D01*
X173895353Y-114566537D01*
X173916360Y-114543360D01*
X173939537Y-114522353D01*
X173964662Y-114503719D01*
X173991492Y-114487638D01*
X174019770Y-114474263D01*
X174049222Y-114463725D01*
X174079565Y-114456125D01*
X174110507Y-114451535D01*
X174141750Y-114450000D01*
X174854250Y-114450000D01*
X174885493Y-114451535D01*
X174885493Y-114451535D01*
G37*
D11*
X174498000Y-115087500D03*
D10*
G36*
X184952759Y-110479192D02*
G01*
X184976785Y-110482756D01*
X185000345Y-110488657D01*
X185023214Y-110496840D01*
X185045171Y-110507224D01*
X185066004Y-110519711D01*
X185085512Y-110534180D01*
X185103509Y-110550491D01*
X185119820Y-110568488D01*
X185134289Y-110587996D01*
X185146776Y-110608829D01*
X185157160Y-110630786D01*
X185165343Y-110653655D01*
X185171244Y-110677215D01*
X185174808Y-110701241D01*
X185176000Y-110725500D01*
X185176000Y-111270500D01*
X185174808Y-111294759D01*
X185171244Y-111318785D01*
X185165343Y-111342345D01*
X185157160Y-111365214D01*
X185146776Y-111387171D01*
X185134289Y-111408004D01*
X185119820Y-111427512D01*
X185103509Y-111445509D01*
X185085512Y-111461820D01*
X185066004Y-111476289D01*
X185045171Y-111488776D01*
X185023214Y-111499160D01*
X185000345Y-111507343D01*
X184976785Y-111513244D01*
X184952759Y-111516808D01*
X184928500Y-111518000D01*
X184433500Y-111518000D01*
X184409241Y-111516808D01*
X184385215Y-111513244D01*
X184361655Y-111507343D01*
X184338786Y-111499160D01*
X184316829Y-111488776D01*
X184295996Y-111476289D01*
X184276488Y-111461820D01*
X184258491Y-111445509D01*
X184242180Y-111427512D01*
X184227711Y-111408004D01*
X184215224Y-111387171D01*
X184204840Y-111365214D01*
X184196657Y-111342345D01*
X184190756Y-111318785D01*
X184187192Y-111294759D01*
X184186000Y-111270500D01*
X184186000Y-110725500D01*
X184187192Y-110701241D01*
X184190756Y-110677215D01*
X184196657Y-110653655D01*
X184204840Y-110630786D01*
X184215224Y-110608829D01*
X184227711Y-110587996D01*
X184242180Y-110568488D01*
X184258491Y-110550491D01*
X184276488Y-110534180D01*
X184295996Y-110519711D01*
X184316829Y-110507224D01*
X184338786Y-110496840D01*
X184361655Y-110488657D01*
X184385215Y-110482756D01*
X184409241Y-110479192D01*
X184433500Y-110478000D01*
X184928500Y-110478000D01*
X184952759Y-110479192D01*
X184952759Y-110479192D01*
G37*
D16*
X184681000Y-110998000D03*
D10*
G36*
X185922759Y-110479192D02*
G01*
X185946785Y-110482756D01*
X185970345Y-110488657D01*
X185993214Y-110496840D01*
X186015171Y-110507224D01*
X186036004Y-110519711D01*
X186055512Y-110534180D01*
X186073509Y-110550491D01*
X186089820Y-110568488D01*
X186104289Y-110587996D01*
X186116776Y-110608829D01*
X186127160Y-110630786D01*
X186135343Y-110653655D01*
X186141244Y-110677215D01*
X186144808Y-110701241D01*
X186146000Y-110725500D01*
X186146000Y-111270500D01*
X186144808Y-111294759D01*
X186141244Y-111318785D01*
X186135343Y-111342345D01*
X186127160Y-111365214D01*
X186116776Y-111387171D01*
X186104289Y-111408004D01*
X186089820Y-111427512D01*
X186073509Y-111445509D01*
X186055512Y-111461820D01*
X186036004Y-111476289D01*
X186015171Y-111488776D01*
X185993214Y-111499160D01*
X185970345Y-111507343D01*
X185946785Y-111513244D01*
X185922759Y-111516808D01*
X185898500Y-111518000D01*
X185403500Y-111518000D01*
X185379241Y-111516808D01*
X185355215Y-111513244D01*
X185331655Y-111507343D01*
X185308786Y-111499160D01*
X185286829Y-111488776D01*
X185265996Y-111476289D01*
X185246488Y-111461820D01*
X185228491Y-111445509D01*
X185212180Y-111427512D01*
X185197711Y-111408004D01*
X185185224Y-111387171D01*
X185174840Y-111365214D01*
X185166657Y-111342345D01*
X185160756Y-111318785D01*
X185157192Y-111294759D01*
X185156000Y-111270500D01*
X185156000Y-110725500D01*
X185157192Y-110701241D01*
X185160756Y-110677215D01*
X185166657Y-110653655D01*
X185174840Y-110630786D01*
X185185224Y-110608829D01*
X185197711Y-110587996D01*
X185212180Y-110568488D01*
X185228491Y-110550491D01*
X185246488Y-110534180D01*
X185265996Y-110519711D01*
X185286829Y-110507224D01*
X185308786Y-110496840D01*
X185331655Y-110488657D01*
X185355215Y-110482756D01*
X185379241Y-110479192D01*
X185403500Y-110478000D01*
X185898500Y-110478000D01*
X185922759Y-110479192D01*
X185922759Y-110479192D01*
G37*
D16*
X185651000Y-110998000D03*
D10*
G36*
X176064759Y-113321192D02*
G01*
X176088785Y-113324756D01*
X176112345Y-113330657D01*
X176135214Y-113338840D01*
X176157171Y-113349224D01*
X176178004Y-113361711D01*
X176197512Y-113376180D01*
X176215509Y-113392491D01*
X176231820Y-113410488D01*
X176246289Y-113429996D01*
X176258776Y-113450829D01*
X176269160Y-113472786D01*
X176277343Y-113495655D01*
X176283244Y-113519215D01*
X176286808Y-113543241D01*
X176288000Y-113567500D01*
X176288000Y-114062500D01*
X176286808Y-114086759D01*
X176283244Y-114110785D01*
X176277343Y-114134345D01*
X176269160Y-114157214D01*
X176258776Y-114179171D01*
X176246289Y-114200004D01*
X176231820Y-114219512D01*
X176215509Y-114237509D01*
X176197512Y-114253820D01*
X176178004Y-114268289D01*
X176157171Y-114280776D01*
X176135214Y-114291160D01*
X176112345Y-114299343D01*
X176088785Y-114305244D01*
X176064759Y-114308808D01*
X176040500Y-114310000D01*
X175495500Y-114310000D01*
X175471241Y-114308808D01*
X175447215Y-114305244D01*
X175423655Y-114299343D01*
X175400786Y-114291160D01*
X175378829Y-114280776D01*
X175357996Y-114268289D01*
X175338488Y-114253820D01*
X175320491Y-114237509D01*
X175304180Y-114219512D01*
X175289711Y-114200004D01*
X175277224Y-114179171D01*
X175266840Y-114157214D01*
X175258657Y-114134345D01*
X175252756Y-114110785D01*
X175249192Y-114086759D01*
X175248000Y-114062500D01*
X175248000Y-113567500D01*
X175249192Y-113543241D01*
X175252756Y-113519215D01*
X175258657Y-113495655D01*
X175266840Y-113472786D01*
X175277224Y-113450829D01*
X175289711Y-113429996D01*
X175304180Y-113410488D01*
X175320491Y-113392491D01*
X175338488Y-113376180D01*
X175357996Y-113361711D01*
X175378829Y-113349224D01*
X175400786Y-113338840D01*
X175423655Y-113330657D01*
X175447215Y-113324756D01*
X175471241Y-113321192D01*
X175495500Y-113320000D01*
X176040500Y-113320000D01*
X176064759Y-113321192D01*
X176064759Y-113321192D01*
G37*
D16*
X175768000Y-113815000D03*
D10*
G36*
X176064759Y-114291192D02*
G01*
X176088785Y-114294756D01*
X176112345Y-114300657D01*
X176135214Y-114308840D01*
X176157171Y-114319224D01*
X176178004Y-114331711D01*
X176197512Y-114346180D01*
X176215509Y-114362491D01*
X176231820Y-114380488D01*
X176246289Y-114399996D01*
X176258776Y-114420829D01*
X176269160Y-114442786D01*
X176277343Y-114465655D01*
X176283244Y-114489215D01*
X176286808Y-114513241D01*
X176288000Y-114537500D01*
X176288000Y-115032500D01*
X176286808Y-115056759D01*
X176283244Y-115080785D01*
X176277343Y-115104345D01*
X176269160Y-115127214D01*
X176258776Y-115149171D01*
X176246289Y-115170004D01*
X176231820Y-115189512D01*
X176215509Y-115207509D01*
X176197512Y-115223820D01*
X176178004Y-115238289D01*
X176157171Y-115250776D01*
X176135214Y-115261160D01*
X176112345Y-115269343D01*
X176088785Y-115275244D01*
X176064759Y-115278808D01*
X176040500Y-115280000D01*
X175495500Y-115280000D01*
X175471241Y-115278808D01*
X175447215Y-115275244D01*
X175423655Y-115269343D01*
X175400786Y-115261160D01*
X175378829Y-115250776D01*
X175357996Y-115238289D01*
X175338488Y-115223820D01*
X175320491Y-115207509D01*
X175304180Y-115189512D01*
X175289711Y-115170004D01*
X175277224Y-115149171D01*
X175266840Y-115127214D01*
X175258657Y-115104345D01*
X175252756Y-115080785D01*
X175249192Y-115056759D01*
X175248000Y-115032500D01*
X175248000Y-114537500D01*
X175249192Y-114513241D01*
X175252756Y-114489215D01*
X175258657Y-114465655D01*
X175266840Y-114442786D01*
X175277224Y-114420829D01*
X175289711Y-114399996D01*
X175304180Y-114380488D01*
X175320491Y-114362491D01*
X175338488Y-114346180D01*
X175357996Y-114331711D01*
X175378829Y-114319224D01*
X175400786Y-114308840D01*
X175423655Y-114300657D01*
X175447215Y-114294756D01*
X175471241Y-114291192D01*
X175495500Y-114290000D01*
X176040500Y-114290000D01*
X176064759Y-114291192D01*
X176064759Y-114291192D01*
G37*
D16*
X175768000Y-114785000D03*
D10*
G36*
X204995759Y-104637192D02*
G01*
X205019785Y-104640756D01*
X205043345Y-104646657D01*
X205066214Y-104654840D01*
X205088171Y-104665224D01*
X205109004Y-104677711D01*
X205128512Y-104692180D01*
X205146509Y-104708491D01*
X205162820Y-104726488D01*
X205177289Y-104745996D01*
X205189776Y-104766829D01*
X205200160Y-104788786D01*
X205208343Y-104811655D01*
X205214244Y-104835215D01*
X205217808Y-104859241D01*
X205219000Y-104883500D01*
X205219000Y-105428500D01*
X205217808Y-105452759D01*
X205214244Y-105476785D01*
X205208343Y-105500345D01*
X205200160Y-105523214D01*
X205189776Y-105545171D01*
X205177289Y-105566004D01*
X205162820Y-105585512D01*
X205146509Y-105603509D01*
X205128512Y-105619820D01*
X205109004Y-105634289D01*
X205088171Y-105646776D01*
X205066214Y-105657160D01*
X205043345Y-105665343D01*
X205019785Y-105671244D01*
X204995759Y-105674808D01*
X204971500Y-105676000D01*
X204476500Y-105676000D01*
X204452241Y-105674808D01*
X204428215Y-105671244D01*
X204404655Y-105665343D01*
X204381786Y-105657160D01*
X204359829Y-105646776D01*
X204338996Y-105634289D01*
X204319488Y-105619820D01*
X204301491Y-105603509D01*
X204285180Y-105585512D01*
X204270711Y-105566004D01*
X204258224Y-105545171D01*
X204247840Y-105523214D01*
X204239657Y-105500345D01*
X204233756Y-105476785D01*
X204230192Y-105452759D01*
X204229000Y-105428500D01*
X204229000Y-104883500D01*
X204230192Y-104859241D01*
X204233756Y-104835215D01*
X204239657Y-104811655D01*
X204247840Y-104788786D01*
X204258224Y-104766829D01*
X204270711Y-104745996D01*
X204285180Y-104726488D01*
X204301491Y-104708491D01*
X204319488Y-104692180D01*
X204338996Y-104677711D01*
X204359829Y-104665224D01*
X204381786Y-104654840D01*
X204404655Y-104646657D01*
X204428215Y-104640756D01*
X204452241Y-104637192D01*
X204476500Y-104636000D01*
X204971500Y-104636000D01*
X204995759Y-104637192D01*
X204995759Y-104637192D01*
G37*
D16*
X204724000Y-105156000D03*
D10*
G36*
X205965759Y-104637192D02*
G01*
X205989785Y-104640756D01*
X206013345Y-104646657D01*
X206036214Y-104654840D01*
X206058171Y-104665224D01*
X206079004Y-104677711D01*
X206098512Y-104692180D01*
X206116509Y-104708491D01*
X206132820Y-104726488D01*
X206147289Y-104745996D01*
X206159776Y-104766829D01*
X206170160Y-104788786D01*
X206178343Y-104811655D01*
X206184244Y-104835215D01*
X206187808Y-104859241D01*
X206189000Y-104883500D01*
X206189000Y-105428500D01*
X206187808Y-105452759D01*
X206184244Y-105476785D01*
X206178343Y-105500345D01*
X206170160Y-105523214D01*
X206159776Y-105545171D01*
X206147289Y-105566004D01*
X206132820Y-105585512D01*
X206116509Y-105603509D01*
X206098512Y-105619820D01*
X206079004Y-105634289D01*
X206058171Y-105646776D01*
X206036214Y-105657160D01*
X206013345Y-105665343D01*
X205989785Y-105671244D01*
X205965759Y-105674808D01*
X205941500Y-105676000D01*
X205446500Y-105676000D01*
X205422241Y-105674808D01*
X205398215Y-105671244D01*
X205374655Y-105665343D01*
X205351786Y-105657160D01*
X205329829Y-105646776D01*
X205308996Y-105634289D01*
X205289488Y-105619820D01*
X205271491Y-105603509D01*
X205255180Y-105585512D01*
X205240711Y-105566004D01*
X205228224Y-105545171D01*
X205217840Y-105523214D01*
X205209657Y-105500345D01*
X205203756Y-105476785D01*
X205200192Y-105452759D01*
X205199000Y-105428500D01*
X205199000Y-104883500D01*
X205200192Y-104859241D01*
X205203756Y-104835215D01*
X205209657Y-104811655D01*
X205217840Y-104788786D01*
X205228224Y-104766829D01*
X205240711Y-104745996D01*
X205255180Y-104726488D01*
X205271491Y-104708491D01*
X205289488Y-104692180D01*
X205308996Y-104677711D01*
X205329829Y-104665224D01*
X205351786Y-104654840D01*
X205374655Y-104646657D01*
X205398215Y-104640756D01*
X205422241Y-104637192D01*
X205446500Y-104636000D01*
X205941500Y-104636000D01*
X205965759Y-104637192D01*
X205965759Y-104637192D01*
G37*
D16*
X205694000Y-105156000D03*
D10*
G36*
X181172493Y-90258535D02*
G01*
X181203435Y-90263125D01*
X181233778Y-90270725D01*
X181263230Y-90281263D01*
X181291508Y-90294638D01*
X181318338Y-90310719D01*
X181343463Y-90329353D01*
X181366640Y-90350360D01*
X181387647Y-90373537D01*
X181406281Y-90398662D01*
X181422362Y-90425492D01*
X181435737Y-90453770D01*
X181446275Y-90483222D01*
X181453875Y-90513565D01*
X181458465Y-90544507D01*
X181460000Y-90575750D01*
X181460000Y-91288250D01*
X181458465Y-91319493D01*
X181453875Y-91350435D01*
X181446275Y-91380778D01*
X181435737Y-91410230D01*
X181422362Y-91438508D01*
X181406281Y-91465338D01*
X181387647Y-91490463D01*
X181366640Y-91513640D01*
X181343463Y-91534647D01*
X181318338Y-91553281D01*
X181291508Y-91569362D01*
X181263230Y-91582737D01*
X181233778Y-91593275D01*
X181203435Y-91600875D01*
X181172493Y-91605465D01*
X181141250Y-91607000D01*
X180503750Y-91607000D01*
X180472507Y-91605465D01*
X180441565Y-91600875D01*
X180411222Y-91593275D01*
X180381770Y-91582737D01*
X180353492Y-91569362D01*
X180326662Y-91553281D01*
X180301537Y-91534647D01*
X180278360Y-91513640D01*
X180257353Y-91490463D01*
X180238719Y-91465338D01*
X180222638Y-91438508D01*
X180209263Y-91410230D01*
X180198725Y-91380778D01*
X180191125Y-91350435D01*
X180186535Y-91319493D01*
X180185000Y-91288250D01*
X180185000Y-90575750D01*
X180186535Y-90544507D01*
X180191125Y-90513565D01*
X180198725Y-90483222D01*
X180209263Y-90453770D01*
X180222638Y-90425492D01*
X180238719Y-90398662D01*
X180257353Y-90373537D01*
X180278360Y-90350360D01*
X180301537Y-90329353D01*
X180326662Y-90310719D01*
X180353492Y-90294638D01*
X180381770Y-90281263D01*
X180411222Y-90270725D01*
X180441565Y-90263125D01*
X180472507Y-90258535D01*
X180503750Y-90257000D01*
X181141250Y-90257000D01*
X181172493Y-90258535D01*
X181172493Y-90258535D01*
G37*
D11*
X180822500Y-90932000D03*
D10*
G36*
X182747493Y-90258535D02*
G01*
X182778435Y-90263125D01*
X182808778Y-90270725D01*
X182838230Y-90281263D01*
X182866508Y-90294638D01*
X182893338Y-90310719D01*
X182918463Y-90329353D01*
X182941640Y-90350360D01*
X182962647Y-90373537D01*
X182981281Y-90398662D01*
X182997362Y-90425492D01*
X183010737Y-90453770D01*
X183021275Y-90483222D01*
X183028875Y-90513565D01*
X183033465Y-90544507D01*
X183035000Y-90575750D01*
X183035000Y-91288250D01*
X183033465Y-91319493D01*
X183028875Y-91350435D01*
X183021275Y-91380778D01*
X183010737Y-91410230D01*
X182997362Y-91438508D01*
X182981281Y-91465338D01*
X182962647Y-91490463D01*
X182941640Y-91513640D01*
X182918463Y-91534647D01*
X182893338Y-91553281D01*
X182866508Y-91569362D01*
X182838230Y-91582737D01*
X182808778Y-91593275D01*
X182778435Y-91600875D01*
X182747493Y-91605465D01*
X182716250Y-91607000D01*
X182078750Y-91607000D01*
X182047507Y-91605465D01*
X182016565Y-91600875D01*
X181986222Y-91593275D01*
X181956770Y-91582737D01*
X181928492Y-91569362D01*
X181901662Y-91553281D01*
X181876537Y-91534647D01*
X181853360Y-91513640D01*
X181832353Y-91490463D01*
X181813719Y-91465338D01*
X181797638Y-91438508D01*
X181784263Y-91410230D01*
X181773725Y-91380778D01*
X181766125Y-91350435D01*
X181761535Y-91319493D01*
X181760000Y-91288250D01*
X181760000Y-90575750D01*
X181761535Y-90544507D01*
X181766125Y-90513565D01*
X181773725Y-90483222D01*
X181784263Y-90453770D01*
X181797638Y-90425492D01*
X181813719Y-90398662D01*
X181832353Y-90373537D01*
X181853360Y-90350360D01*
X181876537Y-90329353D01*
X181901662Y-90310719D01*
X181928492Y-90294638D01*
X181956770Y-90281263D01*
X181986222Y-90270725D01*
X182016565Y-90263125D01*
X182047507Y-90258535D01*
X182078750Y-90257000D01*
X182716250Y-90257000D01*
X182747493Y-90258535D01*
X182747493Y-90258535D01*
G37*
D11*
X182397500Y-90932000D03*
D10*
G36*
X182721993Y-88226535D02*
G01*
X182752935Y-88231125D01*
X182783278Y-88238725D01*
X182812730Y-88249263D01*
X182841008Y-88262638D01*
X182867838Y-88278719D01*
X182892963Y-88297353D01*
X182916140Y-88318360D01*
X182937147Y-88341537D01*
X182955781Y-88366662D01*
X182971862Y-88393492D01*
X182985237Y-88421770D01*
X182995775Y-88451222D01*
X183003375Y-88481565D01*
X183007965Y-88512507D01*
X183009500Y-88543750D01*
X183009500Y-89256250D01*
X183007965Y-89287493D01*
X183003375Y-89318435D01*
X182995775Y-89348778D01*
X182985237Y-89378230D01*
X182971862Y-89406508D01*
X182955781Y-89433338D01*
X182937147Y-89458463D01*
X182916140Y-89481640D01*
X182892963Y-89502647D01*
X182867838Y-89521281D01*
X182841008Y-89537362D01*
X182812730Y-89550737D01*
X182783278Y-89561275D01*
X182752935Y-89568875D01*
X182721993Y-89573465D01*
X182690750Y-89575000D01*
X182053250Y-89575000D01*
X182022007Y-89573465D01*
X181991065Y-89568875D01*
X181960722Y-89561275D01*
X181931270Y-89550737D01*
X181902992Y-89537362D01*
X181876162Y-89521281D01*
X181851037Y-89502647D01*
X181827860Y-89481640D01*
X181806853Y-89458463D01*
X181788219Y-89433338D01*
X181772138Y-89406508D01*
X181758763Y-89378230D01*
X181748225Y-89348778D01*
X181740625Y-89318435D01*
X181736035Y-89287493D01*
X181734500Y-89256250D01*
X181734500Y-88543750D01*
X181736035Y-88512507D01*
X181740625Y-88481565D01*
X181748225Y-88451222D01*
X181758763Y-88421770D01*
X181772138Y-88393492D01*
X181788219Y-88366662D01*
X181806853Y-88341537D01*
X181827860Y-88318360D01*
X181851037Y-88297353D01*
X181876162Y-88278719D01*
X181902992Y-88262638D01*
X181931270Y-88249263D01*
X181960722Y-88238725D01*
X181991065Y-88231125D01*
X182022007Y-88226535D01*
X182053250Y-88225000D01*
X182690750Y-88225000D01*
X182721993Y-88226535D01*
X182721993Y-88226535D01*
G37*
D11*
X182372000Y-88900000D03*
D10*
G36*
X181146993Y-88226535D02*
G01*
X181177935Y-88231125D01*
X181208278Y-88238725D01*
X181237730Y-88249263D01*
X181266008Y-88262638D01*
X181292838Y-88278719D01*
X181317963Y-88297353D01*
X181341140Y-88318360D01*
X181362147Y-88341537D01*
X181380781Y-88366662D01*
X181396862Y-88393492D01*
X181410237Y-88421770D01*
X181420775Y-88451222D01*
X181428375Y-88481565D01*
X181432965Y-88512507D01*
X181434500Y-88543750D01*
X181434500Y-89256250D01*
X181432965Y-89287493D01*
X181428375Y-89318435D01*
X181420775Y-89348778D01*
X181410237Y-89378230D01*
X181396862Y-89406508D01*
X181380781Y-89433338D01*
X181362147Y-89458463D01*
X181341140Y-89481640D01*
X181317963Y-89502647D01*
X181292838Y-89521281D01*
X181266008Y-89537362D01*
X181237730Y-89550737D01*
X181208278Y-89561275D01*
X181177935Y-89568875D01*
X181146993Y-89573465D01*
X181115750Y-89575000D01*
X180478250Y-89575000D01*
X180447007Y-89573465D01*
X180416065Y-89568875D01*
X180385722Y-89561275D01*
X180356270Y-89550737D01*
X180327992Y-89537362D01*
X180301162Y-89521281D01*
X180276037Y-89502647D01*
X180252860Y-89481640D01*
X180231853Y-89458463D01*
X180213219Y-89433338D01*
X180197138Y-89406508D01*
X180183763Y-89378230D01*
X180173225Y-89348778D01*
X180165625Y-89318435D01*
X180161035Y-89287493D01*
X180159500Y-89256250D01*
X180159500Y-88543750D01*
X180161035Y-88512507D01*
X180165625Y-88481565D01*
X180173225Y-88451222D01*
X180183763Y-88421770D01*
X180197138Y-88393492D01*
X180213219Y-88366662D01*
X180231853Y-88341537D01*
X180252860Y-88318360D01*
X180276037Y-88297353D01*
X180301162Y-88278719D01*
X180327992Y-88262638D01*
X180356270Y-88249263D01*
X180385722Y-88238725D01*
X180416065Y-88231125D01*
X180447007Y-88226535D01*
X180478250Y-88225000D01*
X181115750Y-88225000D01*
X181146993Y-88226535D01*
X181146993Y-88226535D01*
G37*
D11*
X180797000Y-88900000D03*
D10*
G36*
X210560759Y-102605192D02*
G01*
X210584785Y-102608756D01*
X210608345Y-102614657D01*
X210631214Y-102622840D01*
X210653171Y-102633224D01*
X210674004Y-102645711D01*
X210693512Y-102660180D01*
X210711509Y-102676491D01*
X210727820Y-102694488D01*
X210742289Y-102713996D01*
X210754776Y-102734829D01*
X210765160Y-102756786D01*
X210773343Y-102779655D01*
X210779244Y-102803215D01*
X210782808Y-102827241D01*
X210784000Y-102851500D01*
X210784000Y-103396500D01*
X210782808Y-103420759D01*
X210779244Y-103444785D01*
X210773343Y-103468345D01*
X210765160Y-103491214D01*
X210754776Y-103513171D01*
X210742289Y-103534004D01*
X210727820Y-103553512D01*
X210711509Y-103571509D01*
X210693512Y-103587820D01*
X210674004Y-103602289D01*
X210653171Y-103614776D01*
X210631214Y-103625160D01*
X210608345Y-103633343D01*
X210584785Y-103639244D01*
X210560759Y-103642808D01*
X210536500Y-103644000D01*
X210041500Y-103644000D01*
X210017241Y-103642808D01*
X209993215Y-103639244D01*
X209969655Y-103633343D01*
X209946786Y-103625160D01*
X209924829Y-103614776D01*
X209903996Y-103602289D01*
X209884488Y-103587820D01*
X209866491Y-103571509D01*
X209850180Y-103553512D01*
X209835711Y-103534004D01*
X209823224Y-103513171D01*
X209812840Y-103491214D01*
X209804657Y-103468345D01*
X209798756Y-103444785D01*
X209795192Y-103420759D01*
X209794000Y-103396500D01*
X209794000Y-102851500D01*
X209795192Y-102827241D01*
X209798756Y-102803215D01*
X209804657Y-102779655D01*
X209812840Y-102756786D01*
X209823224Y-102734829D01*
X209835711Y-102713996D01*
X209850180Y-102694488D01*
X209866491Y-102676491D01*
X209884488Y-102660180D01*
X209903996Y-102645711D01*
X209924829Y-102633224D01*
X209946786Y-102622840D01*
X209969655Y-102614657D01*
X209993215Y-102608756D01*
X210017241Y-102605192D01*
X210041500Y-102604000D01*
X210536500Y-102604000D01*
X210560759Y-102605192D01*
X210560759Y-102605192D01*
G37*
D16*
X210289000Y-103124000D03*
D10*
G36*
X209590759Y-102605192D02*
G01*
X209614785Y-102608756D01*
X209638345Y-102614657D01*
X209661214Y-102622840D01*
X209683171Y-102633224D01*
X209704004Y-102645711D01*
X209723512Y-102660180D01*
X209741509Y-102676491D01*
X209757820Y-102694488D01*
X209772289Y-102713996D01*
X209784776Y-102734829D01*
X209795160Y-102756786D01*
X209803343Y-102779655D01*
X209809244Y-102803215D01*
X209812808Y-102827241D01*
X209814000Y-102851500D01*
X209814000Y-103396500D01*
X209812808Y-103420759D01*
X209809244Y-103444785D01*
X209803343Y-103468345D01*
X209795160Y-103491214D01*
X209784776Y-103513171D01*
X209772289Y-103534004D01*
X209757820Y-103553512D01*
X209741509Y-103571509D01*
X209723512Y-103587820D01*
X209704004Y-103602289D01*
X209683171Y-103614776D01*
X209661214Y-103625160D01*
X209638345Y-103633343D01*
X209614785Y-103639244D01*
X209590759Y-103642808D01*
X209566500Y-103644000D01*
X209071500Y-103644000D01*
X209047241Y-103642808D01*
X209023215Y-103639244D01*
X208999655Y-103633343D01*
X208976786Y-103625160D01*
X208954829Y-103614776D01*
X208933996Y-103602289D01*
X208914488Y-103587820D01*
X208896491Y-103571509D01*
X208880180Y-103553512D01*
X208865711Y-103534004D01*
X208853224Y-103513171D01*
X208842840Y-103491214D01*
X208834657Y-103468345D01*
X208828756Y-103444785D01*
X208825192Y-103420759D01*
X208824000Y-103396500D01*
X208824000Y-102851500D01*
X208825192Y-102827241D01*
X208828756Y-102803215D01*
X208834657Y-102779655D01*
X208842840Y-102756786D01*
X208853224Y-102734829D01*
X208865711Y-102713996D01*
X208880180Y-102694488D01*
X208896491Y-102676491D01*
X208914488Y-102660180D01*
X208933996Y-102645711D01*
X208954829Y-102633224D01*
X208976786Y-102622840D01*
X208999655Y-102614657D01*
X209023215Y-102608756D01*
X209047241Y-102605192D01*
X209071500Y-102604000D01*
X209566500Y-102604000D01*
X209590759Y-102605192D01*
X209590759Y-102605192D01*
G37*
D16*
X209319000Y-103124000D03*
D10*
G36*
X209590759Y-103621192D02*
G01*
X209614785Y-103624756D01*
X209638345Y-103630657D01*
X209661214Y-103638840D01*
X209683171Y-103649224D01*
X209704004Y-103661711D01*
X209723512Y-103676180D01*
X209741509Y-103692491D01*
X209757820Y-103710488D01*
X209772289Y-103729996D01*
X209784776Y-103750829D01*
X209795160Y-103772786D01*
X209803343Y-103795655D01*
X209809244Y-103819215D01*
X209812808Y-103843241D01*
X209814000Y-103867500D01*
X209814000Y-104412500D01*
X209812808Y-104436759D01*
X209809244Y-104460785D01*
X209803343Y-104484345D01*
X209795160Y-104507214D01*
X209784776Y-104529171D01*
X209772289Y-104550004D01*
X209757820Y-104569512D01*
X209741509Y-104587509D01*
X209723512Y-104603820D01*
X209704004Y-104618289D01*
X209683171Y-104630776D01*
X209661214Y-104641160D01*
X209638345Y-104649343D01*
X209614785Y-104655244D01*
X209590759Y-104658808D01*
X209566500Y-104660000D01*
X209071500Y-104660000D01*
X209047241Y-104658808D01*
X209023215Y-104655244D01*
X208999655Y-104649343D01*
X208976786Y-104641160D01*
X208954829Y-104630776D01*
X208933996Y-104618289D01*
X208914488Y-104603820D01*
X208896491Y-104587509D01*
X208880180Y-104569512D01*
X208865711Y-104550004D01*
X208853224Y-104529171D01*
X208842840Y-104507214D01*
X208834657Y-104484345D01*
X208828756Y-104460785D01*
X208825192Y-104436759D01*
X208824000Y-104412500D01*
X208824000Y-103867500D01*
X208825192Y-103843241D01*
X208828756Y-103819215D01*
X208834657Y-103795655D01*
X208842840Y-103772786D01*
X208853224Y-103750829D01*
X208865711Y-103729996D01*
X208880180Y-103710488D01*
X208896491Y-103692491D01*
X208914488Y-103676180D01*
X208933996Y-103661711D01*
X208954829Y-103649224D01*
X208976786Y-103638840D01*
X208999655Y-103630657D01*
X209023215Y-103624756D01*
X209047241Y-103621192D01*
X209071500Y-103620000D01*
X209566500Y-103620000D01*
X209590759Y-103621192D01*
X209590759Y-103621192D01*
G37*
D16*
X209319000Y-104140000D03*
D10*
G36*
X210560759Y-103621192D02*
G01*
X210584785Y-103624756D01*
X210608345Y-103630657D01*
X210631214Y-103638840D01*
X210653171Y-103649224D01*
X210674004Y-103661711D01*
X210693512Y-103676180D01*
X210711509Y-103692491D01*
X210727820Y-103710488D01*
X210742289Y-103729996D01*
X210754776Y-103750829D01*
X210765160Y-103772786D01*
X210773343Y-103795655D01*
X210779244Y-103819215D01*
X210782808Y-103843241D01*
X210784000Y-103867500D01*
X210784000Y-104412500D01*
X210782808Y-104436759D01*
X210779244Y-104460785D01*
X210773343Y-104484345D01*
X210765160Y-104507214D01*
X210754776Y-104529171D01*
X210742289Y-104550004D01*
X210727820Y-104569512D01*
X210711509Y-104587509D01*
X210693512Y-104603820D01*
X210674004Y-104618289D01*
X210653171Y-104630776D01*
X210631214Y-104641160D01*
X210608345Y-104649343D01*
X210584785Y-104655244D01*
X210560759Y-104658808D01*
X210536500Y-104660000D01*
X210041500Y-104660000D01*
X210017241Y-104658808D01*
X209993215Y-104655244D01*
X209969655Y-104649343D01*
X209946786Y-104641160D01*
X209924829Y-104630776D01*
X209903996Y-104618289D01*
X209884488Y-104603820D01*
X209866491Y-104587509D01*
X209850180Y-104569512D01*
X209835711Y-104550004D01*
X209823224Y-104529171D01*
X209812840Y-104507214D01*
X209804657Y-104484345D01*
X209798756Y-104460785D01*
X209795192Y-104436759D01*
X209794000Y-104412500D01*
X209794000Y-103867500D01*
X209795192Y-103843241D01*
X209798756Y-103819215D01*
X209804657Y-103795655D01*
X209812840Y-103772786D01*
X209823224Y-103750829D01*
X209835711Y-103729996D01*
X209850180Y-103710488D01*
X209866491Y-103692491D01*
X209884488Y-103676180D01*
X209903996Y-103661711D01*
X209924829Y-103649224D01*
X209946786Y-103638840D01*
X209969655Y-103630657D01*
X209993215Y-103624756D01*
X210017241Y-103621192D01*
X210041500Y-103620000D01*
X210536500Y-103620000D01*
X210560759Y-103621192D01*
X210560759Y-103621192D01*
G37*
D16*
X210289000Y-104140000D03*
D10*
G36*
X180435993Y-91528535D02*
G01*
X180466935Y-91533125D01*
X180497278Y-91540725D01*
X180526730Y-91551263D01*
X180555008Y-91564638D01*
X180581838Y-91580719D01*
X180606963Y-91599353D01*
X180630140Y-91620360D01*
X180651147Y-91643537D01*
X180669781Y-91668662D01*
X180685862Y-91695492D01*
X180699237Y-91723770D01*
X180709775Y-91753222D01*
X180717375Y-91783565D01*
X180721965Y-91814507D01*
X180723500Y-91845750D01*
X180723500Y-92558250D01*
X180721965Y-92589493D01*
X180717375Y-92620435D01*
X180709775Y-92650778D01*
X180699237Y-92680230D01*
X180685862Y-92708508D01*
X180669781Y-92735338D01*
X180651147Y-92760463D01*
X180630140Y-92783640D01*
X180606963Y-92804647D01*
X180581838Y-92823281D01*
X180555008Y-92839362D01*
X180526730Y-92852737D01*
X180497278Y-92863275D01*
X180466935Y-92870875D01*
X180435993Y-92875465D01*
X180404750Y-92877000D01*
X179767250Y-92877000D01*
X179736007Y-92875465D01*
X179705065Y-92870875D01*
X179674722Y-92863275D01*
X179645270Y-92852737D01*
X179616992Y-92839362D01*
X179590162Y-92823281D01*
X179565037Y-92804647D01*
X179541860Y-92783640D01*
X179520853Y-92760463D01*
X179502219Y-92735338D01*
X179486138Y-92708508D01*
X179472763Y-92680230D01*
X179462225Y-92650778D01*
X179454625Y-92620435D01*
X179450035Y-92589493D01*
X179448500Y-92558250D01*
X179448500Y-91845750D01*
X179450035Y-91814507D01*
X179454625Y-91783565D01*
X179462225Y-91753222D01*
X179472763Y-91723770D01*
X179486138Y-91695492D01*
X179502219Y-91668662D01*
X179520853Y-91643537D01*
X179541860Y-91620360D01*
X179565037Y-91599353D01*
X179590162Y-91580719D01*
X179616992Y-91564638D01*
X179645270Y-91551263D01*
X179674722Y-91540725D01*
X179705065Y-91533125D01*
X179736007Y-91528535D01*
X179767250Y-91527000D01*
X180404750Y-91527000D01*
X180435993Y-91528535D01*
X180435993Y-91528535D01*
G37*
D11*
X180086000Y-92202000D03*
D10*
G36*
X182010993Y-91528535D02*
G01*
X182041935Y-91533125D01*
X182072278Y-91540725D01*
X182101730Y-91551263D01*
X182130008Y-91564638D01*
X182156838Y-91580719D01*
X182181963Y-91599353D01*
X182205140Y-91620360D01*
X182226147Y-91643537D01*
X182244781Y-91668662D01*
X182260862Y-91695492D01*
X182274237Y-91723770D01*
X182284775Y-91753222D01*
X182292375Y-91783565D01*
X182296965Y-91814507D01*
X182298500Y-91845750D01*
X182298500Y-92558250D01*
X182296965Y-92589493D01*
X182292375Y-92620435D01*
X182284775Y-92650778D01*
X182274237Y-92680230D01*
X182260862Y-92708508D01*
X182244781Y-92735338D01*
X182226147Y-92760463D01*
X182205140Y-92783640D01*
X182181963Y-92804647D01*
X182156838Y-92823281D01*
X182130008Y-92839362D01*
X182101730Y-92852737D01*
X182072278Y-92863275D01*
X182041935Y-92870875D01*
X182010993Y-92875465D01*
X181979750Y-92877000D01*
X181342250Y-92877000D01*
X181311007Y-92875465D01*
X181280065Y-92870875D01*
X181249722Y-92863275D01*
X181220270Y-92852737D01*
X181191992Y-92839362D01*
X181165162Y-92823281D01*
X181140037Y-92804647D01*
X181116860Y-92783640D01*
X181095853Y-92760463D01*
X181077219Y-92735338D01*
X181061138Y-92708508D01*
X181047763Y-92680230D01*
X181037225Y-92650778D01*
X181029625Y-92620435D01*
X181025035Y-92589493D01*
X181023500Y-92558250D01*
X181023500Y-91845750D01*
X181025035Y-91814507D01*
X181029625Y-91783565D01*
X181037225Y-91753222D01*
X181047763Y-91723770D01*
X181061138Y-91695492D01*
X181077219Y-91668662D01*
X181095853Y-91643537D01*
X181116860Y-91620360D01*
X181140037Y-91599353D01*
X181165162Y-91580719D01*
X181191992Y-91564638D01*
X181220270Y-91551263D01*
X181249722Y-91540725D01*
X181280065Y-91533125D01*
X181311007Y-91528535D01*
X181342250Y-91527000D01*
X181979750Y-91527000D01*
X182010993Y-91528535D01*
X182010993Y-91528535D01*
G37*
D11*
X181661000Y-92202000D03*
D26*
X188214000Y-102870000D03*
X190754000Y-95250000D03*
X190754000Y-102870000D03*
X188214000Y-95250000D03*
X185674000Y-102870000D03*
D27*
X185674000Y-95250000D03*
D26*
X193294000Y-95250000D03*
X193294000Y-102870000D03*
D28*
X179214000Y-114742000D03*
X179214000Y-113792000D03*
X179214000Y-112842000D03*
X176894000Y-112842000D03*
X176894000Y-114742000D03*
D29*
X182221001Y-111902001D03*
X182221001Y-112552001D03*
X182221001Y-113202001D03*
X182221001Y-113852001D03*
X182221001Y-114502001D03*
X182221001Y-115152001D03*
X182221001Y-115802001D03*
X182221001Y-116452001D03*
X188121001Y-116452001D03*
X188121001Y-115802001D03*
X188121001Y-115152001D03*
X188121001Y-114502001D03*
X188121001Y-113852001D03*
X188121001Y-113202001D03*
X188121001Y-112552001D03*
X188121001Y-111902001D03*
D22*
X203902000Y-98410000D03*
X203902000Y-99060000D03*
X203902000Y-99710000D03*
X206562000Y-99710000D03*
X206562000Y-99060000D03*
X206562000Y-98410000D03*
X206562000Y-100696000D03*
X206562000Y-101346000D03*
X206562000Y-101996000D03*
X203902000Y-101996000D03*
X203902000Y-101346000D03*
X203902000Y-100696000D03*
X203902000Y-102982000D03*
X203902000Y-103632000D03*
X203902000Y-104282000D03*
X206562000Y-104282000D03*
X206562000Y-103632000D03*
X206562000Y-102982000D03*
D24*
X176700000Y-88966000D03*
X176700000Y-89916000D03*
X176700000Y-90866000D03*
X178900000Y-90866000D03*
X178900000Y-88966000D03*
X178900000Y-89916000D03*
D30*
X174458000Y-88900000D03*
X171958000Y-88900000D03*
M02*
