G04 #@! TF.GenerationSoftware,KiCad,Pcbnew,5.1.2-f72e74a~84~ubuntu16.04.1*
G04 #@! TF.CreationDate,2019-06-16T18:40:27+01:00*
G04 #@! TF.ProjectId,TCXOsource,5443584f-736f-4757-9263-652e6b696361,rev?*
G04 #@! TF.SameCoordinates,Original*
G04 #@! TF.FileFunction,Legend,Bot*
G04 #@! TF.FilePolarity,Positive*
%FSLAX46Y46*%
G04 Gerber Fmt 4.6, Leading zero omitted, Abs format (unit mm)*
G04 Created by KiCad (PCBNEW 5.1.2-f72e74a~84~ubuntu16.04.1) date 2019-06-16 18:40:27*
%MOMM*%
%LPD*%
G04 APERTURE LIST*
%ADD10C,0.120000*%
%ADD11C,0.100000*%
%ADD12C,0.110000*%
G04 APERTURE END LIST*
D10*
X205394779Y-98554000D02*
X205069221Y-98554000D01*
X205394779Y-97534000D02*
X205069221Y-97534000D01*
X176786000Y-108041221D02*
X176786000Y-108366779D01*
X175766000Y-108041221D02*
X175766000Y-108366779D01*
X161818000Y-92622000D02*
X165628000Y-92622000D01*
X165628000Y-92622000D02*
X165628000Y-80902000D01*
X165628000Y-80902000D02*
X164208000Y-80902000D01*
X164208000Y-80902000D02*
X164208000Y-85402000D01*
X164208000Y-85402000D02*
X161818000Y-85402000D01*
X161818000Y-92622000D02*
X158008000Y-92622000D01*
X158008000Y-92622000D02*
X158008000Y-80902000D01*
X158008000Y-80902000D02*
X159428000Y-80902000D01*
X159428000Y-80902000D02*
X159428000Y-85402000D01*
X159428000Y-85402000D02*
X161818000Y-85402000D01*
X163318000Y-86512000D02*
X163318000Y-92012000D01*
X163318000Y-92012000D02*
X162818000Y-92012000D01*
X162818000Y-92012000D02*
X162818000Y-86512000D01*
X162818000Y-86512000D02*
X163318000Y-86512000D01*
X160818000Y-86512000D02*
X160818000Y-92012000D01*
X160818000Y-92012000D02*
X160318000Y-92012000D01*
X160318000Y-92012000D02*
X160318000Y-86512000D01*
X160318000Y-86512000D02*
X160818000Y-86512000D01*
X163068000Y-81812000D02*
X163368000Y-81212000D01*
X163368000Y-81212000D02*
X162768000Y-81212000D01*
X162768000Y-81212000D02*
X163068000Y-81812000D01*
X162468779Y-96772000D02*
X162143221Y-96772000D01*
X162468779Y-97792000D02*
X162143221Y-97792000D01*
X205069221Y-99693000D02*
X205394779Y-99693000D01*
X205069221Y-100713000D02*
X205394779Y-100713000D01*
X205394779Y-104138000D02*
X205069221Y-104138000D01*
X205394779Y-105158000D02*
X205069221Y-105158000D01*
X185681001Y-114339780D02*
X185681001Y-114014222D01*
X184661001Y-114339780D02*
X184661001Y-114014222D01*
X205069221Y-101979000D02*
X205394779Y-101979000D01*
X205069221Y-102999000D02*
X205394779Y-102999000D01*
D11*
X159164000Y-120104000D02*
X159164000Y-121568000D01*
X159164000Y-120104000D02*
X159664000Y-120104000D01*
X159664000Y-120104000D02*
X159664000Y-121568000D01*
X157656000Y-121568000D02*
X157656000Y-120104000D01*
X157656000Y-120104000D02*
X158156000Y-120104000D01*
X158156000Y-120104000D02*
X158156000Y-121568000D01*
X156460000Y-77568000D02*
X156460000Y-121568000D01*
X156460000Y-121568000D02*
X219460000Y-121568000D01*
X219460000Y-77568000D02*
X219160000Y-121568000D01*
X219460000Y-77568000D02*
X156460000Y-77568000D01*
D10*
X210999333Y-103882000D02*
X211032666Y-103915333D01*
X211132666Y-103948666D01*
X211199333Y-103948666D01*
X211299333Y-103915333D01*
X211366000Y-103848666D01*
X211399333Y-103782000D01*
X211432666Y-103648666D01*
X211432666Y-103548666D01*
X211399333Y-103415333D01*
X211366000Y-103348666D01*
X211299333Y-103282000D01*
X211199333Y-103248666D01*
X211132666Y-103248666D01*
X211032666Y-103282000D01*
X210999333Y-103315333D01*
X210732666Y-103315333D02*
X210699333Y-103282000D01*
X210632666Y-103248666D01*
X210466000Y-103248666D01*
X210399333Y-103282000D01*
X210366000Y-103315333D01*
X210332666Y-103382000D01*
X210332666Y-103448666D01*
X210366000Y-103548666D01*
X210766000Y-103948666D01*
X210332666Y-103948666D01*
X210066000Y-103315333D02*
X210032666Y-103282000D01*
X209966000Y-103248666D01*
X209799333Y-103248666D01*
X209732666Y-103282000D01*
X209699333Y-103315333D01*
X209666000Y-103382000D01*
X209666000Y-103448666D01*
X209699333Y-103548666D01*
X210099333Y-103948666D01*
X209666000Y-103948666D01*
X209232666Y-103248666D02*
X209166000Y-103248666D01*
X209099333Y-103282000D01*
X209066000Y-103315333D01*
X209032666Y-103382000D01*
X208999333Y-103515333D01*
X208999333Y-103682000D01*
X209032666Y-103815333D01*
X209066000Y-103882000D01*
X209099333Y-103915333D01*
X209166000Y-103948666D01*
X209232666Y-103948666D01*
X209299333Y-103915333D01*
X209332666Y-103882000D01*
X209366000Y-103815333D01*
X209399333Y-103682000D01*
X209399333Y-103515333D01*
X209366000Y-103382000D01*
X209332666Y-103315333D01*
X209299333Y-103282000D01*
X209232666Y-103248666D01*
X201064666Y-103948666D02*
X201464666Y-103948666D01*
X201264666Y-103948666D02*
X201264666Y-103248666D01*
X201331333Y-103348666D01*
X201398000Y-103415333D01*
X201464666Y-103448666D01*
X200764666Y-103482000D02*
X200764666Y-103948666D01*
X200764666Y-103548666D02*
X200731333Y-103515333D01*
X200664666Y-103482000D01*
X200564666Y-103482000D01*
X200498000Y-103515333D01*
X200464666Y-103582000D01*
X200464666Y-103948666D01*
X210999333Y-99310000D02*
X211032666Y-99343333D01*
X211132666Y-99376666D01*
X211199333Y-99376666D01*
X211299333Y-99343333D01*
X211366000Y-99276666D01*
X211399333Y-99210000D01*
X211432666Y-99076666D01*
X211432666Y-98976666D01*
X211399333Y-98843333D01*
X211366000Y-98776666D01*
X211299333Y-98710000D01*
X211199333Y-98676666D01*
X211132666Y-98676666D01*
X211032666Y-98710000D01*
X210999333Y-98743333D01*
X210732666Y-98743333D02*
X210699333Y-98710000D01*
X210632666Y-98676666D01*
X210466000Y-98676666D01*
X210399333Y-98710000D01*
X210366000Y-98743333D01*
X210332666Y-98810000D01*
X210332666Y-98876666D01*
X210366000Y-98976666D01*
X210766000Y-99376666D01*
X210332666Y-99376666D01*
X209666000Y-99376666D02*
X210066000Y-99376666D01*
X209866000Y-99376666D02*
X209866000Y-98676666D01*
X209932666Y-98776666D01*
X209999333Y-98843333D01*
X210066000Y-98876666D01*
X209066000Y-98910000D02*
X209066000Y-99376666D01*
X209232666Y-98643333D02*
X209399333Y-99143333D01*
X208966000Y-99143333D01*
X201064666Y-99376666D02*
X201464666Y-99376666D01*
X201264666Y-99376666D02*
X201264666Y-98676666D01*
X201331333Y-98776666D01*
X201398000Y-98843333D01*
X201464666Y-98876666D01*
X200764666Y-98910000D02*
X200764666Y-99376666D01*
X200764666Y-98976666D02*
X200731333Y-98943333D01*
X200664666Y-98910000D01*
X200564666Y-98910000D01*
X200498000Y-98943333D01*
X200464666Y-99010000D01*
X200464666Y-99376666D01*
X208967333Y-98294000D02*
X209000666Y-98327333D01*
X209100666Y-98360666D01*
X209167333Y-98360666D01*
X209267333Y-98327333D01*
X209334000Y-98260666D01*
X209367333Y-98194000D01*
X209400666Y-98060666D01*
X209400666Y-97960666D01*
X209367333Y-97827333D01*
X209334000Y-97760666D01*
X209267333Y-97694000D01*
X209167333Y-97660666D01*
X209100666Y-97660666D01*
X209000666Y-97694000D01*
X208967333Y-97727333D01*
X208700666Y-97727333D02*
X208667333Y-97694000D01*
X208600666Y-97660666D01*
X208434000Y-97660666D01*
X208367333Y-97694000D01*
X208334000Y-97727333D01*
X208300666Y-97794000D01*
X208300666Y-97860666D01*
X208334000Y-97960666D01*
X208734000Y-98360666D01*
X208300666Y-98360666D01*
X207634000Y-98360666D02*
X208034000Y-98360666D01*
X207834000Y-98360666D02*
X207834000Y-97660666D01*
X207900666Y-97760666D01*
X207967333Y-97827333D01*
X208034000Y-97860666D01*
X207367333Y-97727333D02*
X207334000Y-97694000D01*
X207267333Y-97660666D01*
X207100666Y-97660666D01*
X207034000Y-97694000D01*
X207000666Y-97727333D01*
X206967333Y-97794000D01*
X206967333Y-97860666D01*
X207000666Y-97960666D01*
X207400666Y-98360666D01*
X206967333Y-98360666D01*
X203096666Y-98360666D02*
X203496666Y-98360666D01*
X203296666Y-98360666D02*
X203296666Y-97660666D01*
X203363333Y-97760666D01*
X203430000Y-97827333D01*
X203496666Y-97860666D01*
X202496666Y-97894000D02*
X202496666Y-98360666D01*
X202796666Y-97894000D02*
X202796666Y-98260666D01*
X202763333Y-98327333D01*
X202696666Y-98360666D01*
X202596666Y-98360666D01*
X202530000Y-98327333D01*
X202496666Y-98294000D01*
X201930000Y-97994000D02*
X202163333Y-97994000D01*
X202163333Y-98360666D02*
X202163333Y-97660666D01*
X201830000Y-97660666D01*
X175510000Y-107420666D02*
X175543333Y-107387333D01*
X175576666Y-107287333D01*
X175576666Y-107220666D01*
X175543333Y-107120666D01*
X175476666Y-107054000D01*
X175410000Y-107020666D01*
X175276666Y-106987333D01*
X175176666Y-106987333D01*
X175043333Y-107020666D01*
X174976666Y-107054000D01*
X174910000Y-107120666D01*
X174876666Y-107220666D01*
X174876666Y-107287333D01*
X174910000Y-107387333D01*
X174943333Y-107420666D01*
X174943333Y-107687333D02*
X174910000Y-107720666D01*
X174876666Y-107787333D01*
X174876666Y-107954000D01*
X174910000Y-108020666D01*
X174943333Y-108054000D01*
X175010000Y-108087333D01*
X175076666Y-108087333D01*
X175176666Y-108054000D01*
X175576666Y-107654000D01*
X175576666Y-108087333D01*
X174876666Y-108520666D02*
X174876666Y-108587333D01*
X174910000Y-108654000D01*
X174943333Y-108687333D01*
X175010000Y-108720666D01*
X175143333Y-108754000D01*
X175310000Y-108754000D01*
X175443333Y-108720666D01*
X175510000Y-108687333D01*
X175543333Y-108654000D01*
X175576666Y-108587333D01*
X175576666Y-108520666D01*
X175543333Y-108454000D01*
X175510000Y-108420666D01*
X175443333Y-108387333D01*
X175310000Y-108354000D01*
X175143333Y-108354000D01*
X175010000Y-108387333D01*
X174943333Y-108420666D01*
X174910000Y-108454000D01*
X174876666Y-108520666D01*
X175176666Y-109154000D02*
X175143333Y-109087333D01*
X175110000Y-109054000D01*
X175043333Y-109020666D01*
X175010000Y-109020666D01*
X174943333Y-109054000D01*
X174910000Y-109087333D01*
X174876666Y-109154000D01*
X174876666Y-109287333D01*
X174910000Y-109354000D01*
X174943333Y-109387333D01*
X175010000Y-109420666D01*
X175043333Y-109420666D01*
X175110000Y-109387333D01*
X175143333Y-109354000D01*
X175176666Y-109287333D01*
X175176666Y-109154000D01*
X175210000Y-109087333D01*
X175243333Y-109054000D01*
X175310000Y-109020666D01*
X175443333Y-109020666D01*
X175510000Y-109054000D01*
X175543333Y-109087333D01*
X175576666Y-109154000D01*
X175576666Y-109287333D01*
X175543333Y-109354000D01*
X175510000Y-109387333D01*
X175443333Y-109420666D01*
X175310000Y-109420666D01*
X175243333Y-109387333D01*
X175210000Y-109354000D01*
X175176666Y-109287333D01*
X177862666Y-107754000D02*
X177862666Y-107354000D01*
X177862666Y-107554000D02*
X177162666Y-107554000D01*
X177262666Y-107487333D01*
X177329333Y-107420666D01*
X177362666Y-107354000D01*
X177162666Y-108187333D02*
X177162666Y-108254000D01*
X177196000Y-108320666D01*
X177229333Y-108354000D01*
X177296000Y-108387333D01*
X177429333Y-108420666D01*
X177596000Y-108420666D01*
X177729333Y-108387333D01*
X177796000Y-108354000D01*
X177829333Y-108320666D01*
X177862666Y-108254000D01*
X177862666Y-108187333D01*
X177829333Y-108120666D01*
X177796000Y-108087333D01*
X177729333Y-108054000D01*
X177596000Y-108020666D01*
X177429333Y-108020666D01*
X177296000Y-108054000D01*
X177229333Y-108087333D01*
X177196000Y-108120666D01*
X177162666Y-108187333D01*
X177396000Y-108720666D02*
X177862666Y-108720666D01*
X177462666Y-108720666D02*
X177429333Y-108754000D01*
X177396000Y-108820666D01*
X177396000Y-108920666D01*
X177429333Y-108987333D01*
X177496000Y-109020666D01*
X177862666Y-109020666D01*
X157542666Y-81016666D02*
X156842666Y-81016666D01*
X156842666Y-81283333D01*
X156876000Y-81350000D01*
X156909333Y-81383333D01*
X156976000Y-81416666D01*
X157076000Y-81416666D01*
X157142666Y-81383333D01*
X157176000Y-81350000D01*
X157209333Y-81283333D01*
X157209333Y-81016666D01*
X157542666Y-82083333D02*
X157542666Y-81683333D01*
X157542666Y-81883333D02*
X156842666Y-81883333D01*
X156942666Y-81816666D01*
X157009333Y-81750000D01*
X157042666Y-81683333D01*
X156842666Y-82516666D02*
X156842666Y-82583333D01*
X156876000Y-82650000D01*
X156909333Y-82683333D01*
X156976000Y-82716666D01*
X157109333Y-82750000D01*
X157276000Y-82750000D01*
X157409333Y-82716666D01*
X157476000Y-82683333D01*
X157509333Y-82650000D01*
X157542666Y-82583333D01*
X157542666Y-82516666D01*
X157509333Y-82450000D01*
X157476000Y-82416666D01*
X157409333Y-82383333D01*
X157276000Y-82350000D01*
X157109333Y-82350000D01*
X156976000Y-82383333D01*
X156909333Y-82416666D01*
X156876000Y-82450000D01*
X156842666Y-82516666D01*
X156909333Y-83016666D02*
X156876000Y-83050000D01*
X156842666Y-83116666D01*
X156842666Y-83283333D01*
X156876000Y-83350000D01*
X156909333Y-83383333D01*
X156976000Y-83416666D01*
X157042666Y-83416666D01*
X157142666Y-83383333D01*
X157542666Y-82983333D01*
X157542666Y-83416666D01*
X166653333Y-81237333D02*
X166686666Y-81337333D01*
X166686666Y-81504000D01*
X166653333Y-81570666D01*
X166620000Y-81604000D01*
X166553333Y-81637333D01*
X166486666Y-81637333D01*
X166420000Y-81604000D01*
X166386666Y-81570666D01*
X166353333Y-81504000D01*
X166320000Y-81370666D01*
X166286666Y-81304000D01*
X166253333Y-81270666D01*
X166186666Y-81237333D01*
X166120000Y-81237333D01*
X166053333Y-81270666D01*
X166020000Y-81304000D01*
X165986666Y-81370666D01*
X165986666Y-81537333D01*
X166020000Y-81637333D01*
X166686666Y-81937333D02*
X165986666Y-81937333D01*
X166320000Y-81937333D02*
X166320000Y-82337333D01*
X166686666Y-82337333D02*
X165986666Y-82337333D01*
X166053333Y-82637333D02*
X166020000Y-82670666D01*
X165986666Y-82737333D01*
X165986666Y-82904000D01*
X166020000Y-82970666D01*
X166053333Y-83004000D01*
X166120000Y-83037333D01*
X166186666Y-83037333D01*
X166286666Y-83004000D01*
X166686666Y-82604000D01*
X166686666Y-83037333D01*
X166686666Y-83337333D02*
X165986666Y-83337333D01*
X166486666Y-83570666D01*
X165986666Y-83804000D01*
X166686666Y-83804000D01*
X163063833Y-96582666D02*
X163297166Y-96249333D01*
X163463833Y-96582666D02*
X163463833Y-95882666D01*
X163197166Y-95882666D01*
X163130500Y-95916000D01*
X163097166Y-95949333D01*
X163063833Y-96016000D01*
X163063833Y-96116000D01*
X163097166Y-96182666D01*
X163130500Y-96216000D01*
X163197166Y-96249333D01*
X163463833Y-96249333D01*
X162463833Y-96116000D02*
X162463833Y-96582666D01*
X162630500Y-95849333D02*
X162797166Y-96349333D01*
X162363833Y-96349333D01*
X161963833Y-95882666D02*
X161897166Y-95882666D01*
X161830500Y-95916000D01*
X161797166Y-95949333D01*
X161763833Y-96016000D01*
X161730500Y-96149333D01*
X161730500Y-96316000D01*
X161763833Y-96449333D01*
X161797166Y-96516000D01*
X161830500Y-96549333D01*
X161897166Y-96582666D01*
X161963833Y-96582666D01*
X162030500Y-96549333D01*
X162063833Y-96516000D01*
X162097166Y-96449333D01*
X162130500Y-96316000D01*
X162130500Y-96149333D01*
X162097166Y-96016000D01*
X162063833Y-95949333D01*
X162030500Y-95916000D01*
X161963833Y-95882666D01*
X161463833Y-95949333D02*
X161430500Y-95916000D01*
X161363833Y-95882666D01*
X161197166Y-95882666D01*
X161130500Y-95916000D01*
X161097166Y-95949333D01*
X161063833Y-96016000D01*
X161063833Y-96082666D01*
X161097166Y-96182666D01*
X161497166Y-96582666D01*
X161063833Y-96582666D01*
X163056000Y-98868666D02*
X163456000Y-98868666D01*
X163256000Y-98868666D02*
X163256000Y-98168666D01*
X163322666Y-98268666D01*
X163389333Y-98335333D01*
X163456000Y-98368666D01*
X162622666Y-98168666D02*
X162556000Y-98168666D01*
X162489333Y-98202000D01*
X162456000Y-98235333D01*
X162422666Y-98302000D01*
X162389333Y-98435333D01*
X162389333Y-98602000D01*
X162422666Y-98735333D01*
X162456000Y-98802000D01*
X162489333Y-98835333D01*
X162556000Y-98868666D01*
X162622666Y-98868666D01*
X162689333Y-98835333D01*
X162722666Y-98802000D01*
X162756000Y-98735333D01*
X162789333Y-98602000D01*
X162789333Y-98435333D01*
X162756000Y-98302000D01*
X162722666Y-98235333D01*
X162689333Y-98202000D01*
X162622666Y-98168666D01*
X161956000Y-98168666D02*
X161889333Y-98168666D01*
X161822666Y-98202000D01*
X161789333Y-98235333D01*
X161756000Y-98302000D01*
X161722666Y-98435333D01*
X161722666Y-98602000D01*
X161756000Y-98735333D01*
X161789333Y-98802000D01*
X161822666Y-98835333D01*
X161889333Y-98868666D01*
X161956000Y-98868666D01*
X162022666Y-98835333D01*
X162056000Y-98802000D01*
X162089333Y-98735333D01*
X162122666Y-98602000D01*
X162122666Y-98435333D01*
X162089333Y-98302000D01*
X162056000Y-98235333D01*
X162022666Y-98202000D01*
X161956000Y-98168666D01*
X161422666Y-98868666D02*
X161422666Y-98168666D01*
X161356000Y-98602000D02*
X161156000Y-98868666D01*
X161156000Y-98402000D02*
X161422666Y-98668666D01*
X208967333Y-100453000D02*
X209000666Y-100486333D01*
X209100666Y-100519666D01*
X209167333Y-100519666D01*
X209267333Y-100486333D01*
X209334000Y-100419666D01*
X209367333Y-100353000D01*
X209400666Y-100219666D01*
X209400666Y-100119666D01*
X209367333Y-99986333D01*
X209334000Y-99919666D01*
X209267333Y-99853000D01*
X209167333Y-99819666D01*
X209100666Y-99819666D01*
X209000666Y-99853000D01*
X208967333Y-99886333D01*
X208700666Y-99886333D02*
X208667333Y-99853000D01*
X208600666Y-99819666D01*
X208434000Y-99819666D01*
X208367333Y-99853000D01*
X208334000Y-99886333D01*
X208300666Y-99953000D01*
X208300666Y-100019666D01*
X208334000Y-100119666D01*
X208734000Y-100519666D01*
X208300666Y-100519666D01*
X207634000Y-100519666D02*
X208034000Y-100519666D01*
X207834000Y-100519666D02*
X207834000Y-99819666D01*
X207900666Y-99919666D01*
X207967333Y-99986333D01*
X208034000Y-100019666D01*
X207034000Y-99819666D02*
X207167333Y-99819666D01*
X207234000Y-99853000D01*
X207267333Y-99886333D01*
X207334000Y-99986333D01*
X207367333Y-100119666D01*
X207367333Y-100386333D01*
X207334000Y-100453000D01*
X207300666Y-100486333D01*
X207234000Y-100519666D01*
X207100666Y-100519666D01*
X207034000Y-100486333D01*
X207000666Y-100453000D01*
X206967333Y-100386333D01*
X206967333Y-100219666D01*
X207000666Y-100153000D01*
X207034000Y-100119666D01*
X207100666Y-100086333D01*
X207234000Y-100086333D01*
X207300666Y-100119666D01*
X207334000Y-100153000D01*
X207367333Y-100219666D01*
X203096666Y-100519666D02*
X203496666Y-100519666D01*
X203296666Y-100519666D02*
X203296666Y-99819666D01*
X203363333Y-99919666D01*
X203430000Y-99986333D01*
X203496666Y-100019666D01*
X202663333Y-99819666D02*
X202596666Y-99819666D01*
X202530000Y-99853000D01*
X202496666Y-99886333D01*
X202463333Y-99953000D01*
X202430000Y-100086333D01*
X202430000Y-100253000D01*
X202463333Y-100386333D01*
X202496666Y-100453000D01*
X202530000Y-100486333D01*
X202596666Y-100519666D01*
X202663333Y-100519666D01*
X202730000Y-100486333D01*
X202763333Y-100453000D01*
X202796666Y-100386333D01*
X202830000Y-100253000D01*
X202830000Y-100086333D01*
X202796666Y-99953000D01*
X202763333Y-99886333D01*
X202730000Y-99853000D01*
X202663333Y-99819666D01*
X201996666Y-99819666D02*
X201930000Y-99819666D01*
X201863333Y-99853000D01*
X201830000Y-99886333D01*
X201796666Y-99953000D01*
X201763333Y-100086333D01*
X201763333Y-100253000D01*
X201796666Y-100386333D01*
X201830000Y-100453000D01*
X201863333Y-100486333D01*
X201930000Y-100519666D01*
X201996666Y-100519666D01*
X202063333Y-100486333D01*
X202096666Y-100453000D01*
X202130000Y-100386333D01*
X202163333Y-100253000D01*
X202163333Y-100086333D01*
X202130000Y-99953000D01*
X202096666Y-99886333D01*
X202063333Y-99853000D01*
X201996666Y-99819666D01*
X201463333Y-100053000D02*
X201463333Y-100519666D01*
X201463333Y-100119666D02*
X201430000Y-100086333D01*
X201363333Y-100053000D01*
X201263333Y-100053000D01*
X201196666Y-100086333D01*
X201163333Y-100153000D01*
X201163333Y-100519666D01*
X210999333Y-101596000D02*
X211032666Y-101629333D01*
X211132666Y-101662666D01*
X211199333Y-101662666D01*
X211299333Y-101629333D01*
X211366000Y-101562666D01*
X211399333Y-101496000D01*
X211432666Y-101362666D01*
X211432666Y-101262666D01*
X211399333Y-101129333D01*
X211366000Y-101062666D01*
X211299333Y-100996000D01*
X211199333Y-100962666D01*
X211132666Y-100962666D01*
X211032666Y-100996000D01*
X210999333Y-101029333D01*
X210732666Y-101029333D02*
X210699333Y-100996000D01*
X210632666Y-100962666D01*
X210466000Y-100962666D01*
X210399333Y-100996000D01*
X210366000Y-101029333D01*
X210332666Y-101096000D01*
X210332666Y-101162666D01*
X210366000Y-101262666D01*
X210766000Y-101662666D01*
X210332666Y-101662666D01*
X209666000Y-101662666D02*
X210066000Y-101662666D01*
X209866000Y-101662666D02*
X209866000Y-100962666D01*
X209932666Y-101062666D01*
X209999333Y-101129333D01*
X210066000Y-101162666D01*
X209432666Y-100962666D02*
X208966000Y-100962666D01*
X209266000Y-101662666D01*
X201064666Y-101662666D02*
X201464666Y-101662666D01*
X201264666Y-101662666D02*
X201264666Y-100962666D01*
X201331333Y-101062666D01*
X201398000Y-101129333D01*
X201464666Y-101162666D01*
X200764666Y-101196000D02*
X200764666Y-101662666D01*
X200764666Y-101262666D02*
X200731333Y-101229333D01*
X200664666Y-101196000D01*
X200564666Y-101196000D01*
X200498000Y-101229333D01*
X200464666Y-101296000D01*
X200464666Y-101662666D01*
X208967333Y-104898000D02*
X209000666Y-104931333D01*
X209100666Y-104964666D01*
X209167333Y-104964666D01*
X209267333Y-104931333D01*
X209334000Y-104864666D01*
X209367333Y-104798000D01*
X209400666Y-104664666D01*
X209400666Y-104564666D01*
X209367333Y-104431333D01*
X209334000Y-104364666D01*
X209267333Y-104298000D01*
X209167333Y-104264666D01*
X209100666Y-104264666D01*
X209000666Y-104298000D01*
X208967333Y-104331333D01*
X208700666Y-104331333D02*
X208667333Y-104298000D01*
X208600666Y-104264666D01*
X208434000Y-104264666D01*
X208367333Y-104298000D01*
X208334000Y-104331333D01*
X208300666Y-104398000D01*
X208300666Y-104464666D01*
X208334000Y-104564666D01*
X208734000Y-104964666D01*
X208300666Y-104964666D01*
X207634000Y-104964666D02*
X208034000Y-104964666D01*
X207834000Y-104964666D02*
X207834000Y-104264666D01*
X207900666Y-104364666D01*
X207967333Y-104431333D01*
X208034000Y-104464666D01*
X206967333Y-104964666D02*
X207367333Y-104964666D01*
X207167333Y-104964666D02*
X207167333Y-104264666D01*
X207234000Y-104364666D01*
X207300666Y-104431333D01*
X207367333Y-104464666D01*
X203096666Y-104964666D02*
X203496666Y-104964666D01*
X203296666Y-104964666D02*
X203296666Y-104264666D01*
X203363333Y-104364666D01*
X203430000Y-104431333D01*
X203496666Y-104464666D01*
X202496666Y-104498000D02*
X202496666Y-104964666D01*
X202796666Y-104498000D02*
X202796666Y-104864666D01*
X202763333Y-104931333D01*
X202696666Y-104964666D01*
X202596666Y-104964666D01*
X202530000Y-104931333D01*
X202496666Y-104898000D01*
X201930000Y-104598000D02*
X202163333Y-104598000D01*
X202163333Y-104964666D02*
X202163333Y-104264666D01*
X201830000Y-104264666D01*
X184400000Y-113393667D02*
X184433333Y-113360334D01*
X184466666Y-113260334D01*
X184466666Y-113193667D01*
X184433333Y-113093667D01*
X184366666Y-113027001D01*
X184300000Y-112993667D01*
X184166666Y-112960334D01*
X184066666Y-112960334D01*
X183933333Y-112993667D01*
X183866666Y-113027001D01*
X183800000Y-113093667D01*
X183766666Y-113193667D01*
X183766666Y-113260334D01*
X183800000Y-113360334D01*
X183833333Y-113393667D01*
X183833333Y-113660334D02*
X183800000Y-113693667D01*
X183766666Y-113760334D01*
X183766666Y-113927001D01*
X183800000Y-113993667D01*
X183833333Y-114027001D01*
X183900000Y-114060334D01*
X183966666Y-114060334D01*
X184066666Y-114027001D01*
X184466666Y-113627001D01*
X184466666Y-114060334D01*
X183766666Y-114493667D02*
X183766666Y-114560334D01*
X183800000Y-114627001D01*
X183833333Y-114660334D01*
X183900000Y-114693667D01*
X184033333Y-114727001D01*
X184200000Y-114727001D01*
X184333333Y-114693667D01*
X184400000Y-114660334D01*
X184433333Y-114627001D01*
X184466666Y-114560334D01*
X184466666Y-114493667D01*
X184433333Y-114427001D01*
X184400000Y-114393667D01*
X184333333Y-114360334D01*
X184200000Y-114327001D01*
X184033333Y-114327001D01*
X183900000Y-114360334D01*
X183833333Y-114393667D01*
X183800000Y-114427001D01*
X183766666Y-114493667D01*
X184466666Y-115393667D02*
X184466666Y-114993667D01*
X184466666Y-115193667D02*
X183766666Y-115193667D01*
X183866666Y-115127001D01*
X183933333Y-115060334D01*
X183966666Y-114993667D01*
X186752666Y-113770666D02*
X186752666Y-113370666D01*
X186752666Y-113570666D02*
X186052666Y-113570666D01*
X186152666Y-113504000D01*
X186219333Y-113437333D01*
X186252666Y-113370666D01*
X186052666Y-114204000D02*
X186052666Y-114270666D01*
X186086000Y-114337333D01*
X186119333Y-114370666D01*
X186186000Y-114404000D01*
X186319333Y-114437333D01*
X186486000Y-114437333D01*
X186619333Y-114404000D01*
X186686000Y-114370666D01*
X186719333Y-114337333D01*
X186752666Y-114270666D01*
X186752666Y-114204000D01*
X186719333Y-114137333D01*
X186686000Y-114104000D01*
X186619333Y-114070666D01*
X186486000Y-114037333D01*
X186319333Y-114037333D01*
X186186000Y-114070666D01*
X186119333Y-114104000D01*
X186086000Y-114137333D01*
X186052666Y-114204000D01*
X186052666Y-114870666D02*
X186052666Y-114937333D01*
X186086000Y-115004000D01*
X186119333Y-115037333D01*
X186186000Y-115070666D01*
X186319333Y-115104000D01*
X186486000Y-115104000D01*
X186619333Y-115070666D01*
X186686000Y-115037333D01*
X186719333Y-115004000D01*
X186752666Y-114937333D01*
X186752666Y-114870666D01*
X186719333Y-114804000D01*
X186686000Y-114770666D01*
X186619333Y-114737333D01*
X186486000Y-114704000D01*
X186319333Y-114704000D01*
X186186000Y-114737333D01*
X186119333Y-114770666D01*
X186086000Y-114804000D01*
X186052666Y-114870666D01*
X186286000Y-115404000D02*
X186752666Y-115404000D01*
X186352666Y-115404000D02*
X186319333Y-115437333D01*
X186286000Y-115504000D01*
X186286000Y-115604000D01*
X186319333Y-115670666D01*
X186386000Y-115704000D01*
X186752666Y-115704000D01*
X208967333Y-102739000D02*
X209000666Y-102772333D01*
X209100666Y-102805666D01*
X209167333Y-102805666D01*
X209267333Y-102772333D01*
X209334000Y-102705666D01*
X209367333Y-102639000D01*
X209400666Y-102505666D01*
X209400666Y-102405666D01*
X209367333Y-102272333D01*
X209334000Y-102205666D01*
X209267333Y-102139000D01*
X209167333Y-102105666D01*
X209100666Y-102105666D01*
X209000666Y-102139000D01*
X208967333Y-102172333D01*
X208700666Y-102172333D02*
X208667333Y-102139000D01*
X208600666Y-102105666D01*
X208434000Y-102105666D01*
X208367333Y-102139000D01*
X208334000Y-102172333D01*
X208300666Y-102239000D01*
X208300666Y-102305666D01*
X208334000Y-102405666D01*
X208734000Y-102805666D01*
X208300666Y-102805666D01*
X207634000Y-102805666D02*
X208034000Y-102805666D01*
X207834000Y-102805666D02*
X207834000Y-102105666D01*
X207900666Y-102205666D01*
X207967333Y-102272333D01*
X208034000Y-102305666D01*
X207300666Y-102805666D02*
X207167333Y-102805666D01*
X207100666Y-102772333D01*
X207067333Y-102739000D01*
X207000666Y-102639000D01*
X206967333Y-102505666D01*
X206967333Y-102239000D01*
X207000666Y-102172333D01*
X207034000Y-102139000D01*
X207100666Y-102105666D01*
X207234000Y-102105666D01*
X207300666Y-102139000D01*
X207334000Y-102172333D01*
X207367333Y-102239000D01*
X207367333Y-102405666D01*
X207334000Y-102472333D01*
X207300666Y-102505666D01*
X207234000Y-102539000D01*
X207100666Y-102539000D01*
X207034000Y-102505666D01*
X207000666Y-102472333D01*
X206967333Y-102405666D01*
X203096666Y-102805666D02*
X203496666Y-102805666D01*
X203296666Y-102805666D02*
X203296666Y-102105666D01*
X203363333Y-102205666D01*
X203430000Y-102272333D01*
X203496666Y-102305666D01*
X202663333Y-102105666D02*
X202596666Y-102105666D01*
X202530000Y-102139000D01*
X202496666Y-102172333D01*
X202463333Y-102239000D01*
X202430000Y-102372333D01*
X202430000Y-102539000D01*
X202463333Y-102672333D01*
X202496666Y-102739000D01*
X202530000Y-102772333D01*
X202596666Y-102805666D01*
X202663333Y-102805666D01*
X202730000Y-102772333D01*
X202763333Y-102739000D01*
X202796666Y-102672333D01*
X202830000Y-102539000D01*
X202830000Y-102372333D01*
X202796666Y-102239000D01*
X202763333Y-102172333D01*
X202730000Y-102139000D01*
X202663333Y-102105666D01*
X201996666Y-102105666D02*
X201930000Y-102105666D01*
X201863333Y-102139000D01*
X201830000Y-102172333D01*
X201796666Y-102239000D01*
X201763333Y-102372333D01*
X201763333Y-102539000D01*
X201796666Y-102672333D01*
X201830000Y-102739000D01*
X201863333Y-102772333D01*
X201930000Y-102805666D01*
X201996666Y-102805666D01*
X202063333Y-102772333D01*
X202096666Y-102739000D01*
X202130000Y-102672333D01*
X202163333Y-102539000D01*
X202163333Y-102372333D01*
X202130000Y-102239000D01*
X202096666Y-102172333D01*
X202063333Y-102139000D01*
X201996666Y-102105666D01*
X201463333Y-102339000D02*
X201463333Y-102805666D01*
X201463333Y-102405666D02*
X201430000Y-102372333D01*
X201363333Y-102339000D01*
X201263333Y-102339000D01*
X201196666Y-102372333D01*
X201163333Y-102439000D01*
X201163333Y-102805666D01*
D12*
X189176666Y-98756000D02*
X189076666Y-98789333D01*
X189043333Y-98822666D01*
X189010000Y-98889333D01*
X189010000Y-98989333D01*
X189043333Y-99056000D01*
X189076666Y-99089333D01*
X189143333Y-99122666D01*
X189410000Y-99122666D01*
X189410000Y-98422666D01*
X189176666Y-98422666D01*
X189110000Y-98456000D01*
X189076666Y-98489333D01*
X189043333Y-98556000D01*
X189043333Y-98622666D01*
X189076666Y-98689333D01*
X189110000Y-98722666D01*
X189176666Y-98756000D01*
X189410000Y-98756000D01*
X188810000Y-98422666D02*
X188410000Y-98422666D01*
X188610000Y-99122666D02*
X188610000Y-98422666D01*
X187810000Y-99122666D02*
X188210000Y-99122666D01*
X188010000Y-99122666D02*
X188010000Y-98422666D01*
X188076666Y-98522666D01*
X188143333Y-98589333D01*
X188210000Y-98622666D01*
X187376666Y-98422666D02*
X187310000Y-98422666D01*
X187243333Y-98456000D01*
X187210000Y-98489333D01*
X187176666Y-98556000D01*
X187143333Y-98689333D01*
X187143333Y-98856000D01*
X187176666Y-98989333D01*
X187210000Y-99056000D01*
X187243333Y-99089333D01*
X187310000Y-99122666D01*
X187376666Y-99122666D01*
X187443333Y-99089333D01*
X187476666Y-99056000D01*
X187510000Y-98989333D01*
X187543333Y-98856000D01*
X187543333Y-98689333D01*
X187510000Y-98556000D01*
X187476666Y-98489333D01*
X187443333Y-98456000D01*
X187376666Y-98422666D01*
X186476666Y-99122666D02*
X186876666Y-99122666D01*
X186676666Y-99122666D02*
X186676666Y-98422666D01*
X186743333Y-98522666D01*
X186810000Y-98589333D01*
X186876666Y-98622666D01*
X190310000Y-99946666D02*
X189876666Y-99946666D01*
X190110000Y-100213333D01*
X190010000Y-100213333D01*
X189943333Y-100246666D01*
X189910000Y-100280000D01*
X189876666Y-100346666D01*
X189876666Y-100513333D01*
X189910000Y-100580000D01*
X189943333Y-100613333D01*
X190010000Y-100646666D01*
X190210000Y-100646666D01*
X190276666Y-100613333D01*
X190310000Y-100580000D01*
X189576666Y-100580000D02*
X189543333Y-100613333D01*
X189576666Y-100646666D01*
X189610000Y-100613333D01*
X189576666Y-100580000D01*
X189576666Y-100646666D01*
X189310000Y-99946666D02*
X188843333Y-99946666D01*
X189143333Y-100646666D01*
X188676666Y-99946666D02*
X188443333Y-100646666D01*
X188210000Y-99946666D01*
X187476666Y-99913333D02*
X188076666Y-100813333D01*
X187276666Y-100013333D02*
X187243333Y-99980000D01*
X187176666Y-99946666D01*
X187010000Y-99946666D01*
X186943333Y-99980000D01*
X186910000Y-100013333D01*
X186876666Y-100080000D01*
X186876666Y-100146666D01*
X186910000Y-100246666D01*
X187310000Y-100646666D01*
X186876666Y-100646666D01*
X186610000Y-100446666D02*
X186276666Y-100446666D01*
X186676666Y-100646666D02*
X186443333Y-99946666D01*
X186210000Y-100646666D01*
X185976666Y-100646666D02*
X185976666Y-99946666D01*
X185676666Y-100646666D02*
X185676666Y-100280000D01*
X185710000Y-100213333D01*
X185776666Y-100180000D01*
X185876666Y-100180000D01*
X185943333Y-100213333D01*
X185976666Y-100246666D01*
X159680666Y-119154000D02*
X159147333Y-119154000D01*
X158172666Y-119154000D02*
X157639333Y-119154000D01*
X157906000Y-119420666D02*
X157906000Y-118887333D01*
M02*
