G04 #@! TF.GenerationSoftware,KiCad,Pcbnew,5.1.2-f72e74a~84~ubuntu16.04.1*
G04 #@! TF.CreationDate,2019-06-16T18:40:27+01:00*
G04 #@! TF.ProjectId,TCXOsource,5443584f-736f-4757-9263-652e6b696361,rev?*
G04 #@! TF.SameCoordinates,Original*
G04 #@! TF.FileFunction,Copper,L2,Bot*
G04 #@! TF.FilePolarity,Positive*
%FSLAX46Y46*%
G04 Gerber Fmt 4.6, Leading zero omitted, Abs format (unit mm)*
G04 Created by KiCad (PCBNEW 5.1.2-f72e74a~84~ubuntu16.04.1) date 2019-06-16 18:40:27*
%MOMM*%
%LPD*%
G04 APERTURE LIST*
%ADD10C,0.100000*%
%ADD11C,0.590000*%
%ADD12C,0.875000*%
%ADD13C,1.500000*%
%ADD14O,3.000000X1.500000*%
%ADD15C,1.700000*%
%ADD16O,1.700000X2.000000*%
%ADD17C,2.800000*%
%ADD18C,2.000000*%
%ADD19O,1.900000X2.100000*%
%ADD20R,1.900000X2.100000*%
%ADD21C,1.000000*%
%ADD22C,0.600000*%
%ADD23C,0.508000*%
%ADD24C,1.024000*%
%ADD25C,0.762000*%
%ADD26C,2.048000*%
%ADD27C,0.254000*%
G04 APERTURE END LIST*
D10*
G36*
X204908958Y-103312710D02*
G01*
X204923276Y-103314834D01*
X204937317Y-103318351D01*
X204950946Y-103323228D01*
X204964031Y-103329417D01*
X204976447Y-103336858D01*
X204988073Y-103345481D01*
X204998798Y-103355202D01*
X205008519Y-103365927D01*
X205017142Y-103377553D01*
X205024583Y-103389969D01*
X205030772Y-103403054D01*
X205035649Y-103416683D01*
X205039166Y-103430724D01*
X205041290Y-103445042D01*
X205042000Y-103459500D01*
X205042000Y-103804500D01*
X205041290Y-103818958D01*
X205039166Y-103833276D01*
X205035649Y-103847317D01*
X205030772Y-103860946D01*
X205024583Y-103874031D01*
X205017142Y-103886447D01*
X205008519Y-103898073D01*
X204998798Y-103908798D01*
X204988073Y-103918519D01*
X204976447Y-103927142D01*
X204964031Y-103934583D01*
X204950946Y-103940772D01*
X204937317Y-103945649D01*
X204923276Y-103949166D01*
X204908958Y-103951290D01*
X204894500Y-103952000D01*
X204599500Y-103952000D01*
X204585042Y-103951290D01*
X204570724Y-103949166D01*
X204556683Y-103945649D01*
X204543054Y-103940772D01*
X204529969Y-103934583D01*
X204517553Y-103927142D01*
X204505927Y-103918519D01*
X204495202Y-103908798D01*
X204485481Y-103898073D01*
X204476858Y-103886447D01*
X204469417Y-103874031D01*
X204463228Y-103860946D01*
X204458351Y-103847317D01*
X204454834Y-103833276D01*
X204452710Y-103818958D01*
X204452000Y-103804500D01*
X204452000Y-103459500D01*
X204452710Y-103445042D01*
X204454834Y-103430724D01*
X204458351Y-103416683D01*
X204463228Y-103403054D01*
X204469417Y-103389969D01*
X204476858Y-103377553D01*
X204485481Y-103365927D01*
X204495202Y-103355202D01*
X204505927Y-103345481D01*
X204517553Y-103336858D01*
X204529969Y-103329417D01*
X204543054Y-103323228D01*
X204556683Y-103318351D01*
X204570724Y-103314834D01*
X204585042Y-103312710D01*
X204599500Y-103312000D01*
X204894500Y-103312000D01*
X204908958Y-103312710D01*
X204908958Y-103312710D01*
G37*
D11*
X204747000Y-103632000D03*
D10*
G36*
X205878958Y-103312710D02*
G01*
X205893276Y-103314834D01*
X205907317Y-103318351D01*
X205920946Y-103323228D01*
X205934031Y-103329417D01*
X205946447Y-103336858D01*
X205958073Y-103345481D01*
X205968798Y-103355202D01*
X205978519Y-103365927D01*
X205987142Y-103377553D01*
X205994583Y-103389969D01*
X206000772Y-103403054D01*
X206005649Y-103416683D01*
X206009166Y-103430724D01*
X206011290Y-103445042D01*
X206012000Y-103459500D01*
X206012000Y-103804500D01*
X206011290Y-103818958D01*
X206009166Y-103833276D01*
X206005649Y-103847317D01*
X206000772Y-103860946D01*
X205994583Y-103874031D01*
X205987142Y-103886447D01*
X205978519Y-103898073D01*
X205968798Y-103908798D01*
X205958073Y-103918519D01*
X205946447Y-103927142D01*
X205934031Y-103934583D01*
X205920946Y-103940772D01*
X205907317Y-103945649D01*
X205893276Y-103949166D01*
X205878958Y-103951290D01*
X205864500Y-103952000D01*
X205569500Y-103952000D01*
X205555042Y-103951290D01*
X205540724Y-103949166D01*
X205526683Y-103945649D01*
X205513054Y-103940772D01*
X205499969Y-103934583D01*
X205487553Y-103927142D01*
X205475927Y-103918519D01*
X205465202Y-103908798D01*
X205455481Y-103898073D01*
X205446858Y-103886447D01*
X205439417Y-103874031D01*
X205433228Y-103860946D01*
X205428351Y-103847317D01*
X205424834Y-103833276D01*
X205422710Y-103818958D01*
X205422000Y-103804500D01*
X205422000Y-103459500D01*
X205422710Y-103445042D01*
X205424834Y-103430724D01*
X205428351Y-103416683D01*
X205433228Y-103403054D01*
X205439417Y-103389969D01*
X205446858Y-103377553D01*
X205455481Y-103365927D01*
X205465202Y-103355202D01*
X205475927Y-103345481D01*
X205487553Y-103336858D01*
X205499969Y-103329417D01*
X205513054Y-103323228D01*
X205526683Y-103318351D01*
X205540724Y-103314834D01*
X205555042Y-103312710D01*
X205569500Y-103312000D01*
X205864500Y-103312000D01*
X205878958Y-103312710D01*
X205878958Y-103312710D01*
G37*
D11*
X205717000Y-103632000D03*
D10*
G36*
X204908958Y-98740710D02*
G01*
X204923276Y-98742834D01*
X204937317Y-98746351D01*
X204950946Y-98751228D01*
X204964031Y-98757417D01*
X204976447Y-98764858D01*
X204988073Y-98773481D01*
X204998798Y-98783202D01*
X205008519Y-98793927D01*
X205017142Y-98805553D01*
X205024583Y-98817969D01*
X205030772Y-98831054D01*
X205035649Y-98844683D01*
X205039166Y-98858724D01*
X205041290Y-98873042D01*
X205042000Y-98887500D01*
X205042000Y-99232500D01*
X205041290Y-99246958D01*
X205039166Y-99261276D01*
X205035649Y-99275317D01*
X205030772Y-99288946D01*
X205024583Y-99302031D01*
X205017142Y-99314447D01*
X205008519Y-99326073D01*
X204998798Y-99336798D01*
X204988073Y-99346519D01*
X204976447Y-99355142D01*
X204964031Y-99362583D01*
X204950946Y-99368772D01*
X204937317Y-99373649D01*
X204923276Y-99377166D01*
X204908958Y-99379290D01*
X204894500Y-99380000D01*
X204599500Y-99380000D01*
X204585042Y-99379290D01*
X204570724Y-99377166D01*
X204556683Y-99373649D01*
X204543054Y-99368772D01*
X204529969Y-99362583D01*
X204517553Y-99355142D01*
X204505927Y-99346519D01*
X204495202Y-99336798D01*
X204485481Y-99326073D01*
X204476858Y-99314447D01*
X204469417Y-99302031D01*
X204463228Y-99288946D01*
X204458351Y-99275317D01*
X204454834Y-99261276D01*
X204452710Y-99246958D01*
X204452000Y-99232500D01*
X204452000Y-98887500D01*
X204452710Y-98873042D01*
X204454834Y-98858724D01*
X204458351Y-98844683D01*
X204463228Y-98831054D01*
X204469417Y-98817969D01*
X204476858Y-98805553D01*
X204485481Y-98793927D01*
X204495202Y-98783202D01*
X204505927Y-98773481D01*
X204517553Y-98764858D01*
X204529969Y-98757417D01*
X204543054Y-98751228D01*
X204556683Y-98746351D01*
X204570724Y-98742834D01*
X204585042Y-98740710D01*
X204599500Y-98740000D01*
X204894500Y-98740000D01*
X204908958Y-98740710D01*
X204908958Y-98740710D01*
G37*
D11*
X204747000Y-99060000D03*
D10*
G36*
X205878958Y-98740710D02*
G01*
X205893276Y-98742834D01*
X205907317Y-98746351D01*
X205920946Y-98751228D01*
X205934031Y-98757417D01*
X205946447Y-98764858D01*
X205958073Y-98773481D01*
X205968798Y-98783202D01*
X205978519Y-98793927D01*
X205987142Y-98805553D01*
X205994583Y-98817969D01*
X206000772Y-98831054D01*
X206005649Y-98844683D01*
X206009166Y-98858724D01*
X206011290Y-98873042D01*
X206012000Y-98887500D01*
X206012000Y-99232500D01*
X206011290Y-99246958D01*
X206009166Y-99261276D01*
X206005649Y-99275317D01*
X206000772Y-99288946D01*
X205994583Y-99302031D01*
X205987142Y-99314447D01*
X205978519Y-99326073D01*
X205968798Y-99336798D01*
X205958073Y-99346519D01*
X205946447Y-99355142D01*
X205934031Y-99362583D01*
X205920946Y-99368772D01*
X205907317Y-99373649D01*
X205893276Y-99377166D01*
X205878958Y-99379290D01*
X205864500Y-99380000D01*
X205569500Y-99380000D01*
X205555042Y-99379290D01*
X205540724Y-99377166D01*
X205526683Y-99373649D01*
X205513054Y-99368772D01*
X205499969Y-99362583D01*
X205487553Y-99355142D01*
X205475927Y-99346519D01*
X205465202Y-99336798D01*
X205455481Y-99326073D01*
X205446858Y-99314447D01*
X205439417Y-99302031D01*
X205433228Y-99288946D01*
X205428351Y-99275317D01*
X205424834Y-99261276D01*
X205422710Y-99246958D01*
X205422000Y-99232500D01*
X205422000Y-98887500D01*
X205422710Y-98873042D01*
X205424834Y-98858724D01*
X205428351Y-98844683D01*
X205433228Y-98831054D01*
X205439417Y-98817969D01*
X205446858Y-98805553D01*
X205455481Y-98793927D01*
X205465202Y-98783202D01*
X205475927Y-98773481D01*
X205487553Y-98764858D01*
X205499969Y-98757417D01*
X205513054Y-98751228D01*
X205526683Y-98746351D01*
X205540724Y-98742834D01*
X205555042Y-98740710D01*
X205569500Y-98740000D01*
X205864500Y-98740000D01*
X205878958Y-98740710D01*
X205878958Y-98740710D01*
G37*
D11*
X205717000Y-99060000D03*
D10*
G36*
X204684691Y-97570053D02*
G01*
X204705926Y-97573203D01*
X204726750Y-97578419D01*
X204746962Y-97585651D01*
X204766368Y-97594830D01*
X204784781Y-97605866D01*
X204802024Y-97618654D01*
X204817930Y-97633070D01*
X204832346Y-97648976D01*
X204845134Y-97666219D01*
X204856170Y-97684632D01*
X204865349Y-97704038D01*
X204872581Y-97724250D01*
X204877797Y-97745074D01*
X204880947Y-97766309D01*
X204882000Y-97787750D01*
X204882000Y-98300250D01*
X204880947Y-98321691D01*
X204877797Y-98342926D01*
X204872581Y-98363750D01*
X204865349Y-98383962D01*
X204856170Y-98403368D01*
X204845134Y-98421781D01*
X204832346Y-98439024D01*
X204817930Y-98454930D01*
X204802024Y-98469346D01*
X204784781Y-98482134D01*
X204766368Y-98493170D01*
X204746962Y-98502349D01*
X204726750Y-98509581D01*
X204705926Y-98514797D01*
X204684691Y-98517947D01*
X204663250Y-98519000D01*
X204225750Y-98519000D01*
X204204309Y-98517947D01*
X204183074Y-98514797D01*
X204162250Y-98509581D01*
X204142038Y-98502349D01*
X204122632Y-98493170D01*
X204104219Y-98482134D01*
X204086976Y-98469346D01*
X204071070Y-98454930D01*
X204056654Y-98439024D01*
X204043866Y-98421781D01*
X204032830Y-98403368D01*
X204023651Y-98383962D01*
X204016419Y-98363750D01*
X204011203Y-98342926D01*
X204008053Y-98321691D01*
X204007000Y-98300250D01*
X204007000Y-97787750D01*
X204008053Y-97766309D01*
X204011203Y-97745074D01*
X204016419Y-97724250D01*
X204023651Y-97704038D01*
X204032830Y-97684632D01*
X204043866Y-97666219D01*
X204056654Y-97648976D01*
X204071070Y-97633070D01*
X204086976Y-97618654D01*
X204104219Y-97605866D01*
X204122632Y-97594830D01*
X204142038Y-97585651D01*
X204162250Y-97578419D01*
X204183074Y-97573203D01*
X204204309Y-97570053D01*
X204225750Y-97569000D01*
X204663250Y-97569000D01*
X204684691Y-97570053D01*
X204684691Y-97570053D01*
G37*
D12*
X204444500Y-98044000D03*
D10*
G36*
X206259691Y-97570053D02*
G01*
X206280926Y-97573203D01*
X206301750Y-97578419D01*
X206321962Y-97585651D01*
X206341368Y-97594830D01*
X206359781Y-97605866D01*
X206377024Y-97618654D01*
X206392930Y-97633070D01*
X206407346Y-97648976D01*
X206420134Y-97666219D01*
X206431170Y-97684632D01*
X206440349Y-97704038D01*
X206447581Y-97724250D01*
X206452797Y-97745074D01*
X206455947Y-97766309D01*
X206457000Y-97787750D01*
X206457000Y-98300250D01*
X206455947Y-98321691D01*
X206452797Y-98342926D01*
X206447581Y-98363750D01*
X206440349Y-98383962D01*
X206431170Y-98403368D01*
X206420134Y-98421781D01*
X206407346Y-98439024D01*
X206392930Y-98454930D01*
X206377024Y-98469346D01*
X206359781Y-98482134D01*
X206341368Y-98493170D01*
X206321962Y-98502349D01*
X206301750Y-98509581D01*
X206280926Y-98514797D01*
X206259691Y-98517947D01*
X206238250Y-98519000D01*
X205800750Y-98519000D01*
X205779309Y-98517947D01*
X205758074Y-98514797D01*
X205737250Y-98509581D01*
X205717038Y-98502349D01*
X205697632Y-98493170D01*
X205679219Y-98482134D01*
X205661976Y-98469346D01*
X205646070Y-98454930D01*
X205631654Y-98439024D01*
X205618866Y-98421781D01*
X205607830Y-98403368D01*
X205598651Y-98383962D01*
X205591419Y-98363750D01*
X205586203Y-98342926D01*
X205583053Y-98321691D01*
X205582000Y-98300250D01*
X205582000Y-97787750D01*
X205583053Y-97766309D01*
X205586203Y-97745074D01*
X205591419Y-97724250D01*
X205598651Y-97704038D01*
X205607830Y-97684632D01*
X205618866Y-97666219D01*
X205631654Y-97648976D01*
X205646070Y-97633070D01*
X205661976Y-97618654D01*
X205679219Y-97605866D01*
X205697632Y-97594830D01*
X205717038Y-97585651D01*
X205737250Y-97578419D01*
X205758074Y-97573203D01*
X205779309Y-97570053D01*
X205800750Y-97569000D01*
X206238250Y-97569000D01*
X206259691Y-97570053D01*
X206259691Y-97570053D01*
G37*
D12*
X206019500Y-98044000D03*
D13*
X155448000Y-101310000D03*
X155448000Y-96810000D03*
X157548000Y-100060000D03*
X157548000Y-98060000D03*
X157548000Y-102560000D03*
X157548000Y-95560000D03*
D14*
X155448000Y-104760000D03*
X155448000Y-93360000D03*
D10*
G36*
X176553691Y-108555053D02*
G01*
X176574926Y-108558203D01*
X176595750Y-108563419D01*
X176615962Y-108570651D01*
X176635368Y-108579830D01*
X176653781Y-108590866D01*
X176671024Y-108603654D01*
X176686930Y-108618070D01*
X176701346Y-108633976D01*
X176714134Y-108651219D01*
X176725170Y-108669632D01*
X176734349Y-108689038D01*
X176741581Y-108709250D01*
X176746797Y-108730074D01*
X176749947Y-108751309D01*
X176751000Y-108772750D01*
X176751000Y-109210250D01*
X176749947Y-109231691D01*
X176746797Y-109252926D01*
X176741581Y-109273750D01*
X176734349Y-109293962D01*
X176725170Y-109313368D01*
X176714134Y-109331781D01*
X176701346Y-109349024D01*
X176686930Y-109364930D01*
X176671024Y-109379346D01*
X176653781Y-109392134D01*
X176635368Y-109403170D01*
X176615962Y-109412349D01*
X176595750Y-109419581D01*
X176574926Y-109424797D01*
X176553691Y-109427947D01*
X176532250Y-109429000D01*
X176019750Y-109429000D01*
X175998309Y-109427947D01*
X175977074Y-109424797D01*
X175956250Y-109419581D01*
X175936038Y-109412349D01*
X175916632Y-109403170D01*
X175898219Y-109392134D01*
X175880976Y-109379346D01*
X175865070Y-109364930D01*
X175850654Y-109349024D01*
X175837866Y-109331781D01*
X175826830Y-109313368D01*
X175817651Y-109293962D01*
X175810419Y-109273750D01*
X175805203Y-109252926D01*
X175802053Y-109231691D01*
X175801000Y-109210250D01*
X175801000Y-108772750D01*
X175802053Y-108751309D01*
X175805203Y-108730074D01*
X175810419Y-108709250D01*
X175817651Y-108689038D01*
X175826830Y-108669632D01*
X175837866Y-108651219D01*
X175850654Y-108633976D01*
X175865070Y-108618070D01*
X175880976Y-108603654D01*
X175898219Y-108590866D01*
X175916632Y-108579830D01*
X175936038Y-108570651D01*
X175956250Y-108563419D01*
X175977074Y-108558203D01*
X175998309Y-108555053D01*
X176019750Y-108554000D01*
X176532250Y-108554000D01*
X176553691Y-108555053D01*
X176553691Y-108555053D01*
G37*
D12*
X176276000Y-108991500D03*
D10*
G36*
X176553691Y-106980053D02*
G01*
X176574926Y-106983203D01*
X176595750Y-106988419D01*
X176615962Y-106995651D01*
X176635368Y-107004830D01*
X176653781Y-107015866D01*
X176671024Y-107028654D01*
X176686930Y-107043070D01*
X176701346Y-107058976D01*
X176714134Y-107076219D01*
X176725170Y-107094632D01*
X176734349Y-107114038D01*
X176741581Y-107134250D01*
X176746797Y-107155074D01*
X176749947Y-107176309D01*
X176751000Y-107197750D01*
X176751000Y-107635250D01*
X176749947Y-107656691D01*
X176746797Y-107677926D01*
X176741581Y-107698750D01*
X176734349Y-107718962D01*
X176725170Y-107738368D01*
X176714134Y-107756781D01*
X176701346Y-107774024D01*
X176686930Y-107789930D01*
X176671024Y-107804346D01*
X176653781Y-107817134D01*
X176635368Y-107828170D01*
X176615962Y-107837349D01*
X176595750Y-107844581D01*
X176574926Y-107849797D01*
X176553691Y-107852947D01*
X176532250Y-107854000D01*
X176019750Y-107854000D01*
X175998309Y-107852947D01*
X175977074Y-107849797D01*
X175956250Y-107844581D01*
X175936038Y-107837349D01*
X175916632Y-107828170D01*
X175898219Y-107817134D01*
X175880976Y-107804346D01*
X175865070Y-107789930D01*
X175850654Y-107774024D01*
X175837866Y-107756781D01*
X175826830Y-107738368D01*
X175817651Y-107718962D01*
X175810419Y-107698750D01*
X175805203Y-107677926D01*
X175802053Y-107656691D01*
X175801000Y-107635250D01*
X175801000Y-107197750D01*
X175802053Y-107176309D01*
X175805203Y-107155074D01*
X175810419Y-107134250D01*
X175817651Y-107114038D01*
X175826830Y-107094632D01*
X175837866Y-107076219D01*
X175850654Y-107058976D01*
X175865070Y-107043070D01*
X175880976Y-107028654D01*
X175898219Y-107015866D01*
X175916632Y-107004830D01*
X175936038Y-106995651D01*
X175956250Y-106988419D01*
X175977074Y-106983203D01*
X175998309Y-106980053D01*
X176019750Y-106979000D01*
X176532250Y-106979000D01*
X176553691Y-106980053D01*
X176553691Y-106980053D01*
G37*
D12*
X176276000Y-107416500D03*
D10*
G36*
X163692504Y-82313204D02*
G01*
X163716773Y-82316804D01*
X163740571Y-82322765D01*
X163763671Y-82331030D01*
X163785849Y-82341520D01*
X163806893Y-82354133D01*
X163826598Y-82368747D01*
X163844777Y-82385223D01*
X163861253Y-82403402D01*
X163875867Y-82423107D01*
X163888480Y-82444151D01*
X163898970Y-82466329D01*
X163907235Y-82489429D01*
X163913196Y-82513227D01*
X163916796Y-82537496D01*
X163918000Y-82562000D01*
X163918000Y-84062000D01*
X163916796Y-84086504D01*
X163913196Y-84110773D01*
X163907235Y-84134571D01*
X163898970Y-84157671D01*
X163888480Y-84179849D01*
X163875867Y-84200893D01*
X163861253Y-84220598D01*
X163844777Y-84238777D01*
X163826598Y-84255253D01*
X163806893Y-84269867D01*
X163785849Y-84282480D01*
X163763671Y-84292970D01*
X163740571Y-84301235D01*
X163716773Y-84307196D01*
X163692504Y-84310796D01*
X163668000Y-84312000D01*
X162468000Y-84312000D01*
X162443496Y-84310796D01*
X162419227Y-84307196D01*
X162395429Y-84301235D01*
X162372329Y-84292970D01*
X162350151Y-84282480D01*
X162329107Y-84269867D01*
X162309402Y-84255253D01*
X162291223Y-84238777D01*
X162274747Y-84220598D01*
X162260133Y-84200893D01*
X162247520Y-84179849D01*
X162237030Y-84157671D01*
X162228765Y-84134571D01*
X162222804Y-84110773D01*
X162219204Y-84086504D01*
X162218000Y-84062000D01*
X162218000Y-82562000D01*
X162219204Y-82537496D01*
X162222804Y-82513227D01*
X162228765Y-82489429D01*
X162237030Y-82466329D01*
X162247520Y-82444151D01*
X162260133Y-82423107D01*
X162274747Y-82403402D01*
X162291223Y-82385223D01*
X162309402Y-82368747D01*
X162329107Y-82354133D01*
X162350151Y-82341520D01*
X162372329Y-82331030D01*
X162395429Y-82322765D01*
X162419227Y-82316804D01*
X162443496Y-82313204D01*
X162468000Y-82312000D01*
X163668000Y-82312000D01*
X163692504Y-82313204D01*
X163692504Y-82313204D01*
G37*
D15*
X163068000Y-83312000D03*
D16*
X160568000Y-83312000D03*
D17*
X218821000Y-99060000D03*
X221521000Y-101760000D03*
X221521000Y-96360000D03*
X216121000Y-96360000D03*
X216121000Y-101760000D03*
D10*
G36*
X163333691Y-96808053D02*
G01*
X163354926Y-96811203D01*
X163375750Y-96816419D01*
X163395962Y-96823651D01*
X163415368Y-96832830D01*
X163433781Y-96843866D01*
X163451024Y-96856654D01*
X163466930Y-96871070D01*
X163481346Y-96886976D01*
X163494134Y-96904219D01*
X163505170Y-96922632D01*
X163514349Y-96942038D01*
X163521581Y-96962250D01*
X163526797Y-96983074D01*
X163529947Y-97004309D01*
X163531000Y-97025750D01*
X163531000Y-97538250D01*
X163529947Y-97559691D01*
X163526797Y-97580926D01*
X163521581Y-97601750D01*
X163514349Y-97621962D01*
X163505170Y-97641368D01*
X163494134Y-97659781D01*
X163481346Y-97677024D01*
X163466930Y-97692930D01*
X163451024Y-97707346D01*
X163433781Y-97720134D01*
X163415368Y-97731170D01*
X163395962Y-97740349D01*
X163375750Y-97747581D01*
X163354926Y-97752797D01*
X163333691Y-97755947D01*
X163312250Y-97757000D01*
X162874750Y-97757000D01*
X162853309Y-97755947D01*
X162832074Y-97752797D01*
X162811250Y-97747581D01*
X162791038Y-97740349D01*
X162771632Y-97731170D01*
X162753219Y-97720134D01*
X162735976Y-97707346D01*
X162720070Y-97692930D01*
X162705654Y-97677024D01*
X162692866Y-97659781D01*
X162681830Y-97641368D01*
X162672651Y-97621962D01*
X162665419Y-97601750D01*
X162660203Y-97580926D01*
X162657053Y-97559691D01*
X162656000Y-97538250D01*
X162656000Y-97025750D01*
X162657053Y-97004309D01*
X162660203Y-96983074D01*
X162665419Y-96962250D01*
X162672651Y-96942038D01*
X162681830Y-96922632D01*
X162692866Y-96904219D01*
X162705654Y-96886976D01*
X162720070Y-96871070D01*
X162735976Y-96856654D01*
X162753219Y-96843866D01*
X162771632Y-96832830D01*
X162791038Y-96823651D01*
X162811250Y-96816419D01*
X162832074Y-96811203D01*
X162853309Y-96808053D01*
X162874750Y-96807000D01*
X163312250Y-96807000D01*
X163333691Y-96808053D01*
X163333691Y-96808053D01*
G37*
D12*
X163093500Y-97282000D03*
D10*
G36*
X161758691Y-96808053D02*
G01*
X161779926Y-96811203D01*
X161800750Y-96816419D01*
X161820962Y-96823651D01*
X161840368Y-96832830D01*
X161858781Y-96843866D01*
X161876024Y-96856654D01*
X161891930Y-96871070D01*
X161906346Y-96886976D01*
X161919134Y-96904219D01*
X161930170Y-96922632D01*
X161939349Y-96942038D01*
X161946581Y-96962250D01*
X161951797Y-96983074D01*
X161954947Y-97004309D01*
X161956000Y-97025750D01*
X161956000Y-97538250D01*
X161954947Y-97559691D01*
X161951797Y-97580926D01*
X161946581Y-97601750D01*
X161939349Y-97621962D01*
X161930170Y-97641368D01*
X161919134Y-97659781D01*
X161906346Y-97677024D01*
X161891930Y-97692930D01*
X161876024Y-97707346D01*
X161858781Y-97720134D01*
X161840368Y-97731170D01*
X161820962Y-97740349D01*
X161800750Y-97747581D01*
X161779926Y-97752797D01*
X161758691Y-97755947D01*
X161737250Y-97757000D01*
X161299750Y-97757000D01*
X161278309Y-97755947D01*
X161257074Y-97752797D01*
X161236250Y-97747581D01*
X161216038Y-97740349D01*
X161196632Y-97731170D01*
X161178219Y-97720134D01*
X161160976Y-97707346D01*
X161145070Y-97692930D01*
X161130654Y-97677024D01*
X161117866Y-97659781D01*
X161106830Y-97641368D01*
X161097651Y-97621962D01*
X161090419Y-97601750D01*
X161085203Y-97580926D01*
X161082053Y-97559691D01*
X161081000Y-97538250D01*
X161081000Y-97025750D01*
X161082053Y-97004309D01*
X161085203Y-96983074D01*
X161090419Y-96962250D01*
X161097651Y-96942038D01*
X161106830Y-96922632D01*
X161117866Y-96904219D01*
X161130654Y-96886976D01*
X161145070Y-96871070D01*
X161160976Y-96856654D01*
X161178219Y-96843866D01*
X161196632Y-96832830D01*
X161216038Y-96823651D01*
X161236250Y-96816419D01*
X161257074Y-96811203D01*
X161278309Y-96808053D01*
X161299750Y-96807000D01*
X161737250Y-96807000D01*
X161758691Y-96808053D01*
X161758691Y-96808053D01*
G37*
D12*
X161518500Y-97282000D03*
D18*
X181284000Y-102362000D03*
X176784000Y-102362000D03*
X181284000Y-95862000D03*
X176784000Y-95862000D03*
D10*
G36*
X206259691Y-99729053D02*
G01*
X206280926Y-99732203D01*
X206301750Y-99737419D01*
X206321962Y-99744651D01*
X206341368Y-99753830D01*
X206359781Y-99764866D01*
X206377024Y-99777654D01*
X206392930Y-99792070D01*
X206407346Y-99807976D01*
X206420134Y-99825219D01*
X206431170Y-99843632D01*
X206440349Y-99863038D01*
X206447581Y-99883250D01*
X206452797Y-99904074D01*
X206455947Y-99925309D01*
X206457000Y-99946750D01*
X206457000Y-100459250D01*
X206455947Y-100480691D01*
X206452797Y-100501926D01*
X206447581Y-100522750D01*
X206440349Y-100542962D01*
X206431170Y-100562368D01*
X206420134Y-100580781D01*
X206407346Y-100598024D01*
X206392930Y-100613930D01*
X206377024Y-100628346D01*
X206359781Y-100641134D01*
X206341368Y-100652170D01*
X206321962Y-100661349D01*
X206301750Y-100668581D01*
X206280926Y-100673797D01*
X206259691Y-100676947D01*
X206238250Y-100678000D01*
X205800750Y-100678000D01*
X205779309Y-100676947D01*
X205758074Y-100673797D01*
X205737250Y-100668581D01*
X205717038Y-100661349D01*
X205697632Y-100652170D01*
X205679219Y-100641134D01*
X205661976Y-100628346D01*
X205646070Y-100613930D01*
X205631654Y-100598024D01*
X205618866Y-100580781D01*
X205607830Y-100562368D01*
X205598651Y-100542962D01*
X205591419Y-100522750D01*
X205586203Y-100501926D01*
X205583053Y-100480691D01*
X205582000Y-100459250D01*
X205582000Y-99946750D01*
X205583053Y-99925309D01*
X205586203Y-99904074D01*
X205591419Y-99883250D01*
X205598651Y-99863038D01*
X205607830Y-99843632D01*
X205618866Y-99825219D01*
X205631654Y-99807976D01*
X205646070Y-99792070D01*
X205661976Y-99777654D01*
X205679219Y-99764866D01*
X205697632Y-99753830D01*
X205717038Y-99744651D01*
X205737250Y-99737419D01*
X205758074Y-99732203D01*
X205779309Y-99729053D01*
X205800750Y-99728000D01*
X206238250Y-99728000D01*
X206259691Y-99729053D01*
X206259691Y-99729053D01*
G37*
D12*
X206019500Y-100203000D03*
D10*
G36*
X204684691Y-99729053D02*
G01*
X204705926Y-99732203D01*
X204726750Y-99737419D01*
X204746962Y-99744651D01*
X204766368Y-99753830D01*
X204784781Y-99764866D01*
X204802024Y-99777654D01*
X204817930Y-99792070D01*
X204832346Y-99807976D01*
X204845134Y-99825219D01*
X204856170Y-99843632D01*
X204865349Y-99863038D01*
X204872581Y-99883250D01*
X204877797Y-99904074D01*
X204880947Y-99925309D01*
X204882000Y-99946750D01*
X204882000Y-100459250D01*
X204880947Y-100480691D01*
X204877797Y-100501926D01*
X204872581Y-100522750D01*
X204865349Y-100542962D01*
X204856170Y-100562368D01*
X204845134Y-100580781D01*
X204832346Y-100598024D01*
X204817930Y-100613930D01*
X204802024Y-100628346D01*
X204784781Y-100641134D01*
X204766368Y-100652170D01*
X204746962Y-100661349D01*
X204726750Y-100668581D01*
X204705926Y-100673797D01*
X204684691Y-100676947D01*
X204663250Y-100678000D01*
X204225750Y-100678000D01*
X204204309Y-100676947D01*
X204183074Y-100673797D01*
X204162250Y-100668581D01*
X204142038Y-100661349D01*
X204122632Y-100652170D01*
X204104219Y-100641134D01*
X204086976Y-100628346D01*
X204071070Y-100613930D01*
X204056654Y-100598024D01*
X204043866Y-100580781D01*
X204032830Y-100562368D01*
X204023651Y-100542962D01*
X204016419Y-100522750D01*
X204011203Y-100501926D01*
X204008053Y-100480691D01*
X204007000Y-100459250D01*
X204007000Y-99946750D01*
X204008053Y-99925309D01*
X204011203Y-99904074D01*
X204016419Y-99883250D01*
X204023651Y-99863038D01*
X204032830Y-99843632D01*
X204043866Y-99825219D01*
X204056654Y-99807976D01*
X204071070Y-99792070D01*
X204086976Y-99777654D01*
X204104219Y-99764866D01*
X204122632Y-99753830D01*
X204142038Y-99744651D01*
X204162250Y-99737419D01*
X204183074Y-99732203D01*
X204204309Y-99729053D01*
X204225750Y-99728000D01*
X204663250Y-99728000D01*
X204684691Y-99729053D01*
X204684691Y-99729053D01*
G37*
D12*
X204444500Y-100203000D03*
D10*
G36*
X204908958Y-101026710D02*
G01*
X204923276Y-101028834D01*
X204937317Y-101032351D01*
X204950946Y-101037228D01*
X204964031Y-101043417D01*
X204976447Y-101050858D01*
X204988073Y-101059481D01*
X204998798Y-101069202D01*
X205008519Y-101079927D01*
X205017142Y-101091553D01*
X205024583Y-101103969D01*
X205030772Y-101117054D01*
X205035649Y-101130683D01*
X205039166Y-101144724D01*
X205041290Y-101159042D01*
X205042000Y-101173500D01*
X205042000Y-101518500D01*
X205041290Y-101532958D01*
X205039166Y-101547276D01*
X205035649Y-101561317D01*
X205030772Y-101574946D01*
X205024583Y-101588031D01*
X205017142Y-101600447D01*
X205008519Y-101612073D01*
X204998798Y-101622798D01*
X204988073Y-101632519D01*
X204976447Y-101641142D01*
X204964031Y-101648583D01*
X204950946Y-101654772D01*
X204937317Y-101659649D01*
X204923276Y-101663166D01*
X204908958Y-101665290D01*
X204894500Y-101666000D01*
X204599500Y-101666000D01*
X204585042Y-101665290D01*
X204570724Y-101663166D01*
X204556683Y-101659649D01*
X204543054Y-101654772D01*
X204529969Y-101648583D01*
X204517553Y-101641142D01*
X204505927Y-101632519D01*
X204495202Y-101622798D01*
X204485481Y-101612073D01*
X204476858Y-101600447D01*
X204469417Y-101588031D01*
X204463228Y-101574946D01*
X204458351Y-101561317D01*
X204454834Y-101547276D01*
X204452710Y-101532958D01*
X204452000Y-101518500D01*
X204452000Y-101173500D01*
X204452710Y-101159042D01*
X204454834Y-101144724D01*
X204458351Y-101130683D01*
X204463228Y-101117054D01*
X204469417Y-101103969D01*
X204476858Y-101091553D01*
X204485481Y-101079927D01*
X204495202Y-101069202D01*
X204505927Y-101059481D01*
X204517553Y-101050858D01*
X204529969Y-101043417D01*
X204543054Y-101037228D01*
X204556683Y-101032351D01*
X204570724Y-101028834D01*
X204585042Y-101026710D01*
X204599500Y-101026000D01*
X204894500Y-101026000D01*
X204908958Y-101026710D01*
X204908958Y-101026710D01*
G37*
D11*
X204747000Y-101346000D03*
D10*
G36*
X205878958Y-101026710D02*
G01*
X205893276Y-101028834D01*
X205907317Y-101032351D01*
X205920946Y-101037228D01*
X205934031Y-101043417D01*
X205946447Y-101050858D01*
X205958073Y-101059481D01*
X205968798Y-101069202D01*
X205978519Y-101079927D01*
X205987142Y-101091553D01*
X205994583Y-101103969D01*
X206000772Y-101117054D01*
X206005649Y-101130683D01*
X206009166Y-101144724D01*
X206011290Y-101159042D01*
X206012000Y-101173500D01*
X206012000Y-101518500D01*
X206011290Y-101532958D01*
X206009166Y-101547276D01*
X206005649Y-101561317D01*
X206000772Y-101574946D01*
X205994583Y-101588031D01*
X205987142Y-101600447D01*
X205978519Y-101612073D01*
X205968798Y-101622798D01*
X205958073Y-101632519D01*
X205946447Y-101641142D01*
X205934031Y-101648583D01*
X205920946Y-101654772D01*
X205907317Y-101659649D01*
X205893276Y-101663166D01*
X205878958Y-101665290D01*
X205864500Y-101666000D01*
X205569500Y-101666000D01*
X205555042Y-101665290D01*
X205540724Y-101663166D01*
X205526683Y-101659649D01*
X205513054Y-101654772D01*
X205499969Y-101648583D01*
X205487553Y-101641142D01*
X205475927Y-101632519D01*
X205465202Y-101622798D01*
X205455481Y-101612073D01*
X205446858Y-101600447D01*
X205439417Y-101588031D01*
X205433228Y-101574946D01*
X205428351Y-101561317D01*
X205424834Y-101547276D01*
X205422710Y-101532958D01*
X205422000Y-101518500D01*
X205422000Y-101173500D01*
X205422710Y-101159042D01*
X205424834Y-101144724D01*
X205428351Y-101130683D01*
X205433228Y-101117054D01*
X205439417Y-101103969D01*
X205446858Y-101091553D01*
X205455481Y-101079927D01*
X205465202Y-101069202D01*
X205475927Y-101059481D01*
X205487553Y-101050858D01*
X205499969Y-101043417D01*
X205513054Y-101037228D01*
X205526683Y-101032351D01*
X205540724Y-101028834D01*
X205555042Y-101026710D01*
X205569500Y-101026000D01*
X205864500Y-101026000D01*
X205878958Y-101026710D01*
X205878958Y-101026710D01*
G37*
D11*
X205717000Y-101346000D03*
D10*
G36*
X206259691Y-104174053D02*
G01*
X206280926Y-104177203D01*
X206301750Y-104182419D01*
X206321962Y-104189651D01*
X206341368Y-104198830D01*
X206359781Y-104209866D01*
X206377024Y-104222654D01*
X206392930Y-104237070D01*
X206407346Y-104252976D01*
X206420134Y-104270219D01*
X206431170Y-104288632D01*
X206440349Y-104308038D01*
X206447581Y-104328250D01*
X206452797Y-104349074D01*
X206455947Y-104370309D01*
X206457000Y-104391750D01*
X206457000Y-104904250D01*
X206455947Y-104925691D01*
X206452797Y-104946926D01*
X206447581Y-104967750D01*
X206440349Y-104987962D01*
X206431170Y-105007368D01*
X206420134Y-105025781D01*
X206407346Y-105043024D01*
X206392930Y-105058930D01*
X206377024Y-105073346D01*
X206359781Y-105086134D01*
X206341368Y-105097170D01*
X206321962Y-105106349D01*
X206301750Y-105113581D01*
X206280926Y-105118797D01*
X206259691Y-105121947D01*
X206238250Y-105123000D01*
X205800750Y-105123000D01*
X205779309Y-105121947D01*
X205758074Y-105118797D01*
X205737250Y-105113581D01*
X205717038Y-105106349D01*
X205697632Y-105097170D01*
X205679219Y-105086134D01*
X205661976Y-105073346D01*
X205646070Y-105058930D01*
X205631654Y-105043024D01*
X205618866Y-105025781D01*
X205607830Y-105007368D01*
X205598651Y-104987962D01*
X205591419Y-104967750D01*
X205586203Y-104946926D01*
X205583053Y-104925691D01*
X205582000Y-104904250D01*
X205582000Y-104391750D01*
X205583053Y-104370309D01*
X205586203Y-104349074D01*
X205591419Y-104328250D01*
X205598651Y-104308038D01*
X205607830Y-104288632D01*
X205618866Y-104270219D01*
X205631654Y-104252976D01*
X205646070Y-104237070D01*
X205661976Y-104222654D01*
X205679219Y-104209866D01*
X205697632Y-104198830D01*
X205717038Y-104189651D01*
X205737250Y-104182419D01*
X205758074Y-104177203D01*
X205779309Y-104174053D01*
X205800750Y-104173000D01*
X206238250Y-104173000D01*
X206259691Y-104174053D01*
X206259691Y-104174053D01*
G37*
D12*
X206019500Y-104648000D03*
D10*
G36*
X204684691Y-104174053D02*
G01*
X204705926Y-104177203D01*
X204726750Y-104182419D01*
X204746962Y-104189651D01*
X204766368Y-104198830D01*
X204784781Y-104209866D01*
X204802024Y-104222654D01*
X204817930Y-104237070D01*
X204832346Y-104252976D01*
X204845134Y-104270219D01*
X204856170Y-104288632D01*
X204865349Y-104308038D01*
X204872581Y-104328250D01*
X204877797Y-104349074D01*
X204880947Y-104370309D01*
X204882000Y-104391750D01*
X204882000Y-104904250D01*
X204880947Y-104925691D01*
X204877797Y-104946926D01*
X204872581Y-104967750D01*
X204865349Y-104987962D01*
X204856170Y-105007368D01*
X204845134Y-105025781D01*
X204832346Y-105043024D01*
X204817930Y-105058930D01*
X204802024Y-105073346D01*
X204784781Y-105086134D01*
X204766368Y-105097170D01*
X204746962Y-105106349D01*
X204726750Y-105113581D01*
X204705926Y-105118797D01*
X204684691Y-105121947D01*
X204663250Y-105123000D01*
X204225750Y-105123000D01*
X204204309Y-105121947D01*
X204183074Y-105118797D01*
X204162250Y-105113581D01*
X204142038Y-105106349D01*
X204122632Y-105097170D01*
X204104219Y-105086134D01*
X204086976Y-105073346D01*
X204071070Y-105058930D01*
X204056654Y-105043024D01*
X204043866Y-105025781D01*
X204032830Y-105007368D01*
X204023651Y-104987962D01*
X204016419Y-104967750D01*
X204011203Y-104946926D01*
X204008053Y-104925691D01*
X204007000Y-104904250D01*
X204007000Y-104391750D01*
X204008053Y-104370309D01*
X204011203Y-104349074D01*
X204016419Y-104328250D01*
X204023651Y-104308038D01*
X204032830Y-104288632D01*
X204043866Y-104270219D01*
X204056654Y-104252976D01*
X204071070Y-104237070D01*
X204086976Y-104222654D01*
X204104219Y-104209866D01*
X204122632Y-104198830D01*
X204142038Y-104189651D01*
X204162250Y-104182419D01*
X204183074Y-104177203D01*
X204204309Y-104174053D01*
X204225750Y-104173000D01*
X204663250Y-104173000D01*
X204684691Y-104174053D01*
X204684691Y-104174053D01*
G37*
D12*
X204444500Y-104648000D03*
D10*
G36*
X185448692Y-114528054D02*
G01*
X185469927Y-114531204D01*
X185490751Y-114536420D01*
X185510963Y-114543652D01*
X185530369Y-114552831D01*
X185548782Y-114563867D01*
X185566025Y-114576655D01*
X185581931Y-114591071D01*
X185596347Y-114606977D01*
X185609135Y-114624220D01*
X185620171Y-114642633D01*
X185629350Y-114662039D01*
X185636582Y-114682251D01*
X185641798Y-114703075D01*
X185644948Y-114724310D01*
X185646001Y-114745751D01*
X185646001Y-115183251D01*
X185644948Y-115204692D01*
X185641798Y-115225927D01*
X185636582Y-115246751D01*
X185629350Y-115266963D01*
X185620171Y-115286369D01*
X185609135Y-115304782D01*
X185596347Y-115322025D01*
X185581931Y-115337931D01*
X185566025Y-115352347D01*
X185548782Y-115365135D01*
X185530369Y-115376171D01*
X185510963Y-115385350D01*
X185490751Y-115392582D01*
X185469927Y-115397798D01*
X185448692Y-115400948D01*
X185427251Y-115402001D01*
X184914751Y-115402001D01*
X184893310Y-115400948D01*
X184872075Y-115397798D01*
X184851251Y-115392582D01*
X184831039Y-115385350D01*
X184811633Y-115376171D01*
X184793220Y-115365135D01*
X184775977Y-115352347D01*
X184760071Y-115337931D01*
X184745655Y-115322025D01*
X184732867Y-115304782D01*
X184721831Y-115286369D01*
X184712652Y-115266963D01*
X184705420Y-115246751D01*
X184700204Y-115225927D01*
X184697054Y-115204692D01*
X184696001Y-115183251D01*
X184696001Y-114745751D01*
X184697054Y-114724310D01*
X184700204Y-114703075D01*
X184705420Y-114682251D01*
X184712652Y-114662039D01*
X184721831Y-114642633D01*
X184732867Y-114624220D01*
X184745655Y-114606977D01*
X184760071Y-114591071D01*
X184775977Y-114576655D01*
X184793220Y-114563867D01*
X184811633Y-114552831D01*
X184831039Y-114543652D01*
X184851251Y-114536420D01*
X184872075Y-114531204D01*
X184893310Y-114528054D01*
X184914751Y-114527001D01*
X185427251Y-114527001D01*
X185448692Y-114528054D01*
X185448692Y-114528054D01*
G37*
D12*
X185171001Y-114964501D03*
D10*
G36*
X185448692Y-112953054D02*
G01*
X185469927Y-112956204D01*
X185490751Y-112961420D01*
X185510963Y-112968652D01*
X185530369Y-112977831D01*
X185548782Y-112988867D01*
X185566025Y-113001655D01*
X185581931Y-113016071D01*
X185596347Y-113031977D01*
X185609135Y-113049220D01*
X185620171Y-113067633D01*
X185629350Y-113087039D01*
X185636582Y-113107251D01*
X185641798Y-113128075D01*
X185644948Y-113149310D01*
X185646001Y-113170751D01*
X185646001Y-113608251D01*
X185644948Y-113629692D01*
X185641798Y-113650927D01*
X185636582Y-113671751D01*
X185629350Y-113691963D01*
X185620171Y-113711369D01*
X185609135Y-113729782D01*
X185596347Y-113747025D01*
X185581931Y-113762931D01*
X185566025Y-113777347D01*
X185548782Y-113790135D01*
X185530369Y-113801171D01*
X185510963Y-113810350D01*
X185490751Y-113817582D01*
X185469927Y-113822798D01*
X185448692Y-113825948D01*
X185427251Y-113827001D01*
X184914751Y-113827001D01*
X184893310Y-113825948D01*
X184872075Y-113822798D01*
X184851251Y-113817582D01*
X184831039Y-113810350D01*
X184811633Y-113801171D01*
X184793220Y-113790135D01*
X184775977Y-113777347D01*
X184760071Y-113762931D01*
X184745655Y-113747025D01*
X184732867Y-113729782D01*
X184721831Y-113711369D01*
X184712652Y-113691963D01*
X184705420Y-113671751D01*
X184700204Y-113650927D01*
X184697054Y-113629692D01*
X184696001Y-113608251D01*
X184696001Y-113170751D01*
X184697054Y-113149310D01*
X184700204Y-113128075D01*
X184705420Y-113107251D01*
X184712652Y-113087039D01*
X184721831Y-113067633D01*
X184732867Y-113049220D01*
X184745655Y-113031977D01*
X184760071Y-113016071D01*
X184775977Y-113001655D01*
X184793220Y-112988867D01*
X184811633Y-112977831D01*
X184831039Y-112968652D01*
X184851251Y-112961420D01*
X184872075Y-112956204D01*
X184893310Y-112953054D01*
X184914751Y-112952001D01*
X185427251Y-112952001D01*
X185448692Y-112953054D01*
X185448692Y-112953054D01*
G37*
D12*
X185171001Y-113389501D03*
D10*
G36*
X206259691Y-102015053D02*
G01*
X206280926Y-102018203D01*
X206301750Y-102023419D01*
X206321962Y-102030651D01*
X206341368Y-102039830D01*
X206359781Y-102050866D01*
X206377024Y-102063654D01*
X206392930Y-102078070D01*
X206407346Y-102093976D01*
X206420134Y-102111219D01*
X206431170Y-102129632D01*
X206440349Y-102149038D01*
X206447581Y-102169250D01*
X206452797Y-102190074D01*
X206455947Y-102211309D01*
X206457000Y-102232750D01*
X206457000Y-102745250D01*
X206455947Y-102766691D01*
X206452797Y-102787926D01*
X206447581Y-102808750D01*
X206440349Y-102828962D01*
X206431170Y-102848368D01*
X206420134Y-102866781D01*
X206407346Y-102884024D01*
X206392930Y-102899930D01*
X206377024Y-102914346D01*
X206359781Y-102927134D01*
X206341368Y-102938170D01*
X206321962Y-102947349D01*
X206301750Y-102954581D01*
X206280926Y-102959797D01*
X206259691Y-102962947D01*
X206238250Y-102964000D01*
X205800750Y-102964000D01*
X205779309Y-102962947D01*
X205758074Y-102959797D01*
X205737250Y-102954581D01*
X205717038Y-102947349D01*
X205697632Y-102938170D01*
X205679219Y-102927134D01*
X205661976Y-102914346D01*
X205646070Y-102899930D01*
X205631654Y-102884024D01*
X205618866Y-102866781D01*
X205607830Y-102848368D01*
X205598651Y-102828962D01*
X205591419Y-102808750D01*
X205586203Y-102787926D01*
X205583053Y-102766691D01*
X205582000Y-102745250D01*
X205582000Y-102232750D01*
X205583053Y-102211309D01*
X205586203Y-102190074D01*
X205591419Y-102169250D01*
X205598651Y-102149038D01*
X205607830Y-102129632D01*
X205618866Y-102111219D01*
X205631654Y-102093976D01*
X205646070Y-102078070D01*
X205661976Y-102063654D01*
X205679219Y-102050866D01*
X205697632Y-102039830D01*
X205717038Y-102030651D01*
X205737250Y-102023419D01*
X205758074Y-102018203D01*
X205779309Y-102015053D01*
X205800750Y-102014000D01*
X206238250Y-102014000D01*
X206259691Y-102015053D01*
X206259691Y-102015053D01*
G37*
D12*
X206019500Y-102489000D03*
D10*
G36*
X204684691Y-102015053D02*
G01*
X204705926Y-102018203D01*
X204726750Y-102023419D01*
X204746962Y-102030651D01*
X204766368Y-102039830D01*
X204784781Y-102050866D01*
X204802024Y-102063654D01*
X204817930Y-102078070D01*
X204832346Y-102093976D01*
X204845134Y-102111219D01*
X204856170Y-102129632D01*
X204865349Y-102149038D01*
X204872581Y-102169250D01*
X204877797Y-102190074D01*
X204880947Y-102211309D01*
X204882000Y-102232750D01*
X204882000Y-102745250D01*
X204880947Y-102766691D01*
X204877797Y-102787926D01*
X204872581Y-102808750D01*
X204865349Y-102828962D01*
X204856170Y-102848368D01*
X204845134Y-102866781D01*
X204832346Y-102884024D01*
X204817930Y-102899930D01*
X204802024Y-102914346D01*
X204784781Y-102927134D01*
X204766368Y-102938170D01*
X204746962Y-102947349D01*
X204726750Y-102954581D01*
X204705926Y-102959797D01*
X204684691Y-102962947D01*
X204663250Y-102964000D01*
X204225750Y-102964000D01*
X204204309Y-102962947D01*
X204183074Y-102959797D01*
X204162250Y-102954581D01*
X204142038Y-102947349D01*
X204122632Y-102938170D01*
X204104219Y-102927134D01*
X204086976Y-102914346D01*
X204071070Y-102899930D01*
X204056654Y-102884024D01*
X204043866Y-102866781D01*
X204032830Y-102848368D01*
X204023651Y-102828962D01*
X204016419Y-102808750D01*
X204011203Y-102787926D01*
X204008053Y-102766691D01*
X204007000Y-102745250D01*
X204007000Y-102232750D01*
X204008053Y-102211309D01*
X204011203Y-102190074D01*
X204016419Y-102169250D01*
X204023651Y-102149038D01*
X204032830Y-102129632D01*
X204043866Y-102111219D01*
X204056654Y-102093976D01*
X204071070Y-102078070D01*
X204086976Y-102063654D01*
X204104219Y-102050866D01*
X204122632Y-102039830D01*
X204142038Y-102030651D01*
X204162250Y-102023419D01*
X204183074Y-102018203D01*
X204204309Y-102015053D01*
X204225750Y-102014000D01*
X204663250Y-102014000D01*
X204684691Y-102015053D01*
X204684691Y-102015053D01*
G37*
D12*
X204444500Y-102489000D03*
D19*
X188214000Y-102870000D03*
X190754000Y-95250000D03*
X190754000Y-102870000D03*
X188214000Y-95250000D03*
X185674000Y-102870000D03*
D20*
X185674000Y-95250000D03*
D19*
X193294000Y-95250000D03*
X193294000Y-102870000D03*
D21*
X161568990Y-97764500D03*
X168402000Y-98806000D03*
X166116000Y-103886000D03*
X159232500Y-91160500D03*
X159004000Y-87122000D03*
X156579999Y-83935999D03*
X161290000Y-108204000D03*
X170434000Y-112268000D03*
X172466000Y-112776000D03*
D22*
X202934052Y-103632001D03*
X202184000Y-103632000D03*
X202934052Y-101345999D03*
X202184000Y-101346000D03*
X202184000Y-99060000D03*
X202934052Y-99060001D03*
D21*
X204444500Y-97233500D03*
X204444500Y-105435500D03*
D22*
X175768000Y-113815000D03*
D21*
X174522990Y-113574990D03*
X176276000Y-110490000D03*
D22*
X178028500Y-87630000D03*
X176700000Y-89916000D03*
X184681000Y-110998000D03*
D21*
X183896000Y-110998000D03*
D22*
X207529948Y-103631999D03*
X207529948Y-101346001D03*
X207529948Y-99060001D03*
X208280000Y-103632000D03*
X208280000Y-101346000D03*
X208280000Y-99060000D03*
D21*
X206019500Y-97233500D03*
X206019500Y-105481500D03*
X186673612Y-112266581D03*
D22*
X185928000Y-113030000D03*
D21*
X189196500Y-116840000D03*
X175260000Y-114896000D03*
X163510000Y-107884000D03*
X176310900Y-114888991D03*
X177571500Y-110464500D03*
X178876000Y-107808000D03*
X176276000Y-105918000D03*
X158750000Y-89662000D03*
X162814000Y-90678000D03*
X164855002Y-95529500D03*
D22*
X181661000Y-92202000D03*
X182372000Y-88900000D03*
X175514000Y-88900000D03*
X178900000Y-88966000D03*
X176700000Y-90866000D03*
X177012500Y-93218000D03*
D21*
X195326000Y-104902000D03*
D23*
X155448000Y-104760000D02*
X154178000Y-103490000D01*
X154178000Y-94630000D02*
X155448000Y-93360000D01*
X154178000Y-103490000D02*
X154178000Y-94630000D01*
X157548000Y-95560000D02*
X157932000Y-95560000D01*
X161518500Y-97282000D02*
X161518500Y-97764500D01*
X161518500Y-97764500D02*
X161568990Y-97764500D01*
X162610490Y-98806000D02*
X161568990Y-97764500D01*
X168402000Y-98806000D02*
X162610490Y-98806000D01*
X159752500Y-97764500D02*
X157548000Y-95560000D01*
X161568990Y-97764500D02*
X159752500Y-97764500D01*
X166243000Y-100965000D02*
X168402000Y-98806000D01*
X166116000Y-101092000D02*
X166243000Y-100965000D01*
X166116000Y-103886000D02*
X166116000Y-101092000D01*
X156389500Y-91160500D02*
X155448000Y-92102000D01*
X155448000Y-92102000D02*
X155448000Y-93360000D01*
X159232500Y-91160500D02*
X156389500Y-91160500D01*
X157226000Y-89861106D02*
X158525394Y-91160500D01*
X158525394Y-91160500D02*
X159232500Y-91160500D01*
X157226000Y-88900000D02*
X157226000Y-89861106D01*
X159004000Y-87122000D02*
X157226000Y-88900000D01*
X156579999Y-84697999D02*
X159004000Y-87122000D01*
X156579999Y-83935999D02*
X156579999Y-84697999D01*
X176276000Y-108991500D02*
X176276000Y-110490000D01*
D24*
X216121000Y-96360000D02*
X216121000Y-101760000D01*
X216121000Y-101760000D02*
X221521000Y-101760000D01*
X221521000Y-101760000D02*
X221521000Y-96360000D01*
X170942000Y-112776000D02*
X170434000Y-112268000D01*
X172665000Y-112776000D02*
X170942000Y-112776000D01*
D23*
X204444500Y-105435500D02*
X204444500Y-104648000D01*
X204444500Y-103934500D02*
X204747000Y-103632000D01*
X204444500Y-104648000D02*
X204444500Y-103934500D01*
X204747000Y-102791500D02*
X204444500Y-102489000D01*
X204747000Y-103632000D02*
X204747000Y-102791500D01*
X204444500Y-101648500D02*
X204747000Y-101346000D01*
X204444500Y-102489000D02*
X204444500Y-101648500D01*
X204747000Y-100505500D02*
X204444500Y-100203000D01*
X204747000Y-101346000D02*
X204747000Y-100505500D01*
X204444500Y-99339500D02*
X204724000Y-99060000D01*
X204444500Y-100203000D02*
X204444500Y-99339500D01*
X204724000Y-98323500D02*
X204444500Y-98044000D01*
X204724000Y-99060000D02*
X204724000Y-98323500D01*
D24*
X185171001Y-114964501D02*
X184658000Y-115477502D01*
D23*
X174763000Y-113815000D02*
X174522990Y-113574990D01*
X175768000Y-113815000D02*
X174763000Y-113815000D01*
D25*
X173463990Y-113574990D02*
X172665000Y-112776000D01*
X174522990Y-113574990D02*
X173463990Y-113574990D01*
D24*
X174951000Y-110490000D02*
X172665000Y-112776000D01*
X176276000Y-110490000D02*
X174951000Y-110490000D01*
D23*
X202184000Y-99060000D02*
X202184000Y-101346000D01*
X202184000Y-101346000D02*
X202184000Y-103632000D01*
X202934051Y-103632000D02*
X202934052Y-103632001D01*
X202184000Y-103632000D02*
X202934051Y-103632000D01*
X202934052Y-103632001D02*
X202934052Y-101345999D01*
X202934052Y-101345999D02*
X202934052Y-99060001D01*
X202184001Y-99060001D02*
X202184000Y-99060000D01*
X202934052Y-99060001D02*
X202184001Y-99060001D01*
X169109106Y-98806000D02*
X168402000Y-98806000D01*
X171076078Y-98806000D02*
X169109106Y-98806000D01*
X199390000Y-106426000D02*
X178696078Y-106426000D01*
X202184000Y-103632000D02*
X199390000Y-106426000D01*
X214721001Y-94960001D02*
X216121000Y-96360000D01*
X206010893Y-94960001D02*
X214721001Y-94960001D01*
X204444500Y-96526394D02*
X206010893Y-94960001D01*
X204444500Y-97233500D02*
X204444500Y-96526394D01*
X168402000Y-97176000D02*
X168402000Y-98098894D01*
X168402000Y-98098894D02*
X168402000Y-98806000D01*
X175662000Y-89916000D02*
X168402000Y-97176000D01*
X176700000Y-89916000D02*
X175662000Y-89916000D01*
X174951000Y-103941000D02*
X175581039Y-103310961D01*
X174951000Y-110490000D02*
X174951000Y-103941000D01*
X175581039Y-103310961D02*
X171076078Y-98806000D01*
X178696078Y-106426000D02*
X175581039Y-103310961D01*
X169876010Y-116790010D02*
X161789999Y-108703999D01*
X183345492Y-116790010D02*
X169876010Y-116790010D01*
X161789999Y-108703999D02*
X161290000Y-108204000D01*
X184658000Y-115477502D02*
X183345492Y-116790010D01*
D26*
X186673612Y-112284388D02*
X185928000Y-113030000D01*
D24*
X186673612Y-112266581D02*
X186673612Y-112284388D01*
X185568499Y-113389501D02*
X185928000Y-113030000D01*
X185171001Y-113389501D02*
X185568499Y-113389501D01*
X185746001Y-113389501D02*
X189196500Y-116840000D01*
X185171001Y-113389501D02*
X185746001Y-113389501D01*
D26*
X163510000Y-107884000D02*
X170522000Y-114896000D01*
D24*
X176303891Y-114896000D02*
X176310900Y-114888991D01*
X175260000Y-114896000D02*
X176303891Y-114896000D01*
X176310900Y-114888991D02*
X177546000Y-113653891D01*
X177546000Y-113653891D02*
X177546000Y-110490000D01*
X177546000Y-110490000D02*
X177571500Y-110464500D01*
X177571500Y-110464500D02*
X177571500Y-108940500D01*
X178704000Y-107808000D02*
X178876000Y-107808000D01*
X177571500Y-108940500D02*
X178704000Y-107808000D01*
X177546000Y-113653891D02*
X177810390Y-113389501D01*
X178169891Y-113030000D02*
X177810390Y-113389501D01*
D26*
X185928000Y-113030000D02*
X199644000Y-113030000D01*
X199644000Y-113030000D02*
X207010000Y-105664000D01*
D24*
X174552894Y-114896000D02*
X170522000Y-114896000D01*
X175260000Y-114896000D02*
X174552894Y-114896000D01*
X170522000Y-114896000D02*
X171450000Y-115824000D01*
X171450000Y-115824000D02*
X176784000Y-115824000D01*
D26*
X179578000Y-113030000D02*
X178169891Y-113030000D01*
D24*
X176784000Y-115824000D02*
X179578000Y-113030000D01*
D26*
X185928000Y-113030000D02*
X179578000Y-113030000D01*
D25*
X208280000Y-103632000D02*
X208280000Y-101346000D01*
X208280000Y-101346000D02*
X208280000Y-99060000D01*
X206019500Y-98734500D02*
X205694000Y-99060000D01*
X206019500Y-98044000D02*
X206019500Y-98734500D01*
X206019500Y-99385500D02*
X205694000Y-99060000D01*
X206019500Y-100203000D02*
X206019500Y-99385500D01*
X206019500Y-101043500D02*
X205717000Y-101346000D01*
X206019500Y-100203000D02*
X206019500Y-101043500D01*
X206019500Y-101648500D02*
X205717000Y-101346000D01*
X206019500Y-102489000D02*
X206019500Y-101648500D01*
X206019500Y-103329500D02*
X205717000Y-103632000D01*
X206019500Y-102489000D02*
X206019500Y-103329500D01*
X206019500Y-103934500D02*
X205717000Y-103632000D01*
X206019500Y-104648000D02*
X206019500Y-103934500D01*
X207264000Y-104648000D02*
X207010000Y-104648000D01*
X208280000Y-103632000D02*
X207264000Y-104648000D01*
D26*
X207010000Y-104648000D02*
X207010000Y-99579949D01*
X207010000Y-105664000D02*
X207010000Y-104648000D01*
D25*
X207846000Y-99060000D02*
X206019500Y-97233500D01*
X208280000Y-99060000D02*
X207846000Y-99060000D01*
X206019500Y-98044000D02*
X206502000Y-98526500D01*
D23*
X176276000Y-107416500D02*
X176276000Y-105918000D01*
X159249999Y-90161999D02*
X162297999Y-90161999D01*
X158750000Y-89662000D02*
X159249999Y-90161999D01*
X162297999Y-90161999D02*
X162814000Y-90678000D01*
X163093500Y-97282000D02*
X164846000Y-95529500D01*
X164846000Y-95529500D02*
X164855002Y-95529500D01*
X181661000Y-89611000D02*
X182372000Y-88900000D01*
X181661000Y-92202000D02*
X181661000Y-89611000D01*
X175514000Y-88900000D02*
X175514000Y-87884000D01*
X175514000Y-87884000D02*
X177038000Y-86360000D01*
X179832000Y-86360000D02*
X182372000Y-88900000D01*
X177038000Y-86360000D02*
X179832000Y-86360000D01*
D25*
X178001000Y-95862000D02*
X181661000Y-92202000D01*
X176784000Y-95862000D02*
X178001000Y-95862000D01*
D23*
X177000000Y-90866000D02*
X178900000Y-88966000D01*
X176700000Y-90866000D02*
X177000000Y-90866000D01*
X176700000Y-90866000D02*
X176700000Y-92880000D01*
X177012500Y-93192500D02*
X177012500Y-93218000D01*
X176700000Y-92880000D02*
X177012500Y-93192500D01*
D25*
X190754000Y-95350000D02*
X195326000Y-99922000D01*
X190754000Y-95250000D02*
X190754000Y-95350000D01*
X195326000Y-104902000D02*
X195326000Y-99922000D01*
D27*
G36*
X222810000Y-94891392D02*
G01*
X222761841Y-94939551D01*
X222617865Y-94634230D01*
X222260108Y-94453403D01*
X221873947Y-94345845D01*
X221474223Y-94315690D01*
X221076296Y-94364096D01*
X220695460Y-94489205D01*
X220424135Y-94634230D01*
X220280158Y-94939553D01*
X221521000Y-96180395D01*
X221535143Y-96166253D01*
X221714748Y-96345858D01*
X221700605Y-96360000D01*
X221714748Y-96374143D01*
X221535143Y-96553748D01*
X221521000Y-96539605D01*
X221506858Y-96553748D01*
X221327253Y-96374143D01*
X221341395Y-96360000D01*
X220100553Y-95119158D01*
X219795230Y-95263135D01*
X219614403Y-95620892D01*
X219506845Y-96007053D01*
X219476690Y-96406777D01*
X219525096Y-96804704D01*
X219650205Y-97185540D01*
X219660681Y-97205140D01*
X219414587Y-97103204D01*
X219021430Y-97025000D01*
X218620570Y-97025000D01*
X218227413Y-97103204D01*
X217972067Y-97208972D01*
X218027597Y-97099108D01*
X218135155Y-96712947D01*
X218165310Y-96313223D01*
X218116904Y-95915296D01*
X217991795Y-95534460D01*
X217846770Y-95263135D01*
X217541447Y-95119158D01*
X216300605Y-96360000D01*
X216314748Y-96374143D01*
X216135143Y-96553748D01*
X216121000Y-96539605D01*
X214880158Y-97780447D01*
X215024135Y-98085770D01*
X215381892Y-98266597D01*
X215768053Y-98374155D01*
X216167777Y-98404310D01*
X216565704Y-98355904D01*
X216946540Y-98230795D01*
X216966140Y-98220319D01*
X216864204Y-98466413D01*
X216786000Y-98859570D01*
X216786000Y-99260430D01*
X216864204Y-99653587D01*
X216969972Y-99908933D01*
X216860108Y-99853403D01*
X216473947Y-99745845D01*
X216074223Y-99715690D01*
X215676296Y-99764096D01*
X215295460Y-99889205D01*
X215024135Y-100034230D01*
X214880158Y-100339553D01*
X216121000Y-101580395D01*
X216135143Y-101566253D01*
X216314748Y-101745858D01*
X216300605Y-101760000D01*
X217541447Y-103000842D01*
X217846770Y-102856865D01*
X218027597Y-102499108D01*
X218135155Y-102112947D01*
X218165310Y-101713223D01*
X218116904Y-101315296D01*
X217991795Y-100934460D01*
X217981319Y-100914860D01*
X218227413Y-101016796D01*
X218620570Y-101095000D01*
X219021430Y-101095000D01*
X219414587Y-101016796D01*
X219669933Y-100911028D01*
X219614403Y-101020892D01*
X219506845Y-101407053D01*
X219476690Y-101806777D01*
X219525096Y-102204704D01*
X219650205Y-102585540D01*
X219795230Y-102856865D01*
X220100553Y-103000842D01*
X221341395Y-101760000D01*
X221327253Y-101745858D01*
X221506858Y-101566253D01*
X221521000Y-101580395D01*
X221535143Y-101566253D01*
X221714748Y-101745858D01*
X221700605Y-101760000D01*
X221714748Y-101774143D01*
X221535143Y-101953748D01*
X221521000Y-101939605D01*
X220280158Y-103180447D01*
X220424135Y-103485770D01*
X220781892Y-103666597D01*
X221168053Y-103774155D01*
X221567777Y-103804310D01*
X221965704Y-103755904D01*
X222346540Y-103630795D01*
X222617865Y-103485770D01*
X222761841Y-103180449D01*
X222810001Y-103228609D01*
X222810001Y-117400000D01*
X190197741Y-117400000D01*
X190261315Y-117281061D01*
X190326902Y-117064850D01*
X190349048Y-116839999D01*
X190326902Y-116615148D01*
X190261315Y-116398938D01*
X190154808Y-116199677D01*
X190047389Y-116068786D01*
X188667603Y-114689000D01*
X199562510Y-114689000D01*
X199644000Y-114697026D01*
X199725490Y-114689000D01*
X199725501Y-114689000D01*
X199969221Y-114664996D01*
X200281944Y-114570132D01*
X200570151Y-114416082D01*
X200670324Y-114333872D01*
X217729000Y-114333872D01*
X217729000Y-114774128D01*
X217814890Y-115205925D01*
X217983369Y-115612669D01*
X218227962Y-115978729D01*
X218539271Y-116290038D01*
X218905331Y-116534631D01*
X219312075Y-116703110D01*
X219743872Y-116789000D01*
X220184128Y-116789000D01*
X220615925Y-116703110D01*
X221022669Y-116534631D01*
X221388729Y-116290038D01*
X221700038Y-115978729D01*
X221944631Y-115612669D01*
X222113110Y-115205925D01*
X222199000Y-114774128D01*
X222199000Y-114333872D01*
X222113110Y-113902075D01*
X221944631Y-113495331D01*
X221700038Y-113129271D01*
X221388729Y-112817962D01*
X221022669Y-112573369D01*
X220615925Y-112404890D01*
X220184128Y-112319000D01*
X219743872Y-112319000D01*
X219312075Y-112404890D01*
X218905331Y-112573369D01*
X218539271Y-112817962D01*
X218227962Y-113129271D01*
X217983369Y-113495331D01*
X217814890Y-113902075D01*
X217729000Y-114333872D01*
X200670324Y-114333872D01*
X200822766Y-114208766D01*
X200874720Y-114145460D01*
X208125461Y-106894719D01*
X208188766Y-106842766D01*
X208396082Y-106590151D01*
X208550132Y-106301944D01*
X208644996Y-105989221D01*
X208669000Y-105745501D01*
X208669000Y-105745491D01*
X208677026Y-105664001D01*
X208669000Y-105582510D01*
X208669000Y-104679841D01*
X208963135Y-104385706D01*
X209001896Y-104353896D01*
X209128860Y-104199190D01*
X209223202Y-104022687D01*
X209281298Y-103831171D01*
X209296000Y-103681902D01*
X209296000Y-103681901D01*
X209300915Y-103632000D01*
X209296000Y-103582098D01*
X209296000Y-103180447D01*
X214880158Y-103180447D01*
X215024135Y-103485770D01*
X215381892Y-103666597D01*
X215768053Y-103774155D01*
X216167777Y-103804310D01*
X216565704Y-103755904D01*
X216946540Y-103630795D01*
X217217865Y-103485770D01*
X217361842Y-103180447D01*
X216121000Y-101939605D01*
X214880158Y-103180447D01*
X209296000Y-103180447D01*
X209296000Y-101806777D01*
X214076690Y-101806777D01*
X214125096Y-102204704D01*
X214250205Y-102585540D01*
X214395230Y-102856865D01*
X214700553Y-103000842D01*
X215941395Y-101760000D01*
X214700553Y-100519158D01*
X214395230Y-100663135D01*
X214214403Y-101020892D01*
X214106845Y-101407053D01*
X214076690Y-101806777D01*
X209296000Y-101806777D01*
X209296000Y-99109902D01*
X209300915Y-99060000D01*
X209281298Y-98860829D01*
X209223202Y-98669313D01*
X209128860Y-98492810D01*
X209001896Y-98338104D01*
X208847190Y-98211140D01*
X208670687Y-98116798D01*
X208479171Y-98058702D01*
X208329902Y-98044000D01*
X208280000Y-98039085D01*
X208263546Y-98040706D01*
X207100708Y-96877867D01*
X207025324Y-96695876D01*
X206901112Y-96509980D01*
X206797909Y-96406777D01*
X214076690Y-96406777D01*
X214125096Y-96804704D01*
X214250205Y-97185540D01*
X214395230Y-97456865D01*
X214700553Y-97600842D01*
X215941395Y-96360000D01*
X214700553Y-95119158D01*
X214395230Y-95263135D01*
X214214403Y-95620892D01*
X214106845Y-96007053D01*
X214076690Y-96406777D01*
X206797909Y-96406777D01*
X206743020Y-96351888D01*
X206557124Y-96227676D01*
X206350567Y-96142117D01*
X206131288Y-96098500D01*
X205907712Y-96098500D01*
X205688433Y-96142117D01*
X205481876Y-96227676D01*
X205295980Y-96351888D01*
X205137888Y-96509980D01*
X205013676Y-96695876D01*
X204928117Y-96902433D01*
X204921672Y-96934835D01*
X204882000Y-96930928D01*
X204730250Y-96934000D01*
X204571500Y-97092750D01*
X204571500Y-97917000D01*
X204591500Y-97917000D01*
X204591500Y-98171000D01*
X204571500Y-98171000D01*
X204571500Y-98215250D01*
X204461250Y-98105000D01*
X204452000Y-98101928D01*
X204327518Y-98114188D01*
X204207820Y-98150498D01*
X204169464Y-98171000D01*
X203530750Y-98171000D01*
X203372000Y-98329750D01*
X203368928Y-98519000D01*
X203381188Y-98643482D01*
X203417498Y-98763180D01*
X203476463Y-98873494D01*
X203555815Y-98970185D01*
X203652506Y-99049537D01*
X203762820Y-99108502D01*
X203812262Y-99123500D01*
X203762820Y-99138498D01*
X203652506Y-99197463D01*
X203555815Y-99276815D01*
X203476463Y-99373506D01*
X203417498Y-99483820D01*
X203381188Y-99603518D01*
X203368928Y-99728000D01*
X203372000Y-99917250D01*
X203530750Y-100076000D01*
X204317500Y-100076000D01*
X204317500Y-100002773D01*
X204327518Y-100005812D01*
X204452000Y-100018072D01*
X204461250Y-100015000D01*
X204571500Y-99904750D01*
X204571500Y-100076000D01*
X204591500Y-100076000D01*
X204591500Y-100330000D01*
X204571500Y-100330000D01*
X204571500Y-100501250D01*
X204461250Y-100391000D01*
X204452000Y-100387928D01*
X204327518Y-100400188D01*
X204317500Y-100403227D01*
X204317500Y-100330000D01*
X203530750Y-100330000D01*
X203372000Y-100488750D01*
X203368928Y-100678000D01*
X203381188Y-100802482D01*
X203417498Y-100922180D01*
X203476463Y-101032494D01*
X203555815Y-101129185D01*
X203652506Y-101208537D01*
X203762820Y-101267502D01*
X203882518Y-101303812D01*
X204007000Y-101316072D01*
X204158750Y-101313000D01*
X204252750Y-101219000D01*
X204620000Y-101219000D01*
X204620000Y-101202750D01*
X204702107Y-101284857D01*
X204696085Y-101346000D01*
X204702107Y-101407143D01*
X204620000Y-101489250D01*
X204620000Y-101473000D01*
X204252750Y-101473000D01*
X204158750Y-101379000D01*
X204007000Y-101375928D01*
X203882518Y-101388188D01*
X203762820Y-101424498D01*
X203652506Y-101483463D01*
X203555815Y-101562815D01*
X203476463Y-101659506D01*
X203417498Y-101769820D01*
X203381188Y-101889518D01*
X203368928Y-102014000D01*
X203372000Y-102203250D01*
X203530750Y-102362000D01*
X204317500Y-102362000D01*
X204317500Y-102288773D01*
X204327518Y-102291812D01*
X204452000Y-102304072D01*
X204461250Y-102301000D01*
X204571500Y-102190750D01*
X204571500Y-102362000D01*
X204591500Y-102362000D01*
X204591500Y-102616000D01*
X204571500Y-102616000D01*
X204571500Y-102787250D01*
X204461250Y-102677000D01*
X204452000Y-102673928D01*
X204327518Y-102686188D01*
X204317500Y-102689227D01*
X204317500Y-102616000D01*
X203530750Y-102616000D01*
X203372000Y-102774750D01*
X203368928Y-102964000D01*
X203381188Y-103088482D01*
X203417498Y-103208180D01*
X203476463Y-103318494D01*
X203555815Y-103415185D01*
X203652506Y-103494537D01*
X203762820Y-103553502D01*
X203812262Y-103568500D01*
X203762820Y-103583498D01*
X203652506Y-103642463D01*
X203555815Y-103721815D01*
X203476463Y-103818506D01*
X203417498Y-103928820D01*
X203381188Y-104048518D01*
X203368928Y-104173000D01*
X203372000Y-104362250D01*
X203530750Y-104521000D01*
X204169464Y-104521000D01*
X204207820Y-104541502D01*
X204327518Y-104577812D01*
X204452000Y-104590072D01*
X204461250Y-104587000D01*
X204571500Y-104476750D01*
X204571500Y-104521000D01*
X204591500Y-104521000D01*
X204591500Y-104775000D01*
X204571500Y-104775000D01*
X204571500Y-105599250D01*
X204650035Y-105677785D01*
X198956820Y-111371000D01*
X188066517Y-111371000D01*
X188059695Y-111358237D01*
X187852378Y-111105622D01*
X187599763Y-110898305D01*
X187311555Y-110744256D01*
X186998832Y-110649393D01*
X186673612Y-110617361D01*
X186348391Y-110649393D01*
X186035669Y-110744256D01*
X185747462Y-110898305D01*
X185558153Y-111053668D01*
X185240821Y-111371000D01*
X178693000Y-111371000D01*
X178693000Y-110718700D01*
X178701903Y-110689351D01*
X178718500Y-110520840D01*
X178718500Y-110520830D01*
X178724048Y-110464501D01*
X178718500Y-110408171D01*
X178718500Y-109415602D01*
X179236999Y-108897103D01*
X179317061Y-108872816D01*
X179516322Y-108766309D01*
X179690975Y-108622975D01*
X179834309Y-108448322D01*
X179940816Y-108249061D01*
X180006403Y-108032851D01*
X180028549Y-107808000D01*
X180006403Y-107583149D01*
X179940816Y-107366939D01*
X179834309Y-107167678D01*
X179690975Y-106993025D01*
X179516322Y-106849691D01*
X179317061Y-106743184D01*
X179100851Y-106677597D01*
X178932340Y-106661000D01*
X178760329Y-106661000D01*
X178704000Y-106655452D01*
X178647670Y-106661000D01*
X178647660Y-106661000D01*
X178479149Y-106677597D01*
X178262939Y-106743184D01*
X178063678Y-106849691D01*
X177889025Y-106993025D01*
X177853108Y-107036790D01*
X177389072Y-107500826D01*
X177389072Y-107197750D01*
X177372608Y-107030592D01*
X177323850Y-106869858D01*
X177244671Y-106721725D01*
X177167143Y-106627256D01*
X177281824Y-106455624D01*
X177367383Y-106249067D01*
X177411000Y-106029788D01*
X177411000Y-105806212D01*
X177367383Y-105586933D01*
X177281824Y-105380376D01*
X177157612Y-105194480D01*
X176999520Y-105036388D01*
X176813624Y-104912176D01*
X176607067Y-104826617D01*
X176387788Y-104783000D01*
X176164212Y-104783000D01*
X175944933Y-104826617D01*
X175738376Y-104912176D01*
X175552480Y-105036388D01*
X175394388Y-105194480D01*
X175270176Y-105380376D01*
X175184617Y-105586933D01*
X175141000Y-105806212D01*
X175141000Y-106029788D01*
X175184617Y-106249067D01*
X175270176Y-106455624D01*
X175384857Y-106627256D01*
X175307329Y-106721725D01*
X175228150Y-106869858D01*
X175179392Y-107030592D01*
X175162928Y-107197750D01*
X175162928Y-107635250D01*
X175179392Y-107802408D01*
X175228150Y-107963142D01*
X175307329Y-108111275D01*
X175325100Y-108132930D01*
X175270463Y-108199506D01*
X175211498Y-108309820D01*
X175175188Y-108429518D01*
X175162928Y-108554000D01*
X175166000Y-108705750D01*
X175324750Y-108864500D01*
X176149000Y-108864500D01*
X176149000Y-108844500D01*
X176403000Y-108844500D01*
X176403000Y-108864500D01*
X176423000Y-108864500D01*
X176423000Y-108899401D01*
X176418952Y-108940500D01*
X176423000Y-108981599D01*
X176423000Y-109118500D01*
X176403000Y-109118500D01*
X176403000Y-109905250D01*
X176424500Y-109926750D01*
X176424500Y-110235804D01*
X176415598Y-110265150D01*
X176393452Y-110490000D01*
X176399001Y-110546339D01*
X176399000Y-113178788D01*
X175828789Y-113749000D01*
X171721180Y-113749000D01*
X167401180Y-109429000D01*
X175162928Y-109429000D01*
X175175188Y-109553482D01*
X175211498Y-109673180D01*
X175270463Y-109783494D01*
X175349815Y-109880185D01*
X175446506Y-109959537D01*
X175556820Y-110018502D01*
X175676518Y-110054812D01*
X175801000Y-110067072D01*
X175990250Y-110064000D01*
X176149000Y-109905250D01*
X176149000Y-109118500D01*
X175324750Y-109118500D01*
X175166000Y-109277250D01*
X175162928Y-109429000D01*
X167401180Y-109429000D01*
X164625460Y-106653280D01*
X164436150Y-106497918D01*
X164147943Y-106343868D01*
X163835220Y-106249005D01*
X163510000Y-106216974D01*
X163184780Y-106249005D01*
X162872057Y-106343868D01*
X162583850Y-106497918D01*
X162331234Y-106705234D01*
X162123918Y-106957850D01*
X161969868Y-107246057D01*
X161875005Y-107558780D01*
X161842974Y-107884000D01*
X161875005Y-108209220D01*
X161969868Y-108521943D01*
X162123918Y-108810150D01*
X162279280Y-108999460D01*
X169406539Y-116126719D01*
X169595848Y-116282082D01*
X169884056Y-116436131D01*
X170196779Y-116530995D01*
X170521999Y-116563026D01*
X170562895Y-116558998D01*
X170599112Y-116595215D01*
X170635025Y-116638975D01*
X170678784Y-116674887D01*
X170678786Y-116674889D01*
X170809677Y-116782309D01*
X170916184Y-116839238D01*
X171008939Y-116888816D01*
X171225149Y-116954403D01*
X171393660Y-116971000D01*
X171393670Y-116971000D01*
X171449999Y-116976548D01*
X171506329Y-116971000D01*
X176727671Y-116971000D01*
X176784000Y-116976548D01*
X176840329Y-116971000D01*
X176840340Y-116971000D01*
X177008851Y-116954403D01*
X177225061Y-116888816D01*
X177424322Y-116782309D01*
X177598975Y-116638975D01*
X177634892Y-116595210D01*
X178828101Y-115402001D01*
X184057929Y-115402001D01*
X184070189Y-115526483D01*
X184106499Y-115646181D01*
X184165464Y-115756495D01*
X184244816Y-115853186D01*
X184341507Y-115932538D01*
X184451821Y-115991503D01*
X184571519Y-116027813D01*
X184696001Y-116040073D01*
X184885251Y-116037001D01*
X185044001Y-115878251D01*
X185044001Y-115091501D01*
X184219751Y-115091501D01*
X184061001Y-115250251D01*
X184057929Y-115402001D01*
X178828101Y-115402001D01*
X179541103Y-114689000D01*
X184071250Y-114689000D01*
X184219751Y-114837501D01*
X185044001Y-114837501D01*
X185044001Y-114817501D01*
X185298001Y-114817501D01*
X185298001Y-114837501D01*
X185318001Y-114837501D01*
X185318001Y-115091501D01*
X185298001Y-115091501D01*
X185298001Y-115878251D01*
X185456751Y-116037001D01*
X185646001Y-116040073D01*
X185770483Y-116027813D01*
X185890181Y-115991503D01*
X186000495Y-115932538D01*
X186097186Y-115853186D01*
X186176538Y-115756495D01*
X186235503Y-115646181D01*
X186269269Y-115534871D01*
X188134397Y-117400000D01*
X153618000Y-117400000D01*
X153618000Y-114333872D01*
X154229000Y-114333872D01*
X154229000Y-114774128D01*
X154314890Y-115205925D01*
X154483369Y-115612669D01*
X154727962Y-115978729D01*
X155039271Y-116290038D01*
X155405331Y-116534631D01*
X155812075Y-116703110D01*
X156243872Y-116789000D01*
X156684128Y-116789000D01*
X157115925Y-116703110D01*
X157522669Y-116534631D01*
X157888729Y-116290038D01*
X158200038Y-115978729D01*
X158444631Y-115612669D01*
X158613110Y-115205925D01*
X158699000Y-114774128D01*
X158699000Y-114333872D01*
X158613110Y-113902075D01*
X158444631Y-113495331D01*
X158200038Y-113129271D01*
X157888729Y-112817962D01*
X157522669Y-112573369D01*
X157115925Y-112404890D01*
X156684128Y-112319000D01*
X156243872Y-112319000D01*
X155812075Y-112404890D01*
X155405331Y-112573369D01*
X155039271Y-112817962D01*
X154727962Y-113129271D01*
X154483369Y-113495331D01*
X154314890Y-113902075D01*
X154229000Y-114333872D01*
X153618000Y-114333872D01*
X153618000Y-105633529D01*
X153628855Y-105649540D01*
X153822939Y-105841028D01*
X154050651Y-105990972D01*
X154303240Y-106093611D01*
X154571000Y-106145000D01*
X155321000Y-106145000D01*
X155321000Y-104887000D01*
X155575000Y-104887000D01*
X155575000Y-106145000D01*
X156325000Y-106145000D01*
X156592760Y-106093611D01*
X156845349Y-105990972D01*
X157073061Y-105841028D01*
X157267145Y-105649540D01*
X157420142Y-105423868D01*
X157526173Y-105172684D01*
X157540318Y-105101185D01*
X157417656Y-104887000D01*
X155575000Y-104887000D01*
X155321000Y-104887000D01*
X155301000Y-104887000D01*
X155301000Y-104633000D01*
X155321000Y-104633000D01*
X155321000Y-103375000D01*
X154571000Y-103375000D01*
X154303240Y-103426389D01*
X154050651Y-103529028D01*
X153822939Y-103678972D01*
X153628855Y-103870460D01*
X153618000Y-103886471D01*
X153618000Y-96673589D01*
X154063000Y-96673589D01*
X154063000Y-96946411D01*
X154116225Y-97213989D01*
X154220629Y-97466043D01*
X154372201Y-97692886D01*
X154565114Y-97885799D01*
X154791957Y-98037371D01*
X155044011Y-98141775D01*
X155311589Y-98195000D01*
X155584411Y-98195000D01*
X155851989Y-98141775D01*
X156104043Y-98037371D01*
X156163000Y-97997977D01*
X156163000Y-98196411D01*
X156216225Y-98463989D01*
X156320629Y-98716043D01*
X156472201Y-98942886D01*
X156589315Y-99060000D01*
X156472201Y-99177114D01*
X156320629Y-99403957D01*
X156216225Y-99656011D01*
X156163000Y-99923589D01*
X156163000Y-100122023D01*
X156104043Y-100082629D01*
X155851989Y-99978225D01*
X155584411Y-99925000D01*
X155311589Y-99925000D01*
X155044011Y-99978225D01*
X154791957Y-100082629D01*
X154565114Y-100234201D01*
X154372201Y-100427114D01*
X154220629Y-100653957D01*
X154116225Y-100906011D01*
X154063000Y-101173589D01*
X154063000Y-101446411D01*
X154116225Y-101713989D01*
X154220629Y-101966043D01*
X154372201Y-102192886D01*
X154565114Y-102385799D01*
X154791957Y-102537371D01*
X155044011Y-102641775D01*
X155311589Y-102695000D01*
X155584411Y-102695000D01*
X155851989Y-102641775D01*
X156104043Y-102537371D01*
X156163000Y-102497977D01*
X156163000Y-102696411D01*
X156216225Y-102963989D01*
X156320629Y-103216043D01*
X156441822Y-103397421D01*
X156325000Y-103375000D01*
X155575000Y-103375000D01*
X155575000Y-104633000D01*
X157417656Y-104633000D01*
X157540318Y-104418815D01*
X157526173Y-104347316D01*
X157420142Y-104096132D01*
X157303042Y-103923408D01*
X157411589Y-103945000D01*
X157684411Y-103945000D01*
X157951989Y-103891775D01*
X158204043Y-103787371D01*
X158430886Y-103635799D01*
X158623799Y-103442886D01*
X158775371Y-103216043D01*
X158879775Y-102963989D01*
X158933000Y-102696411D01*
X158933000Y-102423589D01*
X158888718Y-102200967D01*
X175149000Y-102200967D01*
X175149000Y-102523033D01*
X175211832Y-102838912D01*
X175335082Y-103136463D01*
X175514013Y-103404252D01*
X175741748Y-103631987D01*
X176009537Y-103810918D01*
X176307088Y-103934168D01*
X176622967Y-103997000D01*
X176945033Y-103997000D01*
X177260912Y-103934168D01*
X177558463Y-103810918D01*
X177826252Y-103631987D01*
X178053987Y-103404252D01*
X178232918Y-103136463D01*
X178356168Y-102838912D01*
X178419000Y-102523033D01*
X178419000Y-102200967D01*
X179649000Y-102200967D01*
X179649000Y-102523033D01*
X179711832Y-102838912D01*
X179835082Y-103136463D01*
X180014013Y-103404252D01*
X180241748Y-103631987D01*
X180509537Y-103810918D01*
X180807088Y-103934168D01*
X181122967Y-103997000D01*
X181445033Y-103997000D01*
X181760912Y-103934168D01*
X182058463Y-103810918D01*
X182326252Y-103631987D01*
X182553987Y-103404252D01*
X182732918Y-103136463D01*
X182856168Y-102838912D01*
X182919000Y-102523033D01*
X182919000Y-102200967D01*
X182856168Y-101885088D01*
X182732918Y-101587537D01*
X182553987Y-101319748D01*
X182326252Y-101092013D01*
X182058463Y-100913082D01*
X181760912Y-100789832D01*
X181445033Y-100727000D01*
X181122967Y-100727000D01*
X180807088Y-100789832D01*
X180509537Y-100913082D01*
X180241748Y-101092013D01*
X180014013Y-101319748D01*
X179835082Y-101587537D01*
X179711832Y-101885088D01*
X179649000Y-102200967D01*
X178419000Y-102200967D01*
X178356168Y-101885088D01*
X178232918Y-101587537D01*
X178053987Y-101319748D01*
X177826252Y-101092013D01*
X177558463Y-100913082D01*
X177260912Y-100789832D01*
X176945033Y-100727000D01*
X176622967Y-100727000D01*
X176307088Y-100789832D01*
X176009537Y-100913082D01*
X175741748Y-101092013D01*
X175514013Y-101319748D01*
X175335082Y-101587537D01*
X175211832Y-101885088D01*
X175149000Y-102200967D01*
X158888718Y-102200967D01*
X158879775Y-102156011D01*
X158775371Y-101903957D01*
X158623799Y-101677114D01*
X158430886Y-101484201D01*
X158204043Y-101332629D01*
X158149412Y-101310000D01*
X158204043Y-101287371D01*
X158430886Y-101135799D01*
X158623799Y-100942886D01*
X158775371Y-100716043D01*
X158879775Y-100463989D01*
X158933000Y-100196411D01*
X158933000Y-99923589D01*
X158879775Y-99656011D01*
X158775371Y-99403957D01*
X158623799Y-99177114D01*
X158506685Y-99060000D01*
X158623799Y-98942886D01*
X158775371Y-98716043D01*
X158879775Y-98463989D01*
X158933000Y-98196411D01*
X158933000Y-97923589D01*
X158899864Y-97757000D01*
X160442928Y-97757000D01*
X160455188Y-97881482D01*
X160491498Y-98001180D01*
X160550463Y-98111494D01*
X160629815Y-98208185D01*
X160726506Y-98287537D01*
X160836820Y-98346502D01*
X160956518Y-98382812D01*
X161081000Y-98395072D01*
X161232750Y-98392000D01*
X161391500Y-98233250D01*
X161391500Y-97409000D01*
X160604750Y-97409000D01*
X160446000Y-97567750D01*
X160442928Y-97757000D01*
X158899864Y-97757000D01*
X158879775Y-97656011D01*
X158775371Y-97403957D01*
X158623799Y-97177114D01*
X158430886Y-96984201D01*
X158204043Y-96832629D01*
X158154574Y-96812139D01*
X158164188Y-96807000D01*
X160442928Y-96807000D01*
X160446000Y-96996250D01*
X160604750Y-97155000D01*
X161391500Y-97155000D01*
X161391500Y-96330750D01*
X161645500Y-96330750D01*
X161645500Y-97155000D01*
X161665500Y-97155000D01*
X161665500Y-97409000D01*
X161645500Y-97409000D01*
X161645500Y-98233250D01*
X161804250Y-98392000D01*
X161956000Y-98395072D01*
X162080482Y-98382812D01*
X162200180Y-98346502D01*
X162310494Y-98287537D01*
X162377070Y-98232900D01*
X162398725Y-98250671D01*
X162546858Y-98329850D01*
X162707592Y-98378608D01*
X162874750Y-98395072D01*
X163312250Y-98395072D01*
X163479408Y-98378608D01*
X163640142Y-98329850D01*
X163788275Y-98250671D01*
X163918115Y-98144115D01*
X164024671Y-98014275D01*
X164103850Y-97866142D01*
X164152608Y-97705408D01*
X164169072Y-97538250D01*
X164169072Y-97463663D01*
X164968594Y-96664141D01*
X165186069Y-96620883D01*
X165392626Y-96535324D01*
X165578522Y-96411112D01*
X165736614Y-96253020D01*
X165860826Y-96067124D01*
X165946385Y-95860567D01*
X165990002Y-95641288D01*
X165990002Y-95417712D01*
X165946385Y-95198433D01*
X165860826Y-94991876D01*
X165736614Y-94805980D01*
X165578522Y-94647888D01*
X165392626Y-94523676D01*
X165186069Y-94438117D01*
X164966790Y-94394500D01*
X164743214Y-94394500D01*
X164523935Y-94438117D01*
X164317378Y-94523676D01*
X164131482Y-94647888D01*
X163973390Y-94805980D01*
X163849178Y-94991876D01*
X163763619Y-95198433D01*
X163724831Y-95393434D01*
X162949337Y-96168928D01*
X162874750Y-96168928D01*
X162707592Y-96185392D01*
X162546858Y-96234150D01*
X162398725Y-96313329D01*
X162377070Y-96331100D01*
X162310494Y-96276463D01*
X162200180Y-96217498D01*
X162080482Y-96181188D01*
X161956000Y-96168928D01*
X161804250Y-96172000D01*
X161645500Y-96330750D01*
X161391500Y-96330750D01*
X161232750Y-96172000D01*
X161081000Y-96168928D01*
X160956518Y-96181188D01*
X160836820Y-96217498D01*
X160726506Y-96276463D01*
X160629815Y-96355815D01*
X160550463Y-96452506D01*
X160491498Y-96562820D01*
X160455188Y-96682518D01*
X160442928Y-96807000D01*
X158164188Y-96807000D01*
X158259863Y-96755860D01*
X158325388Y-96516993D01*
X157548000Y-95739605D01*
X157533858Y-95753748D01*
X157354253Y-95574143D01*
X157368395Y-95560000D01*
X157727605Y-95560000D01*
X158504993Y-96337388D01*
X158743860Y-96271863D01*
X158859760Y-96024884D01*
X158925250Y-95760040D01*
X158937812Y-95487508D01*
X158896965Y-95217762D01*
X158804277Y-94961168D01*
X158743860Y-94848137D01*
X158504993Y-94782612D01*
X157727605Y-95560000D01*
X157368395Y-95560000D01*
X157354253Y-95545858D01*
X157533858Y-95366253D01*
X157548000Y-95380395D01*
X158325388Y-94603007D01*
X158259863Y-94364140D01*
X158012884Y-94248240D01*
X157748040Y-94182750D01*
X157475508Y-94170188D01*
X157303259Y-94196271D01*
X157420142Y-94023868D01*
X157526173Y-93772684D01*
X157540318Y-93701185D01*
X157417656Y-93487000D01*
X155575000Y-93487000D01*
X155575000Y-94745000D01*
X156325000Y-94745000D01*
X156516617Y-94708225D01*
X156591005Y-94782613D01*
X156352140Y-94848137D01*
X156236240Y-95095116D01*
X156170750Y-95359960D01*
X156158800Y-95619216D01*
X156104043Y-95582629D01*
X155851989Y-95478225D01*
X155584411Y-95425000D01*
X155311589Y-95425000D01*
X155044011Y-95478225D01*
X154791957Y-95582629D01*
X154565114Y-95734201D01*
X154372201Y-95927114D01*
X154220629Y-96153957D01*
X154116225Y-96406011D01*
X154063000Y-96673589D01*
X153618000Y-96673589D01*
X153618000Y-94233529D01*
X153628855Y-94249540D01*
X153822939Y-94441028D01*
X154050651Y-94590972D01*
X154303240Y-94693611D01*
X154571000Y-94745000D01*
X155321000Y-94745000D01*
X155321000Y-93487000D01*
X155301000Y-93487000D01*
X155301000Y-93233000D01*
X155321000Y-93233000D01*
X155321000Y-91975000D01*
X155575000Y-91975000D01*
X155575000Y-93233000D01*
X157417656Y-93233000D01*
X157540318Y-93018815D01*
X157526173Y-92947316D01*
X157420142Y-92696132D01*
X157267145Y-92470460D01*
X157073061Y-92278972D01*
X156845349Y-92129028D01*
X156592760Y-92026389D01*
X156325000Y-91975000D01*
X155575000Y-91975000D01*
X155321000Y-91975000D01*
X154571000Y-91975000D01*
X154303240Y-92026389D01*
X154050651Y-92129028D01*
X153822939Y-92278972D01*
X153628855Y-92470460D01*
X153618000Y-92486471D01*
X153618000Y-89550212D01*
X157615000Y-89550212D01*
X157615000Y-89773788D01*
X157658617Y-89993067D01*
X157744176Y-90199624D01*
X157868388Y-90385520D01*
X158026480Y-90543612D01*
X158212376Y-90667824D01*
X158418933Y-90753383D01*
X158617741Y-90792928D01*
X158618340Y-90793658D01*
X158753708Y-90904752D01*
X158908148Y-90987302D01*
X158974057Y-91007295D01*
X159075723Y-91038135D01*
X159108923Y-91041405D01*
X159206332Y-91050999D01*
X159206338Y-91050999D01*
X159249998Y-91055299D01*
X159293658Y-91050999D01*
X161739986Y-91050999D01*
X161808176Y-91215624D01*
X161932388Y-91401520D01*
X162090480Y-91559612D01*
X162276376Y-91683824D01*
X162482933Y-91769383D01*
X162702212Y-91813000D01*
X162925788Y-91813000D01*
X163145067Y-91769383D01*
X163351624Y-91683824D01*
X163537520Y-91559612D01*
X163695612Y-91401520D01*
X163819824Y-91215624D01*
X163905383Y-91009067D01*
X163949000Y-90789788D01*
X163949000Y-90773911D01*
X175765000Y-90773911D01*
X175765000Y-90958089D01*
X175800932Y-91138729D01*
X175811000Y-91163036D01*
X175811001Y-92836330D01*
X175806700Y-92880000D01*
X175823864Y-93054274D01*
X175874698Y-93221852D01*
X175895980Y-93261667D01*
X175957248Y-93376291D01*
X176068342Y-93511659D01*
X176102259Y-93539494D01*
X176155814Y-93593049D01*
X176183914Y-93660889D01*
X176286238Y-93814028D01*
X176416472Y-93944262D01*
X176569611Y-94046586D01*
X176739771Y-94117068D01*
X176920411Y-94153000D01*
X177104589Y-94153000D01*
X177285229Y-94117068D01*
X177455389Y-94046586D01*
X177608528Y-93944262D01*
X177738762Y-93814028D01*
X177841086Y-93660889D01*
X177911568Y-93490729D01*
X177947500Y-93310089D01*
X177947500Y-93125911D01*
X177911568Y-92945271D01*
X177841086Y-92775111D01*
X177738762Y-92621972D01*
X177608528Y-92491738D01*
X177589000Y-92478690D01*
X177589000Y-91532668D01*
X177631659Y-91497659D01*
X177659499Y-91463736D01*
X179318581Y-89804654D01*
X179342889Y-89794586D01*
X179496028Y-89692262D01*
X179626262Y-89562028D01*
X179728586Y-89408889D01*
X179799068Y-89238729D01*
X179835000Y-89058089D01*
X179835000Y-88873911D01*
X179799068Y-88693271D01*
X179728586Y-88523111D01*
X179626262Y-88369972D01*
X179496028Y-88239738D01*
X179342889Y-88137414D01*
X179172729Y-88066932D01*
X178992089Y-88031000D01*
X178807911Y-88031000D01*
X178627271Y-88066932D01*
X178457111Y-88137414D01*
X178303972Y-88239738D01*
X178173738Y-88369972D01*
X178071414Y-88523111D01*
X178061346Y-88547419D01*
X176677765Y-89931000D01*
X176607911Y-89931000D01*
X176427271Y-89966932D01*
X176257111Y-90037414D01*
X176103972Y-90139738D01*
X175973738Y-90269972D01*
X175871414Y-90423111D01*
X175800932Y-90593271D01*
X175765000Y-90773911D01*
X163949000Y-90773911D01*
X163949000Y-90566212D01*
X163905383Y-90346933D01*
X163819824Y-90140376D01*
X163695612Y-89954480D01*
X163537520Y-89796388D01*
X163351624Y-89672176D01*
X163145067Y-89586617D01*
X162942830Y-89546390D01*
X162929658Y-89530340D01*
X162794290Y-89419246D01*
X162639850Y-89336696D01*
X162472273Y-89285863D01*
X162341666Y-89272999D01*
X162341659Y-89272999D01*
X162297999Y-89268699D01*
X162254339Y-89272999D01*
X159817386Y-89272999D01*
X159755824Y-89124376D01*
X159631612Y-88938480D01*
X159501043Y-88807911D01*
X174579000Y-88807911D01*
X174579000Y-88992089D01*
X174614932Y-89172729D01*
X174685414Y-89342889D01*
X174787738Y-89496028D01*
X174917972Y-89626262D01*
X175071111Y-89728586D01*
X175241271Y-89799068D01*
X175421911Y-89835000D01*
X175606089Y-89835000D01*
X175786729Y-89799068D01*
X175956889Y-89728586D01*
X176110028Y-89626262D01*
X176240262Y-89496028D01*
X176342586Y-89342889D01*
X176413068Y-89172729D01*
X176449000Y-88992089D01*
X176449000Y-88807911D01*
X176413068Y-88627271D01*
X176403000Y-88602964D01*
X176403000Y-88252235D01*
X177406236Y-87249000D01*
X179463765Y-87249000D01*
X181114765Y-88900000D01*
X181063259Y-88951506D01*
X181029342Y-88979341D01*
X181001507Y-89013258D01*
X181001505Y-89013260D01*
X180918248Y-89114709D01*
X180835698Y-89269148D01*
X180784864Y-89436726D01*
X180767700Y-89611000D01*
X180772001Y-89654670D01*
X180772000Y-91654159D01*
X177830199Y-94595960D01*
X177826252Y-94592013D01*
X177558463Y-94413082D01*
X177260912Y-94289832D01*
X176945033Y-94227000D01*
X176622967Y-94227000D01*
X176307088Y-94289832D01*
X176009537Y-94413082D01*
X175741748Y-94592013D01*
X175514013Y-94819748D01*
X175335082Y-95087537D01*
X175211832Y-95385088D01*
X175149000Y-95700967D01*
X175149000Y-96023033D01*
X175211832Y-96338912D01*
X175335082Y-96636463D01*
X175514013Y-96904252D01*
X175741748Y-97131987D01*
X176009537Y-97310918D01*
X176307088Y-97434168D01*
X176622967Y-97497000D01*
X176945033Y-97497000D01*
X177260912Y-97434168D01*
X177558463Y-97310918D01*
X177826252Y-97131987D01*
X178053987Y-96904252D01*
X178072981Y-96875825D01*
X178200171Y-96863298D01*
X178391687Y-96805202D01*
X178568190Y-96710860D01*
X178722896Y-96583896D01*
X178754712Y-96545128D01*
X179661447Y-95638394D01*
X179649000Y-95700967D01*
X179649000Y-96023033D01*
X179711832Y-96338912D01*
X179835082Y-96636463D01*
X180014013Y-96904252D01*
X180241748Y-97131987D01*
X180509537Y-97310918D01*
X180807088Y-97434168D01*
X181122967Y-97497000D01*
X181445033Y-97497000D01*
X181760912Y-97434168D01*
X182058463Y-97310918D01*
X182326252Y-97131987D01*
X182553987Y-96904252D01*
X182732918Y-96636463D01*
X182856168Y-96338912D01*
X182919000Y-96023033D01*
X182919000Y-95700967D01*
X182856168Y-95385088D01*
X182732918Y-95087537D01*
X182553987Y-94819748D01*
X182326252Y-94592013D01*
X182058463Y-94413082D01*
X181760912Y-94289832D01*
X181445033Y-94227000D01*
X181122967Y-94227000D01*
X181060394Y-94239446D01*
X181099840Y-94200000D01*
X184085928Y-94200000D01*
X184085928Y-96300000D01*
X184098188Y-96424482D01*
X184134498Y-96544180D01*
X184193463Y-96654494D01*
X184272815Y-96751185D01*
X184369506Y-96830537D01*
X184479820Y-96889502D01*
X184599518Y-96925812D01*
X184724000Y-96938072D01*
X186624000Y-96938072D01*
X186748482Y-96925812D01*
X186868180Y-96889502D01*
X186978494Y-96830537D01*
X187075185Y-96751185D01*
X187154537Y-96654494D01*
X187200440Y-96568617D01*
X187329161Y-96674256D01*
X187604512Y-96821434D01*
X187903286Y-96912066D01*
X188214000Y-96942669D01*
X188524713Y-96912066D01*
X188823487Y-96821434D01*
X189098838Y-96674256D01*
X189340187Y-96476187D01*
X189484000Y-96300950D01*
X189627813Y-96476187D01*
X189869161Y-96674256D01*
X190144512Y-96821434D01*
X190443286Y-96912066D01*
X190754000Y-96942669D01*
X190895857Y-96928697D01*
X194310001Y-100342842D01*
X194310001Y-101553385D01*
X194178839Y-101445744D01*
X193903488Y-101298566D01*
X193604714Y-101207934D01*
X193294000Y-101177331D01*
X192983287Y-101207934D01*
X192684513Y-101298566D01*
X192409162Y-101445744D01*
X192167813Y-101643813D01*
X192024000Y-101819050D01*
X191880187Y-101643813D01*
X191638839Y-101445744D01*
X191363488Y-101298566D01*
X191064714Y-101207934D01*
X190754000Y-101177331D01*
X190443287Y-101207934D01*
X190144513Y-101298566D01*
X189869162Y-101445744D01*
X189627813Y-101643813D01*
X189484000Y-101819050D01*
X189340187Y-101643813D01*
X189098839Y-101445744D01*
X188823488Y-101298566D01*
X188524714Y-101207934D01*
X188214000Y-101177331D01*
X187903287Y-101207934D01*
X187604513Y-101298566D01*
X187329162Y-101445744D01*
X187087813Y-101643813D01*
X186944000Y-101819050D01*
X186800187Y-101643813D01*
X186558839Y-101445744D01*
X186283488Y-101298566D01*
X185984714Y-101207934D01*
X185674000Y-101177331D01*
X185363287Y-101207934D01*
X185064513Y-101298566D01*
X184789162Y-101445744D01*
X184547813Y-101643813D01*
X184349744Y-101885161D01*
X184202566Y-102160512D01*
X184111934Y-102459286D01*
X184089000Y-102692136D01*
X184089000Y-103047863D01*
X184111934Y-103280713D01*
X184202566Y-103579487D01*
X184349744Y-103854838D01*
X184547813Y-104096187D01*
X184789161Y-104294256D01*
X185064512Y-104441434D01*
X185363286Y-104532066D01*
X185674000Y-104562669D01*
X185984713Y-104532066D01*
X186283487Y-104441434D01*
X186558838Y-104294256D01*
X186800187Y-104096187D01*
X186944000Y-103920950D01*
X187087813Y-104096187D01*
X187329161Y-104294256D01*
X187604512Y-104441434D01*
X187903286Y-104532066D01*
X188214000Y-104562669D01*
X188524713Y-104532066D01*
X188823487Y-104441434D01*
X189098838Y-104294256D01*
X189340187Y-104096187D01*
X189484000Y-103920950D01*
X189627813Y-104096187D01*
X189869161Y-104294256D01*
X190144512Y-104441434D01*
X190443286Y-104532066D01*
X190754000Y-104562669D01*
X191064713Y-104532066D01*
X191363487Y-104441434D01*
X191638838Y-104294256D01*
X191880187Y-104096187D01*
X192024000Y-103920950D01*
X192167813Y-104096187D01*
X192409161Y-104294256D01*
X192684512Y-104441434D01*
X192983286Y-104532066D01*
X193294000Y-104562669D01*
X193604713Y-104532066D01*
X193903487Y-104441434D01*
X194178838Y-104294256D01*
X194310000Y-104186615D01*
X194310000Y-104388943D01*
X194234617Y-104570933D01*
X194191000Y-104790212D01*
X194191000Y-105013788D01*
X194234617Y-105233067D01*
X194320176Y-105439624D01*
X194444388Y-105625520D01*
X194602480Y-105783612D01*
X194788376Y-105907824D01*
X194994933Y-105993383D01*
X195214212Y-106037000D01*
X195437788Y-106037000D01*
X195657067Y-105993383D01*
X195863624Y-105907824D01*
X196049520Y-105783612D01*
X196207612Y-105625520D01*
X196331824Y-105439624D01*
X196417383Y-105233067D01*
X196439276Y-105123000D01*
X203368928Y-105123000D01*
X203381188Y-105247482D01*
X203417498Y-105367180D01*
X203476463Y-105477494D01*
X203555815Y-105574185D01*
X203652506Y-105653537D01*
X203762820Y-105712502D01*
X203882518Y-105748812D01*
X204007000Y-105761072D01*
X204158750Y-105758000D01*
X204317500Y-105599250D01*
X204317500Y-104775000D01*
X203530750Y-104775000D01*
X203372000Y-104933750D01*
X203368928Y-105123000D01*
X196439276Y-105123000D01*
X196461000Y-105013788D01*
X196461000Y-104790212D01*
X196417383Y-104570933D01*
X196342000Y-104388943D01*
X196342000Y-99971893D01*
X196346914Y-99921999D01*
X196342000Y-99872105D01*
X196342000Y-99872098D01*
X196327298Y-99722829D01*
X196325133Y-99715690D01*
X196297373Y-99624180D01*
X196269202Y-99531313D01*
X196174860Y-99354810D01*
X196047896Y-99200104D01*
X196009133Y-99168292D01*
X194409841Y-97569000D01*
X203368928Y-97569000D01*
X203372000Y-97758250D01*
X203530750Y-97917000D01*
X204317500Y-97917000D01*
X204317500Y-97092750D01*
X204158750Y-96934000D01*
X204007000Y-96930928D01*
X203882518Y-96943188D01*
X203762820Y-96979498D01*
X203652506Y-97038463D01*
X203555815Y-97117815D01*
X203476463Y-97214506D01*
X203417498Y-97324820D01*
X203381188Y-97444518D01*
X203368928Y-97569000D01*
X194409841Y-97569000D01*
X193718415Y-96877575D01*
X193903487Y-96821434D01*
X194178838Y-96674256D01*
X194420187Y-96476187D01*
X194618256Y-96234839D01*
X194765434Y-95959488D01*
X194856066Y-95660714D01*
X194879000Y-95427864D01*
X194879000Y-95072137D01*
X194865942Y-94939553D01*
X214880158Y-94939553D01*
X216121000Y-96180395D01*
X217361842Y-94939553D01*
X217217865Y-94634230D01*
X216860108Y-94453403D01*
X216473947Y-94345845D01*
X216074223Y-94315690D01*
X215676296Y-94364096D01*
X215295460Y-94489205D01*
X215024135Y-94634230D01*
X214880158Y-94939553D01*
X194865942Y-94939553D01*
X194856066Y-94839287D01*
X194765434Y-94540513D01*
X194618256Y-94265161D01*
X194420187Y-94023813D01*
X194178839Y-93825744D01*
X193903488Y-93678566D01*
X193604714Y-93587934D01*
X193294000Y-93557331D01*
X192983287Y-93587934D01*
X192684513Y-93678566D01*
X192409162Y-93825744D01*
X192167813Y-94023813D01*
X192024000Y-94199050D01*
X191880187Y-94023813D01*
X191638839Y-93825744D01*
X191363488Y-93678566D01*
X191064714Y-93587934D01*
X190754000Y-93557331D01*
X190443287Y-93587934D01*
X190144513Y-93678566D01*
X189869162Y-93825744D01*
X189627813Y-94023813D01*
X189484000Y-94199050D01*
X189340187Y-94023813D01*
X189098839Y-93825744D01*
X188823488Y-93678566D01*
X188524714Y-93587934D01*
X188214000Y-93557331D01*
X187903287Y-93587934D01*
X187604513Y-93678566D01*
X187329162Y-93825744D01*
X187200440Y-93931383D01*
X187154537Y-93845506D01*
X187075185Y-93748815D01*
X186978494Y-93669463D01*
X186868180Y-93610498D01*
X186748482Y-93574188D01*
X186624000Y-93561928D01*
X184724000Y-93561928D01*
X184599518Y-93574188D01*
X184479820Y-93610498D01*
X184369506Y-93669463D01*
X184272815Y-93748815D01*
X184193463Y-93845506D01*
X184134498Y-93955820D01*
X184098188Y-94075518D01*
X184085928Y-94200000D01*
X181099840Y-94200000D01*
X182414706Y-92885135D01*
X182509860Y-92769190D01*
X182604202Y-92592687D01*
X182662298Y-92401171D01*
X182681915Y-92202000D01*
X182662298Y-92002829D01*
X182604202Y-91811313D01*
X182550000Y-91709908D01*
X182550000Y-89979235D01*
X182790581Y-89738655D01*
X182814889Y-89728586D01*
X182968028Y-89626262D01*
X183098262Y-89496028D01*
X183200586Y-89342889D01*
X183271068Y-89172729D01*
X183307000Y-88992089D01*
X183307000Y-88807911D01*
X183271068Y-88627271D01*
X183200586Y-88457111D01*
X183098262Y-88303972D01*
X182968028Y-88173738D01*
X182814889Y-88071414D01*
X182790581Y-88061346D01*
X180491499Y-85762264D01*
X180463659Y-85728341D01*
X180328291Y-85617247D01*
X180173851Y-85534697D01*
X180006274Y-85483864D01*
X179875667Y-85471000D01*
X179875660Y-85471000D01*
X179832000Y-85466700D01*
X179788340Y-85471000D01*
X177081659Y-85471000D01*
X177037999Y-85466700D01*
X176994339Y-85471000D01*
X176994333Y-85471000D01*
X176896924Y-85480594D01*
X176863724Y-85483864D01*
X176762058Y-85514704D01*
X176696149Y-85534697D01*
X176541709Y-85617247D01*
X176406341Y-85728341D01*
X176378506Y-85762259D01*
X174916259Y-87224506D01*
X174882342Y-87252341D01*
X174854507Y-87286258D01*
X174854505Y-87286260D01*
X174771248Y-87387709D01*
X174688698Y-87542148D01*
X174637864Y-87709726D01*
X174620700Y-87884000D01*
X174625001Y-87927669D01*
X174625000Y-88602964D01*
X174614932Y-88627271D01*
X174579000Y-88807911D01*
X159501043Y-88807911D01*
X159473520Y-88780388D01*
X159287624Y-88656176D01*
X159081067Y-88570617D01*
X158861788Y-88527000D01*
X158638212Y-88527000D01*
X158418933Y-88570617D01*
X158212376Y-88656176D01*
X158026480Y-88780388D01*
X157868388Y-88938480D01*
X157744176Y-89124376D01*
X157658617Y-89330933D01*
X157615000Y-89550212D01*
X153618000Y-89550212D01*
X153618000Y-83671742D01*
X159096715Y-83671742D01*
X159165904Y-83954745D01*
X159288975Y-84218812D01*
X159461198Y-84453795D01*
X159675954Y-84650664D01*
X159924991Y-84801854D01*
X160198739Y-84901554D01*
X160211110Y-84903476D01*
X160441000Y-84782155D01*
X160441000Y-83439000D01*
X159240768Y-83439000D01*
X159096715Y-83671742D01*
X153618000Y-83671742D01*
X153618000Y-82952258D01*
X159096715Y-82952258D01*
X159240768Y-83185000D01*
X160441000Y-83185000D01*
X160441000Y-81841845D01*
X160695000Y-81841845D01*
X160695000Y-83185000D01*
X160715000Y-83185000D01*
X160715000Y-83439000D01*
X160695000Y-83439000D01*
X160695000Y-84782155D01*
X160924890Y-84903476D01*
X160937261Y-84901554D01*
X161211009Y-84801854D01*
X161460046Y-84650664D01*
X161674802Y-84453795D01*
X161675086Y-84453407D01*
X161729595Y-84555386D01*
X161840038Y-84689962D01*
X161974614Y-84800405D01*
X162128150Y-84882472D01*
X162294746Y-84933008D01*
X162468000Y-84950072D01*
X163668000Y-84950072D01*
X163841254Y-84933008D01*
X164007850Y-84882472D01*
X164161386Y-84800405D01*
X164295962Y-84689962D01*
X164406405Y-84555386D01*
X164488472Y-84401850D01*
X164539008Y-84235254D01*
X164556072Y-84062000D01*
X164556072Y-83853872D01*
X185725000Y-83853872D01*
X185725000Y-84294128D01*
X185810890Y-84725925D01*
X185979369Y-85132669D01*
X186223962Y-85498729D01*
X186535271Y-85810038D01*
X186901331Y-86054631D01*
X187308075Y-86223110D01*
X187739872Y-86309000D01*
X188180128Y-86309000D01*
X188611925Y-86223110D01*
X189018669Y-86054631D01*
X189384729Y-85810038D01*
X189696038Y-85498729D01*
X189940631Y-85132669D01*
X190109110Y-84725925D01*
X190195000Y-84294128D01*
X190195000Y-83853872D01*
X190109110Y-83422075D01*
X189940631Y-83015331D01*
X189696038Y-82649271D01*
X189384729Y-82337962D01*
X189018669Y-82093369D01*
X188611925Y-81924890D01*
X188180128Y-81839000D01*
X187739872Y-81839000D01*
X187308075Y-81924890D01*
X186901331Y-82093369D01*
X186535271Y-82337962D01*
X186223962Y-82649271D01*
X185979369Y-83015331D01*
X185810890Y-83422075D01*
X185725000Y-83853872D01*
X164556072Y-83853872D01*
X164556072Y-82562000D01*
X164539008Y-82388746D01*
X164488472Y-82222150D01*
X164406405Y-82068614D01*
X164295962Y-81934038D01*
X164161386Y-81823595D01*
X164007850Y-81741528D01*
X163841254Y-81690992D01*
X163668000Y-81673928D01*
X162468000Y-81673928D01*
X162294746Y-81690992D01*
X162128150Y-81741528D01*
X161974614Y-81823595D01*
X161840038Y-81934038D01*
X161729595Y-82068614D01*
X161675086Y-82170593D01*
X161674802Y-82170205D01*
X161460046Y-81973336D01*
X161211009Y-81822146D01*
X160937261Y-81722446D01*
X160924890Y-81720524D01*
X160695000Y-81841845D01*
X160441000Y-81841845D01*
X160211110Y-81720524D01*
X160198739Y-81722446D01*
X159924991Y-81822146D01*
X159675954Y-81973336D01*
X159461198Y-82170205D01*
X159288975Y-82405188D01*
X159165904Y-82669255D01*
X159096715Y-82952258D01*
X153618000Y-82952258D01*
X153618000Y-80810000D01*
X222810000Y-80810000D01*
X222810000Y-94891392D01*
X222810000Y-94891392D01*
G37*
X222810000Y-94891392D02*
X222761841Y-94939551D01*
X222617865Y-94634230D01*
X222260108Y-94453403D01*
X221873947Y-94345845D01*
X221474223Y-94315690D01*
X221076296Y-94364096D01*
X220695460Y-94489205D01*
X220424135Y-94634230D01*
X220280158Y-94939553D01*
X221521000Y-96180395D01*
X221535143Y-96166253D01*
X221714748Y-96345858D01*
X221700605Y-96360000D01*
X221714748Y-96374143D01*
X221535143Y-96553748D01*
X221521000Y-96539605D01*
X221506858Y-96553748D01*
X221327253Y-96374143D01*
X221341395Y-96360000D01*
X220100553Y-95119158D01*
X219795230Y-95263135D01*
X219614403Y-95620892D01*
X219506845Y-96007053D01*
X219476690Y-96406777D01*
X219525096Y-96804704D01*
X219650205Y-97185540D01*
X219660681Y-97205140D01*
X219414587Y-97103204D01*
X219021430Y-97025000D01*
X218620570Y-97025000D01*
X218227413Y-97103204D01*
X217972067Y-97208972D01*
X218027597Y-97099108D01*
X218135155Y-96712947D01*
X218165310Y-96313223D01*
X218116904Y-95915296D01*
X217991795Y-95534460D01*
X217846770Y-95263135D01*
X217541447Y-95119158D01*
X216300605Y-96360000D01*
X216314748Y-96374143D01*
X216135143Y-96553748D01*
X216121000Y-96539605D01*
X214880158Y-97780447D01*
X215024135Y-98085770D01*
X215381892Y-98266597D01*
X215768053Y-98374155D01*
X216167777Y-98404310D01*
X216565704Y-98355904D01*
X216946540Y-98230795D01*
X216966140Y-98220319D01*
X216864204Y-98466413D01*
X216786000Y-98859570D01*
X216786000Y-99260430D01*
X216864204Y-99653587D01*
X216969972Y-99908933D01*
X216860108Y-99853403D01*
X216473947Y-99745845D01*
X216074223Y-99715690D01*
X215676296Y-99764096D01*
X215295460Y-99889205D01*
X215024135Y-100034230D01*
X214880158Y-100339553D01*
X216121000Y-101580395D01*
X216135143Y-101566253D01*
X216314748Y-101745858D01*
X216300605Y-101760000D01*
X217541447Y-103000842D01*
X217846770Y-102856865D01*
X218027597Y-102499108D01*
X218135155Y-102112947D01*
X218165310Y-101713223D01*
X218116904Y-101315296D01*
X217991795Y-100934460D01*
X217981319Y-100914860D01*
X218227413Y-101016796D01*
X218620570Y-101095000D01*
X219021430Y-101095000D01*
X219414587Y-101016796D01*
X219669933Y-100911028D01*
X219614403Y-101020892D01*
X219506845Y-101407053D01*
X219476690Y-101806777D01*
X219525096Y-102204704D01*
X219650205Y-102585540D01*
X219795230Y-102856865D01*
X220100553Y-103000842D01*
X221341395Y-101760000D01*
X221327253Y-101745858D01*
X221506858Y-101566253D01*
X221521000Y-101580395D01*
X221535143Y-101566253D01*
X221714748Y-101745858D01*
X221700605Y-101760000D01*
X221714748Y-101774143D01*
X221535143Y-101953748D01*
X221521000Y-101939605D01*
X220280158Y-103180447D01*
X220424135Y-103485770D01*
X220781892Y-103666597D01*
X221168053Y-103774155D01*
X221567777Y-103804310D01*
X221965704Y-103755904D01*
X222346540Y-103630795D01*
X222617865Y-103485770D01*
X222761841Y-103180449D01*
X222810001Y-103228609D01*
X222810001Y-117400000D01*
X190197741Y-117400000D01*
X190261315Y-117281061D01*
X190326902Y-117064850D01*
X190349048Y-116839999D01*
X190326902Y-116615148D01*
X190261315Y-116398938D01*
X190154808Y-116199677D01*
X190047389Y-116068786D01*
X188667603Y-114689000D01*
X199562510Y-114689000D01*
X199644000Y-114697026D01*
X199725490Y-114689000D01*
X199725501Y-114689000D01*
X199969221Y-114664996D01*
X200281944Y-114570132D01*
X200570151Y-114416082D01*
X200670324Y-114333872D01*
X217729000Y-114333872D01*
X217729000Y-114774128D01*
X217814890Y-115205925D01*
X217983369Y-115612669D01*
X218227962Y-115978729D01*
X218539271Y-116290038D01*
X218905331Y-116534631D01*
X219312075Y-116703110D01*
X219743872Y-116789000D01*
X220184128Y-116789000D01*
X220615925Y-116703110D01*
X221022669Y-116534631D01*
X221388729Y-116290038D01*
X221700038Y-115978729D01*
X221944631Y-115612669D01*
X222113110Y-115205925D01*
X222199000Y-114774128D01*
X222199000Y-114333872D01*
X222113110Y-113902075D01*
X221944631Y-113495331D01*
X221700038Y-113129271D01*
X221388729Y-112817962D01*
X221022669Y-112573369D01*
X220615925Y-112404890D01*
X220184128Y-112319000D01*
X219743872Y-112319000D01*
X219312075Y-112404890D01*
X218905331Y-112573369D01*
X218539271Y-112817962D01*
X218227962Y-113129271D01*
X217983369Y-113495331D01*
X217814890Y-113902075D01*
X217729000Y-114333872D01*
X200670324Y-114333872D01*
X200822766Y-114208766D01*
X200874720Y-114145460D01*
X208125461Y-106894719D01*
X208188766Y-106842766D01*
X208396082Y-106590151D01*
X208550132Y-106301944D01*
X208644996Y-105989221D01*
X208669000Y-105745501D01*
X208669000Y-105745491D01*
X208677026Y-105664001D01*
X208669000Y-105582510D01*
X208669000Y-104679841D01*
X208963135Y-104385706D01*
X209001896Y-104353896D01*
X209128860Y-104199190D01*
X209223202Y-104022687D01*
X209281298Y-103831171D01*
X209296000Y-103681902D01*
X209296000Y-103681901D01*
X209300915Y-103632000D01*
X209296000Y-103582098D01*
X209296000Y-103180447D01*
X214880158Y-103180447D01*
X215024135Y-103485770D01*
X215381892Y-103666597D01*
X215768053Y-103774155D01*
X216167777Y-103804310D01*
X216565704Y-103755904D01*
X216946540Y-103630795D01*
X217217865Y-103485770D01*
X217361842Y-103180447D01*
X216121000Y-101939605D01*
X214880158Y-103180447D01*
X209296000Y-103180447D01*
X209296000Y-101806777D01*
X214076690Y-101806777D01*
X214125096Y-102204704D01*
X214250205Y-102585540D01*
X214395230Y-102856865D01*
X214700553Y-103000842D01*
X215941395Y-101760000D01*
X214700553Y-100519158D01*
X214395230Y-100663135D01*
X214214403Y-101020892D01*
X214106845Y-101407053D01*
X214076690Y-101806777D01*
X209296000Y-101806777D01*
X209296000Y-99109902D01*
X209300915Y-99060000D01*
X209281298Y-98860829D01*
X209223202Y-98669313D01*
X209128860Y-98492810D01*
X209001896Y-98338104D01*
X208847190Y-98211140D01*
X208670687Y-98116798D01*
X208479171Y-98058702D01*
X208329902Y-98044000D01*
X208280000Y-98039085D01*
X208263546Y-98040706D01*
X207100708Y-96877867D01*
X207025324Y-96695876D01*
X206901112Y-96509980D01*
X206797909Y-96406777D01*
X214076690Y-96406777D01*
X214125096Y-96804704D01*
X214250205Y-97185540D01*
X214395230Y-97456865D01*
X214700553Y-97600842D01*
X215941395Y-96360000D01*
X214700553Y-95119158D01*
X214395230Y-95263135D01*
X214214403Y-95620892D01*
X214106845Y-96007053D01*
X214076690Y-96406777D01*
X206797909Y-96406777D01*
X206743020Y-96351888D01*
X206557124Y-96227676D01*
X206350567Y-96142117D01*
X206131288Y-96098500D01*
X205907712Y-96098500D01*
X205688433Y-96142117D01*
X205481876Y-96227676D01*
X205295980Y-96351888D01*
X205137888Y-96509980D01*
X205013676Y-96695876D01*
X204928117Y-96902433D01*
X204921672Y-96934835D01*
X204882000Y-96930928D01*
X204730250Y-96934000D01*
X204571500Y-97092750D01*
X204571500Y-97917000D01*
X204591500Y-97917000D01*
X204591500Y-98171000D01*
X204571500Y-98171000D01*
X204571500Y-98215250D01*
X204461250Y-98105000D01*
X204452000Y-98101928D01*
X204327518Y-98114188D01*
X204207820Y-98150498D01*
X204169464Y-98171000D01*
X203530750Y-98171000D01*
X203372000Y-98329750D01*
X203368928Y-98519000D01*
X203381188Y-98643482D01*
X203417498Y-98763180D01*
X203476463Y-98873494D01*
X203555815Y-98970185D01*
X203652506Y-99049537D01*
X203762820Y-99108502D01*
X203812262Y-99123500D01*
X203762820Y-99138498D01*
X203652506Y-99197463D01*
X203555815Y-99276815D01*
X203476463Y-99373506D01*
X203417498Y-99483820D01*
X203381188Y-99603518D01*
X203368928Y-99728000D01*
X203372000Y-99917250D01*
X203530750Y-100076000D01*
X204317500Y-100076000D01*
X204317500Y-100002773D01*
X204327518Y-100005812D01*
X204452000Y-100018072D01*
X204461250Y-100015000D01*
X204571500Y-99904750D01*
X204571500Y-100076000D01*
X204591500Y-100076000D01*
X204591500Y-100330000D01*
X204571500Y-100330000D01*
X204571500Y-100501250D01*
X204461250Y-100391000D01*
X204452000Y-100387928D01*
X204327518Y-100400188D01*
X204317500Y-100403227D01*
X204317500Y-100330000D01*
X203530750Y-100330000D01*
X203372000Y-100488750D01*
X203368928Y-100678000D01*
X203381188Y-100802482D01*
X203417498Y-100922180D01*
X203476463Y-101032494D01*
X203555815Y-101129185D01*
X203652506Y-101208537D01*
X203762820Y-101267502D01*
X203882518Y-101303812D01*
X204007000Y-101316072D01*
X204158750Y-101313000D01*
X204252750Y-101219000D01*
X204620000Y-101219000D01*
X204620000Y-101202750D01*
X204702107Y-101284857D01*
X204696085Y-101346000D01*
X204702107Y-101407143D01*
X204620000Y-101489250D01*
X204620000Y-101473000D01*
X204252750Y-101473000D01*
X204158750Y-101379000D01*
X204007000Y-101375928D01*
X203882518Y-101388188D01*
X203762820Y-101424498D01*
X203652506Y-101483463D01*
X203555815Y-101562815D01*
X203476463Y-101659506D01*
X203417498Y-101769820D01*
X203381188Y-101889518D01*
X203368928Y-102014000D01*
X203372000Y-102203250D01*
X203530750Y-102362000D01*
X204317500Y-102362000D01*
X204317500Y-102288773D01*
X204327518Y-102291812D01*
X204452000Y-102304072D01*
X204461250Y-102301000D01*
X204571500Y-102190750D01*
X204571500Y-102362000D01*
X204591500Y-102362000D01*
X204591500Y-102616000D01*
X204571500Y-102616000D01*
X204571500Y-102787250D01*
X204461250Y-102677000D01*
X204452000Y-102673928D01*
X204327518Y-102686188D01*
X204317500Y-102689227D01*
X204317500Y-102616000D01*
X203530750Y-102616000D01*
X203372000Y-102774750D01*
X203368928Y-102964000D01*
X203381188Y-103088482D01*
X203417498Y-103208180D01*
X203476463Y-103318494D01*
X203555815Y-103415185D01*
X203652506Y-103494537D01*
X203762820Y-103553502D01*
X203812262Y-103568500D01*
X203762820Y-103583498D01*
X203652506Y-103642463D01*
X203555815Y-103721815D01*
X203476463Y-103818506D01*
X203417498Y-103928820D01*
X203381188Y-104048518D01*
X203368928Y-104173000D01*
X203372000Y-104362250D01*
X203530750Y-104521000D01*
X204169464Y-104521000D01*
X204207820Y-104541502D01*
X204327518Y-104577812D01*
X204452000Y-104590072D01*
X204461250Y-104587000D01*
X204571500Y-104476750D01*
X204571500Y-104521000D01*
X204591500Y-104521000D01*
X204591500Y-104775000D01*
X204571500Y-104775000D01*
X204571500Y-105599250D01*
X204650035Y-105677785D01*
X198956820Y-111371000D01*
X188066517Y-111371000D01*
X188059695Y-111358237D01*
X187852378Y-111105622D01*
X187599763Y-110898305D01*
X187311555Y-110744256D01*
X186998832Y-110649393D01*
X186673612Y-110617361D01*
X186348391Y-110649393D01*
X186035669Y-110744256D01*
X185747462Y-110898305D01*
X185558153Y-111053668D01*
X185240821Y-111371000D01*
X178693000Y-111371000D01*
X178693000Y-110718700D01*
X178701903Y-110689351D01*
X178718500Y-110520840D01*
X178718500Y-110520830D01*
X178724048Y-110464501D01*
X178718500Y-110408171D01*
X178718500Y-109415602D01*
X179236999Y-108897103D01*
X179317061Y-108872816D01*
X179516322Y-108766309D01*
X179690975Y-108622975D01*
X179834309Y-108448322D01*
X179940816Y-108249061D01*
X180006403Y-108032851D01*
X180028549Y-107808000D01*
X180006403Y-107583149D01*
X179940816Y-107366939D01*
X179834309Y-107167678D01*
X179690975Y-106993025D01*
X179516322Y-106849691D01*
X179317061Y-106743184D01*
X179100851Y-106677597D01*
X178932340Y-106661000D01*
X178760329Y-106661000D01*
X178704000Y-106655452D01*
X178647670Y-106661000D01*
X178647660Y-106661000D01*
X178479149Y-106677597D01*
X178262939Y-106743184D01*
X178063678Y-106849691D01*
X177889025Y-106993025D01*
X177853108Y-107036790D01*
X177389072Y-107500826D01*
X177389072Y-107197750D01*
X177372608Y-107030592D01*
X177323850Y-106869858D01*
X177244671Y-106721725D01*
X177167143Y-106627256D01*
X177281824Y-106455624D01*
X177367383Y-106249067D01*
X177411000Y-106029788D01*
X177411000Y-105806212D01*
X177367383Y-105586933D01*
X177281824Y-105380376D01*
X177157612Y-105194480D01*
X176999520Y-105036388D01*
X176813624Y-104912176D01*
X176607067Y-104826617D01*
X176387788Y-104783000D01*
X176164212Y-104783000D01*
X175944933Y-104826617D01*
X175738376Y-104912176D01*
X175552480Y-105036388D01*
X175394388Y-105194480D01*
X175270176Y-105380376D01*
X175184617Y-105586933D01*
X175141000Y-105806212D01*
X175141000Y-106029788D01*
X175184617Y-106249067D01*
X175270176Y-106455624D01*
X175384857Y-106627256D01*
X175307329Y-106721725D01*
X175228150Y-106869858D01*
X175179392Y-107030592D01*
X175162928Y-107197750D01*
X175162928Y-107635250D01*
X175179392Y-107802408D01*
X175228150Y-107963142D01*
X175307329Y-108111275D01*
X175325100Y-108132930D01*
X175270463Y-108199506D01*
X175211498Y-108309820D01*
X175175188Y-108429518D01*
X175162928Y-108554000D01*
X175166000Y-108705750D01*
X175324750Y-108864500D01*
X176149000Y-108864500D01*
X176149000Y-108844500D01*
X176403000Y-108844500D01*
X176403000Y-108864500D01*
X176423000Y-108864500D01*
X176423000Y-108899401D01*
X176418952Y-108940500D01*
X176423000Y-108981599D01*
X176423000Y-109118500D01*
X176403000Y-109118500D01*
X176403000Y-109905250D01*
X176424500Y-109926750D01*
X176424500Y-110235804D01*
X176415598Y-110265150D01*
X176393452Y-110490000D01*
X176399001Y-110546339D01*
X176399000Y-113178788D01*
X175828789Y-113749000D01*
X171721180Y-113749000D01*
X167401180Y-109429000D01*
X175162928Y-109429000D01*
X175175188Y-109553482D01*
X175211498Y-109673180D01*
X175270463Y-109783494D01*
X175349815Y-109880185D01*
X175446506Y-109959537D01*
X175556820Y-110018502D01*
X175676518Y-110054812D01*
X175801000Y-110067072D01*
X175990250Y-110064000D01*
X176149000Y-109905250D01*
X176149000Y-109118500D01*
X175324750Y-109118500D01*
X175166000Y-109277250D01*
X175162928Y-109429000D01*
X167401180Y-109429000D01*
X164625460Y-106653280D01*
X164436150Y-106497918D01*
X164147943Y-106343868D01*
X163835220Y-106249005D01*
X163510000Y-106216974D01*
X163184780Y-106249005D01*
X162872057Y-106343868D01*
X162583850Y-106497918D01*
X162331234Y-106705234D01*
X162123918Y-106957850D01*
X161969868Y-107246057D01*
X161875005Y-107558780D01*
X161842974Y-107884000D01*
X161875005Y-108209220D01*
X161969868Y-108521943D01*
X162123918Y-108810150D01*
X162279280Y-108999460D01*
X169406539Y-116126719D01*
X169595848Y-116282082D01*
X169884056Y-116436131D01*
X170196779Y-116530995D01*
X170521999Y-116563026D01*
X170562895Y-116558998D01*
X170599112Y-116595215D01*
X170635025Y-116638975D01*
X170678784Y-116674887D01*
X170678786Y-116674889D01*
X170809677Y-116782309D01*
X170916184Y-116839238D01*
X171008939Y-116888816D01*
X171225149Y-116954403D01*
X171393660Y-116971000D01*
X171393670Y-116971000D01*
X171449999Y-116976548D01*
X171506329Y-116971000D01*
X176727671Y-116971000D01*
X176784000Y-116976548D01*
X176840329Y-116971000D01*
X176840340Y-116971000D01*
X177008851Y-116954403D01*
X177225061Y-116888816D01*
X177424322Y-116782309D01*
X177598975Y-116638975D01*
X177634892Y-116595210D01*
X178828101Y-115402001D01*
X184057929Y-115402001D01*
X184070189Y-115526483D01*
X184106499Y-115646181D01*
X184165464Y-115756495D01*
X184244816Y-115853186D01*
X184341507Y-115932538D01*
X184451821Y-115991503D01*
X184571519Y-116027813D01*
X184696001Y-116040073D01*
X184885251Y-116037001D01*
X185044001Y-115878251D01*
X185044001Y-115091501D01*
X184219751Y-115091501D01*
X184061001Y-115250251D01*
X184057929Y-115402001D01*
X178828101Y-115402001D01*
X179541103Y-114689000D01*
X184071250Y-114689000D01*
X184219751Y-114837501D01*
X185044001Y-114837501D01*
X185044001Y-114817501D01*
X185298001Y-114817501D01*
X185298001Y-114837501D01*
X185318001Y-114837501D01*
X185318001Y-115091501D01*
X185298001Y-115091501D01*
X185298001Y-115878251D01*
X185456751Y-116037001D01*
X185646001Y-116040073D01*
X185770483Y-116027813D01*
X185890181Y-115991503D01*
X186000495Y-115932538D01*
X186097186Y-115853186D01*
X186176538Y-115756495D01*
X186235503Y-115646181D01*
X186269269Y-115534871D01*
X188134397Y-117400000D01*
X153618000Y-117400000D01*
X153618000Y-114333872D01*
X154229000Y-114333872D01*
X154229000Y-114774128D01*
X154314890Y-115205925D01*
X154483369Y-115612669D01*
X154727962Y-115978729D01*
X155039271Y-116290038D01*
X155405331Y-116534631D01*
X155812075Y-116703110D01*
X156243872Y-116789000D01*
X156684128Y-116789000D01*
X157115925Y-116703110D01*
X157522669Y-116534631D01*
X157888729Y-116290038D01*
X158200038Y-115978729D01*
X158444631Y-115612669D01*
X158613110Y-115205925D01*
X158699000Y-114774128D01*
X158699000Y-114333872D01*
X158613110Y-113902075D01*
X158444631Y-113495331D01*
X158200038Y-113129271D01*
X157888729Y-112817962D01*
X157522669Y-112573369D01*
X157115925Y-112404890D01*
X156684128Y-112319000D01*
X156243872Y-112319000D01*
X155812075Y-112404890D01*
X155405331Y-112573369D01*
X155039271Y-112817962D01*
X154727962Y-113129271D01*
X154483369Y-113495331D01*
X154314890Y-113902075D01*
X154229000Y-114333872D01*
X153618000Y-114333872D01*
X153618000Y-105633529D01*
X153628855Y-105649540D01*
X153822939Y-105841028D01*
X154050651Y-105990972D01*
X154303240Y-106093611D01*
X154571000Y-106145000D01*
X155321000Y-106145000D01*
X155321000Y-104887000D01*
X155575000Y-104887000D01*
X155575000Y-106145000D01*
X156325000Y-106145000D01*
X156592760Y-106093611D01*
X156845349Y-105990972D01*
X157073061Y-105841028D01*
X157267145Y-105649540D01*
X157420142Y-105423868D01*
X157526173Y-105172684D01*
X157540318Y-105101185D01*
X157417656Y-104887000D01*
X155575000Y-104887000D01*
X155321000Y-104887000D01*
X155301000Y-104887000D01*
X155301000Y-104633000D01*
X155321000Y-104633000D01*
X155321000Y-103375000D01*
X154571000Y-103375000D01*
X154303240Y-103426389D01*
X154050651Y-103529028D01*
X153822939Y-103678972D01*
X153628855Y-103870460D01*
X153618000Y-103886471D01*
X153618000Y-96673589D01*
X154063000Y-96673589D01*
X154063000Y-96946411D01*
X154116225Y-97213989D01*
X154220629Y-97466043D01*
X154372201Y-97692886D01*
X154565114Y-97885799D01*
X154791957Y-98037371D01*
X155044011Y-98141775D01*
X155311589Y-98195000D01*
X155584411Y-98195000D01*
X155851989Y-98141775D01*
X156104043Y-98037371D01*
X156163000Y-97997977D01*
X156163000Y-98196411D01*
X156216225Y-98463989D01*
X156320629Y-98716043D01*
X156472201Y-98942886D01*
X156589315Y-99060000D01*
X156472201Y-99177114D01*
X156320629Y-99403957D01*
X156216225Y-99656011D01*
X156163000Y-99923589D01*
X156163000Y-100122023D01*
X156104043Y-100082629D01*
X155851989Y-99978225D01*
X155584411Y-99925000D01*
X155311589Y-99925000D01*
X155044011Y-99978225D01*
X154791957Y-100082629D01*
X154565114Y-100234201D01*
X154372201Y-100427114D01*
X154220629Y-100653957D01*
X154116225Y-100906011D01*
X154063000Y-101173589D01*
X154063000Y-101446411D01*
X154116225Y-101713989D01*
X154220629Y-101966043D01*
X154372201Y-102192886D01*
X154565114Y-102385799D01*
X154791957Y-102537371D01*
X155044011Y-102641775D01*
X155311589Y-102695000D01*
X155584411Y-102695000D01*
X155851989Y-102641775D01*
X156104043Y-102537371D01*
X156163000Y-102497977D01*
X156163000Y-102696411D01*
X156216225Y-102963989D01*
X156320629Y-103216043D01*
X156441822Y-103397421D01*
X156325000Y-103375000D01*
X155575000Y-103375000D01*
X155575000Y-104633000D01*
X157417656Y-104633000D01*
X157540318Y-104418815D01*
X157526173Y-104347316D01*
X157420142Y-104096132D01*
X157303042Y-103923408D01*
X157411589Y-103945000D01*
X157684411Y-103945000D01*
X157951989Y-103891775D01*
X158204043Y-103787371D01*
X158430886Y-103635799D01*
X158623799Y-103442886D01*
X158775371Y-103216043D01*
X158879775Y-102963989D01*
X158933000Y-102696411D01*
X158933000Y-102423589D01*
X158888718Y-102200967D01*
X175149000Y-102200967D01*
X175149000Y-102523033D01*
X175211832Y-102838912D01*
X175335082Y-103136463D01*
X175514013Y-103404252D01*
X175741748Y-103631987D01*
X176009537Y-103810918D01*
X176307088Y-103934168D01*
X176622967Y-103997000D01*
X176945033Y-103997000D01*
X177260912Y-103934168D01*
X177558463Y-103810918D01*
X177826252Y-103631987D01*
X178053987Y-103404252D01*
X178232918Y-103136463D01*
X178356168Y-102838912D01*
X178419000Y-102523033D01*
X178419000Y-102200967D01*
X179649000Y-102200967D01*
X179649000Y-102523033D01*
X179711832Y-102838912D01*
X179835082Y-103136463D01*
X180014013Y-103404252D01*
X180241748Y-103631987D01*
X180509537Y-103810918D01*
X180807088Y-103934168D01*
X181122967Y-103997000D01*
X181445033Y-103997000D01*
X181760912Y-103934168D01*
X182058463Y-103810918D01*
X182326252Y-103631987D01*
X182553987Y-103404252D01*
X182732918Y-103136463D01*
X182856168Y-102838912D01*
X182919000Y-102523033D01*
X182919000Y-102200967D01*
X182856168Y-101885088D01*
X182732918Y-101587537D01*
X182553987Y-101319748D01*
X182326252Y-101092013D01*
X182058463Y-100913082D01*
X181760912Y-100789832D01*
X181445033Y-100727000D01*
X181122967Y-100727000D01*
X180807088Y-100789832D01*
X180509537Y-100913082D01*
X180241748Y-101092013D01*
X180014013Y-101319748D01*
X179835082Y-101587537D01*
X179711832Y-101885088D01*
X179649000Y-102200967D01*
X178419000Y-102200967D01*
X178356168Y-101885088D01*
X178232918Y-101587537D01*
X178053987Y-101319748D01*
X177826252Y-101092013D01*
X177558463Y-100913082D01*
X177260912Y-100789832D01*
X176945033Y-100727000D01*
X176622967Y-100727000D01*
X176307088Y-100789832D01*
X176009537Y-100913082D01*
X175741748Y-101092013D01*
X175514013Y-101319748D01*
X175335082Y-101587537D01*
X175211832Y-101885088D01*
X175149000Y-102200967D01*
X158888718Y-102200967D01*
X158879775Y-102156011D01*
X158775371Y-101903957D01*
X158623799Y-101677114D01*
X158430886Y-101484201D01*
X158204043Y-101332629D01*
X158149412Y-101310000D01*
X158204043Y-101287371D01*
X158430886Y-101135799D01*
X158623799Y-100942886D01*
X158775371Y-100716043D01*
X158879775Y-100463989D01*
X158933000Y-100196411D01*
X158933000Y-99923589D01*
X158879775Y-99656011D01*
X158775371Y-99403957D01*
X158623799Y-99177114D01*
X158506685Y-99060000D01*
X158623799Y-98942886D01*
X158775371Y-98716043D01*
X158879775Y-98463989D01*
X158933000Y-98196411D01*
X158933000Y-97923589D01*
X158899864Y-97757000D01*
X160442928Y-97757000D01*
X160455188Y-97881482D01*
X160491498Y-98001180D01*
X160550463Y-98111494D01*
X160629815Y-98208185D01*
X160726506Y-98287537D01*
X160836820Y-98346502D01*
X160956518Y-98382812D01*
X161081000Y-98395072D01*
X161232750Y-98392000D01*
X161391500Y-98233250D01*
X161391500Y-97409000D01*
X160604750Y-97409000D01*
X160446000Y-97567750D01*
X160442928Y-97757000D01*
X158899864Y-97757000D01*
X158879775Y-97656011D01*
X158775371Y-97403957D01*
X158623799Y-97177114D01*
X158430886Y-96984201D01*
X158204043Y-96832629D01*
X158154574Y-96812139D01*
X158164188Y-96807000D01*
X160442928Y-96807000D01*
X160446000Y-96996250D01*
X160604750Y-97155000D01*
X161391500Y-97155000D01*
X161391500Y-96330750D01*
X161645500Y-96330750D01*
X161645500Y-97155000D01*
X161665500Y-97155000D01*
X161665500Y-97409000D01*
X161645500Y-97409000D01*
X161645500Y-98233250D01*
X161804250Y-98392000D01*
X161956000Y-98395072D01*
X162080482Y-98382812D01*
X162200180Y-98346502D01*
X162310494Y-98287537D01*
X162377070Y-98232900D01*
X162398725Y-98250671D01*
X162546858Y-98329850D01*
X162707592Y-98378608D01*
X162874750Y-98395072D01*
X163312250Y-98395072D01*
X163479408Y-98378608D01*
X163640142Y-98329850D01*
X163788275Y-98250671D01*
X163918115Y-98144115D01*
X164024671Y-98014275D01*
X164103850Y-97866142D01*
X164152608Y-97705408D01*
X164169072Y-97538250D01*
X164169072Y-97463663D01*
X164968594Y-96664141D01*
X165186069Y-96620883D01*
X165392626Y-96535324D01*
X165578522Y-96411112D01*
X165736614Y-96253020D01*
X165860826Y-96067124D01*
X165946385Y-95860567D01*
X165990002Y-95641288D01*
X165990002Y-95417712D01*
X165946385Y-95198433D01*
X165860826Y-94991876D01*
X165736614Y-94805980D01*
X165578522Y-94647888D01*
X165392626Y-94523676D01*
X165186069Y-94438117D01*
X164966790Y-94394500D01*
X164743214Y-94394500D01*
X164523935Y-94438117D01*
X164317378Y-94523676D01*
X164131482Y-94647888D01*
X163973390Y-94805980D01*
X163849178Y-94991876D01*
X163763619Y-95198433D01*
X163724831Y-95393434D01*
X162949337Y-96168928D01*
X162874750Y-96168928D01*
X162707592Y-96185392D01*
X162546858Y-96234150D01*
X162398725Y-96313329D01*
X162377070Y-96331100D01*
X162310494Y-96276463D01*
X162200180Y-96217498D01*
X162080482Y-96181188D01*
X161956000Y-96168928D01*
X161804250Y-96172000D01*
X161645500Y-96330750D01*
X161391500Y-96330750D01*
X161232750Y-96172000D01*
X161081000Y-96168928D01*
X160956518Y-96181188D01*
X160836820Y-96217498D01*
X160726506Y-96276463D01*
X160629815Y-96355815D01*
X160550463Y-96452506D01*
X160491498Y-96562820D01*
X160455188Y-96682518D01*
X160442928Y-96807000D01*
X158164188Y-96807000D01*
X158259863Y-96755860D01*
X158325388Y-96516993D01*
X157548000Y-95739605D01*
X157533858Y-95753748D01*
X157354253Y-95574143D01*
X157368395Y-95560000D01*
X157727605Y-95560000D01*
X158504993Y-96337388D01*
X158743860Y-96271863D01*
X158859760Y-96024884D01*
X158925250Y-95760040D01*
X158937812Y-95487508D01*
X158896965Y-95217762D01*
X158804277Y-94961168D01*
X158743860Y-94848137D01*
X158504993Y-94782612D01*
X157727605Y-95560000D01*
X157368395Y-95560000D01*
X157354253Y-95545858D01*
X157533858Y-95366253D01*
X157548000Y-95380395D01*
X158325388Y-94603007D01*
X158259863Y-94364140D01*
X158012884Y-94248240D01*
X157748040Y-94182750D01*
X157475508Y-94170188D01*
X157303259Y-94196271D01*
X157420142Y-94023868D01*
X157526173Y-93772684D01*
X157540318Y-93701185D01*
X157417656Y-93487000D01*
X155575000Y-93487000D01*
X155575000Y-94745000D01*
X156325000Y-94745000D01*
X156516617Y-94708225D01*
X156591005Y-94782613D01*
X156352140Y-94848137D01*
X156236240Y-95095116D01*
X156170750Y-95359960D01*
X156158800Y-95619216D01*
X156104043Y-95582629D01*
X155851989Y-95478225D01*
X155584411Y-95425000D01*
X155311589Y-95425000D01*
X155044011Y-95478225D01*
X154791957Y-95582629D01*
X154565114Y-95734201D01*
X154372201Y-95927114D01*
X154220629Y-96153957D01*
X154116225Y-96406011D01*
X154063000Y-96673589D01*
X153618000Y-96673589D01*
X153618000Y-94233529D01*
X153628855Y-94249540D01*
X153822939Y-94441028D01*
X154050651Y-94590972D01*
X154303240Y-94693611D01*
X154571000Y-94745000D01*
X155321000Y-94745000D01*
X155321000Y-93487000D01*
X155301000Y-93487000D01*
X155301000Y-93233000D01*
X155321000Y-93233000D01*
X155321000Y-91975000D01*
X155575000Y-91975000D01*
X155575000Y-93233000D01*
X157417656Y-93233000D01*
X157540318Y-93018815D01*
X157526173Y-92947316D01*
X157420142Y-92696132D01*
X157267145Y-92470460D01*
X157073061Y-92278972D01*
X156845349Y-92129028D01*
X156592760Y-92026389D01*
X156325000Y-91975000D01*
X155575000Y-91975000D01*
X155321000Y-91975000D01*
X154571000Y-91975000D01*
X154303240Y-92026389D01*
X154050651Y-92129028D01*
X153822939Y-92278972D01*
X153628855Y-92470460D01*
X153618000Y-92486471D01*
X153618000Y-89550212D01*
X157615000Y-89550212D01*
X157615000Y-89773788D01*
X157658617Y-89993067D01*
X157744176Y-90199624D01*
X157868388Y-90385520D01*
X158026480Y-90543612D01*
X158212376Y-90667824D01*
X158418933Y-90753383D01*
X158617741Y-90792928D01*
X158618340Y-90793658D01*
X158753708Y-90904752D01*
X158908148Y-90987302D01*
X158974057Y-91007295D01*
X159075723Y-91038135D01*
X159108923Y-91041405D01*
X159206332Y-91050999D01*
X159206338Y-91050999D01*
X159249998Y-91055299D01*
X159293658Y-91050999D01*
X161739986Y-91050999D01*
X161808176Y-91215624D01*
X161932388Y-91401520D01*
X162090480Y-91559612D01*
X162276376Y-91683824D01*
X162482933Y-91769383D01*
X162702212Y-91813000D01*
X162925788Y-91813000D01*
X163145067Y-91769383D01*
X163351624Y-91683824D01*
X163537520Y-91559612D01*
X163695612Y-91401520D01*
X163819824Y-91215624D01*
X163905383Y-91009067D01*
X163949000Y-90789788D01*
X163949000Y-90773911D01*
X175765000Y-90773911D01*
X175765000Y-90958089D01*
X175800932Y-91138729D01*
X175811000Y-91163036D01*
X175811001Y-92836330D01*
X175806700Y-92880000D01*
X175823864Y-93054274D01*
X175874698Y-93221852D01*
X175895980Y-93261667D01*
X175957248Y-93376291D01*
X176068342Y-93511659D01*
X176102259Y-93539494D01*
X176155814Y-93593049D01*
X176183914Y-93660889D01*
X176286238Y-93814028D01*
X176416472Y-93944262D01*
X176569611Y-94046586D01*
X176739771Y-94117068D01*
X176920411Y-94153000D01*
X177104589Y-94153000D01*
X177285229Y-94117068D01*
X177455389Y-94046586D01*
X177608528Y-93944262D01*
X177738762Y-93814028D01*
X177841086Y-93660889D01*
X177911568Y-93490729D01*
X177947500Y-93310089D01*
X177947500Y-93125911D01*
X177911568Y-92945271D01*
X177841086Y-92775111D01*
X177738762Y-92621972D01*
X177608528Y-92491738D01*
X177589000Y-92478690D01*
X177589000Y-91532668D01*
X177631659Y-91497659D01*
X177659499Y-91463736D01*
X179318581Y-89804654D01*
X179342889Y-89794586D01*
X179496028Y-89692262D01*
X179626262Y-89562028D01*
X179728586Y-89408889D01*
X179799068Y-89238729D01*
X179835000Y-89058089D01*
X179835000Y-88873911D01*
X179799068Y-88693271D01*
X179728586Y-88523111D01*
X179626262Y-88369972D01*
X179496028Y-88239738D01*
X179342889Y-88137414D01*
X179172729Y-88066932D01*
X178992089Y-88031000D01*
X178807911Y-88031000D01*
X178627271Y-88066932D01*
X178457111Y-88137414D01*
X178303972Y-88239738D01*
X178173738Y-88369972D01*
X178071414Y-88523111D01*
X178061346Y-88547419D01*
X176677765Y-89931000D01*
X176607911Y-89931000D01*
X176427271Y-89966932D01*
X176257111Y-90037414D01*
X176103972Y-90139738D01*
X175973738Y-90269972D01*
X175871414Y-90423111D01*
X175800932Y-90593271D01*
X175765000Y-90773911D01*
X163949000Y-90773911D01*
X163949000Y-90566212D01*
X163905383Y-90346933D01*
X163819824Y-90140376D01*
X163695612Y-89954480D01*
X163537520Y-89796388D01*
X163351624Y-89672176D01*
X163145067Y-89586617D01*
X162942830Y-89546390D01*
X162929658Y-89530340D01*
X162794290Y-89419246D01*
X162639850Y-89336696D01*
X162472273Y-89285863D01*
X162341666Y-89272999D01*
X162341659Y-89272999D01*
X162297999Y-89268699D01*
X162254339Y-89272999D01*
X159817386Y-89272999D01*
X159755824Y-89124376D01*
X159631612Y-88938480D01*
X159501043Y-88807911D01*
X174579000Y-88807911D01*
X174579000Y-88992089D01*
X174614932Y-89172729D01*
X174685414Y-89342889D01*
X174787738Y-89496028D01*
X174917972Y-89626262D01*
X175071111Y-89728586D01*
X175241271Y-89799068D01*
X175421911Y-89835000D01*
X175606089Y-89835000D01*
X175786729Y-89799068D01*
X175956889Y-89728586D01*
X176110028Y-89626262D01*
X176240262Y-89496028D01*
X176342586Y-89342889D01*
X176413068Y-89172729D01*
X176449000Y-88992089D01*
X176449000Y-88807911D01*
X176413068Y-88627271D01*
X176403000Y-88602964D01*
X176403000Y-88252235D01*
X177406236Y-87249000D01*
X179463765Y-87249000D01*
X181114765Y-88900000D01*
X181063259Y-88951506D01*
X181029342Y-88979341D01*
X181001507Y-89013258D01*
X181001505Y-89013260D01*
X180918248Y-89114709D01*
X180835698Y-89269148D01*
X180784864Y-89436726D01*
X180767700Y-89611000D01*
X180772001Y-89654670D01*
X180772000Y-91654159D01*
X177830199Y-94595960D01*
X177826252Y-94592013D01*
X177558463Y-94413082D01*
X177260912Y-94289832D01*
X176945033Y-94227000D01*
X176622967Y-94227000D01*
X176307088Y-94289832D01*
X176009537Y-94413082D01*
X175741748Y-94592013D01*
X175514013Y-94819748D01*
X175335082Y-95087537D01*
X175211832Y-95385088D01*
X175149000Y-95700967D01*
X175149000Y-96023033D01*
X175211832Y-96338912D01*
X175335082Y-96636463D01*
X175514013Y-96904252D01*
X175741748Y-97131987D01*
X176009537Y-97310918D01*
X176307088Y-97434168D01*
X176622967Y-97497000D01*
X176945033Y-97497000D01*
X177260912Y-97434168D01*
X177558463Y-97310918D01*
X177826252Y-97131987D01*
X178053987Y-96904252D01*
X178072981Y-96875825D01*
X178200171Y-96863298D01*
X178391687Y-96805202D01*
X178568190Y-96710860D01*
X178722896Y-96583896D01*
X178754712Y-96545128D01*
X179661447Y-95638394D01*
X179649000Y-95700967D01*
X179649000Y-96023033D01*
X179711832Y-96338912D01*
X179835082Y-96636463D01*
X180014013Y-96904252D01*
X180241748Y-97131987D01*
X180509537Y-97310918D01*
X180807088Y-97434168D01*
X181122967Y-97497000D01*
X181445033Y-97497000D01*
X181760912Y-97434168D01*
X182058463Y-97310918D01*
X182326252Y-97131987D01*
X182553987Y-96904252D01*
X182732918Y-96636463D01*
X182856168Y-96338912D01*
X182919000Y-96023033D01*
X182919000Y-95700967D01*
X182856168Y-95385088D01*
X182732918Y-95087537D01*
X182553987Y-94819748D01*
X182326252Y-94592013D01*
X182058463Y-94413082D01*
X181760912Y-94289832D01*
X181445033Y-94227000D01*
X181122967Y-94227000D01*
X181060394Y-94239446D01*
X181099840Y-94200000D01*
X184085928Y-94200000D01*
X184085928Y-96300000D01*
X184098188Y-96424482D01*
X184134498Y-96544180D01*
X184193463Y-96654494D01*
X184272815Y-96751185D01*
X184369506Y-96830537D01*
X184479820Y-96889502D01*
X184599518Y-96925812D01*
X184724000Y-96938072D01*
X186624000Y-96938072D01*
X186748482Y-96925812D01*
X186868180Y-96889502D01*
X186978494Y-96830537D01*
X187075185Y-96751185D01*
X187154537Y-96654494D01*
X187200440Y-96568617D01*
X187329161Y-96674256D01*
X187604512Y-96821434D01*
X187903286Y-96912066D01*
X188214000Y-96942669D01*
X188524713Y-96912066D01*
X188823487Y-96821434D01*
X189098838Y-96674256D01*
X189340187Y-96476187D01*
X189484000Y-96300950D01*
X189627813Y-96476187D01*
X189869161Y-96674256D01*
X190144512Y-96821434D01*
X190443286Y-96912066D01*
X190754000Y-96942669D01*
X190895857Y-96928697D01*
X194310001Y-100342842D01*
X194310001Y-101553385D01*
X194178839Y-101445744D01*
X193903488Y-101298566D01*
X193604714Y-101207934D01*
X193294000Y-101177331D01*
X192983287Y-101207934D01*
X192684513Y-101298566D01*
X192409162Y-101445744D01*
X192167813Y-101643813D01*
X192024000Y-101819050D01*
X191880187Y-101643813D01*
X191638839Y-101445744D01*
X191363488Y-101298566D01*
X191064714Y-101207934D01*
X190754000Y-101177331D01*
X190443287Y-101207934D01*
X190144513Y-101298566D01*
X189869162Y-101445744D01*
X189627813Y-101643813D01*
X189484000Y-101819050D01*
X189340187Y-101643813D01*
X189098839Y-101445744D01*
X188823488Y-101298566D01*
X188524714Y-101207934D01*
X188214000Y-101177331D01*
X187903287Y-101207934D01*
X187604513Y-101298566D01*
X187329162Y-101445744D01*
X187087813Y-101643813D01*
X186944000Y-101819050D01*
X186800187Y-101643813D01*
X186558839Y-101445744D01*
X186283488Y-101298566D01*
X185984714Y-101207934D01*
X185674000Y-101177331D01*
X185363287Y-101207934D01*
X185064513Y-101298566D01*
X184789162Y-101445744D01*
X184547813Y-101643813D01*
X184349744Y-101885161D01*
X184202566Y-102160512D01*
X184111934Y-102459286D01*
X184089000Y-102692136D01*
X184089000Y-103047863D01*
X184111934Y-103280713D01*
X184202566Y-103579487D01*
X184349744Y-103854838D01*
X184547813Y-104096187D01*
X184789161Y-104294256D01*
X185064512Y-104441434D01*
X185363286Y-104532066D01*
X185674000Y-104562669D01*
X185984713Y-104532066D01*
X186283487Y-104441434D01*
X186558838Y-104294256D01*
X186800187Y-104096187D01*
X186944000Y-103920950D01*
X187087813Y-104096187D01*
X187329161Y-104294256D01*
X187604512Y-104441434D01*
X187903286Y-104532066D01*
X188214000Y-104562669D01*
X188524713Y-104532066D01*
X188823487Y-104441434D01*
X189098838Y-104294256D01*
X189340187Y-104096187D01*
X189484000Y-103920950D01*
X189627813Y-104096187D01*
X189869161Y-104294256D01*
X190144512Y-104441434D01*
X190443286Y-104532066D01*
X190754000Y-104562669D01*
X191064713Y-104532066D01*
X191363487Y-104441434D01*
X191638838Y-104294256D01*
X191880187Y-104096187D01*
X192024000Y-103920950D01*
X192167813Y-104096187D01*
X192409161Y-104294256D01*
X192684512Y-104441434D01*
X192983286Y-104532066D01*
X193294000Y-104562669D01*
X193604713Y-104532066D01*
X193903487Y-104441434D01*
X194178838Y-104294256D01*
X194310000Y-104186615D01*
X194310000Y-104388943D01*
X194234617Y-104570933D01*
X194191000Y-104790212D01*
X194191000Y-105013788D01*
X194234617Y-105233067D01*
X194320176Y-105439624D01*
X194444388Y-105625520D01*
X194602480Y-105783612D01*
X194788376Y-105907824D01*
X194994933Y-105993383D01*
X195214212Y-106037000D01*
X195437788Y-106037000D01*
X195657067Y-105993383D01*
X195863624Y-105907824D01*
X196049520Y-105783612D01*
X196207612Y-105625520D01*
X196331824Y-105439624D01*
X196417383Y-105233067D01*
X196439276Y-105123000D01*
X203368928Y-105123000D01*
X203381188Y-105247482D01*
X203417498Y-105367180D01*
X203476463Y-105477494D01*
X203555815Y-105574185D01*
X203652506Y-105653537D01*
X203762820Y-105712502D01*
X203882518Y-105748812D01*
X204007000Y-105761072D01*
X204158750Y-105758000D01*
X204317500Y-105599250D01*
X204317500Y-104775000D01*
X203530750Y-104775000D01*
X203372000Y-104933750D01*
X203368928Y-105123000D01*
X196439276Y-105123000D01*
X196461000Y-105013788D01*
X196461000Y-104790212D01*
X196417383Y-104570933D01*
X196342000Y-104388943D01*
X196342000Y-99971893D01*
X196346914Y-99921999D01*
X196342000Y-99872105D01*
X196342000Y-99872098D01*
X196327298Y-99722829D01*
X196325133Y-99715690D01*
X196297373Y-99624180D01*
X196269202Y-99531313D01*
X196174860Y-99354810D01*
X196047896Y-99200104D01*
X196009133Y-99168292D01*
X194409841Y-97569000D01*
X203368928Y-97569000D01*
X203372000Y-97758250D01*
X203530750Y-97917000D01*
X204317500Y-97917000D01*
X204317500Y-97092750D01*
X204158750Y-96934000D01*
X204007000Y-96930928D01*
X203882518Y-96943188D01*
X203762820Y-96979498D01*
X203652506Y-97038463D01*
X203555815Y-97117815D01*
X203476463Y-97214506D01*
X203417498Y-97324820D01*
X203381188Y-97444518D01*
X203368928Y-97569000D01*
X194409841Y-97569000D01*
X193718415Y-96877575D01*
X193903487Y-96821434D01*
X194178838Y-96674256D01*
X194420187Y-96476187D01*
X194618256Y-96234839D01*
X194765434Y-95959488D01*
X194856066Y-95660714D01*
X194879000Y-95427864D01*
X194879000Y-95072137D01*
X194865942Y-94939553D01*
X214880158Y-94939553D01*
X216121000Y-96180395D01*
X217361842Y-94939553D01*
X217217865Y-94634230D01*
X216860108Y-94453403D01*
X216473947Y-94345845D01*
X216074223Y-94315690D01*
X215676296Y-94364096D01*
X215295460Y-94489205D01*
X215024135Y-94634230D01*
X214880158Y-94939553D01*
X194865942Y-94939553D01*
X194856066Y-94839287D01*
X194765434Y-94540513D01*
X194618256Y-94265161D01*
X194420187Y-94023813D01*
X194178839Y-93825744D01*
X193903488Y-93678566D01*
X193604714Y-93587934D01*
X193294000Y-93557331D01*
X192983287Y-93587934D01*
X192684513Y-93678566D01*
X192409162Y-93825744D01*
X192167813Y-94023813D01*
X192024000Y-94199050D01*
X191880187Y-94023813D01*
X191638839Y-93825744D01*
X191363488Y-93678566D01*
X191064714Y-93587934D01*
X190754000Y-93557331D01*
X190443287Y-93587934D01*
X190144513Y-93678566D01*
X189869162Y-93825744D01*
X189627813Y-94023813D01*
X189484000Y-94199050D01*
X189340187Y-94023813D01*
X189098839Y-93825744D01*
X188823488Y-93678566D01*
X188524714Y-93587934D01*
X188214000Y-93557331D01*
X187903287Y-93587934D01*
X187604513Y-93678566D01*
X187329162Y-93825744D01*
X187200440Y-93931383D01*
X187154537Y-93845506D01*
X187075185Y-93748815D01*
X186978494Y-93669463D01*
X186868180Y-93610498D01*
X186748482Y-93574188D01*
X186624000Y-93561928D01*
X184724000Y-93561928D01*
X184599518Y-93574188D01*
X184479820Y-93610498D01*
X184369506Y-93669463D01*
X184272815Y-93748815D01*
X184193463Y-93845506D01*
X184134498Y-93955820D01*
X184098188Y-94075518D01*
X184085928Y-94200000D01*
X181099840Y-94200000D01*
X182414706Y-92885135D01*
X182509860Y-92769190D01*
X182604202Y-92592687D01*
X182662298Y-92401171D01*
X182681915Y-92202000D01*
X182662298Y-92002829D01*
X182604202Y-91811313D01*
X182550000Y-91709908D01*
X182550000Y-89979235D01*
X182790581Y-89738655D01*
X182814889Y-89728586D01*
X182968028Y-89626262D01*
X183098262Y-89496028D01*
X183200586Y-89342889D01*
X183271068Y-89172729D01*
X183307000Y-88992089D01*
X183307000Y-88807911D01*
X183271068Y-88627271D01*
X183200586Y-88457111D01*
X183098262Y-88303972D01*
X182968028Y-88173738D01*
X182814889Y-88071414D01*
X182790581Y-88061346D01*
X180491499Y-85762264D01*
X180463659Y-85728341D01*
X180328291Y-85617247D01*
X180173851Y-85534697D01*
X180006274Y-85483864D01*
X179875667Y-85471000D01*
X179875660Y-85471000D01*
X179832000Y-85466700D01*
X179788340Y-85471000D01*
X177081659Y-85471000D01*
X177037999Y-85466700D01*
X176994339Y-85471000D01*
X176994333Y-85471000D01*
X176896924Y-85480594D01*
X176863724Y-85483864D01*
X176762058Y-85514704D01*
X176696149Y-85534697D01*
X176541709Y-85617247D01*
X176406341Y-85728341D01*
X176378506Y-85762259D01*
X174916259Y-87224506D01*
X174882342Y-87252341D01*
X174854507Y-87286258D01*
X174854505Y-87286260D01*
X174771248Y-87387709D01*
X174688698Y-87542148D01*
X174637864Y-87709726D01*
X174620700Y-87884000D01*
X174625001Y-87927669D01*
X174625000Y-88602964D01*
X174614932Y-88627271D01*
X174579000Y-88807911D01*
X159501043Y-88807911D01*
X159473520Y-88780388D01*
X159287624Y-88656176D01*
X159081067Y-88570617D01*
X158861788Y-88527000D01*
X158638212Y-88527000D01*
X158418933Y-88570617D01*
X158212376Y-88656176D01*
X158026480Y-88780388D01*
X157868388Y-88938480D01*
X157744176Y-89124376D01*
X157658617Y-89330933D01*
X157615000Y-89550212D01*
X153618000Y-89550212D01*
X153618000Y-83671742D01*
X159096715Y-83671742D01*
X159165904Y-83954745D01*
X159288975Y-84218812D01*
X159461198Y-84453795D01*
X159675954Y-84650664D01*
X159924991Y-84801854D01*
X160198739Y-84901554D01*
X160211110Y-84903476D01*
X160441000Y-84782155D01*
X160441000Y-83439000D01*
X159240768Y-83439000D01*
X159096715Y-83671742D01*
X153618000Y-83671742D01*
X153618000Y-82952258D01*
X159096715Y-82952258D01*
X159240768Y-83185000D01*
X160441000Y-83185000D01*
X160441000Y-81841845D01*
X160695000Y-81841845D01*
X160695000Y-83185000D01*
X160715000Y-83185000D01*
X160715000Y-83439000D01*
X160695000Y-83439000D01*
X160695000Y-84782155D01*
X160924890Y-84903476D01*
X160937261Y-84901554D01*
X161211009Y-84801854D01*
X161460046Y-84650664D01*
X161674802Y-84453795D01*
X161675086Y-84453407D01*
X161729595Y-84555386D01*
X161840038Y-84689962D01*
X161974614Y-84800405D01*
X162128150Y-84882472D01*
X162294746Y-84933008D01*
X162468000Y-84950072D01*
X163668000Y-84950072D01*
X163841254Y-84933008D01*
X164007850Y-84882472D01*
X164161386Y-84800405D01*
X164295962Y-84689962D01*
X164406405Y-84555386D01*
X164488472Y-84401850D01*
X164539008Y-84235254D01*
X164556072Y-84062000D01*
X164556072Y-83853872D01*
X185725000Y-83853872D01*
X185725000Y-84294128D01*
X185810890Y-84725925D01*
X185979369Y-85132669D01*
X186223962Y-85498729D01*
X186535271Y-85810038D01*
X186901331Y-86054631D01*
X187308075Y-86223110D01*
X187739872Y-86309000D01*
X188180128Y-86309000D01*
X188611925Y-86223110D01*
X189018669Y-86054631D01*
X189384729Y-85810038D01*
X189696038Y-85498729D01*
X189940631Y-85132669D01*
X190109110Y-84725925D01*
X190195000Y-84294128D01*
X190195000Y-83853872D01*
X190109110Y-83422075D01*
X189940631Y-83015331D01*
X189696038Y-82649271D01*
X189384729Y-82337962D01*
X189018669Y-82093369D01*
X188611925Y-81924890D01*
X188180128Y-81839000D01*
X187739872Y-81839000D01*
X187308075Y-81924890D01*
X186901331Y-82093369D01*
X186535271Y-82337962D01*
X186223962Y-82649271D01*
X185979369Y-83015331D01*
X185810890Y-83422075D01*
X185725000Y-83853872D01*
X164556072Y-83853872D01*
X164556072Y-82562000D01*
X164539008Y-82388746D01*
X164488472Y-82222150D01*
X164406405Y-82068614D01*
X164295962Y-81934038D01*
X164161386Y-81823595D01*
X164007850Y-81741528D01*
X163841254Y-81690992D01*
X163668000Y-81673928D01*
X162468000Y-81673928D01*
X162294746Y-81690992D01*
X162128150Y-81741528D01*
X161974614Y-81823595D01*
X161840038Y-81934038D01*
X161729595Y-82068614D01*
X161675086Y-82170593D01*
X161674802Y-82170205D01*
X161460046Y-81973336D01*
X161211009Y-81822146D01*
X160937261Y-81722446D01*
X160924890Y-81720524D01*
X160695000Y-81841845D01*
X160441000Y-81841845D01*
X160211110Y-81720524D01*
X160198739Y-81722446D01*
X159924991Y-81822146D01*
X159675954Y-81973336D01*
X159461198Y-82170205D01*
X159288975Y-82405188D01*
X159165904Y-82669255D01*
X159096715Y-82952258D01*
X153618000Y-82952258D01*
X153618000Y-80810000D01*
X222810000Y-80810000D01*
X222810000Y-94891392D01*
G36*
X204699750Y-103568500D02*
G01*
X204600000Y-103668250D01*
X204600000Y-103505000D01*
X204620000Y-103505000D01*
X204620000Y-103488750D01*
X204699750Y-103568500D01*
X204699750Y-103568500D01*
G37*
X204699750Y-103568500D02*
X204600000Y-103668250D01*
X204600000Y-103505000D01*
X204620000Y-103505000D01*
X204620000Y-103488750D01*
X204699750Y-103568500D01*
G36*
X204677109Y-99100859D02*
G01*
X204681169Y-99142081D01*
X204620000Y-99203250D01*
X204620000Y-99187000D01*
X204600000Y-99187000D01*
X204600000Y-99023750D01*
X204677109Y-99100859D01*
X204677109Y-99100859D01*
G37*
X204677109Y-99100859D02*
X204681169Y-99142081D01*
X204620000Y-99203250D01*
X204620000Y-99187000D01*
X204600000Y-99187000D01*
X204600000Y-99023750D01*
X204677109Y-99100859D01*
M02*
