M48
METRIC,TZ
T1C0.400
T2C0.600
T3C1.000
T4C1.100
T5C1.500
T6C1.600
T7C1.200
T8C3.200
%
G90
G05
T1
X175514Y-88900
X175768Y-113815
X176700Y-89916
X176700Y-90866
X177013Y-93218
X178029Y-87630
X178900Y-88966
X181661Y-92202
X182372Y-88900
X184681Y-110998
X185928Y-113030
X202184Y-99060
X202184Y-101346
X202184Y-103632
X202934Y-99060
X202934Y-101346
X202934Y-103632
X207530Y-99060
X207530Y-101346
X207530Y-103632
X208280Y-99060
X208280Y-101346
X208280Y-103632
T2
X156580Y-83936
X158750Y-89662
X159004Y-87122
X159232Y-91161
X161290Y-108204
X161569Y-97765
X162814Y-90678
X163510Y-107884
X164855Y-95529
X166116Y-103886
X168402Y-98806
X170434Y-112268
X172466Y-112776
X174523Y-113575
X175260Y-114896
X176276Y-105918
X176276Y-110490
X176311Y-114889
X177571Y-110465
X178876Y-107808
X183896Y-110998
X186674Y-112267
X189196Y-116840
X195326Y-104902
X204444Y-97233
X204444Y-105436
X206019Y-97233
X206019Y-105482
T3
X185674Y-95250
X185674Y-102870
X188214Y-95250
X188214Y-102870
X190754Y-95250
X190754Y-102870
X193294Y-95250
X193294Y-102870
X160568Y-83312
X163068Y-83312
X157548Y-95560
X157548Y-98060
X157548Y-100060
X157548Y-102560
T4
X176784Y-95862
X176784Y-102362
X181284Y-95862
X181284Y-102362
T5
X218821Y-99060
T6
X216121Y-96360
X216121Y-101760
X221521Y-96360
X221521Y-101760
T7
X155448Y-96810
X155448Y-101310
T8
X156464Y-114554
X219964Y-114554
X187960Y-84074
T3
G00X156198Y-93360
M15
G01X154698Y-93360
M16
G05
G00X156198Y-104760
M15
G01X154698Y-104760
M16
G05
T0
M30
